G04 #@! TF.GenerationSoftware,KiCad,Pcbnew,(5.1.5-0-10_14)*
G04 #@! TF.CreationDate,2020-01-27T09:04:13+02:00*
G04 #@! TF.ProjectId,Focaccia-Board_v.0.1,466f6361-6363-4696-912d-426f6172645f,rev?*
G04 #@! TF.SameCoordinates,Original*
G04 #@! TF.FileFunction,Copper,L2,Bot*
G04 #@! TF.FilePolarity,Positive*
%FSLAX46Y46*%
G04 Gerber Fmt 4.6, Leading zero omitted, Abs format (unit mm)*
G04 Created by KiCad (PCBNEW (5.1.5-0-10_14)) date 2020-01-27 09:04:13*
%MOMM*%
%LPD*%
G04 APERTURE LIST*
%ADD10O,2.400000X1.600000*%
%ADD11R,2.400000X1.600000*%
%ADD12C,2.200000*%
%ADD13R,2.200000X2.200000*%
%ADD14R,1.700000X1.700000*%
%ADD15O,1.700000X1.700000*%
%ADD16C,4.400000*%
%ADD17C,0.700000*%
%ADD18C,0.800000*%
%ADD19C,0.250000*%
%ADD20C,0.500000*%
%ADD21C,0.254000*%
G04 APERTURE END LIST*
D10*
X178420000Y-70600000D03*
X170800000Y-78220000D03*
X178420000Y-73140000D03*
X170800000Y-75680000D03*
X178420000Y-75680000D03*
X170800000Y-73140000D03*
X178420000Y-78220000D03*
D11*
X170800000Y-70600000D03*
D12*
X124360000Y-109800000D03*
X121820000Y-109800000D03*
X119280000Y-109800000D03*
X116740000Y-109800000D03*
X114200000Y-109800000D03*
X111660000Y-109800000D03*
X109120000Y-109800000D03*
X106580000Y-109800000D03*
X104040000Y-109800000D03*
D13*
X101500000Y-109800000D03*
D12*
X179860000Y-109750000D03*
X177320000Y-109750000D03*
X174780000Y-109750000D03*
X172240000Y-109750000D03*
X169700000Y-109750000D03*
X167160000Y-109750000D03*
X164620000Y-109750000D03*
X162080000Y-109750000D03*
X159540000Y-109750000D03*
D13*
X157000000Y-109750000D03*
D14*
X157000000Y-95200000D03*
D15*
X159540000Y-95200000D03*
X162080000Y-95200000D03*
X164620000Y-95200000D03*
X167160000Y-95200000D03*
X169700000Y-95200000D03*
X172240000Y-95200000D03*
X174780000Y-95200000D03*
X177320000Y-95200000D03*
X179860000Y-95200000D03*
D14*
X157000000Y-103950000D03*
D15*
X157000000Y-101410000D03*
X159540000Y-103950000D03*
X159540000Y-101410000D03*
X162080000Y-103950000D03*
X162080000Y-101410000D03*
X164620000Y-103950000D03*
X164620000Y-101410000D03*
X167160000Y-103950000D03*
X167160000Y-101410000D03*
X169700000Y-103950000D03*
X169700000Y-101410000D03*
X172240000Y-103950000D03*
X172240000Y-101410000D03*
X174780000Y-103950000D03*
X174780000Y-101410000D03*
X177320000Y-103950000D03*
X177320000Y-101410000D03*
X179860000Y-103950000D03*
X179860000Y-101410000D03*
D14*
X157000000Y-88600000D03*
D15*
X159540000Y-88600000D03*
X162080000Y-88600000D03*
X164620000Y-88600000D03*
X167160000Y-88600000D03*
X169700000Y-88600000D03*
X172240000Y-88600000D03*
X174780000Y-88600000D03*
X177320000Y-88600000D03*
X179860000Y-88600000D03*
X124360000Y-101460000D03*
X124360000Y-104000000D03*
X121820000Y-101460000D03*
X121820000Y-104000000D03*
X119280000Y-101460000D03*
X119280000Y-104000000D03*
X116740000Y-101460000D03*
X116740000Y-104000000D03*
X114200000Y-101460000D03*
X114200000Y-104000000D03*
X111660000Y-101460000D03*
X111660000Y-104000000D03*
X109120000Y-101460000D03*
X109120000Y-104000000D03*
X106580000Y-101460000D03*
X106580000Y-104000000D03*
X104040000Y-101460000D03*
X104040000Y-104000000D03*
X101500000Y-101460000D03*
D14*
X101500000Y-104000000D03*
D15*
X124360000Y-88650000D03*
X121820000Y-88650000D03*
X119280000Y-88650000D03*
X116740000Y-88650000D03*
X114200000Y-88650000D03*
X111660000Y-88650000D03*
X109120000Y-88650000D03*
X106580000Y-88650000D03*
X104040000Y-88650000D03*
D14*
X101500000Y-88650000D03*
D15*
X124360000Y-95250000D03*
X121820000Y-95250000D03*
X119280000Y-95250000D03*
X116740000Y-95250000D03*
X114200000Y-95250000D03*
X111660000Y-95250000D03*
X109120000Y-95250000D03*
X106580000Y-95250000D03*
X104040000Y-95250000D03*
D14*
X101500000Y-95250000D03*
D16*
X186700000Y-109900000D03*
D17*
X188350000Y-109900000D03*
X187866726Y-111066726D03*
X186700000Y-111550000D03*
X185533274Y-111066726D03*
X185050000Y-109900000D03*
X185533274Y-108733274D03*
X186700000Y-108250000D03*
X187866726Y-108733274D03*
D16*
X95300000Y-109900000D03*
D17*
X96950000Y-109900000D03*
X96466726Y-111066726D03*
X95300000Y-111550000D03*
X94133274Y-111066726D03*
X93650000Y-109900000D03*
X94133274Y-108733274D03*
X95300000Y-108250000D03*
X96466726Y-108733274D03*
D16*
X95300000Y-18500000D03*
D17*
X96950000Y-18500000D03*
X96466726Y-19666726D03*
X95300000Y-20150000D03*
X94133274Y-19666726D03*
X93650000Y-18500000D03*
X94133274Y-17333274D03*
X95300000Y-16850000D03*
X96466726Y-17333274D03*
X187866726Y-17333274D03*
X186700000Y-16850000D03*
X185533274Y-17333274D03*
X185050000Y-18500000D03*
X185533274Y-19666726D03*
X186700000Y-20150000D03*
X187866726Y-19666726D03*
X188350000Y-18500000D03*
D16*
X186700000Y-18500000D03*
D15*
X143730000Y-62600000D03*
X141190000Y-62600000D03*
D14*
X138650000Y-62600000D03*
D15*
X103480000Y-43300000D03*
X106020000Y-43300000D03*
X108560000Y-43300000D03*
D14*
X111100000Y-43300000D03*
D15*
X103500000Y-32360000D03*
X103500000Y-29820000D03*
X103500000Y-27280000D03*
X103500000Y-24740000D03*
D14*
X103500000Y-22200000D03*
X111100000Y-52700000D03*
D15*
X108560000Y-52700000D03*
X106020000Y-52700000D03*
X103480000Y-52700000D03*
X115800000Y-34890000D03*
X115800000Y-32350000D03*
X115800000Y-29810000D03*
X115800000Y-27270000D03*
X115800000Y-24730000D03*
X115800000Y-22190000D03*
D14*
X115800000Y-19650000D03*
D15*
X108050000Y-64940000D03*
D14*
X108050000Y-62400000D03*
X118550000Y-62400000D03*
D15*
X118550000Y-64940000D03*
X118550000Y-75960000D03*
D14*
X118550000Y-78500000D03*
X108050000Y-78500000D03*
D15*
X108050000Y-75960000D03*
D14*
X128500000Y-26650000D03*
D15*
X128500000Y-29190000D03*
X128500000Y-31730000D03*
X128500000Y-34270000D03*
X128500000Y-36810000D03*
X128500000Y-39350000D03*
X128500000Y-41890000D03*
X128500000Y-44430000D03*
X128500000Y-46970000D03*
X128500000Y-49510000D03*
X153500000Y-49510000D03*
X153500000Y-46970000D03*
X153500000Y-44430000D03*
X153500000Y-41890000D03*
X153500000Y-39350000D03*
X153500000Y-36810000D03*
X153500000Y-34270000D03*
X153500000Y-31730000D03*
X153500000Y-29190000D03*
D14*
X153500000Y-26650000D03*
X137500000Y-55500000D03*
D15*
X140040000Y-55500000D03*
X142580000Y-55500000D03*
X145120000Y-55500000D03*
D14*
X180800000Y-40100000D03*
D15*
X180800000Y-37560000D03*
X180800000Y-35020000D03*
X180800000Y-32480000D03*
X180800000Y-29940000D03*
X180800000Y-27400000D03*
X169200000Y-36870000D03*
X169200000Y-39410000D03*
D14*
X169200000Y-41950000D03*
X169400000Y-30150000D03*
D15*
X169400000Y-27610000D03*
X169400000Y-25070000D03*
D14*
X136160000Y-78190000D03*
D15*
X136160000Y-75650000D03*
X138700000Y-78190000D03*
X138700000Y-75650000D03*
X141240000Y-78190000D03*
X141240000Y-75650000D03*
X143780000Y-78190000D03*
X143780000Y-75650000D03*
X146320000Y-78190000D03*
X146320000Y-75650000D03*
D14*
X155250000Y-62650000D03*
D15*
X152710000Y-62650000D03*
D18*
X102630000Y-37050000D03*
X104800000Y-37050000D03*
X107800000Y-40100000D03*
X109150000Y-31050000D03*
X131850000Y-38050000D03*
X157050000Y-80800000D03*
X141300000Y-27800000D03*
X135600000Y-42050000D03*
X112500000Y-65665000D03*
X113250000Y-63300000D03*
X142550000Y-81800000D03*
X133300000Y-37200000D03*
X164350000Y-60850000D03*
X164450000Y-39450000D03*
X162798959Y-72751041D03*
D19*
X102630000Y-37050000D02*
X104800000Y-37050000D01*
X111000000Y-43300000D02*
X111100000Y-43300000D01*
X107800000Y-40100000D02*
X111000000Y-43300000D01*
D20*
X140889999Y-54650001D02*
X140040000Y-55500000D01*
X141340001Y-54199999D02*
X140889999Y-54650001D01*
X150734003Y-54199999D02*
X141340001Y-54199999D01*
X169400000Y-31500000D02*
X157300000Y-43600000D01*
X157300000Y-47634002D02*
X150734003Y-54199999D01*
X157300000Y-43600000D02*
X157300000Y-47634002D01*
X169400000Y-30150000D02*
X169400000Y-31500000D01*
X140040000Y-58910000D02*
X143730000Y-62600000D01*
X140040000Y-55500000D02*
X140040000Y-58910000D01*
D19*
X110450000Y-32350000D02*
X115800000Y-32350000D01*
X109150000Y-31050000D02*
X110450000Y-32350000D01*
X154349999Y-38500001D02*
X153500000Y-39350000D01*
X115800000Y-32350000D02*
X117002081Y-32350000D01*
X131604001Y-35634999D02*
X154064001Y-35634999D01*
X154675001Y-36245999D02*
X154675001Y-38174999D01*
X154064001Y-35634999D02*
X154675001Y-36245999D01*
X129064001Y-38174999D02*
X131604001Y-35634999D01*
X122827080Y-38174999D02*
X129064001Y-38174999D01*
X117002081Y-32350000D02*
X122827080Y-38174999D01*
X154675001Y-38174999D02*
X154349999Y-38500001D01*
X131850000Y-39373002D02*
X135251999Y-42775001D01*
X152650001Y-37659999D02*
X153500000Y-36810000D01*
X131850000Y-38050000D02*
X131850000Y-39373002D01*
X147534999Y-42775001D02*
X152650001Y-37659999D01*
X135251999Y-42775001D02*
X147534999Y-42775001D01*
X106020000Y-42097919D02*
X106020000Y-43300000D01*
X106020000Y-30230998D02*
X106020000Y-42097919D01*
X115800000Y-20450998D02*
X106020000Y-30230998D01*
X115800000Y-19650000D02*
X115800000Y-20450998D01*
X106020000Y-50160000D02*
X108560000Y-52700000D01*
X106020000Y-43300000D02*
X106020000Y-50160000D01*
X106874999Y-63764999D02*
X107200001Y-64090001D01*
X107200001Y-64090001D02*
X108050000Y-64940000D01*
X106874999Y-54385001D02*
X106874999Y-63764999D01*
X108560000Y-52700000D02*
X106874999Y-54385001D01*
X116010000Y-64940000D02*
X118550000Y-62400000D01*
X108050000Y-64940000D02*
X116010000Y-64940000D01*
X130530000Y-62400000D02*
X143780000Y-75650000D01*
X118550000Y-62400000D02*
X130530000Y-62400000D01*
X176970000Y-78220000D02*
X178420000Y-78220000D01*
X173224999Y-74474999D02*
X176970000Y-78220000D01*
X144955001Y-74474999D02*
X173224999Y-74474999D01*
X143780000Y-75650000D02*
X144955001Y-74474999D01*
X106020000Y-78755002D02*
X110664998Y-83400000D01*
X106020000Y-52700000D02*
X106020000Y-78755002D01*
X140390001Y-76499999D02*
X141240000Y-75650000D01*
X140064999Y-78564003D02*
X140064999Y-76825001D01*
X135229002Y-83400000D02*
X140064999Y-78564003D01*
X140064999Y-76825001D02*
X140390001Y-76499999D01*
X110664998Y-83400000D02*
X135229002Y-83400000D01*
X142089999Y-76499999D02*
X141240000Y-75650000D01*
X142415001Y-76825001D02*
X142089999Y-76499999D01*
X153075001Y-76825001D02*
X142415001Y-76825001D01*
X157050000Y-80800000D02*
X153075001Y-76825001D01*
X117557082Y-27825001D02*
X141274999Y-27825001D01*
X117002081Y-27270000D02*
X117557082Y-27825001D01*
X141274999Y-27825001D02*
X141300000Y-27800000D01*
X115800000Y-27270000D02*
X117002081Y-27270000D01*
X133300000Y-39750000D02*
X135600000Y-42050000D01*
X123849999Y-77014999D02*
X112500000Y-65665000D01*
X137524999Y-77014999D02*
X123849999Y-77014999D01*
X138700000Y-78190000D02*
X137524999Y-77014999D01*
X108950000Y-63300000D02*
X108050000Y-62400000D01*
X113250000Y-63300000D02*
X108950000Y-63300000D01*
X172250000Y-73140000D02*
X170800000Y-73140000D01*
X172526410Y-73140000D02*
X172250000Y-73140000D01*
X179945010Y-77754006D02*
X179285994Y-77094990D01*
X179945010Y-78685994D02*
X179945010Y-77754006D01*
X176481400Y-77094990D02*
X172526410Y-73140000D01*
X176831004Y-81800000D02*
X179945010Y-78685994D01*
X179285994Y-77094990D02*
X176481400Y-77094990D01*
X142550000Y-81800000D02*
X176831004Y-81800000D01*
X133300000Y-39750000D02*
X133300000Y-38426998D01*
X131501999Y-37324999D02*
X129675001Y-39151997D01*
X128874003Y-43254999D02*
X126095001Y-43254999D01*
X133300000Y-37200000D02*
X133300000Y-39750000D01*
X132198001Y-37324999D02*
X131501999Y-37324999D01*
X129675001Y-39151997D02*
X129675001Y-42454001D01*
X129675001Y-42454001D02*
X128874003Y-43254999D01*
X108050000Y-61300000D02*
X108050000Y-62400000D01*
X133300000Y-38426998D02*
X132198001Y-37324999D01*
X126095001Y-43254999D02*
X108050000Y-61300000D01*
X143960000Y-24730000D02*
X153500000Y-34270000D01*
X115800000Y-24730000D02*
X143960000Y-24730000D01*
X164350000Y-39550000D02*
X164450000Y-39450000D01*
X164350000Y-60850000D02*
X164350000Y-39550000D01*
X162798959Y-62401041D02*
X164350000Y-60850000D01*
X162798959Y-72751041D02*
X162798959Y-62401041D01*
D21*
G36*
X190315001Y-86773000D02*
G01*
X91685000Y-86773000D01*
X91685000Y-43153740D01*
X101995000Y-43153740D01*
X101995000Y-43446260D01*
X102052068Y-43733158D01*
X102164010Y-44003411D01*
X102326525Y-44246632D01*
X102533368Y-44453475D01*
X102776589Y-44615990D01*
X103046842Y-44727932D01*
X103333740Y-44785000D01*
X103626260Y-44785000D01*
X103913158Y-44727932D01*
X104183411Y-44615990D01*
X104426632Y-44453475D01*
X104633475Y-44246632D01*
X104750000Y-44072240D01*
X104866525Y-44246632D01*
X105073368Y-44453475D01*
X105260000Y-44578179D01*
X105260001Y-50122668D01*
X105256324Y-50160000D01*
X105270998Y-50308985D01*
X105314454Y-50452246D01*
X105385026Y-50584276D01*
X105450024Y-50663475D01*
X105480000Y-50700001D01*
X105508998Y-50723799D01*
X106000199Y-51215000D01*
X105873740Y-51215000D01*
X105586842Y-51272068D01*
X105316589Y-51384010D01*
X105073368Y-51546525D01*
X104866525Y-51753368D01*
X104750000Y-51927760D01*
X104633475Y-51753368D01*
X104426632Y-51546525D01*
X104183411Y-51384010D01*
X103913158Y-51272068D01*
X103626260Y-51215000D01*
X103333740Y-51215000D01*
X103046842Y-51272068D01*
X102776589Y-51384010D01*
X102533368Y-51546525D01*
X102326525Y-51753368D01*
X102164010Y-51996589D01*
X102052068Y-52266842D01*
X101995000Y-52553740D01*
X101995000Y-52846260D01*
X102052068Y-53133158D01*
X102164010Y-53403411D01*
X102326525Y-53646632D01*
X102533368Y-53853475D01*
X102776589Y-54015990D01*
X103046842Y-54127932D01*
X103333740Y-54185000D01*
X103626260Y-54185000D01*
X103913158Y-54127932D01*
X104183411Y-54015990D01*
X104426632Y-53853475D01*
X104633475Y-53646632D01*
X104750000Y-53472240D01*
X104866525Y-53646632D01*
X105073368Y-53853475D01*
X105260000Y-53978178D01*
X105260001Y-78717669D01*
X105256324Y-78755002D01*
X105260001Y-78792335D01*
X105270998Y-78903988D01*
X105281619Y-78939002D01*
X105314454Y-79047248D01*
X105385026Y-79179278D01*
X105456201Y-79266004D01*
X105480000Y-79295003D01*
X105508998Y-79318801D01*
X110101199Y-83911003D01*
X110124997Y-83940001D01*
X110240722Y-84034974D01*
X110372751Y-84105546D01*
X110516012Y-84149003D01*
X110627665Y-84160000D01*
X110627674Y-84160000D01*
X110664997Y-84163676D01*
X110702320Y-84160000D01*
X135191680Y-84160000D01*
X135229002Y-84163676D01*
X135266324Y-84160000D01*
X135266335Y-84160000D01*
X135377988Y-84149003D01*
X135521249Y-84105546D01*
X135653278Y-84034974D01*
X135769003Y-83940001D01*
X135792806Y-83910997D01*
X140333508Y-79370296D01*
X140536589Y-79505990D01*
X140806842Y-79617932D01*
X141093740Y-79675000D01*
X141386260Y-79675000D01*
X141673158Y-79617932D01*
X141943411Y-79505990D01*
X142186632Y-79343475D01*
X142393475Y-79136632D01*
X142515195Y-78954466D01*
X142584822Y-79071355D01*
X142779731Y-79287588D01*
X143013080Y-79461641D01*
X143275901Y-79586825D01*
X143423110Y-79631476D01*
X143653000Y-79510155D01*
X143653000Y-78317000D01*
X143633000Y-78317000D01*
X143633000Y-78063000D01*
X143653000Y-78063000D01*
X143653000Y-78043000D01*
X143907000Y-78043000D01*
X143907000Y-78063000D01*
X143927000Y-78063000D01*
X143927000Y-78317000D01*
X143907000Y-78317000D01*
X143907000Y-79510155D01*
X144136890Y-79631476D01*
X144284099Y-79586825D01*
X144546920Y-79461641D01*
X144780269Y-79287588D01*
X144975178Y-79071355D01*
X145044805Y-78954466D01*
X145166525Y-79136632D01*
X145373368Y-79343475D01*
X145616589Y-79505990D01*
X145886842Y-79617932D01*
X146173740Y-79675000D01*
X146466260Y-79675000D01*
X146753158Y-79617932D01*
X147023411Y-79505990D01*
X147266632Y-79343475D01*
X147473475Y-79136632D01*
X147635990Y-78893411D01*
X147747932Y-78623158D01*
X147805000Y-78336260D01*
X147805000Y-78043740D01*
X147747932Y-77756842D01*
X147676753Y-77585001D01*
X152760200Y-77585001D01*
X156015000Y-80839803D01*
X156015000Y-80901939D01*
X156042462Y-81040000D01*
X143253711Y-81040000D01*
X143209774Y-80996063D01*
X143040256Y-80882795D01*
X142851898Y-80804774D01*
X142651939Y-80765000D01*
X142448061Y-80765000D01*
X142248102Y-80804774D01*
X142059744Y-80882795D01*
X141890226Y-80996063D01*
X141746063Y-81140226D01*
X141632795Y-81309744D01*
X141554774Y-81498102D01*
X141515000Y-81698061D01*
X141515000Y-81901939D01*
X141554774Y-82101898D01*
X141632795Y-82290256D01*
X141746063Y-82459774D01*
X141890226Y-82603937D01*
X142059744Y-82717205D01*
X142248102Y-82795226D01*
X142448061Y-82835000D01*
X142651939Y-82835000D01*
X142851898Y-82795226D01*
X143040256Y-82717205D01*
X143209774Y-82603937D01*
X143253711Y-82560000D01*
X176793682Y-82560000D01*
X176831004Y-82563676D01*
X176868326Y-82560000D01*
X176868337Y-82560000D01*
X176979990Y-82549003D01*
X177123251Y-82505546D01*
X177255280Y-82434974D01*
X177371005Y-82340001D01*
X177394808Y-82310997D01*
X180456014Y-79249792D01*
X180485011Y-79225995D01*
X180579984Y-79110270D01*
X180650556Y-78978241D01*
X180694013Y-78834980D01*
X180705010Y-78723327D01*
X180705010Y-78723326D01*
X180708687Y-78685994D01*
X180705010Y-78648661D01*
X180705010Y-77791328D01*
X180708686Y-77754005D01*
X180705010Y-77716682D01*
X180705010Y-77716673D01*
X180694013Y-77605020D01*
X180650556Y-77461759D01*
X180579984Y-77329730D01*
X180485011Y-77214005D01*
X180456012Y-77190206D01*
X179896315Y-76630510D01*
X180018932Y-76481101D01*
X180152182Y-76231808D01*
X180234236Y-75961309D01*
X180261943Y-75680000D01*
X180234236Y-75398691D01*
X180152182Y-75128192D01*
X180018932Y-74878899D01*
X179839608Y-74660392D01*
X179621101Y-74481068D01*
X179488142Y-74410000D01*
X179621101Y-74338932D01*
X179839608Y-74159608D01*
X180018932Y-73941101D01*
X180152182Y-73691808D01*
X180234236Y-73421309D01*
X180261943Y-73140000D01*
X180234236Y-72858691D01*
X180152182Y-72588192D01*
X180018932Y-72338899D01*
X179839608Y-72120392D01*
X179621101Y-71941068D01*
X179488142Y-71870000D01*
X179621101Y-71798932D01*
X179839608Y-71619608D01*
X180018932Y-71401101D01*
X180152182Y-71151808D01*
X180234236Y-70881309D01*
X180261943Y-70600000D01*
X180234236Y-70318691D01*
X180152182Y-70048192D01*
X180018932Y-69798899D01*
X179839608Y-69580392D01*
X179621101Y-69401068D01*
X179371808Y-69267818D01*
X179101309Y-69185764D01*
X178890492Y-69165000D01*
X177949508Y-69165000D01*
X177738691Y-69185764D01*
X177468192Y-69267818D01*
X177218899Y-69401068D01*
X177000392Y-69580392D01*
X176821068Y-69798899D01*
X176687818Y-70048192D01*
X176605764Y-70318691D01*
X176578057Y-70600000D01*
X176605764Y-70881309D01*
X176687818Y-71151808D01*
X176821068Y-71401101D01*
X177000392Y-71619608D01*
X177218899Y-71798932D01*
X177351858Y-71870000D01*
X177218899Y-71941068D01*
X177000392Y-72120392D01*
X176821068Y-72338899D01*
X176687818Y-72588192D01*
X176605764Y-72858691D01*
X176578057Y-73140000D01*
X176605764Y-73421309D01*
X176687818Y-73691808D01*
X176821068Y-73941101D01*
X177000392Y-74159608D01*
X177218899Y-74338932D01*
X177351858Y-74410000D01*
X177218899Y-74481068D01*
X177000392Y-74660392D01*
X176821068Y-74878899D01*
X176687818Y-75128192D01*
X176605764Y-75398691D01*
X176578057Y-75680000D01*
X176605764Y-75961309D01*
X176685553Y-76224340D01*
X173090214Y-72629003D01*
X173066411Y-72599999D01*
X172950686Y-72505026D01*
X172818657Y-72434454D01*
X172675396Y-72390997D01*
X172563743Y-72380000D01*
X172563732Y-72380000D01*
X172526410Y-72376324D01*
X172489088Y-72380000D01*
X172420901Y-72380000D01*
X172398932Y-72338899D01*
X172219608Y-72120392D01*
X172106518Y-72027581D01*
X172124482Y-72025812D01*
X172244180Y-71989502D01*
X172354494Y-71930537D01*
X172451185Y-71851185D01*
X172530537Y-71754494D01*
X172589502Y-71644180D01*
X172625812Y-71524482D01*
X172638072Y-71400000D01*
X172638072Y-69800000D01*
X172625812Y-69675518D01*
X172589502Y-69555820D01*
X172530537Y-69445506D01*
X172451185Y-69348815D01*
X172354494Y-69269463D01*
X172244180Y-69210498D01*
X172124482Y-69174188D01*
X172000000Y-69161928D01*
X169600000Y-69161928D01*
X169475518Y-69174188D01*
X169355820Y-69210498D01*
X169245506Y-69269463D01*
X169148815Y-69348815D01*
X169069463Y-69445506D01*
X169010498Y-69555820D01*
X168974188Y-69675518D01*
X168961928Y-69800000D01*
X168961928Y-71400000D01*
X168974188Y-71524482D01*
X169010498Y-71644180D01*
X169069463Y-71754494D01*
X169148815Y-71851185D01*
X169245506Y-71930537D01*
X169355820Y-71989502D01*
X169475518Y-72025812D01*
X169493482Y-72027581D01*
X169380392Y-72120392D01*
X169201068Y-72338899D01*
X169067818Y-72588192D01*
X168985764Y-72858691D01*
X168958057Y-73140000D01*
X168985764Y-73421309D01*
X169067818Y-73691808D01*
X169080214Y-73714999D01*
X163176344Y-73714999D01*
X163289215Y-73668246D01*
X163458733Y-73554978D01*
X163602896Y-73410815D01*
X163716164Y-73241297D01*
X163794185Y-73052939D01*
X163833959Y-72852980D01*
X163833959Y-72649102D01*
X163794185Y-72449143D01*
X163716164Y-72260785D01*
X163602896Y-72091267D01*
X163558959Y-72047330D01*
X163558959Y-62715842D01*
X164389802Y-61885000D01*
X164451939Y-61885000D01*
X164651898Y-61845226D01*
X164840256Y-61767205D01*
X165009774Y-61653937D01*
X165153937Y-61509774D01*
X165267205Y-61340256D01*
X165345226Y-61151898D01*
X165385000Y-60951939D01*
X165385000Y-60748061D01*
X165345226Y-60548102D01*
X165267205Y-60359744D01*
X165153937Y-60190226D01*
X165110000Y-60146289D01*
X165110000Y-41100000D01*
X167711928Y-41100000D01*
X167711928Y-42800000D01*
X167724188Y-42924482D01*
X167760498Y-43044180D01*
X167819463Y-43154494D01*
X167898815Y-43251185D01*
X167995506Y-43330537D01*
X168105820Y-43389502D01*
X168225518Y-43425812D01*
X168350000Y-43438072D01*
X170050000Y-43438072D01*
X170174482Y-43425812D01*
X170294180Y-43389502D01*
X170404494Y-43330537D01*
X170501185Y-43251185D01*
X170580537Y-43154494D01*
X170639502Y-43044180D01*
X170675812Y-42924482D01*
X170688072Y-42800000D01*
X170688072Y-41100000D01*
X170675812Y-40975518D01*
X170668072Y-40950000D01*
X179311928Y-40950000D01*
X179324188Y-41074482D01*
X179360498Y-41194180D01*
X179419463Y-41304494D01*
X179498815Y-41401185D01*
X179595506Y-41480537D01*
X179705820Y-41539502D01*
X179825518Y-41575812D01*
X179950000Y-41588072D01*
X180514250Y-41585000D01*
X180673000Y-41426250D01*
X180673000Y-40227000D01*
X180927000Y-40227000D01*
X180927000Y-41426250D01*
X181085750Y-41585000D01*
X181650000Y-41588072D01*
X181774482Y-41575812D01*
X181894180Y-41539502D01*
X182004494Y-41480537D01*
X182101185Y-41401185D01*
X182180537Y-41304494D01*
X182239502Y-41194180D01*
X182275812Y-41074482D01*
X182288072Y-40950000D01*
X182285000Y-40385750D01*
X182126250Y-40227000D01*
X180927000Y-40227000D01*
X180673000Y-40227000D01*
X179473750Y-40227000D01*
X179315000Y-40385750D01*
X179311928Y-40950000D01*
X170668072Y-40950000D01*
X170639502Y-40855820D01*
X170580537Y-40745506D01*
X170501185Y-40648815D01*
X170404494Y-40569463D01*
X170294180Y-40510498D01*
X170221620Y-40488487D01*
X170353475Y-40356632D01*
X170515990Y-40113411D01*
X170627932Y-39843158D01*
X170685000Y-39556260D01*
X170685000Y-39263740D01*
X170682267Y-39250000D01*
X179311928Y-39250000D01*
X179315000Y-39814250D01*
X179473750Y-39973000D01*
X180673000Y-39973000D01*
X180673000Y-37687000D01*
X180927000Y-37687000D01*
X180927000Y-39973000D01*
X182126250Y-39973000D01*
X182285000Y-39814250D01*
X182288072Y-39250000D01*
X182275812Y-39125518D01*
X182239502Y-39005820D01*
X182180537Y-38895506D01*
X182101185Y-38798815D01*
X182004494Y-38719463D01*
X181894180Y-38660498D01*
X181813534Y-38636034D01*
X181897588Y-38560269D01*
X182071641Y-38326920D01*
X182196825Y-38064099D01*
X182241476Y-37916890D01*
X182120155Y-37687000D01*
X180927000Y-37687000D01*
X180673000Y-37687000D01*
X179479845Y-37687000D01*
X179358524Y-37916890D01*
X179403175Y-38064099D01*
X179528359Y-38326920D01*
X179702412Y-38560269D01*
X179786466Y-38636034D01*
X179705820Y-38660498D01*
X179595506Y-38719463D01*
X179498815Y-38798815D01*
X179419463Y-38895506D01*
X179360498Y-39005820D01*
X179324188Y-39125518D01*
X179311928Y-39250000D01*
X170682267Y-39250000D01*
X170627932Y-38976842D01*
X170515990Y-38706589D01*
X170353475Y-38463368D01*
X170146632Y-38256525D01*
X169972240Y-38140000D01*
X170146632Y-38023475D01*
X170353475Y-37816632D01*
X170515990Y-37573411D01*
X170627932Y-37303158D01*
X170685000Y-37016260D01*
X170685000Y-36723740D01*
X170627932Y-36436842D01*
X170515990Y-36166589D01*
X170353475Y-35923368D01*
X170146632Y-35716525D01*
X169903411Y-35554010D01*
X169633158Y-35442068D01*
X169346260Y-35385000D01*
X169053740Y-35385000D01*
X168766842Y-35442068D01*
X168496589Y-35554010D01*
X168253368Y-35716525D01*
X168046525Y-35923368D01*
X167884010Y-36166589D01*
X167772068Y-36436842D01*
X167715000Y-36723740D01*
X167715000Y-37016260D01*
X167772068Y-37303158D01*
X167884010Y-37573411D01*
X168046525Y-37816632D01*
X168253368Y-38023475D01*
X168427760Y-38140000D01*
X168253368Y-38256525D01*
X168046525Y-38463368D01*
X167884010Y-38706589D01*
X167772068Y-38976842D01*
X167715000Y-39263740D01*
X167715000Y-39556260D01*
X167772068Y-39843158D01*
X167884010Y-40113411D01*
X168046525Y-40356632D01*
X168178380Y-40488487D01*
X168105820Y-40510498D01*
X167995506Y-40569463D01*
X167898815Y-40648815D01*
X167819463Y-40745506D01*
X167760498Y-40855820D01*
X167724188Y-40975518D01*
X167711928Y-41100000D01*
X165110000Y-41100000D01*
X165110000Y-40253711D01*
X165253937Y-40109774D01*
X165367205Y-39940256D01*
X165445226Y-39751898D01*
X165485000Y-39551939D01*
X165485000Y-39348061D01*
X165445226Y-39148102D01*
X165367205Y-38959744D01*
X165253937Y-38790226D01*
X165109774Y-38646063D01*
X164940256Y-38532795D01*
X164751898Y-38454774D01*
X164551939Y-38415000D01*
X164348061Y-38415000D01*
X164148102Y-38454774D01*
X163959744Y-38532795D01*
X163790226Y-38646063D01*
X163646063Y-38790226D01*
X163532795Y-38959744D01*
X163454774Y-39148102D01*
X163415000Y-39348061D01*
X163415000Y-39551939D01*
X163454774Y-39751898D01*
X163532795Y-39940256D01*
X163590001Y-40025871D01*
X163590000Y-60146289D01*
X163546063Y-60190226D01*
X163432795Y-60359744D01*
X163354774Y-60548102D01*
X163315000Y-60748061D01*
X163315000Y-60810198D01*
X162287957Y-61837242D01*
X162258959Y-61861040D01*
X162235161Y-61890038D01*
X162235160Y-61890039D01*
X162163985Y-61976765D01*
X162093413Y-62108795D01*
X162063139Y-62208599D01*
X162050273Y-62251015D01*
X162049957Y-62252056D01*
X162035283Y-62401041D01*
X162038960Y-62438373D01*
X162038959Y-72047330D01*
X161995022Y-72091267D01*
X161881754Y-72260785D01*
X161803733Y-72449143D01*
X161763959Y-72649102D01*
X161763959Y-72852980D01*
X161803733Y-73052939D01*
X161881754Y-73241297D01*
X161995022Y-73410815D01*
X162139185Y-73554978D01*
X162308703Y-73668246D01*
X162421574Y-73714999D01*
X144992323Y-73714999D01*
X144955000Y-73711323D01*
X144917677Y-73714999D01*
X144917668Y-73714999D01*
X144806015Y-73725996D01*
X144662754Y-73769453D01*
X144530725Y-73840025D01*
X144415000Y-73934998D01*
X144391202Y-73963996D01*
X144146408Y-74208790D01*
X143926260Y-74165000D01*
X143633740Y-74165000D01*
X143413592Y-74208790D01*
X131093804Y-61889003D01*
X131070001Y-61859999D01*
X130954276Y-61765026D01*
X130822247Y-61694454D01*
X130678986Y-61650997D01*
X130567333Y-61640000D01*
X130567322Y-61640000D01*
X130530000Y-61636324D01*
X130492678Y-61640000D01*
X120038072Y-61640000D01*
X120038072Y-61550000D01*
X120025812Y-61425518D01*
X119989502Y-61305820D01*
X119930537Y-61195506D01*
X119851185Y-61098815D01*
X119754494Y-61019463D01*
X119644180Y-60960498D01*
X119524482Y-60924188D01*
X119400000Y-60911928D01*
X117700000Y-60911928D01*
X117575518Y-60924188D01*
X117455820Y-60960498D01*
X117345506Y-61019463D01*
X117248815Y-61098815D01*
X117169463Y-61195506D01*
X117110498Y-61305820D01*
X117074188Y-61425518D01*
X117061928Y-61550000D01*
X117061928Y-62813270D01*
X115695199Y-64180000D01*
X113795937Y-64180000D01*
X113909774Y-64103937D01*
X114053937Y-63959774D01*
X114167205Y-63790256D01*
X114245226Y-63601898D01*
X114285000Y-63401939D01*
X114285000Y-63198061D01*
X114245226Y-62998102D01*
X114167205Y-62809744D01*
X114053937Y-62640226D01*
X113909774Y-62496063D01*
X113740256Y-62382795D01*
X113551898Y-62304774D01*
X113351939Y-62265000D01*
X113148061Y-62265000D01*
X112948102Y-62304774D01*
X112759744Y-62382795D01*
X112590226Y-62496063D01*
X112546289Y-62540000D01*
X109538072Y-62540000D01*
X109538072Y-61550000D01*
X109525812Y-61425518D01*
X109489502Y-61305820D01*
X109430537Y-61195506D01*
X109351185Y-61098815D01*
X109337345Y-61087456D01*
X126409803Y-44014999D01*
X127068456Y-44014999D01*
X127015000Y-44283740D01*
X127015000Y-44576260D01*
X127072068Y-44863158D01*
X127184010Y-45133411D01*
X127346525Y-45376632D01*
X127553368Y-45583475D01*
X127727760Y-45700000D01*
X127553368Y-45816525D01*
X127346525Y-46023368D01*
X127184010Y-46266589D01*
X127072068Y-46536842D01*
X127015000Y-46823740D01*
X127015000Y-47116260D01*
X127072068Y-47403158D01*
X127184010Y-47673411D01*
X127346525Y-47916632D01*
X127553368Y-48123475D01*
X127727760Y-48240000D01*
X127553368Y-48356525D01*
X127346525Y-48563368D01*
X127184010Y-48806589D01*
X127072068Y-49076842D01*
X127015000Y-49363740D01*
X127015000Y-49656260D01*
X127072068Y-49943158D01*
X127184010Y-50213411D01*
X127346525Y-50456632D01*
X127553368Y-50663475D01*
X127796589Y-50825990D01*
X128066842Y-50937932D01*
X128353740Y-50995000D01*
X128646260Y-50995000D01*
X128933158Y-50937932D01*
X129203411Y-50825990D01*
X129446632Y-50663475D01*
X129653475Y-50456632D01*
X129815990Y-50213411D01*
X129927932Y-49943158D01*
X129985000Y-49656260D01*
X129985000Y-49363740D01*
X129927932Y-49076842D01*
X129815990Y-48806589D01*
X129653475Y-48563368D01*
X129446632Y-48356525D01*
X129272240Y-48240000D01*
X129446632Y-48123475D01*
X129653475Y-47916632D01*
X129815990Y-47673411D01*
X129927932Y-47403158D01*
X129985000Y-47116260D01*
X129985000Y-46823740D01*
X129927932Y-46536842D01*
X129815990Y-46266589D01*
X129653475Y-46023368D01*
X129446632Y-45816525D01*
X129272240Y-45700000D01*
X129446632Y-45583475D01*
X129653475Y-45376632D01*
X129815990Y-45133411D01*
X129927932Y-44863158D01*
X129985000Y-44576260D01*
X129985000Y-44283740D01*
X129927932Y-43996842D01*
X129815990Y-43726589D01*
X129680296Y-43523508D01*
X130186003Y-43017800D01*
X130215002Y-42994002D01*
X130309975Y-42878277D01*
X130380547Y-42746248D01*
X130424004Y-42602987D01*
X130435001Y-42491334D01*
X130435001Y-42491323D01*
X130438677Y-42454002D01*
X130435001Y-42416679D01*
X130435001Y-39466798D01*
X131090001Y-38811799D01*
X131090001Y-39335670D01*
X131086324Y-39373002D01*
X131100998Y-39521987D01*
X131144454Y-39665248D01*
X131215026Y-39797278D01*
X131286201Y-39884004D01*
X131310000Y-39913003D01*
X131338998Y-39936801D01*
X134688200Y-43286004D01*
X134711998Y-43315002D01*
X134740996Y-43338800D01*
X134827722Y-43409975D01*
X134895606Y-43446260D01*
X134959752Y-43480547D01*
X135103013Y-43524004D01*
X135214666Y-43535001D01*
X135214675Y-43535001D01*
X135251998Y-43538677D01*
X135289321Y-43535001D01*
X147497677Y-43535001D01*
X147534999Y-43538677D01*
X147572321Y-43535001D01*
X147572332Y-43535001D01*
X147683985Y-43524004D01*
X147827246Y-43480547D01*
X147959275Y-43409975D01*
X148075000Y-43315002D01*
X148098803Y-43285998D01*
X152015000Y-39369802D01*
X152015000Y-39496260D01*
X152072068Y-39783158D01*
X152184010Y-40053411D01*
X152346525Y-40296632D01*
X152553368Y-40503475D01*
X152727760Y-40620000D01*
X152553368Y-40736525D01*
X152346525Y-40943368D01*
X152184010Y-41186589D01*
X152072068Y-41456842D01*
X152015000Y-41743740D01*
X152015000Y-42036260D01*
X152072068Y-42323158D01*
X152184010Y-42593411D01*
X152346525Y-42836632D01*
X152553368Y-43043475D01*
X152727760Y-43160000D01*
X152553368Y-43276525D01*
X152346525Y-43483368D01*
X152184010Y-43726589D01*
X152072068Y-43996842D01*
X152015000Y-44283740D01*
X152015000Y-44576260D01*
X152072068Y-44863158D01*
X152184010Y-45133411D01*
X152346525Y-45376632D01*
X152553368Y-45583475D01*
X152727760Y-45700000D01*
X152553368Y-45816525D01*
X152346525Y-46023368D01*
X152184010Y-46266589D01*
X152072068Y-46536842D01*
X152015000Y-46823740D01*
X152015000Y-47116260D01*
X152072068Y-47403158D01*
X152184010Y-47673411D01*
X152346525Y-47916632D01*
X152553368Y-48123475D01*
X152735534Y-48245195D01*
X152618645Y-48314822D01*
X152402412Y-48509731D01*
X152228359Y-48743080D01*
X152103175Y-49005901D01*
X152058524Y-49153110D01*
X152179845Y-49383000D01*
X153373000Y-49383000D01*
X153373000Y-49363000D01*
X153627000Y-49363000D01*
X153627000Y-49383000D01*
X153647000Y-49383000D01*
X153647000Y-49637000D01*
X153627000Y-49637000D01*
X153627000Y-49657000D01*
X153373000Y-49657000D01*
X153373000Y-49637000D01*
X152179845Y-49637000D01*
X152058524Y-49866890D01*
X152103175Y-50014099D01*
X152228359Y-50276920D01*
X152402412Y-50510269D01*
X152618645Y-50705178D01*
X152843378Y-50839045D01*
X150367425Y-53314999D01*
X141383470Y-53314999D01*
X141340001Y-53310718D01*
X141296532Y-53314999D01*
X141296524Y-53314999D01*
X141181307Y-53326347D01*
X141166510Y-53327804D01*
X141142878Y-53334973D01*
X140999688Y-53378410D01*
X140845942Y-53460588D01*
X140711184Y-53571182D01*
X140683469Y-53604953D01*
X140294958Y-53993464D01*
X140294952Y-53993469D01*
X140258960Y-54029461D01*
X140186260Y-54015000D01*
X139893740Y-54015000D01*
X139606842Y-54072068D01*
X139336589Y-54184010D01*
X139093368Y-54346525D01*
X138961513Y-54478380D01*
X138939502Y-54405820D01*
X138880537Y-54295506D01*
X138801185Y-54198815D01*
X138704494Y-54119463D01*
X138594180Y-54060498D01*
X138474482Y-54024188D01*
X138350000Y-54011928D01*
X136650000Y-54011928D01*
X136525518Y-54024188D01*
X136405820Y-54060498D01*
X136295506Y-54119463D01*
X136198815Y-54198815D01*
X136119463Y-54295506D01*
X136060498Y-54405820D01*
X136024188Y-54525518D01*
X136011928Y-54650000D01*
X136011928Y-56350000D01*
X136024188Y-56474482D01*
X136060498Y-56594180D01*
X136119463Y-56704494D01*
X136198815Y-56801185D01*
X136295506Y-56880537D01*
X136405820Y-56939502D01*
X136525518Y-56975812D01*
X136650000Y-56988072D01*
X138350000Y-56988072D01*
X138474482Y-56975812D01*
X138594180Y-56939502D01*
X138704494Y-56880537D01*
X138801185Y-56801185D01*
X138880537Y-56704494D01*
X138939502Y-56594180D01*
X138961513Y-56521620D01*
X139093368Y-56653475D01*
X139155000Y-56694656D01*
X139155001Y-58866521D01*
X139150719Y-58910000D01*
X139167805Y-59083490D01*
X139218412Y-59250313D01*
X139300590Y-59404059D01*
X139383468Y-59505046D01*
X139383471Y-59505049D01*
X139411184Y-59538817D01*
X139444951Y-59566530D01*
X141001770Y-61123348D01*
X140756842Y-61172068D01*
X140486589Y-61284010D01*
X140243368Y-61446525D01*
X140111513Y-61578380D01*
X140089502Y-61505820D01*
X140030537Y-61395506D01*
X139951185Y-61298815D01*
X139854494Y-61219463D01*
X139744180Y-61160498D01*
X139624482Y-61124188D01*
X139500000Y-61111928D01*
X137800000Y-61111928D01*
X137675518Y-61124188D01*
X137555820Y-61160498D01*
X137445506Y-61219463D01*
X137348815Y-61298815D01*
X137269463Y-61395506D01*
X137210498Y-61505820D01*
X137174188Y-61625518D01*
X137161928Y-61750000D01*
X137161928Y-63450000D01*
X137174188Y-63574482D01*
X137210498Y-63694180D01*
X137269463Y-63804494D01*
X137348815Y-63901185D01*
X137445506Y-63980537D01*
X137555820Y-64039502D01*
X137675518Y-64075812D01*
X137800000Y-64088072D01*
X139500000Y-64088072D01*
X139624482Y-64075812D01*
X139744180Y-64039502D01*
X139854494Y-63980537D01*
X139951185Y-63901185D01*
X140030537Y-63804494D01*
X140089502Y-63694180D01*
X140111513Y-63621620D01*
X140243368Y-63753475D01*
X140486589Y-63915990D01*
X140756842Y-64027932D01*
X141043740Y-64085000D01*
X141336260Y-64085000D01*
X141623158Y-64027932D01*
X141893411Y-63915990D01*
X142136632Y-63753475D01*
X142343475Y-63546632D01*
X142460000Y-63372240D01*
X142576525Y-63546632D01*
X142783368Y-63753475D01*
X143026589Y-63915990D01*
X143296842Y-64027932D01*
X143583740Y-64085000D01*
X143876260Y-64085000D01*
X144163158Y-64027932D01*
X144433411Y-63915990D01*
X144676632Y-63753475D01*
X144883475Y-63546632D01*
X145045990Y-63303411D01*
X145157932Y-63033158D01*
X145215000Y-62746260D01*
X145215000Y-62503740D01*
X151225000Y-62503740D01*
X151225000Y-62796260D01*
X151282068Y-63083158D01*
X151394010Y-63353411D01*
X151556525Y-63596632D01*
X151763368Y-63803475D01*
X152006589Y-63965990D01*
X152276842Y-64077932D01*
X152563740Y-64135000D01*
X152856260Y-64135000D01*
X153143158Y-64077932D01*
X153413411Y-63965990D01*
X153656632Y-63803475D01*
X153788487Y-63671620D01*
X153810498Y-63744180D01*
X153869463Y-63854494D01*
X153948815Y-63951185D01*
X154045506Y-64030537D01*
X154155820Y-64089502D01*
X154275518Y-64125812D01*
X154400000Y-64138072D01*
X156100000Y-64138072D01*
X156224482Y-64125812D01*
X156344180Y-64089502D01*
X156454494Y-64030537D01*
X156551185Y-63951185D01*
X156630537Y-63854494D01*
X156689502Y-63744180D01*
X156725812Y-63624482D01*
X156738072Y-63500000D01*
X156738072Y-61800000D01*
X156725812Y-61675518D01*
X156689502Y-61555820D01*
X156630537Y-61445506D01*
X156551185Y-61348815D01*
X156454494Y-61269463D01*
X156344180Y-61210498D01*
X156224482Y-61174188D01*
X156100000Y-61161928D01*
X154400000Y-61161928D01*
X154275518Y-61174188D01*
X154155820Y-61210498D01*
X154045506Y-61269463D01*
X153948815Y-61348815D01*
X153869463Y-61445506D01*
X153810498Y-61555820D01*
X153788487Y-61628380D01*
X153656632Y-61496525D01*
X153413411Y-61334010D01*
X153143158Y-61222068D01*
X152856260Y-61165000D01*
X152563740Y-61165000D01*
X152276842Y-61222068D01*
X152006589Y-61334010D01*
X151763368Y-61496525D01*
X151556525Y-61703368D01*
X151394010Y-61946589D01*
X151282068Y-62216842D01*
X151225000Y-62503740D01*
X145215000Y-62503740D01*
X145215000Y-62453740D01*
X145157932Y-62166842D01*
X145045990Y-61896589D01*
X144883475Y-61653368D01*
X144676632Y-61446525D01*
X144433411Y-61284010D01*
X144163158Y-61172068D01*
X143876260Y-61115000D01*
X143583740Y-61115000D01*
X143511040Y-61129461D01*
X140925000Y-58543422D01*
X140925000Y-56694656D01*
X140986632Y-56653475D01*
X141193475Y-56446632D01*
X141310000Y-56272240D01*
X141426525Y-56446632D01*
X141633368Y-56653475D01*
X141876589Y-56815990D01*
X142146842Y-56927932D01*
X142433740Y-56985000D01*
X142726260Y-56985000D01*
X143013158Y-56927932D01*
X143283411Y-56815990D01*
X143526632Y-56653475D01*
X143733475Y-56446632D01*
X143855195Y-56264466D01*
X143924822Y-56381355D01*
X144119731Y-56597588D01*
X144353080Y-56771641D01*
X144615901Y-56896825D01*
X144763110Y-56941476D01*
X144993000Y-56820155D01*
X144993000Y-55627000D01*
X145247000Y-55627000D01*
X145247000Y-56820155D01*
X145476890Y-56941476D01*
X145624099Y-56896825D01*
X145886920Y-56771641D01*
X146120269Y-56597588D01*
X146315178Y-56381355D01*
X146464157Y-56131252D01*
X146561481Y-55856891D01*
X146440814Y-55627000D01*
X145247000Y-55627000D01*
X144993000Y-55627000D01*
X144973000Y-55627000D01*
X144973000Y-55373000D01*
X144993000Y-55373000D01*
X144993000Y-55353000D01*
X145247000Y-55353000D01*
X145247000Y-55373000D01*
X146440814Y-55373000D01*
X146561481Y-55143109D01*
X146540868Y-55084999D01*
X150690534Y-55084999D01*
X150734003Y-55089280D01*
X150777472Y-55084999D01*
X150777480Y-55084999D01*
X150907493Y-55072194D01*
X151074316Y-55021588D01*
X151228062Y-54939410D01*
X151362820Y-54828816D01*
X151390537Y-54795043D01*
X157895049Y-48290532D01*
X157928817Y-48262819D01*
X158039411Y-48128061D01*
X158121589Y-47974315D01*
X158172195Y-47807492D01*
X158185000Y-47677479D01*
X158185000Y-47677469D01*
X158189281Y-47634003D01*
X158185000Y-47590536D01*
X158185000Y-43966578D01*
X166774688Y-35376890D01*
X179358524Y-35376890D01*
X179403175Y-35524099D01*
X179528359Y-35786920D01*
X179702412Y-36020269D01*
X179918645Y-36215178D01*
X180044255Y-36290000D01*
X179918645Y-36364822D01*
X179702412Y-36559731D01*
X179528359Y-36793080D01*
X179403175Y-37055901D01*
X179358524Y-37203110D01*
X179479845Y-37433000D01*
X180673000Y-37433000D01*
X180673000Y-35147000D01*
X180927000Y-35147000D01*
X180927000Y-37433000D01*
X182120155Y-37433000D01*
X182241476Y-37203110D01*
X182196825Y-37055901D01*
X182071641Y-36793080D01*
X181897588Y-36559731D01*
X181681355Y-36364822D01*
X181555745Y-36290000D01*
X181681355Y-36215178D01*
X181897588Y-36020269D01*
X182071641Y-35786920D01*
X182196825Y-35524099D01*
X182241476Y-35376890D01*
X182120155Y-35147000D01*
X180927000Y-35147000D01*
X180673000Y-35147000D01*
X179479845Y-35147000D01*
X179358524Y-35376890D01*
X166774688Y-35376890D01*
X169314688Y-32836890D01*
X179358524Y-32836890D01*
X179403175Y-32984099D01*
X179528359Y-33246920D01*
X179702412Y-33480269D01*
X179918645Y-33675178D01*
X180044255Y-33750000D01*
X179918645Y-33824822D01*
X179702412Y-34019731D01*
X179528359Y-34253080D01*
X179403175Y-34515901D01*
X179358524Y-34663110D01*
X179479845Y-34893000D01*
X180673000Y-34893000D01*
X180673000Y-32607000D01*
X180927000Y-32607000D01*
X180927000Y-34893000D01*
X182120155Y-34893000D01*
X182241476Y-34663110D01*
X182196825Y-34515901D01*
X182071641Y-34253080D01*
X181897588Y-34019731D01*
X181681355Y-33824822D01*
X181555745Y-33750000D01*
X181681355Y-33675178D01*
X181897588Y-33480269D01*
X182071641Y-33246920D01*
X182196825Y-32984099D01*
X182241476Y-32836890D01*
X182120155Y-32607000D01*
X180927000Y-32607000D01*
X180673000Y-32607000D01*
X179479845Y-32607000D01*
X179358524Y-32836890D01*
X169314688Y-32836890D01*
X169995049Y-32156530D01*
X170028817Y-32128817D01*
X170087138Y-32057754D01*
X170139410Y-31994060D01*
X170139411Y-31994059D01*
X170221589Y-31840313D01*
X170272195Y-31673490D01*
X170275935Y-31635518D01*
X170374482Y-31625812D01*
X170494180Y-31589502D01*
X170604494Y-31530537D01*
X170701185Y-31451185D01*
X170780537Y-31354494D01*
X170839502Y-31244180D01*
X170875812Y-31124482D01*
X170888072Y-31000000D01*
X170888072Y-30296890D01*
X179358524Y-30296890D01*
X179403175Y-30444099D01*
X179528359Y-30706920D01*
X179702412Y-30940269D01*
X179918645Y-31135178D01*
X180044255Y-31210000D01*
X179918645Y-31284822D01*
X179702412Y-31479731D01*
X179528359Y-31713080D01*
X179403175Y-31975901D01*
X179358524Y-32123110D01*
X179479845Y-32353000D01*
X180673000Y-32353000D01*
X180673000Y-30067000D01*
X180927000Y-30067000D01*
X180927000Y-32353000D01*
X182120155Y-32353000D01*
X182241476Y-32123110D01*
X182196825Y-31975901D01*
X182071641Y-31713080D01*
X181897588Y-31479731D01*
X181681355Y-31284822D01*
X181555745Y-31210000D01*
X181681355Y-31135178D01*
X181897588Y-30940269D01*
X182071641Y-30706920D01*
X182196825Y-30444099D01*
X182241476Y-30296890D01*
X182120155Y-30067000D01*
X180927000Y-30067000D01*
X180673000Y-30067000D01*
X179479845Y-30067000D01*
X179358524Y-30296890D01*
X170888072Y-30296890D01*
X170888072Y-29300000D01*
X170875812Y-29175518D01*
X170839502Y-29055820D01*
X170780537Y-28945506D01*
X170701185Y-28848815D01*
X170604494Y-28769463D01*
X170494180Y-28710498D01*
X170421620Y-28688487D01*
X170553475Y-28556632D01*
X170715990Y-28313411D01*
X170827932Y-28043158D01*
X170884874Y-27756890D01*
X179358524Y-27756890D01*
X179403175Y-27904099D01*
X179528359Y-28166920D01*
X179702412Y-28400269D01*
X179918645Y-28595178D01*
X180044255Y-28670000D01*
X179918645Y-28744822D01*
X179702412Y-28939731D01*
X179528359Y-29173080D01*
X179403175Y-29435901D01*
X179358524Y-29583110D01*
X179479845Y-29813000D01*
X180673000Y-29813000D01*
X180673000Y-27527000D01*
X180927000Y-27527000D01*
X180927000Y-29813000D01*
X182120155Y-29813000D01*
X182241476Y-29583110D01*
X182196825Y-29435901D01*
X182071641Y-29173080D01*
X181897588Y-28939731D01*
X181681355Y-28744822D01*
X181555745Y-28670000D01*
X181681355Y-28595178D01*
X181897588Y-28400269D01*
X182071641Y-28166920D01*
X182196825Y-27904099D01*
X182241476Y-27756890D01*
X182120155Y-27527000D01*
X180927000Y-27527000D01*
X180673000Y-27527000D01*
X179479845Y-27527000D01*
X179358524Y-27756890D01*
X170884874Y-27756890D01*
X170885000Y-27756260D01*
X170885000Y-27463740D01*
X170827932Y-27176842D01*
X170772539Y-27043110D01*
X179358524Y-27043110D01*
X179479845Y-27273000D01*
X180673000Y-27273000D01*
X180673000Y-26079186D01*
X180927000Y-26079186D01*
X180927000Y-27273000D01*
X182120155Y-27273000D01*
X182241476Y-27043110D01*
X182196825Y-26895901D01*
X182071641Y-26633080D01*
X181897588Y-26399731D01*
X181681355Y-26204822D01*
X181431252Y-26055843D01*
X181156891Y-25958519D01*
X180927000Y-26079186D01*
X180673000Y-26079186D01*
X180443109Y-25958519D01*
X180168748Y-26055843D01*
X179918645Y-26204822D01*
X179702412Y-26399731D01*
X179528359Y-26633080D01*
X179403175Y-26895901D01*
X179358524Y-27043110D01*
X170772539Y-27043110D01*
X170715990Y-26906589D01*
X170553475Y-26663368D01*
X170346632Y-26456525D01*
X170172240Y-26340000D01*
X170346632Y-26223475D01*
X170553475Y-26016632D01*
X170715990Y-25773411D01*
X170827932Y-25503158D01*
X170885000Y-25216260D01*
X170885000Y-24923740D01*
X170827932Y-24636842D01*
X170715990Y-24366589D01*
X170553475Y-24123368D01*
X170346632Y-23916525D01*
X170103411Y-23754010D01*
X169833158Y-23642068D01*
X169546260Y-23585000D01*
X169253740Y-23585000D01*
X168966842Y-23642068D01*
X168696589Y-23754010D01*
X168453368Y-23916525D01*
X168246525Y-24123368D01*
X168084010Y-24366589D01*
X167972068Y-24636842D01*
X167915000Y-24923740D01*
X167915000Y-25216260D01*
X167972068Y-25503158D01*
X168084010Y-25773411D01*
X168246525Y-26016632D01*
X168453368Y-26223475D01*
X168627760Y-26340000D01*
X168453368Y-26456525D01*
X168246525Y-26663368D01*
X168084010Y-26906589D01*
X167972068Y-27176842D01*
X167915000Y-27463740D01*
X167915000Y-27756260D01*
X167972068Y-28043158D01*
X168084010Y-28313411D01*
X168246525Y-28556632D01*
X168378380Y-28688487D01*
X168305820Y-28710498D01*
X168195506Y-28769463D01*
X168098815Y-28848815D01*
X168019463Y-28945506D01*
X167960498Y-29055820D01*
X167924188Y-29175518D01*
X167911928Y-29300000D01*
X167911928Y-31000000D01*
X167924188Y-31124482D01*
X167960498Y-31244180D01*
X168019463Y-31354494D01*
X168098815Y-31451185D01*
X168152872Y-31495549D01*
X156704956Y-42943466D01*
X156671183Y-42971183D01*
X156560589Y-43105942D01*
X156478411Y-43259688D01*
X156454412Y-43338800D01*
X156434639Y-43403984D01*
X156427805Y-43426511D01*
X156415000Y-43556524D01*
X156415000Y-43556531D01*
X156410719Y-43600000D01*
X156415000Y-43643469D01*
X156415001Y-47267422D01*
X154825748Y-48856676D01*
X154771641Y-48743080D01*
X154597588Y-48509731D01*
X154381355Y-48314822D01*
X154264466Y-48245195D01*
X154446632Y-48123475D01*
X154653475Y-47916632D01*
X154815990Y-47673411D01*
X154927932Y-47403158D01*
X154985000Y-47116260D01*
X154985000Y-46823740D01*
X154927932Y-46536842D01*
X154815990Y-46266589D01*
X154653475Y-46023368D01*
X154446632Y-45816525D01*
X154272240Y-45700000D01*
X154446632Y-45583475D01*
X154653475Y-45376632D01*
X154815990Y-45133411D01*
X154927932Y-44863158D01*
X154985000Y-44576260D01*
X154985000Y-44283740D01*
X154927932Y-43996842D01*
X154815990Y-43726589D01*
X154653475Y-43483368D01*
X154446632Y-43276525D01*
X154272240Y-43160000D01*
X154446632Y-43043475D01*
X154653475Y-42836632D01*
X154815990Y-42593411D01*
X154927932Y-42323158D01*
X154985000Y-42036260D01*
X154985000Y-41743740D01*
X154927932Y-41456842D01*
X154815990Y-41186589D01*
X154653475Y-40943368D01*
X154446632Y-40736525D01*
X154272240Y-40620000D01*
X154446632Y-40503475D01*
X154653475Y-40296632D01*
X154815990Y-40053411D01*
X154927932Y-39783158D01*
X154985000Y-39496260D01*
X154985000Y-39203740D01*
X154941209Y-38983592D01*
X155185998Y-38738803D01*
X155215002Y-38715000D01*
X155309975Y-38599275D01*
X155380547Y-38467246D01*
X155424004Y-38323985D01*
X155435001Y-38212332D01*
X155435001Y-38212323D01*
X155438677Y-38175000D01*
X155435001Y-38137677D01*
X155435001Y-36283321D01*
X155438677Y-36245998D01*
X155435001Y-36208675D01*
X155435001Y-36208666D01*
X155424004Y-36097013D01*
X155380547Y-35953752D01*
X155309975Y-35821723D01*
X155279004Y-35783985D01*
X155238800Y-35734995D01*
X155238796Y-35734991D01*
X155215002Y-35705998D01*
X155186010Y-35682205D01*
X154680296Y-35176492D01*
X154815990Y-34973411D01*
X154927932Y-34703158D01*
X154985000Y-34416260D01*
X154985000Y-34123740D01*
X154927932Y-33836842D01*
X154815990Y-33566589D01*
X154653475Y-33323368D01*
X154446632Y-33116525D01*
X154272240Y-33000000D01*
X154446632Y-32883475D01*
X154653475Y-32676632D01*
X154815990Y-32433411D01*
X154927932Y-32163158D01*
X154985000Y-31876260D01*
X154985000Y-31583740D01*
X154927932Y-31296842D01*
X154815990Y-31026589D01*
X154653475Y-30783368D01*
X154446632Y-30576525D01*
X154272240Y-30460000D01*
X154446632Y-30343475D01*
X154653475Y-30136632D01*
X154815990Y-29893411D01*
X154927932Y-29623158D01*
X154985000Y-29336260D01*
X154985000Y-29043740D01*
X154927932Y-28756842D01*
X154815990Y-28486589D01*
X154653475Y-28243368D01*
X154521620Y-28111513D01*
X154594180Y-28089502D01*
X154704494Y-28030537D01*
X154801185Y-27951185D01*
X154880537Y-27854494D01*
X154939502Y-27744180D01*
X154975812Y-27624482D01*
X154988072Y-27500000D01*
X154988072Y-25800000D01*
X154975812Y-25675518D01*
X154939502Y-25555820D01*
X154880537Y-25445506D01*
X154801185Y-25348815D01*
X154704494Y-25269463D01*
X154594180Y-25210498D01*
X154474482Y-25174188D01*
X154350000Y-25161928D01*
X152650000Y-25161928D01*
X152525518Y-25174188D01*
X152405820Y-25210498D01*
X152295506Y-25269463D01*
X152198815Y-25348815D01*
X152119463Y-25445506D01*
X152060498Y-25555820D01*
X152024188Y-25675518D01*
X152011928Y-25800000D01*
X152011928Y-27500000D01*
X152024188Y-27624482D01*
X152060498Y-27744180D01*
X152119463Y-27854494D01*
X152198815Y-27951185D01*
X152295506Y-28030537D01*
X152405820Y-28089502D01*
X152478380Y-28111513D01*
X152346525Y-28243368D01*
X152184010Y-28486589D01*
X152072068Y-28756842D01*
X152015000Y-29043740D01*
X152015000Y-29336260D01*
X152072068Y-29623158D01*
X152184010Y-29893411D01*
X152346525Y-30136632D01*
X152553368Y-30343475D01*
X152727760Y-30460000D01*
X152553368Y-30576525D01*
X152346525Y-30783368D01*
X152184010Y-31026589D01*
X152072068Y-31296842D01*
X152015000Y-31583740D01*
X152015000Y-31710197D01*
X144523804Y-24219003D01*
X144500001Y-24189999D01*
X144384276Y-24095026D01*
X144252247Y-24024454D01*
X144108986Y-23980997D01*
X143997333Y-23970000D01*
X143997322Y-23970000D01*
X143960000Y-23966324D01*
X143922678Y-23970000D01*
X117078178Y-23970000D01*
X116953475Y-23783368D01*
X116746632Y-23576525D01*
X116572240Y-23460000D01*
X116746632Y-23343475D01*
X116953475Y-23136632D01*
X117115990Y-22893411D01*
X117227932Y-22623158D01*
X117285000Y-22336260D01*
X117285000Y-22043740D01*
X117227932Y-21756842D01*
X117115990Y-21486589D01*
X116953475Y-21243368D01*
X116821620Y-21111513D01*
X116894180Y-21089502D01*
X117004494Y-21030537D01*
X117101185Y-20951185D01*
X117180537Y-20854494D01*
X117239502Y-20744180D01*
X117275812Y-20624482D01*
X117288072Y-20500000D01*
X117288072Y-18800000D01*
X117275812Y-18675518D01*
X117239502Y-18555820D01*
X117180537Y-18445506D01*
X117101185Y-18348815D01*
X117004494Y-18269463D01*
X116913411Y-18220777D01*
X183865000Y-18220777D01*
X183865000Y-18779223D01*
X183973948Y-19326939D01*
X184187656Y-19842876D01*
X184497912Y-20307207D01*
X184892793Y-20702088D01*
X185357124Y-21012344D01*
X185873061Y-21226052D01*
X186420777Y-21335000D01*
X186979223Y-21335000D01*
X187526939Y-21226052D01*
X188042876Y-21012344D01*
X188507207Y-20702088D01*
X188902088Y-20307207D01*
X189212344Y-19842876D01*
X189426052Y-19326939D01*
X189535000Y-18779223D01*
X189535000Y-18220777D01*
X189426052Y-17673061D01*
X189212344Y-17157124D01*
X188902088Y-16692793D01*
X188507207Y-16297912D01*
X188042876Y-15987656D01*
X187526939Y-15773948D01*
X186979223Y-15665000D01*
X186420777Y-15665000D01*
X185873061Y-15773948D01*
X185357124Y-15987656D01*
X184892793Y-16297912D01*
X184497912Y-16692793D01*
X184187656Y-17157124D01*
X183973948Y-17673061D01*
X183865000Y-18220777D01*
X116913411Y-18220777D01*
X116894180Y-18210498D01*
X116774482Y-18174188D01*
X116650000Y-18161928D01*
X114950000Y-18161928D01*
X114825518Y-18174188D01*
X114705820Y-18210498D01*
X114595506Y-18269463D01*
X114498815Y-18348815D01*
X114419463Y-18445506D01*
X114360498Y-18555820D01*
X114324188Y-18675518D01*
X114311928Y-18800000D01*
X114311928Y-20500000D01*
X114324188Y-20624482D01*
X114360498Y-20744180D01*
X114385410Y-20790786D01*
X105509003Y-29667194D01*
X105479999Y-29690997D01*
X105424871Y-29758172D01*
X105385026Y-29806722D01*
X105314455Y-29938751D01*
X105314454Y-29938752D01*
X105270997Y-30082013D01*
X105260000Y-30193666D01*
X105260000Y-30193676D01*
X105256324Y-30230998D01*
X105260000Y-30268320D01*
X105260001Y-42021821D01*
X105073368Y-42146525D01*
X104866525Y-42353368D01*
X104750000Y-42527760D01*
X104633475Y-42353368D01*
X104426632Y-42146525D01*
X104183411Y-41984010D01*
X103913158Y-41872068D01*
X103626260Y-41815000D01*
X103333740Y-41815000D01*
X103046842Y-41872068D01*
X102776589Y-41984010D01*
X102533368Y-42146525D01*
X102326525Y-42353368D01*
X102164010Y-42596589D01*
X102052068Y-42866842D01*
X101995000Y-43153740D01*
X91685000Y-43153740D01*
X91685000Y-23050000D01*
X102011928Y-23050000D01*
X102024188Y-23174482D01*
X102060498Y-23294180D01*
X102119463Y-23404494D01*
X102198815Y-23501185D01*
X102295506Y-23580537D01*
X102405820Y-23639502D01*
X102478380Y-23661513D01*
X102346525Y-23793368D01*
X102184010Y-24036589D01*
X102072068Y-24306842D01*
X102015000Y-24593740D01*
X102015000Y-24886260D01*
X102072068Y-25173158D01*
X102184010Y-25443411D01*
X102346525Y-25686632D01*
X102553368Y-25893475D01*
X102727760Y-26010000D01*
X102553368Y-26126525D01*
X102346525Y-26333368D01*
X102184010Y-26576589D01*
X102072068Y-26846842D01*
X102015000Y-27133740D01*
X102015000Y-27426260D01*
X102072068Y-27713158D01*
X102184010Y-27983411D01*
X102346525Y-28226632D01*
X102553368Y-28433475D01*
X102727760Y-28550000D01*
X102553368Y-28666525D01*
X102346525Y-28873368D01*
X102184010Y-29116589D01*
X102072068Y-29386842D01*
X102015000Y-29673740D01*
X102015000Y-29966260D01*
X102072068Y-30253158D01*
X102184010Y-30523411D01*
X102346525Y-30766632D01*
X102553368Y-30973475D01*
X102727760Y-31090000D01*
X102553368Y-31206525D01*
X102346525Y-31413368D01*
X102184010Y-31656589D01*
X102072068Y-31926842D01*
X102015000Y-32213740D01*
X102015000Y-32506260D01*
X102072068Y-32793158D01*
X102184010Y-33063411D01*
X102346525Y-33306632D01*
X102553368Y-33513475D01*
X102796589Y-33675990D01*
X103066842Y-33787932D01*
X103353740Y-33845000D01*
X103646260Y-33845000D01*
X103933158Y-33787932D01*
X104203411Y-33675990D01*
X104446632Y-33513475D01*
X104653475Y-33306632D01*
X104815990Y-33063411D01*
X104927932Y-32793158D01*
X104985000Y-32506260D01*
X104985000Y-32213740D01*
X104927932Y-31926842D01*
X104815990Y-31656589D01*
X104653475Y-31413368D01*
X104446632Y-31206525D01*
X104272240Y-31090000D01*
X104446632Y-30973475D01*
X104653475Y-30766632D01*
X104815990Y-30523411D01*
X104927932Y-30253158D01*
X104985000Y-29966260D01*
X104985000Y-29673740D01*
X104927932Y-29386842D01*
X104815990Y-29116589D01*
X104653475Y-28873368D01*
X104446632Y-28666525D01*
X104272240Y-28550000D01*
X104446632Y-28433475D01*
X104653475Y-28226632D01*
X104815990Y-27983411D01*
X104927932Y-27713158D01*
X104985000Y-27426260D01*
X104985000Y-27133740D01*
X104927932Y-26846842D01*
X104815990Y-26576589D01*
X104653475Y-26333368D01*
X104446632Y-26126525D01*
X104272240Y-26010000D01*
X104446632Y-25893475D01*
X104653475Y-25686632D01*
X104815990Y-25443411D01*
X104927932Y-25173158D01*
X104985000Y-24886260D01*
X104985000Y-24593740D01*
X104927932Y-24306842D01*
X104815990Y-24036589D01*
X104653475Y-23793368D01*
X104521620Y-23661513D01*
X104594180Y-23639502D01*
X104704494Y-23580537D01*
X104801185Y-23501185D01*
X104880537Y-23404494D01*
X104939502Y-23294180D01*
X104975812Y-23174482D01*
X104988072Y-23050000D01*
X104985000Y-22485750D01*
X104826250Y-22327000D01*
X103627000Y-22327000D01*
X103627000Y-22347000D01*
X103373000Y-22347000D01*
X103373000Y-22327000D01*
X102173750Y-22327000D01*
X102015000Y-22485750D01*
X102011928Y-23050000D01*
X91685000Y-23050000D01*
X91685000Y-21350000D01*
X102011928Y-21350000D01*
X102015000Y-21914250D01*
X102173750Y-22073000D01*
X103373000Y-22073000D01*
X103373000Y-20873750D01*
X103627000Y-20873750D01*
X103627000Y-22073000D01*
X104826250Y-22073000D01*
X104985000Y-21914250D01*
X104988072Y-21350000D01*
X104975812Y-21225518D01*
X104939502Y-21105820D01*
X104880537Y-20995506D01*
X104801185Y-20898815D01*
X104704494Y-20819463D01*
X104594180Y-20760498D01*
X104474482Y-20724188D01*
X104350000Y-20711928D01*
X103785750Y-20715000D01*
X103627000Y-20873750D01*
X103373000Y-20873750D01*
X103214250Y-20715000D01*
X102650000Y-20711928D01*
X102525518Y-20724188D01*
X102405820Y-20760498D01*
X102295506Y-20819463D01*
X102198815Y-20898815D01*
X102119463Y-20995506D01*
X102060498Y-21105820D01*
X102024188Y-21225518D01*
X102011928Y-21350000D01*
X91685000Y-21350000D01*
X91685000Y-18220777D01*
X92465000Y-18220777D01*
X92465000Y-18779223D01*
X92573948Y-19326939D01*
X92787656Y-19842876D01*
X93097912Y-20307207D01*
X93492793Y-20702088D01*
X93957124Y-21012344D01*
X94473061Y-21226052D01*
X95020777Y-21335000D01*
X95579223Y-21335000D01*
X96126939Y-21226052D01*
X96642876Y-21012344D01*
X97107207Y-20702088D01*
X97502088Y-20307207D01*
X97812344Y-19842876D01*
X98026052Y-19326939D01*
X98135000Y-18779223D01*
X98135000Y-18220777D01*
X98026052Y-17673061D01*
X97812344Y-17157124D01*
X97502088Y-16692793D01*
X97107207Y-16297912D01*
X96642876Y-15987656D01*
X96126939Y-15773948D01*
X95579223Y-15665000D01*
X95020777Y-15665000D01*
X94473061Y-15773948D01*
X93957124Y-15987656D01*
X93492793Y-16297912D01*
X93097912Y-16692793D01*
X92787656Y-17157124D01*
X92573948Y-17673061D01*
X92465000Y-18220777D01*
X91685000Y-18220777D01*
X91685000Y-14885000D01*
X190315000Y-14885000D01*
X190315001Y-86773000D01*
G37*
X190315001Y-86773000D02*
X91685000Y-86773000D01*
X91685000Y-43153740D01*
X101995000Y-43153740D01*
X101995000Y-43446260D01*
X102052068Y-43733158D01*
X102164010Y-44003411D01*
X102326525Y-44246632D01*
X102533368Y-44453475D01*
X102776589Y-44615990D01*
X103046842Y-44727932D01*
X103333740Y-44785000D01*
X103626260Y-44785000D01*
X103913158Y-44727932D01*
X104183411Y-44615990D01*
X104426632Y-44453475D01*
X104633475Y-44246632D01*
X104750000Y-44072240D01*
X104866525Y-44246632D01*
X105073368Y-44453475D01*
X105260000Y-44578179D01*
X105260001Y-50122668D01*
X105256324Y-50160000D01*
X105270998Y-50308985D01*
X105314454Y-50452246D01*
X105385026Y-50584276D01*
X105450024Y-50663475D01*
X105480000Y-50700001D01*
X105508998Y-50723799D01*
X106000199Y-51215000D01*
X105873740Y-51215000D01*
X105586842Y-51272068D01*
X105316589Y-51384010D01*
X105073368Y-51546525D01*
X104866525Y-51753368D01*
X104750000Y-51927760D01*
X104633475Y-51753368D01*
X104426632Y-51546525D01*
X104183411Y-51384010D01*
X103913158Y-51272068D01*
X103626260Y-51215000D01*
X103333740Y-51215000D01*
X103046842Y-51272068D01*
X102776589Y-51384010D01*
X102533368Y-51546525D01*
X102326525Y-51753368D01*
X102164010Y-51996589D01*
X102052068Y-52266842D01*
X101995000Y-52553740D01*
X101995000Y-52846260D01*
X102052068Y-53133158D01*
X102164010Y-53403411D01*
X102326525Y-53646632D01*
X102533368Y-53853475D01*
X102776589Y-54015990D01*
X103046842Y-54127932D01*
X103333740Y-54185000D01*
X103626260Y-54185000D01*
X103913158Y-54127932D01*
X104183411Y-54015990D01*
X104426632Y-53853475D01*
X104633475Y-53646632D01*
X104750000Y-53472240D01*
X104866525Y-53646632D01*
X105073368Y-53853475D01*
X105260000Y-53978178D01*
X105260001Y-78717669D01*
X105256324Y-78755002D01*
X105260001Y-78792335D01*
X105270998Y-78903988D01*
X105281619Y-78939002D01*
X105314454Y-79047248D01*
X105385026Y-79179278D01*
X105456201Y-79266004D01*
X105480000Y-79295003D01*
X105508998Y-79318801D01*
X110101199Y-83911003D01*
X110124997Y-83940001D01*
X110240722Y-84034974D01*
X110372751Y-84105546D01*
X110516012Y-84149003D01*
X110627665Y-84160000D01*
X110627674Y-84160000D01*
X110664997Y-84163676D01*
X110702320Y-84160000D01*
X135191680Y-84160000D01*
X135229002Y-84163676D01*
X135266324Y-84160000D01*
X135266335Y-84160000D01*
X135377988Y-84149003D01*
X135521249Y-84105546D01*
X135653278Y-84034974D01*
X135769003Y-83940001D01*
X135792806Y-83910997D01*
X140333508Y-79370296D01*
X140536589Y-79505990D01*
X140806842Y-79617932D01*
X141093740Y-79675000D01*
X141386260Y-79675000D01*
X141673158Y-79617932D01*
X141943411Y-79505990D01*
X142186632Y-79343475D01*
X142393475Y-79136632D01*
X142515195Y-78954466D01*
X142584822Y-79071355D01*
X142779731Y-79287588D01*
X143013080Y-79461641D01*
X143275901Y-79586825D01*
X143423110Y-79631476D01*
X143653000Y-79510155D01*
X143653000Y-78317000D01*
X143633000Y-78317000D01*
X143633000Y-78063000D01*
X143653000Y-78063000D01*
X143653000Y-78043000D01*
X143907000Y-78043000D01*
X143907000Y-78063000D01*
X143927000Y-78063000D01*
X143927000Y-78317000D01*
X143907000Y-78317000D01*
X143907000Y-79510155D01*
X144136890Y-79631476D01*
X144284099Y-79586825D01*
X144546920Y-79461641D01*
X144780269Y-79287588D01*
X144975178Y-79071355D01*
X145044805Y-78954466D01*
X145166525Y-79136632D01*
X145373368Y-79343475D01*
X145616589Y-79505990D01*
X145886842Y-79617932D01*
X146173740Y-79675000D01*
X146466260Y-79675000D01*
X146753158Y-79617932D01*
X147023411Y-79505990D01*
X147266632Y-79343475D01*
X147473475Y-79136632D01*
X147635990Y-78893411D01*
X147747932Y-78623158D01*
X147805000Y-78336260D01*
X147805000Y-78043740D01*
X147747932Y-77756842D01*
X147676753Y-77585001D01*
X152760200Y-77585001D01*
X156015000Y-80839803D01*
X156015000Y-80901939D01*
X156042462Y-81040000D01*
X143253711Y-81040000D01*
X143209774Y-80996063D01*
X143040256Y-80882795D01*
X142851898Y-80804774D01*
X142651939Y-80765000D01*
X142448061Y-80765000D01*
X142248102Y-80804774D01*
X142059744Y-80882795D01*
X141890226Y-80996063D01*
X141746063Y-81140226D01*
X141632795Y-81309744D01*
X141554774Y-81498102D01*
X141515000Y-81698061D01*
X141515000Y-81901939D01*
X141554774Y-82101898D01*
X141632795Y-82290256D01*
X141746063Y-82459774D01*
X141890226Y-82603937D01*
X142059744Y-82717205D01*
X142248102Y-82795226D01*
X142448061Y-82835000D01*
X142651939Y-82835000D01*
X142851898Y-82795226D01*
X143040256Y-82717205D01*
X143209774Y-82603937D01*
X143253711Y-82560000D01*
X176793682Y-82560000D01*
X176831004Y-82563676D01*
X176868326Y-82560000D01*
X176868337Y-82560000D01*
X176979990Y-82549003D01*
X177123251Y-82505546D01*
X177255280Y-82434974D01*
X177371005Y-82340001D01*
X177394808Y-82310997D01*
X180456014Y-79249792D01*
X180485011Y-79225995D01*
X180579984Y-79110270D01*
X180650556Y-78978241D01*
X180694013Y-78834980D01*
X180705010Y-78723327D01*
X180705010Y-78723326D01*
X180708687Y-78685994D01*
X180705010Y-78648661D01*
X180705010Y-77791328D01*
X180708686Y-77754005D01*
X180705010Y-77716682D01*
X180705010Y-77716673D01*
X180694013Y-77605020D01*
X180650556Y-77461759D01*
X180579984Y-77329730D01*
X180485011Y-77214005D01*
X180456012Y-77190206D01*
X179896315Y-76630510D01*
X180018932Y-76481101D01*
X180152182Y-76231808D01*
X180234236Y-75961309D01*
X180261943Y-75680000D01*
X180234236Y-75398691D01*
X180152182Y-75128192D01*
X180018932Y-74878899D01*
X179839608Y-74660392D01*
X179621101Y-74481068D01*
X179488142Y-74410000D01*
X179621101Y-74338932D01*
X179839608Y-74159608D01*
X180018932Y-73941101D01*
X180152182Y-73691808D01*
X180234236Y-73421309D01*
X180261943Y-73140000D01*
X180234236Y-72858691D01*
X180152182Y-72588192D01*
X180018932Y-72338899D01*
X179839608Y-72120392D01*
X179621101Y-71941068D01*
X179488142Y-71870000D01*
X179621101Y-71798932D01*
X179839608Y-71619608D01*
X180018932Y-71401101D01*
X180152182Y-71151808D01*
X180234236Y-70881309D01*
X180261943Y-70600000D01*
X180234236Y-70318691D01*
X180152182Y-70048192D01*
X180018932Y-69798899D01*
X179839608Y-69580392D01*
X179621101Y-69401068D01*
X179371808Y-69267818D01*
X179101309Y-69185764D01*
X178890492Y-69165000D01*
X177949508Y-69165000D01*
X177738691Y-69185764D01*
X177468192Y-69267818D01*
X177218899Y-69401068D01*
X177000392Y-69580392D01*
X176821068Y-69798899D01*
X176687818Y-70048192D01*
X176605764Y-70318691D01*
X176578057Y-70600000D01*
X176605764Y-70881309D01*
X176687818Y-71151808D01*
X176821068Y-71401101D01*
X177000392Y-71619608D01*
X177218899Y-71798932D01*
X177351858Y-71870000D01*
X177218899Y-71941068D01*
X177000392Y-72120392D01*
X176821068Y-72338899D01*
X176687818Y-72588192D01*
X176605764Y-72858691D01*
X176578057Y-73140000D01*
X176605764Y-73421309D01*
X176687818Y-73691808D01*
X176821068Y-73941101D01*
X177000392Y-74159608D01*
X177218899Y-74338932D01*
X177351858Y-74410000D01*
X177218899Y-74481068D01*
X177000392Y-74660392D01*
X176821068Y-74878899D01*
X176687818Y-75128192D01*
X176605764Y-75398691D01*
X176578057Y-75680000D01*
X176605764Y-75961309D01*
X176685553Y-76224340D01*
X173090214Y-72629003D01*
X173066411Y-72599999D01*
X172950686Y-72505026D01*
X172818657Y-72434454D01*
X172675396Y-72390997D01*
X172563743Y-72380000D01*
X172563732Y-72380000D01*
X172526410Y-72376324D01*
X172489088Y-72380000D01*
X172420901Y-72380000D01*
X172398932Y-72338899D01*
X172219608Y-72120392D01*
X172106518Y-72027581D01*
X172124482Y-72025812D01*
X172244180Y-71989502D01*
X172354494Y-71930537D01*
X172451185Y-71851185D01*
X172530537Y-71754494D01*
X172589502Y-71644180D01*
X172625812Y-71524482D01*
X172638072Y-71400000D01*
X172638072Y-69800000D01*
X172625812Y-69675518D01*
X172589502Y-69555820D01*
X172530537Y-69445506D01*
X172451185Y-69348815D01*
X172354494Y-69269463D01*
X172244180Y-69210498D01*
X172124482Y-69174188D01*
X172000000Y-69161928D01*
X169600000Y-69161928D01*
X169475518Y-69174188D01*
X169355820Y-69210498D01*
X169245506Y-69269463D01*
X169148815Y-69348815D01*
X169069463Y-69445506D01*
X169010498Y-69555820D01*
X168974188Y-69675518D01*
X168961928Y-69800000D01*
X168961928Y-71400000D01*
X168974188Y-71524482D01*
X169010498Y-71644180D01*
X169069463Y-71754494D01*
X169148815Y-71851185D01*
X169245506Y-71930537D01*
X169355820Y-71989502D01*
X169475518Y-72025812D01*
X169493482Y-72027581D01*
X169380392Y-72120392D01*
X169201068Y-72338899D01*
X169067818Y-72588192D01*
X168985764Y-72858691D01*
X168958057Y-73140000D01*
X168985764Y-73421309D01*
X169067818Y-73691808D01*
X169080214Y-73714999D01*
X163176344Y-73714999D01*
X163289215Y-73668246D01*
X163458733Y-73554978D01*
X163602896Y-73410815D01*
X163716164Y-73241297D01*
X163794185Y-73052939D01*
X163833959Y-72852980D01*
X163833959Y-72649102D01*
X163794185Y-72449143D01*
X163716164Y-72260785D01*
X163602896Y-72091267D01*
X163558959Y-72047330D01*
X163558959Y-62715842D01*
X164389802Y-61885000D01*
X164451939Y-61885000D01*
X164651898Y-61845226D01*
X164840256Y-61767205D01*
X165009774Y-61653937D01*
X165153937Y-61509774D01*
X165267205Y-61340256D01*
X165345226Y-61151898D01*
X165385000Y-60951939D01*
X165385000Y-60748061D01*
X165345226Y-60548102D01*
X165267205Y-60359744D01*
X165153937Y-60190226D01*
X165110000Y-60146289D01*
X165110000Y-41100000D01*
X167711928Y-41100000D01*
X167711928Y-42800000D01*
X167724188Y-42924482D01*
X167760498Y-43044180D01*
X167819463Y-43154494D01*
X167898815Y-43251185D01*
X167995506Y-43330537D01*
X168105820Y-43389502D01*
X168225518Y-43425812D01*
X168350000Y-43438072D01*
X170050000Y-43438072D01*
X170174482Y-43425812D01*
X170294180Y-43389502D01*
X170404494Y-43330537D01*
X170501185Y-43251185D01*
X170580537Y-43154494D01*
X170639502Y-43044180D01*
X170675812Y-42924482D01*
X170688072Y-42800000D01*
X170688072Y-41100000D01*
X170675812Y-40975518D01*
X170668072Y-40950000D01*
X179311928Y-40950000D01*
X179324188Y-41074482D01*
X179360498Y-41194180D01*
X179419463Y-41304494D01*
X179498815Y-41401185D01*
X179595506Y-41480537D01*
X179705820Y-41539502D01*
X179825518Y-41575812D01*
X179950000Y-41588072D01*
X180514250Y-41585000D01*
X180673000Y-41426250D01*
X180673000Y-40227000D01*
X180927000Y-40227000D01*
X180927000Y-41426250D01*
X181085750Y-41585000D01*
X181650000Y-41588072D01*
X181774482Y-41575812D01*
X181894180Y-41539502D01*
X182004494Y-41480537D01*
X182101185Y-41401185D01*
X182180537Y-41304494D01*
X182239502Y-41194180D01*
X182275812Y-41074482D01*
X182288072Y-40950000D01*
X182285000Y-40385750D01*
X182126250Y-40227000D01*
X180927000Y-40227000D01*
X180673000Y-40227000D01*
X179473750Y-40227000D01*
X179315000Y-40385750D01*
X179311928Y-40950000D01*
X170668072Y-40950000D01*
X170639502Y-40855820D01*
X170580537Y-40745506D01*
X170501185Y-40648815D01*
X170404494Y-40569463D01*
X170294180Y-40510498D01*
X170221620Y-40488487D01*
X170353475Y-40356632D01*
X170515990Y-40113411D01*
X170627932Y-39843158D01*
X170685000Y-39556260D01*
X170685000Y-39263740D01*
X170682267Y-39250000D01*
X179311928Y-39250000D01*
X179315000Y-39814250D01*
X179473750Y-39973000D01*
X180673000Y-39973000D01*
X180673000Y-37687000D01*
X180927000Y-37687000D01*
X180927000Y-39973000D01*
X182126250Y-39973000D01*
X182285000Y-39814250D01*
X182288072Y-39250000D01*
X182275812Y-39125518D01*
X182239502Y-39005820D01*
X182180537Y-38895506D01*
X182101185Y-38798815D01*
X182004494Y-38719463D01*
X181894180Y-38660498D01*
X181813534Y-38636034D01*
X181897588Y-38560269D01*
X182071641Y-38326920D01*
X182196825Y-38064099D01*
X182241476Y-37916890D01*
X182120155Y-37687000D01*
X180927000Y-37687000D01*
X180673000Y-37687000D01*
X179479845Y-37687000D01*
X179358524Y-37916890D01*
X179403175Y-38064099D01*
X179528359Y-38326920D01*
X179702412Y-38560269D01*
X179786466Y-38636034D01*
X179705820Y-38660498D01*
X179595506Y-38719463D01*
X179498815Y-38798815D01*
X179419463Y-38895506D01*
X179360498Y-39005820D01*
X179324188Y-39125518D01*
X179311928Y-39250000D01*
X170682267Y-39250000D01*
X170627932Y-38976842D01*
X170515990Y-38706589D01*
X170353475Y-38463368D01*
X170146632Y-38256525D01*
X169972240Y-38140000D01*
X170146632Y-38023475D01*
X170353475Y-37816632D01*
X170515990Y-37573411D01*
X170627932Y-37303158D01*
X170685000Y-37016260D01*
X170685000Y-36723740D01*
X170627932Y-36436842D01*
X170515990Y-36166589D01*
X170353475Y-35923368D01*
X170146632Y-35716525D01*
X169903411Y-35554010D01*
X169633158Y-35442068D01*
X169346260Y-35385000D01*
X169053740Y-35385000D01*
X168766842Y-35442068D01*
X168496589Y-35554010D01*
X168253368Y-35716525D01*
X168046525Y-35923368D01*
X167884010Y-36166589D01*
X167772068Y-36436842D01*
X167715000Y-36723740D01*
X167715000Y-37016260D01*
X167772068Y-37303158D01*
X167884010Y-37573411D01*
X168046525Y-37816632D01*
X168253368Y-38023475D01*
X168427760Y-38140000D01*
X168253368Y-38256525D01*
X168046525Y-38463368D01*
X167884010Y-38706589D01*
X167772068Y-38976842D01*
X167715000Y-39263740D01*
X167715000Y-39556260D01*
X167772068Y-39843158D01*
X167884010Y-40113411D01*
X168046525Y-40356632D01*
X168178380Y-40488487D01*
X168105820Y-40510498D01*
X167995506Y-40569463D01*
X167898815Y-40648815D01*
X167819463Y-40745506D01*
X167760498Y-40855820D01*
X167724188Y-40975518D01*
X167711928Y-41100000D01*
X165110000Y-41100000D01*
X165110000Y-40253711D01*
X165253937Y-40109774D01*
X165367205Y-39940256D01*
X165445226Y-39751898D01*
X165485000Y-39551939D01*
X165485000Y-39348061D01*
X165445226Y-39148102D01*
X165367205Y-38959744D01*
X165253937Y-38790226D01*
X165109774Y-38646063D01*
X164940256Y-38532795D01*
X164751898Y-38454774D01*
X164551939Y-38415000D01*
X164348061Y-38415000D01*
X164148102Y-38454774D01*
X163959744Y-38532795D01*
X163790226Y-38646063D01*
X163646063Y-38790226D01*
X163532795Y-38959744D01*
X163454774Y-39148102D01*
X163415000Y-39348061D01*
X163415000Y-39551939D01*
X163454774Y-39751898D01*
X163532795Y-39940256D01*
X163590001Y-40025871D01*
X163590000Y-60146289D01*
X163546063Y-60190226D01*
X163432795Y-60359744D01*
X163354774Y-60548102D01*
X163315000Y-60748061D01*
X163315000Y-60810198D01*
X162287957Y-61837242D01*
X162258959Y-61861040D01*
X162235161Y-61890038D01*
X162235160Y-61890039D01*
X162163985Y-61976765D01*
X162093413Y-62108795D01*
X162063139Y-62208599D01*
X162050273Y-62251015D01*
X162049957Y-62252056D01*
X162035283Y-62401041D01*
X162038960Y-62438373D01*
X162038959Y-72047330D01*
X161995022Y-72091267D01*
X161881754Y-72260785D01*
X161803733Y-72449143D01*
X161763959Y-72649102D01*
X161763959Y-72852980D01*
X161803733Y-73052939D01*
X161881754Y-73241297D01*
X161995022Y-73410815D01*
X162139185Y-73554978D01*
X162308703Y-73668246D01*
X162421574Y-73714999D01*
X144992323Y-73714999D01*
X144955000Y-73711323D01*
X144917677Y-73714999D01*
X144917668Y-73714999D01*
X144806015Y-73725996D01*
X144662754Y-73769453D01*
X144530725Y-73840025D01*
X144415000Y-73934998D01*
X144391202Y-73963996D01*
X144146408Y-74208790D01*
X143926260Y-74165000D01*
X143633740Y-74165000D01*
X143413592Y-74208790D01*
X131093804Y-61889003D01*
X131070001Y-61859999D01*
X130954276Y-61765026D01*
X130822247Y-61694454D01*
X130678986Y-61650997D01*
X130567333Y-61640000D01*
X130567322Y-61640000D01*
X130530000Y-61636324D01*
X130492678Y-61640000D01*
X120038072Y-61640000D01*
X120038072Y-61550000D01*
X120025812Y-61425518D01*
X119989502Y-61305820D01*
X119930537Y-61195506D01*
X119851185Y-61098815D01*
X119754494Y-61019463D01*
X119644180Y-60960498D01*
X119524482Y-60924188D01*
X119400000Y-60911928D01*
X117700000Y-60911928D01*
X117575518Y-60924188D01*
X117455820Y-60960498D01*
X117345506Y-61019463D01*
X117248815Y-61098815D01*
X117169463Y-61195506D01*
X117110498Y-61305820D01*
X117074188Y-61425518D01*
X117061928Y-61550000D01*
X117061928Y-62813270D01*
X115695199Y-64180000D01*
X113795937Y-64180000D01*
X113909774Y-64103937D01*
X114053937Y-63959774D01*
X114167205Y-63790256D01*
X114245226Y-63601898D01*
X114285000Y-63401939D01*
X114285000Y-63198061D01*
X114245226Y-62998102D01*
X114167205Y-62809744D01*
X114053937Y-62640226D01*
X113909774Y-62496063D01*
X113740256Y-62382795D01*
X113551898Y-62304774D01*
X113351939Y-62265000D01*
X113148061Y-62265000D01*
X112948102Y-62304774D01*
X112759744Y-62382795D01*
X112590226Y-62496063D01*
X112546289Y-62540000D01*
X109538072Y-62540000D01*
X109538072Y-61550000D01*
X109525812Y-61425518D01*
X109489502Y-61305820D01*
X109430537Y-61195506D01*
X109351185Y-61098815D01*
X109337345Y-61087456D01*
X126409803Y-44014999D01*
X127068456Y-44014999D01*
X127015000Y-44283740D01*
X127015000Y-44576260D01*
X127072068Y-44863158D01*
X127184010Y-45133411D01*
X127346525Y-45376632D01*
X127553368Y-45583475D01*
X127727760Y-45700000D01*
X127553368Y-45816525D01*
X127346525Y-46023368D01*
X127184010Y-46266589D01*
X127072068Y-46536842D01*
X127015000Y-46823740D01*
X127015000Y-47116260D01*
X127072068Y-47403158D01*
X127184010Y-47673411D01*
X127346525Y-47916632D01*
X127553368Y-48123475D01*
X127727760Y-48240000D01*
X127553368Y-48356525D01*
X127346525Y-48563368D01*
X127184010Y-48806589D01*
X127072068Y-49076842D01*
X127015000Y-49363740D01*
X127015000Y-49656260D01*
X127072068Y-49943158D01*
X127184010Y-50213411D01*
X127346525Y-50456632D01*
X127553368Y-50663475D01*
X127796589Y-50825990D01*
X128066842Y-50937932D01*
X128353740Y-50995000D01*
X128646260Y-50995000D01*
X128933158Y-50937932D01*
X129203411Y-50825990D01*
X129446632Y-50663475D01*
X129653475Y-50456632D01*
X129815990Y-50213411D01*
X129927932Y-49943158D01*
X129985000Y-49656260D01*
X129985000Y-49363740D01*
X129927932Y-49076842D01*
X129815990Y-48806589D01*
X129653475Y-48563368D01*
X129446632Y-48356525D01*
X129272240Y-48240000D01*
X129446632Y-48123475D01*
X129653475Y-47916632D01*
X129815990Y-47673411D01*
X129927932Y-47403158D01*
X129985000Y-47116260D01*
X129985000Y-46823740D01*
X129927932Y-46536842D01*
X129815990Y-46266589D01*
X129653475Y-46023368D01*
X129446632Y-45816525D01*
X129272240Y-45700000D01*
X129446632Y-45583475D01*
X129653475Y-45376632D01*
X129815990Y-45133411D01*
X129927932Y-44863158D01*
X129985000Y-44576260D01*
X129985000Y-44283740D01*
X129927932Y-43996842D01*
X129815990Y-43726589D01*
X129680296Y-43523508D01*
X130186003Y-43017800D01*
X130215002Y-42994002D01*
X130309975Y-42878277D01*
X130380547Y-42746248D01*
X130424004Y-42602987D01*
X130435001Y-42491334D01*
X130435001Y-42491323D01*
X130438677Y-42454002D01*
X130435001Y-42416679D01*
X130435001Y-39466798D01*
X131090001Y-38811799D01*
X131090001Y-39335670D01*
X131086324Y-39373002D01*
X131100998Y-39521987D01*
X131144454Y-39665248D01*
X131215026Y-39797278D01*
X131286201Y-39884004D01*
X131310000Y-39913003D01*
X131338998Y-39936801D01*
X134688200Y-43286004D01*
X134711998Y-43315002D01*
X134740996Y-43338800D01*
X134827722Y-43409975D01*
X134895606Y-43446260D01*
X134959752Y-43480547D01*
X135103013Y-43524004D01*
X135214666Y-43535001D01*
X135214675Y-43535001D01*
X135251998Y-43538677D01*
X135289321Y-43535001D01*
X147497677Y-43535001D01*
X147534999Y-43538677D01*
X147572321Y-43535001D01*
X147572332Y-43535001D01*
X147683985Y-43524004D01*
X147827246Y-43480547D01*
X147959275Y-43409975D01*
X148075000Y-43315002D01*
X148098803Y-43285998D01*
X152015000Y-39369802D01*
X152015000Y-39496260D01*
X152072068Y-39783158D01*
X152184010Y-40053411D01*
X152346525Y-40296632D01*
X152553368Y-40503475D01*
X152727760Y-40620000D01*
X152553368Y-40736525D01*
X152346525Y-40943368D01*
X152184010Y-41186589D01*
X152072068Y-41456842D01*
X152015000Y-41743740D01*
X152015000Y-42036260D01*
X152072068Y-42323158D01*
X152184010Y-42593411D01*
X152346525Y-42836632D01*
X152553368Y-43043475D01*
X152727760Y-43160000D01*
X152553368Y-43276525D01*
X152346525Y-43483368D01*
X152184010Y-43726589D01*
X152072068Y-43996842D01*
X152015000Y-44283740D01*
X152015000Y-44576260D01*
X152072068Y-44863158D01*
X152184010Y-45133411D01*
X152346525Y-45376632D01*
X152553368Y-45583475D01*
X152727760Y-45700000D01*
X152553368Y-45816525D01*
X152346525Y-46023368D01*
X152184010Y-46266589D01*
X152072068Y-46536842D01*
X152015000Y-46823740D01*
X152015000Y-47116260D01*
X152072068Y-47403158D01*
X152184010Y-47673411D01*
X152346525Y-47916632D01*
X152553368Y-48123475D01*
X152735534Y-48245195D01*
X152618645Y-48314822D01*
X152402412Y-48509731D01*
X152228359Y-48743080D01*
X152103175Y-49005901D01*
X152058524Y-49153110D01*
X152179845Y-49383000D01*
X153373000Y-49383000D01*
X153373000Y-49363000D01*
X153627000Y-49363000D01*
X153627000Y-49383000D01*
X153647000Y-49383000D01*
X153647000Y-49637000D01*
X153627000Y-49637000D01*
X153627000Y-49657000D01*
X153373000Y-49657000D01*
X153373000Y-49637000D01*
X152179845Y-49637000D01*
X152058524Y-49866890D01*
X152103175Y-50014099D01*
X152228359Y-50276920D01*
X152402412Y-50510269D01*
X152618645Y-50705178D01*
X152843378Y-50839045D01*
X150367425Y-53314999D01*
X141383470Y-53314999D01*
X141340001Y-53310718D01*
X141296532Y-53314999D01*
X141296524Y-53314999D01*
X141181307Y-53326347D01*
X141166510Y-53327804D01*
X141142878Y-53334973D01*
X140999688Y-53378410D01*
X140845942Y-53460588D01*
X140711184Y-53571182D01*
X140683469Y-53604953D01*
X140294958Y-53993464D01*
X140294952Y-53993469D01*
X140258960Y-54029461D01*
X140186260Y-54015000D01*
X139893740Y-54015000D01*
X139606842Y-54072068D01*
X139336589Y-54184010D01*
X139093368Y-54346525D01*
X138961513Y-54478380D01*
X138939502Y-54405820D01*
X138880537Y-54295506D01*
X138801185Y-54198815D01*
X138704494Y-54119463D01*
X138594180Y-54060498D01*
X138474482Y-54024188D01*
X138350000Y-54011928D01*
X136650000Y-54011928D01*
X136525518Y-54024188D01*
X136405820Y-54060498D01*
X136295506Y-54119463D01*
X136198815Y-54198815D01*
X136119463Y-54295506D01*
X136060498Y-54405820D01*
X136024188Y-54525518D01*
X136011928Y-54650000D01*
X136011928Y-56350000D01*
X136024188Y-56474482D01*
X136060498Y-56594180D01*
X136119463Y-56704494D01*
X136198815Y-56801185D01*
X136295506Y-56880537D01*
X136405820Y-56939502D01*
X136525518Y-56975812D01*
X136650000Y-56988072D01*
X138350000Y-56988072D01*
X138474482Y-56975812D01*
X138594180Y-56939502D01*
X138704494Y-56880537D01*
X138801185Y-56801185D01*
X138880537Y-56704494D01*
X138939502Y-56594180D01*
X138961513Y-56521620D01*
X139093368Y-56653475D01*
X139155000Y-56694656D01*
X139155001Y-58866521D01*
X139150719Y-58910000D01*
X139167805Y-59083490D01*
X139218412Y-59250313D01*
X139300590Y-59404059D01*
X139383468Y-59505046D01*
X139383471Y-59505049D01*
X139411184Y-59538817D01*
X139444951Y-59566530D01*
X141001770Y-61123348D01*
X140756842Y-61172068D01*
X140486589Y-61284010D01*
X140243368Y-61446525D01*
X140111513Y-61578380D01*
X140089502Y-61505820D01*
X140030537Y-61395506D01*
X139951185Y-61298815D01*
X139854494Y-61219463D01*
X139744180Y-61160498D01*
X139624482Y-61124188D01*
X139500000Y-61111928D01*
X137800000Y-61111928D01*
X137675518Y-61124188D01*
X137555820Y-61160498D01*
X137445506Y-61219463D01*
X137348815Y-61298815D01*
X137269463Y-61395506D01*
X137210498Y-61505820D01*
X137174188Y-61625518D01*
X137161928Y-61750000D01*
X137161928Y-63450000D01*
X137174188Y-63574482D01*
X137210498Y-63694180D01*
X137269463Y-63804494D01*
X137348815Y-63901185D01*
X137445506Y-63980537D01*
X137555820Y-64039502D01*
X137675518Y-64075812D01*
X137800000Y-64088072D01*
X139500000Y-64088072D01*
X139624482Y-64075812D01*
X139744180Y-64039502D01*
X139854494Y-63980537D01*
X139951185Y-63901185D01*
X140030537Y-63804494D01*
X140089502Y-63694180D01*
X140111513Y-63621620D01*
X140243368Y-63753475D01*
X140486589Y-63915990D01*
X140756842Y-64027932D01*
X141043740Y-64085000D01*
X141336260Y-64085000D01*
X141623158Y-64027932D01*
X141893411Y-63915990D01*
X142136632Y-63753475D01*
X142343475Y-63546632D01*
X142460000Y-63372240D01*
X142576525Y-63546632D01*
X142783368Y-63753475D01*
X143026589Y-63915990D01*
X143296842Y-64027932D01*
X143583740Y-64085000D01*
X143876260Y-64085000D01*
X144163158Y-64027932D01*
X144433411Y-63915990D01*
X144676632Y-63753475D01*
X144883475Y-63546632D01*
X145045990Y-63303411D01*
X145157932Y-63033158D01*
X145215000Y-62746260D01*
X145215000Y-62503740D01*
X151225000Y-62503740D01*
X151225000Y-62796260D01*
X151282068Y-63083158D01*
X151394010Y-63353411D01*
X151556525Y-63596632D01*
X151763368Y-63803475D01*
X152006589Y-63965990D01*
X152276842Y-64077932D01*
X152563740Y-64135000D01*
X152856260Y-64135000D01*
X153143158Y-64077932D01*
X153413411Y-63965990D01*
X153656632Y-63803475D01*
X153788487Y-63671620D01*
X153810498Y-63744180D01*
X153869463Y-63854494D01*
X153948815Y-63951185D01*
X154045506Y-64030537D01*
X154155820Y-64089502D01*
X154275518Y-64125812D01*
X154400000Y-64138072D01*
X156100000Y-64138072D01*
X156224482Y-64125812D01*
X156344180Y-64089502D01*
X156454494Y-64030537D01*
X156551185Y-63951185D01*
X156630537Y-63854494D01*
X156689502Y-63744180D01*
X156725812Y-63624482D01*
X156738072Y-63500000D01*
X156738072Y-61800000D01*
X156725812Y-61675518D01*
X156689502Y-61555820D01*
X156630537Y-61445506D01*
X156551185Y-61348815D01*
X156454494Y-61269463D01*
X156344180Y-61210498D01*
X156224482Y-61174188D01*
X156100000Y-61161928D01*
X154400000Y-61161928D01*
X154275518Y-61174188D01*
X154155820Y-61210498D01*
X154045506Y-61269463D01*
X153948815Y-61348815D01*
X153869463Y-61445506D01*
X153810498Y-61555820D01*
X153788487Y-61628380D01*
X153656632Y-61496525D01*
X153413411Y-61334010D01*
X153143158Y-61222068D01*
X152856260Y-61165000D01*
X152563740Y-61165000D01*
X152276842Y-61222068D01*
X152006589Y-61334010D01*
X151763368Y-61496525D01*
X151556525Y-61703368D01*
X151394010Y-61946589D01*
X151282068Y-62216842D01*
X151225000Y-62503740D01*
X145215000Y-62503740D01*
X145215000Y-62453740D01*
X145157932Y-62166842D01*
X145045990Y-61896589D01*
X144883475Y-61653368D01*
X144676632Y-61446525D01*
X144433411Y-61284010D01*
X144163158Y-61172068D01*
X143876260Y-61115000D01*
X143583740Y-61115000D01*
X143511040Y-61129461D01*
X140925000Y-58543422D01*
X140925000Y-56694656D01*
X140986632Y-56653475D01*
X141193475Y-56446632D01*
X141310000Y-56272240D01*
X141426525Y-56446632D01*
X141633368Y-56653475D01*
X141876589Y-56815990D01*
X142146842Y-56927932D01*
X142433740Y-56985000D01*
X142726260Y-56985000D01*
X143013158Y-56927932D01*
X143283411Y-56815990D01*
X143526632Y-56653475D01*
X143733475Y-56446632D01*
X143855195Y-56264466D01*
X143924822Y-56381355D01*
X144119731Y-56597588D01*
X144353080Y-56771641D01*
X144615901Y-56896825D01*
X144763110Y-56941476D01*
X144993000Y-56820155D01*
X144993000Y-55627000D01*
X145247000Y-55627000D01*
X145247000Y-56820155D01*
X145476890Y-56941476D01*
X145624099Y-56896825D01*
X145886920Y-56771641D01*
X146120269Y-56597588D01*
X146315178Y-56381355D01*
X146464157Y-56131252D01*
X146561481Y-55856891D01*
X146440814Y-55627000D01*
X145247000Y-55627000D01*
X144993000Y-55627000D01*
X144973000Y-55627000D01*
X144973000Y-55373000D01*
X144993000Y-55373000D01*
X144993000Y-55353000D01*
X145247000Y-55353000D01*
X145247000Y-55373000D01*
X146440814Y-55373000D01*
X146561481Y-55143109D01*
X146540868Y-55084999D01*
X150690534Y-55084999D01*
X150734003Y-55089280D01*
X150777472Y-55084999D01*
X150777480Y-55084999D01*
X150907493Y-55072194D01*
X151074316Y-55021588D01*
X151228062Y-54939410D01*
X151362820Y-54828816D01*
X151390537Y-54795043D01*
X157895049Y-48290532D01*
X157928817Y-48262819D01*
X158039411Y-48128061D01*
X158121589Y-47974315D01*
X158172195Y-47807492D01*
X158185000Y-47677479D01*
X158185000Y-47677469D01*
X158189281Y-47634003D01*
X158185000Y-47590536D01*
X158185000Y-43966578D01*
X166774688Y-35376890D01*
X179358524Y-35376890D01*
X179403175Y-35524099D01*
X179528359Y-35786920D01*
X179702412Y-36020269D01*
X179918645Y-36215178D01*
X180044255Y-36290000D01*
X179918645Y-36364822D01*
X179702412Y-36559731D01*
X179528359Y-36793080D01*
X179403175Y-37055901D01*
X179358524Y-37203110D01*
X179479845Y-37433000D01*
X180673000Y-37433000D01*
X180673000Y-35147000D01*
X180927000Y-35147000D01*
X180927000Y-37433000D01*
X182120155Y-37433000D01*
X182241476Y-37203110D01*
X182196825Y-37055901D01*
X182071641Y-36793080D01*
X181897588Y-36559731D01*
X181681355Y-36364822D01*
X181555745Y-36290000D01*
X181681355Y-36215178D01*
X181897588Y-36020269D01*
X182071641Y-35786920D01*
X182196825Y-35524099D01*
X182241476Y-35376890D01*
X182120155Y-35147000D01*
X180927000Y-35147000D01*
X180673000Y-35147000D01*
X179479845Y-35147000D01*
X179358524Y-35376890D01*
X166774688Y-35376890D01*
X169314688Y-32836890D01*
X179358524Y-32836890D01*
X179403175Y-32984099D01*
X179528359Y-33246920D01*
X179702412Y-33480269D01*
X179918645Y-33675178D01*
X180044255Y-33750000D01*
X179918645Y-33824822D01*
X179702412Y-34019731D01*
X179528359Y-34253080D01*
X179403175Y-34515901D01*
X179358524Y-34663110D01*
X179479845Y-34893000D01*
X180673000Y-34893000D01*
X180673000Y-32607000D01*
X180927000Y-32607000D01*
X180927000Y-34893000D01*
X182120155Y-34893000D01*
X182241476Y-34663110D01*
X182196825Y-34515901D01*
X182071641Y-34253080D01*
X181897588Y-34019731D01*
X181681355Y-33824822D01*
X181555745Y-33750000D01*
X181681355Y-33675178D01*
X181897588Y-33480269D01*
X182071641Y-33246920D01*
X182196825Y-32984099D01*
X182241476Y-32836890D01*
X182120155Y-32607000D01*
X180927000Y-32607000D01*
X180673000Y-32607000D01*
X179479845Y-32607000D01*
X179358524Y-32836890D01*
X169314688Y-32836890D01*
X169995049Y-32156530D01*
X170028817Y-32128817D01*
X170087138Y-32057754D01*
X170139410Y-31994060D01*
X170139411Y-31994059D01*
X170221589Y-31840313D01*
X170272195Y-31673490D01*
X170275935Y-31635518D01*
X170374482Y-31625812D01*
X170494180Y-31589502D01*
X170604494Y-31530537D01*
X170701185Y-31451185D01*
X170780537Y-31354494D01*
X170839502Y-31244180D01*
X170875812Y-31124482D01*
X170888072Y-31000000D01*
X170888072Y-30296890D01*
X179358524Y-30296890D01*
X179403175Y-30444099D01*
X179528359Y-30706920D01*
X179702412Y-30940269D01*
X179918645Y-31135178D01*
X180044255Y-31210000D01*
X179918645Y-31284822D01*
X179702412Y-31479731D01*
X179528359Y-31713080D01*
X179403175Y-31975901D01*
X179358524Y-32123110D01*
X179479845Y-32353000D01*
X180673000Y-32353000D01*
X180673000Y-30067000D01*
X180927000Y-30067000D01*
X180927000Y-32353000D01*
X182120155Y-32353000D01*
X182241476Y-32123110D01*
X182196825Y-31975901D01*
X182071641Y-31713080D01*
X181897588Y-31479731D01*
X181681355Y-31284822D01*
X181555745Y-31210000D01*
X181681355Y-31135178D01*
X181897588Y-30940269D01*
X182071641Y-30706920D01*
X182196825Y-30444099D01*
X182241476Y-30296890D01*
X182120155Y-30067000D01*
X180927000Y-30067000D01*
X180673000Y-30067000D01*
X179479845Y-30067000D01*
X179358524Y-30296890D01*
X170888072Y-30296890D01*
X170888072Y-29300000D01*
X170875812Y-29175518D01*
X170839502Y-29055820D01*
X170780537Y-28945506D01*
X170701185Y-28848815D01*
X170604494Y-28769463D01*
X170494180Y-28710498D01*
X170421620Y-28688487D01*
X170553475Y-28556632D01*
X170715990Y-28313411D01*
X170827932Y-28043158D01*
X170884874Y-27756890D01*
X179358524Y-27756890D01*
X179403175Y-27904099D01*
X179528359Y-28166920D01*
X179702412Y-28400269D01*
X179918645Y-28595178D01*
X180044255Y-28670000D01*
X179918645Y-28744822D01*
X179702412Y-28939731D01*
X179528359Y-29173080D01*
X179403175Y-29435901D01*
X179358524Y-29583110D01*
X179479845Y-29813000D01*
X180673000Y-29813000D01*
X180673000Y-27527000D01*
X180927000Y-27527000D01*
X180927000Y-29813000D01*
X182120155Y-29813000D01*
X182241476Y-29583110D01*
X182196825Y-29435901D01*
X182071641Y-29173080D01*
X181897588Y-28939731D01*
X181681355Y-28744822D01*
X181555745Y-28670000D01*
X181681355Y-28595178D01*
X181897588Y-28400269D01*
X182071641Y-28166920D01*
X182196825Y-27904099D01*
X182241476Y-27756890D01*
X182120155Y-27527000D01*
X180927000Y-27527000D01*
X180673000Y-27527000D01*
X179479845Y-27527000D01*
X179358524Y-27756890D01*
X170884874Y-27756890D01*
X170885000Y-27756260D01*
X170885000Y-27463740D01*
X170827932Y-27176842D01*
X170772539Y-27043110D01*
X179358524Y-27043110D01*
X179479845Y-27273000D01*
X180673000Y-27273000D01*
X180673000Y-26079186D01*
X180927000Y-26079186D01*
X180927000Y-27273000D01*
X182120155Y-27273000D01*
X182241476Y-27043110D01*
X182196825Y-26895901D01*
X182071641Y-26633080D01*
X181897588Y-26399731D01*
X181681355Y-26204822D01*
X181431252Y-26055843D01*
X181156891Y-25958519D01*
X180927000Y-26079186D01*
X180673000Y-26079186D01*
X180443109Y-25958519D01*
X180168748Y-26055843D01*
X179918645Y-26204822D01*
X179702412Y-26399731D01*
X179528359Y-26633080D01*
X179403175Y-26895901D01*
X179358524Y-27043110D01*
X170772539Y-27043110D01*
X170715990Y-26906589D01*
X170553475Y-26663368D01*
X170346632Y-26456525D01*
X170172240Y-26340000D01*
X170346632Y-26223475D01*
X170553475Y-26016632D01*
X170715990Y-25773411D01*
X170827932Y-25503158D01*
X170885000Y-25216260D01*
X170885000Y-24923740D01*
X170827932Y-24636842D01*
X170715990Y-24366589D01*
X170553475Y-24123368D01*
X170346632Y-23916525D01*
X170103411Y-23754010D01*
X169833158Y-23642068D01*
X169546260Y-23585000D01*
X169253740Y-23585000D01*
X168966842Y-23642068D01*
X168696589Y-23754010D01*
X168453368Y-23916525D01*
X168246525Y-24123368D01*
X168084010Y-24366589D01*
X167972068Y-24636842D01*
X167915000Y-24923740D01*
X167915000Y-25216260D01*
X167972068Y-25503158D01*
X168084010Y-25773411D01*
X168246525Y-26016632D01*
X168453368Y-26223475D01*
X168627760Y-26340000D01*
X168453368Y-26456525D01*
X168246525Y-26663368D01*
X168084010Y-26906589D01*
X167972068Y-27176842D01*
X167915000Y-27463740D01*
X167915000Y-27756260D01*
X167972068Y-28043158D01*
X168084010Y-28313411D01*
X168246525Y-28556632D01*
X168378380Y-28688487D01*
X168305820Y-28710498D01*
X168195506Y-28769463D01*
X168098815Y-28848815D01*
X168019463Y-28945506D01*
X167960498Y-29055820D01*
X167924188Y-29175518D01*
X167911928Y-29300000D01*
X167911928Y-31000000D01*
X167924188Y-31124482D01*
X167960498Y-31244180D01*
X168019463Y-31354494D01*
X168098815Y-31451185D01*
X168152872Y-31495549D01*
X156704956Y-42943466D01*
X156671183Y-42971183D01*
X156560589Y-43105942D01*
X156478411Y-43259688D01*
X156454412Y-43338800D01*
X156434639Y-43403984D01*
X156427805Y-43426511D01*
X156415000Y-43556524D01*
X156415000Y-43556531D01*
X156410719Y-43600000D01*
X156415000Y-43643469D01*
X156415001Y-47267422D01*
X154825748Y-48856676D01*
X154771641Y-48743080D01*
X154597588Y-48509731D01*
X154381355Y-48314822D01*
X154264466Y-48245195D01*
X154446632Y-48123475D01*
X154653475Y-47916632D01*
X154815990Y-47673411D01*
X154927932Y-47403158D01*
X154985000Y-47116260D01*
X154985000Y-46823740D01*
X154927932Y-46536842D01*
X154815990Y-46266589D01*
X154653475Y-46023368D01*
X154446632Y-45816525D01*
X154272240Y-45700000D01*
X154446632Y-45583475D01*
X154653475Y-45376632D01*
X154815990Y-45133411D01*
X154927932Y-44863158D01*
X154985000Y-44576260D01*
X154985000Y-44283740D01*
X154927932Y-43996842D01*
X154815990Y-43726589D01*
X154653475Y-43483368D01*
X154446632Y-43276525D01*
X154272240Y-43160000D01*
X154446632Y-43043475D01*
X154653475Y-42836632D01*
X154815990Y-42593411D01*
X154927932Y-42323158D01*
X154985000Y-42036260D01*
X154985000Y-41743740D01*
X154927932Y-41456842D01*
X154815990Y-41186589D01*
X154653475Y-40943368D01*
X154446632Y-40736525D01*
X154272240Y-40620000D01*
X154446632Y-40503475D01*
X154653475Y-40296632D01*
X154815990Y-40053411D01*
X154927932Y-39783158D01*
X154985000Y-39496260D01*
X154985000Y-39203740D01*
X154941209Y-38983592D01*
X155185998Y-38738803D01*
X155215002Y-38715000D01*
X155309975Y-38599275D01*
X155380547Y-38467246D01*
X155424004Y-38323985D01*
X155435001Y-38212332D01*
X155435001Y-38212323D01*
X155438677Y-38175000D01*
X155435001Y-38137677D01*
X155435001Y-36283321D01*
X155438677Y-36245998D01*
X155435001Y-36208675D01*
X155435001Y-36208666D01*
X155424004Y-36097013D01*
X155380547Y-35953752D01*
X155309975Y-35821723D01*
X155279004Y-35783985D01*
X155238800Y-35734995D01*
X155238796Y-35734991D01*
X155215002Y-35705998D01*
X155186010Y-35682205D01*
X154680296Y-35176492D01*
X154815990Y-34973411D01*
X154927932Y-34703158D01*
X154985000Y-34416260D01*
X154985000Y-34123740D01*
X154927932Y-33836842D01*
X154815990Y-33566589D01*
X154653475Y-33323368D01*
X154446632Y-33116525D01*
X154272240Y-33000000D01*
X154446632Y-32883475D01*
X154653475Y-32676632D01*
X154815990Y-32433411D01*
X154927932Y-32163158D01*
X154985000Y-31876260D01*
X154985000Y-31583740D01*
X154927932Y-31296842D01*
X154815990Y-31026589D01*
X154653475Y-30783368D01*
X154446632Y-30576525D01*
X154272240Y-30460000D01*
X154446632Y-30343475D01*
X154653475Y-30136632D01*
X154815990Y-29893411D01*
X154927932Y-29623158D01*
X154985000Y-29336260D01*
X154985000Y-29043740D01*
X154927932Y-28756842D01*
X154815990Y-28486589D01*
X154653475Y-28243368D01*
X154521620Y-28111513D01*
X154594180Y-28089502D01*
X154704494Y-28030537D01*
X154801185Y-27951185D01*
X154880537Y-27854494D01*
X154939502Y-27744180D01*
X154975812Y-27624482D01*
X154988072Y-27500000D01*
X154988072Y-25800000D01*
X154975812Y-25675518D01*
X154939502Y-25555820D01*
X154880537Y-25445506D01*
X154801185Y-25348815D01*
X154704494Y-25269463D01*
X154594180Y-25210498D01*
X154474482Y-25174188D01*
X154350000Y-25161928D01*
X152650000Y-25161928D01*
X152525518Y-25174188D01*
X152405820Y-25210498D01*
X152295506Y-25269463D01*
X152198815Y-25348815D01*
X152119463Y-25445506D01*
X152060498Y-25555820D01*
X152024188Y-25675518D01*
X152011928Y-25800000D01*
X152011928Y-27500000D01*
X152024188Y-27624482D01*
X152060498Y-27744180D01*
X152119463Y-27854494D01*
X152198815Y-27951185D01*
X152295506Y-28030537D01*
X152405820Y-28089502D01*
X152478380Y-28111513D01*
X152346525Y-28243368D01*
X152184010Y-28486589D01*
X152072068Y-28756842D01*
X152015000Y-29043740D01*
X152015000Y-29336260D01*
X152072068Y-29623158D01*
X152184010Y-29893411D01*
X152346525Y-30136632D01*
X152553368Y-30343475D01*
X152727760Y-30460000D01*
X152553368Y-30576525D01*
X152346525Y-30783368D01*
X152184010Y-31026589D01*
X152072068Y-31296842D01*
X152015000Y-31583740D01*
X152015000Y-31710197D01*
X144523804Y-24219003D01*
X144500001Y-24189999D01*
X144384276Y-24095026D01*
X144252247Y-24024454D01*
X144108986Y-23980997D01*
X143997333Y-23970000D01*
X143997322Y-23970000D01*
X143960000Y-23966324D01*
X143922678Y-23970000D01*
X117078178Y-23970000D01*
X116953475Y-23783368D01*
X116746632Y-23576525D01*
X116572240Y-23460000D01*
X116746632Y-23343475D01*
X116953475Y-23136632D01*
X117115990Y-22893411D01*
X117227932Y-22623158D01*
X117285000Y-22336260D01*
X117285000Y-22043740D01*
X117227932Y-21756842D01*
X117115990Y-21486589D01*
X116953475Y-21243368D01*
X116821620Y-21111513D01*
X116894180Y-21089502D01*
X117004494Y-21030537D01*
X117101185Y-20951185D01*
X117180537Y-20854494D01*
X117239502Y-20744180D01*
X117275812Y-20624482D01*
X117288072Y-20500000D01*
X117288072Y-18800000D01*
X117275812Y-18675518D01*
X117239502Y-18555820D01*
X117180537Y-18445506D01*
X117101185Y-18348815D01*
X117004494Y-18269463D01*
X116913411Y-18220777D01*
X183865000Y-18220777D01*
X183865000Y-18779223D01*
X183973948Y-19326939D01*
X184187656Y-19842876D01*
X184497912Y-20307207D01*
X184892793Y-20702088D01*
X185357124Y-21012344D01*
X185873061Y-21226052D01*
X186420777Y-21335000D01*
X186979223Y-21335000D01*
X187526939Y-21226052D01*
X188042876Y-21012344D01*
X188507207Y-20702088D01*
X188902088Y-20307207D01*
X189212344Y-19842876D01*
X189426052Y-19326939D01*
X189535000Y-18779223D01*
X189535000Y-18220777D01*
X189426052Y-17673061D01*
X189212344Y-17157124D01*
X188902088Y-16692793D01*
X188507207Y-16297912D01*
X188042876Y-15987656D01*
X187526939Y-15773948D01*
X186979223Y-15665000D01*
X186420777Y-15665000D01*
X185873061Y-15773948D01*
X185357124Y-15987656D01*
X184892793Y-16297912D01*
X184497912Y-16692793D01*
X184187656Y-17157124D01*
X183973948Y-17673061D01*
X183865000Y-18220777D01*
X116913411Y-18220777D01*
X116894180Y-18210498D01*
X116774482Y-18174188D01*
X116650000Y-18161928D01*
X114950000Y-18161928D01*
X114825518Y-18174188D01*
X114705820Y-18210498D01*
X114595506Y-18269463D01*
X114498815Y-18348815D01*
X114419463Y-18445506D01*
X114360498Y-18555820D01*
X114324188Y-18675518D01*
X114311928Y-18800000D01*
X114311928Y-20500000D01*
X114324188Y-20624482D01*
X114360498Y-20744180D01*
X114385410Y-20790786D01*
X105509003Y-29667194D01*
X105479999Y-29690997D01*
X105424871Y-29758172D01*
X105385026Y-29806722D01*
X105314455Y-29938751D01*
X105314454Y-29938752D01*
X105270997Y-30082013D01*
X105260000Y-30193666D01*
X105260000Y-30193676D01*
X105256324Y-30230998D01*
X105260000Y-30268320D01*
X105260001Y-42021821D01*
X105073368Y-42146525D01*
X104866525Y-42353368D01*
X104750000Y-42527760D01*
X104633475Y-42353368D01*
X104426632Y-42146525D01*
X104183411Y-41984010D01*
X103913158Y-41872068D01*
X103626260Y-41815000D01*
X103333740Y-41815000D01*
X103046842Y-41872068D01*
X102776589Y-41984010D01*
X102533368Y-42146525D01*
X102326525Y-42353368D01*
X102164010Y-42596589D01*
X102052068Y-42866842D01*
X101995000Y-43153740D01*
X91685000Y-43153740D01*
X91685000Y-23050000D01*
X102011928Y-23050000D01*
X102024188Y-23174482D01*
X102060498Y-23294180D01*
X102119463Y-23404494D01*
X102198815Y-23501185D01*
X102295506Y-23580537D01*
X102405820Y-23639502D01*
X102478380Y-23661513D01*
X102346525Y-23793368D01*
X102184010Y-24036589D01*
X102072068Y-24306842D01*
X102015000Y-24593740D01*
X102015000Y-24886260D01*
X102072068Y-25173158D01*
X102184010Y-25443411D01*
X102346525Y-25686632D01*
X102553368Y-25893475D01*
X102727760Y-26010000D01*
X102553368Y-26126525D01*
X102346525Y-26333368D01*
X102184010Y-26576589D01*
X102072068Y-26846842D01*
X102015000Y-27133740D01*
X102015000Y-27426260D01*
X102072068Y-27713158D01*
X102184010Y-27983411D01*
X102346525Y-28226632D01*
X102553368Y-28433475D01*
X102727760Y-28550000D01*
X102553368Y-28666525D01*
X102346525Y-28873368D01*
X102184010Y-29116589D01*
X102072068Y-29386842D01*
X102015000Y-29673740D01*
X102015000Y-29966260D01*
X102072068Y-30253158D01*
X102184010Y-30523411D01*
X102346525Y-30766632D01*
X102553368Y-30973475D01*
X102727760Y-31090000D01*
X102553368Y-31206525D01*
X102346525Y-31413368D01*
X102184010Y-31656589D01*
X102072068Y-31926842D01*
X102015000Y-32213740D01*
X102015000Y-32506260D01*
X102072068Y-32793158D01*
X102184010Y-33063411D01*
X102346525Y-33306632D01*
X102553368Y-33513475D01*
X102796589Y-33675990D01*
X103066842Y-33787932D01*
X103353740Y-33845000D01*
X103646260Y-33845000D01*
X103933158Y-33787932D01*
X104203411Y-33675990D01*
X104446632Y-33513475D01*
X104653475Y-33306632D01*
X104815990Y-33063411D01*
X104927932Y-32793158D01*
X104985000Y-32506260D01*
X104985000Y-32213740D01*
X104927932Y-31926842D01*
X104815990Y-31656589D01*
X104653475Y-31413368D01*
X104446632Y-31206525D01*
X104272240Y-31090000D01*
X104446632Y-30973475D01*
X104653475Y-30766632D01*
X104815990Y-30523411D01*
X104927932Y-30253158D01*
X104985000Y-29966260D01*
X104985000Y-29673740D01*
X104927932Y-29386842D01*
X104815990Y-29116589D01*
X104653475Y-28873368D01*
X104446632Y-28666525D01*
X104272240Y-28550000D01*
X104446632Y-28433475D01*
X104653475Y-28226632D01*
X104815990Y-27983411D01*
X104927932Y-27713158D01*
X104985000Y-27426260D01*
X104985000Y-27133740D01*
X104927932Y-26846842D01*
X104815990Y-26576589D01*
X104653475Y-26333368D01*
X104446632Y-26126525D01*
X104272240Y-26010000D01*
X104446632Y-25893475D01*
X104653475Y-25686632D01*
X104815990Y-25443411D01*
X104927932Y-25173158D01*
X104985000Y-24886260D01*
X104985000Y-24593740D01*
X104927932Y-24306842D01*
X104815990Y-24036589D01*
X104653475Y-23793368D01*
X104521620Y-23661513D01*
X104594180Y-23639502D01*
X104704494Y-23580537D01*
X104801185Y-23501185D01*
X104880537Y-23404494D01*
X104939502Y-23294180D01*
X104975812Y-23174482D01*
X104988072Y-23050000D01*
X104985000Y-22485750D01*
X104826250Y-22327000D01*
X103627000Y-22327000D01*
X103627000Y-22347000D01*
X103373000Y-22347000D01*
X103373000Y-22327000D01*
X102173750Y-22327000D01*
X102015000Y-22485750D01*
X102011928Y-23050000D01*
X91685000Y-23050000D01*
X91685000Y-21350000D01*
X102011928Y-21350000D01*
X102015000Y-21914250D01*
X102173750Y-22073000D01*
X103373000Y-22073000D01*
X103373000Y-20873750D01*
X103627000Y-20873750D01*
X103627000Y-22073000D01*
X104826250Y-22073000D01*
X104985000Y-21914250D01*
X104988072Y-21350000D01*
X104975812Y-21225518D01*
X104939502Y-21105820D01*
X104880537Y-20995506D01*
X104801185Y-20898815D01*
X104704494Y-20819463D01*
X104594180Y-20760498D01*
X104474482Y-20724188D01*
X104350000Y-20711928D01*
X103785750Y-20715000D01*
X103627000Y-20873750D01*
X103373000Y-20873750D01*
X103214250Y-20715000D01*
X102650000Y-20711928D01*
X102525518Y-20724188D01*
X102405820Y-20760498D01*
X102295506Y-20819463D01*
X102198815Y-20898815D01*
X102119463Y-20995506D01*
X102060498Y-21105820D01*
X102024188Y-21225518D01*
X102011928Y-21350000D01*
X91685000Y-21350000D01*
X91685000Y-18220777D01*
X92465000Y-18220777D01*
X92465000Y-18779223D01*
X92573948Y-19326939D01*
X92787656Y-19842876D01*
X93097912Y-20307207D01*
X93492793Y-20702088D01*
X93957124Y-21012344D01*
X94473061Y-21226052D01*
X95020777Y-21335000D01*
X95579223Y-21335000D01*
X96126939Y-21226052D01*
X96642876Y-21012344D01*
X97107207Y-20702088D01*
X97502088Y-20307207D01*
X97812344Y-19842876D01*
X98026052Y-19326939D01*
X98135000Y-18779223D01*
X98135000Y-18220777D01*
X98026052Y-17673061D01*
X97812344Y-17157124D01*
X97502088Y-16692793D01*
X97107207Y-16297912D01*
X96642876Y-15987656D01*
X96126939Y-15773948D01*
X95579223Y-15665000D01*
X95020777Y-15665000D01*
X94473061Y-15773948D01*
X93957124Y-15987656D01*
X93492793Y-16297912D01*
X93097912Y-16692793D01*
X92787656Y-17157124D01*
X92573948Y-17673061D01*
X92465000Y-18220777D01*
X91685000Y-18220777D01*
X91685000Y-14885000D01*
X190315000Y-14885000D01*
X190315001Y-86773000D01*
G36*
X168985764Y-75398691D02*
G01*
X168958057Y-75680000D01*
X168985764Y-75961309D01*
X169067818Y-76231808D01*
X169201068Y-76481101D01*
X169380392Y-76699608D01*
X169598899Y-76878932D01*
X169726741Y-76947265D01*
X169497161Y-77097399D01*
X169295500Y-77295105D01*
X169136285Y-77528354D01*
X169025633Y-77788182D01*
X169008096Y-77870961D01*
X169130085Y-78093000D01*
X170673000Y-78093000D01*
X170673000Y-78073000D01*
X170927000Y-78073000D01*
X170927000Y-78093000D01*
X172469915Y-78093000D01*
X172591904Y-77870961D01*
X172574367Y-77788182D01*
X172463715Y-77528354D01*
X172304500Y-77295105D01*
X172102839Y-77097399D01*
X171873259Y-76947265D01*
X172001101Y-76878932D01*
X172219608Y-76699608D01*
X172398932Y-76481101D01*
X172532182Y-76231808D01*
X172614236Y-75961309D01*
X172641943Y-75680000D01*
X172614236Y-75398691D01*
X172564581Y-75234999D01*
X172910198Y-75234999D01*
X176406201Y-78731003D01*
X176429999Y-78760001D01*
X176545724Y-78854974D01*
X176677753Y-78925546D01*
X176787843Y-78958941D01*
X176821068Y-79021101D01*
X177000392Y-79239608D01*
X177218899Y-79418932D01*
X177468192Y-79552182D01*
X177738691Y-79634236D01*
X177905534Y-79650669D01*
X176516203Y-81040000D01*
X158057538Y-81040000D01*
X158085000Y-80901939D01*
X158085000Y-80698061D01*
X158045226Y-80498102D01*
X157967205Y-80309744D01*
X157853937Y-80140226D01*
X157709774Y-79996063D01*
X157540256Y-79882795D01*
X157351898Y-79804774D01*
X157151939Y-79765000D01*
X157089803Y-79765000D01*
X155893842Y-78569039D01*
X169008096Y-78569039D01*
X169025633Y-78651818D01*
X169136285Y-78911646D01*
X169295500Y-79144895D01*
X169497161Y-79342601D01*
X169733517Y-79497166D01*
X169995486Y-79602650D01*
X170273000Y-79655000D01*
X170673000Y-79655000D01*
X170673000Y-78347000D01*
X170927000Y-78347000D01*
X170927000Y-79655000D01*
X171327000Y-79655000D01*
X171604514Y-79602650D01*
X171866483Y-79497166D01*
X172102839Y-79342601D01*
X172304500Y-79144895D01*
X172463715Y-78911646D01*
X172574367Y-78651818D01*
X172591904Y-78569039D01*
X172469915Y-78347000D01*
X170927000Y-78347000D01*
X170673000Y-78347000D01*
X169130085Y-78347000D01*
X169008096Y-78569039D01*
X155893842Y-78569039D01*
X153638805Y-76314004D01*
X153615002Y-76285000D01*
X153499277Y-76190027D01*
X153367248Y-76119455D01*
X153223987Y-76075998D01*
X153112334Y-76065001D01*
X153112323Y-76065001D01*
X153075001Y-76061325D01*
X153037679Y-76065001D01*
X147751544Y-76065001D01*
X147805000Y-75796260D01*
X147805000Y-75503740D01*
X147751544Y-75234999D01*
X169035419Y-75234999D01*
X168985764Y-75398691D01*
G37*
X168985764Y-75398691D02*
X168958057Y-75680000D01*
X168985764Y-75961309D01*
X169067818Y-76231808D01*
X169201068Y-76481101D01*
X169380392Y-76699608D01*
X169598899Y-76878932D01*
X169726741Y-76947265D01*
X169497161Y-77097399D01*
X169295500Y-77295105D01*
X169136285Y-77528354D01*
X169025633Y-77788182D01*
X169008096Y-77870961D01*
X169130085Y-78093000D01*
X170673000Y-78093000D01*
X170673000Y-78073000D01*
X170927000Y-78073000D01*
X170927000Y-78093000D01*
X172469915Y-78093000D01*
X172591904Y-77870961D01*
X172574367Y-77788182D01*
X172463715Y-77528354D01*
X172304500Y-77295105D01*
X172102839Y-77097399D01*
X171873259Y-76947265D01*
X172001101Y-76878932D01*
X172219608Y-76699608D01*
X172398932Y-76481101D01*
X172532182Y-76231808D01*
X172614236Y-75961309D01*
X172641943Y-75680000D01*
X172614236Y-75398691D01*
X172564581Y-75234999D01*
X172910198Y-75234999D01*
X176406201Y-78731003D01*
X176429999Y-78760001D01*
X176545724Y-78854974D01*
X176677753Y-78925546D01*
X176787843Y-78958941D01*
X176821068Y-79021101D01*
X177000392Y-79239608D01*
X177218899Y-79418932D01*
X177468192Y-79552182D01*
X177738691Y-79634236D01*
X177905534Y-79650669D01*
X176516203Y-81040000D01*
X158057538Y-81040000D01*
X158085000Y-80901939D01*
X158085000Y-80698061D01*
X158045226Y-80498102D01*
X157967205Y-80309744D01*
X157853937Y-80140226D01*
X157709774Y-79996063D01*
X157540256Y-79882795D01*
X157351898Y-79804774D01*
X157151939Y-79765000D01*
X157089803Y-79765000D01*
X155893842Y-78569039D01*
X169008096Y-78569039D01*
X169025633Y-78651818D01*
X169136285Y-78911646D01*
X169295500Y-79144895D01*
X169497161Y-79342601D01*
X169733517Y-79497166D01*
X169995486Y-79602650D01*
X170273000Y-79655000D01*
X170673000Y-79655000D01*
X170673000Y-78347000D01*
X170927000Y-78347000D01*
X170927000Y-79655000D01*
X171327000Y-79655000D01*
X171604514Y-79602650D01*
X171866483Y-79497166D01*
X172102839Y-79342601D01*
X172304500Y-79144895D01*
X172463715Y-78911646D01*
X172574367Y-78651818D01*
X172591904Y-78569039D01*
X172469915Y-78347000D01*
X170927000Y-78347000D01*
X170673000Y-78347000D01*
X169130085Y-78347000D01*
X169008096Y-78569039D01*
X155893842Y-78569039D01*
X153638805Y-76314004D01*
X153615002Y-76285000D01*
X153499277Y-76190027D01*
X153367248Y-76119455D01*
X153223987Y-76075998D01*
X153112334Y-76065001D01*
X153112323Y-76065001D01*
X153075001Y-76061325D01*
X153037679Y-76065001D01*
X147751544Y-76065001D01*
X147805000Y-75796260D01*
X147805000Y-75503740D01*
X147751544Y-75234999D01*
X169035419Y-75234999D01*
X168985764Y-75398691D01*
G36*
X114484010Y-22893411D02*
G01*
X114646525Y-23136632D01*
X114853368Y-23343475D01*
X115027760Y-23460000D01*
X114853368Y-23576525D01*
X114646525Y-23783368D01*
X114484010Y-24026589D01*
X114372068Y-24296842D01*
X114315000Y-24583740D01*
X114315000Y-24876260D01*
X114372068Y-25163158D01*
X114484010Y-25433411D01*
X114646525Y-25676632D01*
X114853368Y-25883475D01*
X115027760Y-26000000D01*
X114853368Y-26116525D01*
X114646525Y-26323368D01*
X114484010Y-26566589D01*
X114372068Y-26836842D01*
X114315000Y-27123740D01*
X114315000Y-27416260D01*
X114372068Y-27703158D01*
X114484010Y-27973411D01*
X114646525Y-28216632D01*
X114853368Y-28423475D01*
X115027760Y-28540000D01*
X114853368Y-28656525D01*
X114646525Y-28863368D01*
X114484010Y-29106589D01*
X114372068Y-29376842D01*
X114315000Y-29663740D01*
X114315000Y-29956260D01*
X114372068Y-30243158D01*
X114484010Y-30513411D01*
X114646525Y-30756632D01*
X114853368Y-30963475D01*
X115027760Y-31080000D01*
X114853368Y-31196525D01*
X114646525Y-31403368D01*
X114521822Y-31590000D01*
X110764802Y-31590000D01*
X110185000Y-31010199D01*
X110185000Y-30948061D01*
X110145226Y-30748102D01*
X110067205Y-30559744D01*
X109953937Y-30390226D01*
X109809774Y-30246063D01*
X109640256Y-30132795D01*
X109451898Y-30054774D01*
X109251939Y-30015000D01*
X109048061Y-30015000D01*
X108848102Y-30054774D01*
X108659744Y-30132795D01*
X108490226Y-30246063D01*
X108346063Y-30390226D01*
X108232795Y-30559744D01*
X108154774Y-30748102D01*
X108115000Y-30948061D01*
X108115000Y-31151939D01*
X108154774Y-31351898D01*
X108232795Y-31540256D01*
X108346063Y-31709774D01*
X108490226Y-31853937D01*
X108659744Y-31967205D01*
X108848102Y-32045226D01*
X109048061Y-32085000D01*
X109110199Y-32085000D01*
X109886200Y-32861002D01*
X109909999Y-32890001D01*
X110025724Y-32984974D01*
X110157753Y-33055546D01*
X110301014Y-33099003D01*
X110412667Y-33110000D01*
X110412675Y-33110000D01*
X110450000Y-33113676D01*
X110487325Y-33110000D01*
X114521822Y-33110000D01*
X114646525Y-33296632D01*
X114853368Y-33503475D01*
X115035534Y-33625195D01*
X114918645Y-33694822D01*
X114702412Y-33889731D01*
X114528359Y-34123080D01*
X114403175Y-34385901D01*
X114358524Y-34533110D01*
X114479845Y-34763000D01*
X115673000Y-34763000D01*
X115673000Y-34743000D01*
X115927000Y-34743000D01*
X115927000Y-34763000D01*
X117120155Y-34763000D01*
X117241476Y-34533110D01*
X117196825Y-34385901D01*
X117071641Y-34123080D01*
X116897588Y-33889731D01*
X116681355Y-33694822D01*
X116564466Y-33625195D01*
X116746632Y-33503475D01*
X116913693Y-33336414D01*
X122263280Y-38686001D01*
X122287079Y-38715000D01*
X122316077Y-38738798D01*
X122402804Y-38809973D01*
X122534833Y-38880545D01*
X122678094Y-38924002D01*
X122827080Y-38938676D01*
X122864413Y-38934999D01*
X127068456Y-38934999D01*
X127015000Y-39203740D01*
X127015000Y-39496260D01*
X127072068Y-39783158D01*
X127184010Y-40053411D01*
X127346525Y-40296632D01*
X127553368Y-40503475D01*
X127727760Y-40620000D01*
X127553368Y-40736525D01*
X127346525Y-40943368D01*
X127184010Y-41186589D01*
X127072068Y-41456842D01*
X127015000Y-41743740D01*
X127015000Y-42036260D01*
X127072068Y-42323158D01*
X127143247Y-42494999D01*
X126132323Y-42494999D01*
X126095000Y-42491323D01*
X126057677Y-42494999D01*
X126057668Y-42494999D01*
X125946015Y-42505996D01*
X125846039Y-42536323D01*
X125802754Y-42549453D01*
X125670724Y-42620025D01*
X125615891Y-42665026D01*
X125555000Y-42714998D01*
X125531202Y-42743996D01*
X107634999Y-60640200D01*
X107634999Y-54699802D01*
X108193592Y-54141209D01*
X108413740Y-54185000D01*
X108706260Y-54185000D01*
X108993158Y-54127932D01*
X109263411Y-54015990D01*
X109506632Y-53853475D01*
X109638487Y-53721620D01*
X109660498Y-53794180D01*
X109719463Y-53904494D01*
X109798815Y-54001185D01*
X109895506Y-54080537D01*
X110005820Y-54139502D01*
X110125518Y-54175812D01*
X110250000Y-54188072D01*
X110814250Y-54185000D01*
X110973000Y-54026250D01*
X110973000Y-52827000D01*
X111227000Y-52827000D01*
X111227000Y-54026250D01*
X111385750Y-54185000D01*
X111950000Y-54188072D01*
X112074482Y-54175812D01*
X112194180Y-54139502D01*
X112304494Y-54080537D01*
X112401185Y-54001185D01*
X112480537Y-53904494D01*
X112539502Y-53794180D01*
X112575812Y-53674482D01*
X112588072Y-53550000D01*
X112585000Y-52985750D01*
X112426250Y-52827000D01*
X111227000Y-52827000D01*
X110973000Y-52827000D01*
X110953000Y-52827000D01*
X110953000Y-52573000D01*
X110973000Y-52573000D01*
X110973000Y-51373750D01*
X111227000Y-51373750D01*
X111227000Y-52573000D01*
X112426250Y-52573000D01*
X112585000Y-52414250D01*
X112588072Y-51850000D01*
X112575812Y-51725518D01*
X112539502Y-51605820D01*
X112480537Y-51495506D01*
X112401185Y-51398815D01*
X112304494Y-51319463D01*
X112194180Y-51260498D01*
X112074482Y-51224188D01*
X111950000Y-51211928D01*
X111385750Y-51215000D01*
X111227000Y-51373750D01*
X110973000Y-51373750D01*
X110814250Y-51215000D01*
X110250000Y-51211928D01*
X110125518Y-51224188D01*
X110005820Y-51260498D01*
X109895506Y-51319463D01*
X109798815Y-51398815D01*
X109719463Y-51495506D01*
X109660498Y-51605820D01*
X109638487Y-51678380D01*
X109506632Y-51546525D01*
X109263411Y-51384010D01*
X108993158Y-51272068D01*
X108706260Y-51215000D01*
X108413740Y-51215000D01*
X108193593Y-51258790D01*
X106780000Y-49845199D01*
X106780000Y-44578178D01*
X106966632Y-44453475D01*
X107173475Y-44246632D01*
X107290000Y-44072240D01*
X107406525Y-44246632D01*
X107613368Y-44453475D01*
X107856589Y-44615990D01*
X108126842Y-44727932D01*
X108413740Y-44785000D01*
X108706260Y-44785000D01*
X108993158Y-44727932D01*
X109263411Y-44615990D01*
X109506632Y-44453475D01*
X109638487Y-44321620D01*
X109660498Y-44394180D01*
X109719463Y-44504494D01*
X109798815Y-44601185D01*
X109895506Y-44680537D01*
X110005820Y-44739502D01*
X110125518Y-44775812D01*
X110250000Y-44788072D01*
X110814250Y-44785000D01*
X110973000Y-44626250D01*
X110973000Y-43427000D01*
X111227000Y-43427000D01*
X111227000Y-44626250D01*
X111385750Y-44785000D01*
X111950000Y-44788072D01*
X112074482Y-44775812D01*
X112194180Y-44739502D01*
X112304494Y-44680537D01*
X112401185Y-44601185D01*
X112480537Y-44504494D01*
X112539502Y-44394180D01*
X112575812Y-44274482D01*
X112588072Y-44150000D01*
X112585000Y-43585750D01*
X112426250Y-43427000D01*
X111227000Y-43427000D01*
X110973000Y-43427000D01*
X110953000Y-43427000D01*
X110953000Y-43173000D01*
X110973000Y-43173000D01*
X110973000Y-41973750D01*
X111227000Y-41973750D01*
X111227000Y-43173000D01*
X112426250Y-43173000D01*
X112585000Y-43014250D01*
X112588072Y-42450000D01*
X112575812Y-42325518D01*
X112539502Y-42205820D01*
X112480537Y-42095506D01*
X112401185Y-41998815D01*
X112304494Y-41919463D01*
X112194180Y-41860498D01*
X112074482Y-41824188D01*
X111950000Y-41811928D01*
X111385750Y-41815000D01*
X111227000Y-41973750D01*
X110973000Y-41973750D01*
X110814250Y-41815000D01*
X110250000Y-41811928D01*
X110125518Y-41824188D01*
X110005820Y-41860498D01*
X109895506Y-41919463D01*
X109798815Y-41998815D01*
X109719463Y-42095506D01*
X109660498Y-42205820D01*
X109638487Y-42278380D01*
X109506632Y-42146525D01*
X109263411Y-41984010D01*
X108993158Y-41872068D01*
X108706260Y-41815000D01*
X108413740Y-41815000D01*
X108126842Y-41872068D01*
X107856589Y-41984010D01*
X107613368Y-42146525D01*
X107406525Y-42353368D01*
X107290000Y-42527760D01*
X107173475Y-42353368D01*
X106966632Y-42146525D01*
X106780000Y-42021822D01*
X106780000Y-35246890D01*
X114358524Y-35246890D01*
X114403175Y-35394099D01*
X114528359Y-35656920D01*
X114702412Y-35890269D01*
X114918645Y-36085178D01*
X115168748Y-36234157D01*
X115443109Y-36331481D01*
X115673000Y-36210814D01*
X115673000Y-35017000D01*
X115927000Y-35017000D01*
X115927000Y-36210814D01*
X116156891Y-36331481D01*
X116431252Y-36234157D01*
X116681355Y-36085178D01*
X116897588Y-35890269D01*
X117071641Y-35656920D01*
X117196825Y-35394099D01*
X117241476Y-35246890D01*
X117120155Y-35017000D01*
X115927000Y-35017000D01*
X115673000Y-35017000D01*
X114479845Y-35017000D01*
X114358524Y-35246890D01*
X106780000Y-35246890D01*
X106780000Y-30545799D01*
X114468891Y-22856909D01*
X114484010Y-22893411D01*
G37*
X114484010Y-22893411D02*
X114646525Y-23136632D01*
X114853368Y-23343475D01*
X115027760Y-23460000D01*
X114853368Y-23576525D01*
X114646525Y-23783368D01*
X114484010Y-24026589D01*
X114372068Y-24296842D01*
X114315000Y-24583740D01*
X114315000Y-24876260D01*
X114372068Y-25163158D01*
X114484010Y-25433411D01*
X114646525Y-25676632D01*
X114853368Y-25883475D01*
X115027760Y-26000000D01*
X114853368Y-26116525D01*
X114646525Y-26323368D01*
X114484010Y-26566589D01*
X114372068Y-26836842D01*
X114315000Y-27123740D01*
X114315000Y-27416260D01*
X114372068Y-27703158D01*
X114484010Y-27973411D01*
X114646525Y-28216632D01*
X114853368Y-28423475D01*
X115027760Y-28540000D01*
X114853368Y-28656525D01*
X114646525Y-28863368D01*
X114484010Y-29106589D01*
X114372068Y-29376842D01*
X114315000Y-29663740D01*
X114315000Y-29956260D01*
X114372068Y-30243158D01*
X114484010Y-30513411D01*
X114646525Y-30756632D01*
X114853368Y-30963475D01*
X115027760Y-31080000D01*
X114853368Y-31196525D01*
X114646525Y-31403368D01*
X114521822Y-31590000D01*
X110764802Y-31590000D01*
X110185000Y-31010199D01*
X110185000Y-30948061D01*
X110145226Y-30748102D01*
X110067205Y-30559744D01*
X109953937Y-30390226D01*
X109809774Y-30246063D01*
X109640256Y-30132795D01*
X109451898Y-30054774D01*
X109251939Y-30015000D01*
X109048061Y-30015000D01*
X108848102Y-30054774D01*
X108659744Y-30132795D01*
X108490226Y-30246063D01*
X108346063Y-30390226D01*
X108232795Y-30559744D01*
X108154774Y-30748102D01*
X108115000Y-30948061D01*
X108115000Y-31151939D01*
X108154774Y-31351898D01*
X108232795Y-31540256D01*
X108346063Y-31709774D01*
X108490226Y-31853937D01*
X108659744Y-31967205D01*
X108848102Y-32045226D01*
X109048061Y-32085000D01*
X109110199Y-32085000D01*
X109886200Y-32861002D01*
X109909999Y-32890001D01*
X110025724Y-32984974D01*
X110157753Y-33055546D01*
X110301014Y-33099003D01*
X110412667Y-33110000D01*
X110412675Y-33110000D01*
X110450000Y-33113676D01*
X110487325Y-33110000D01*
X114521822Y-33110000D01*
X114646525Y-33296632D01*
X114853368Y-33503475D01*
X115035534Y-33625195D01*
X114918645Y-33694822D01*
X114702412Y-33889731D01*
X114528359Y-34123080D01*
X114403175Y-34385901D01*
X114358524Y-34533110D01*
X114479845Y-34763000D01*
X115673000Y-34763000D01*
X115673000Y-34743000D01*
X115927000Y-34743000D01*
X115927000Y-34763000D01*
X117120155Y-34763000D01*
X117241476Y-34533110D01*
X117196825Y-34385901D01*
X117071641Y-34123080D01*
X116897588Y-33889731D01*
X116681355Y-33694822D01*
X116564466Y-33625195D01*
X116746632Y-33503475D01*
X116913693Y-33336414D01*
X122263280Y-38686001D01*
X122287079Y-38715000D01*
X122316077Y-38738798D01*
X122402804Y-38809973D01*
X122534833Y-38880545D01*
X122678094Y-38924002D01*
X122827080Y-38938676D01*
X122864413Y-38934999D01*
X127068456Y-38934999D01*
X127015000Y-39203740D01*
X127015000Y-39496260D01*
X127072068Y-39783158D01*
X127184010Y-40053411D01*
X127346525Y-40296632D01*
X127553368Y-40503475D01*
X127727760Y-40620000D01*
X127553368Y-40736525D01*
X127346525Y-40943368D01*
X127184010Y-41186589D01*
X127072068Y-41456842D01*
X127015000Y-41743740D01*
X127015000Y-42036260D01*
X127072068Y-42323158D01*
X127143247Y-42494999D01*
X126132323Y-42494999D01*
X126095000Y-42491323D01*
X126057677Y-42494999D01*
X126057668Y-42494999D01*
X125946015Y-42505996D01*
X125846039Y-42536323D01*
X125802754Y-42549453D01*
X125670724Y-42620025D01*
X125615891Y-42665026D01*
X125555000Y-42714998D01*
X125531202Y-42743996D01*
X107634999Y-60640200D01*
X107634999Y-54699802D01*
X108193592Y-54141209D01*
X108413740Y-54185000D01*
X108706260Y-54185000D01*
X108993158Y-54127932D01*
X109263411Y-54015990D01*
X109506632Y-53853475D01*
X109638487Y-53721620D01*
X109660498Y-53794180D01*
X109719463Y-53904494D01*
X109798815Y-54001185D01*
X109895506Y-54080537D01*
X110005820Y-54139502D01*
X110125518Y-54175812D01*
X110250000Y-54188072D01*
X110814250Y-54185000D01*
X110973000Y-54026250D01*
X110973000Y-52827000D01*
X111227000Y-52827000D01*
X111227000Y-54026250D01*
X111385750Y-54185000D01*
X111950000Y-54188072D01*
X112074482Y-54175812D01*
X112194180Y-54139502D01*
X112304494Y-54080537D01*
X112401185Y-54001185D01*
X112480537Y-53904494D01*
X112539502Y-53794180D01*
X112575812Y-53674482D01*
X112588072Y-53550000D01*
X112585000Y-52985750D01*
X112426250Y-52827000D01*
X111227000Y-52827000D01*
X110973000Y-52827000D01*
X110953000Y-52827000D01*
X110953000Y-52573000D01*
X110973000Y-52573000D01*
X110973000Y-51373750D01*
X111227000Y-51373750D01*
X111227000Y-52573000D01*
X112426250Y-52573000D01*
X112585000Y-52414250D01*
X112588072Y-51850000D01*
X112575812Y-51725518D01*
X112539502Y-51605820D01*
X112480537Y-51495506D01*
X112401185Y-51398815D01*
X112304494Y-51319463D01*
X112194180Y-51260498D01*
X112074482Y-51224188D01*
X111950000Y-51211928D01*
X111385750Y-51215000D01*
X111227000Y-51373750D01*
X110973000Y-51373750D01*
X110814250Y-51215000D01*
X110250000Y-51211928D01*
X110125518Y-51224188D01*
X110005820Y-51260498D01*
X109895506Y-51319463D01*
X109798815Y-51398815D01*
X109719463Y-51495506D01*
X109660498Y-51605820D01*
X109638487Y-51678380D01*
X109506632Y-51546525D01*
X109263411Y-51384010D01*
X108993158Y-51272068D01*
X108706260Y-51215000D01*
X108413740Y-51215000D01*
X108193593Y-51258790D01*
X106780000Y-49845199D01*
X106780000Y-44578178D01*
X106966632Y-44453475D01*
X107173475Y-44246632D01*
X107290000Y-44072240D01*
X107406525Y-44246632D01*
X107613368Y-44453475D01*
X107856589Y-44615990D01*
X108126842Y-44727932D01*
X108413740Y-44785000D01*
X108706260Y-44785000D01*
X108993158Y-44727932D01*
X109263411Y-44615990D01*
X109506632Y-44453475D01*
X109638487Y-44321620D01*
X109660498Y-44394180D01*
X109719463Y-44504494D01*
X109798815Y-44601185D01*
X109895506Y-44680537D01*
X110005820Y-44739502D01*
X110125518Y-44775812D01*
X110250000Y-44788072D01*
X110814250Y-44785000D01*
X110973000Y-44626250D01*
X110973000Y-43427000D01*
X111227000Y-43427000D01*
X111227000Y-44626250D01*
X111385750Y-44785000D01*
X111950000Y-44788072D01*
X112074482Y-44775812D01*
X112194180Y-44739502D01*
X112304494Y-44680537D01*
X112401185Y-44601185D01*
X112480537Y-44504494D01*
X112539502Y-44394180D01*
X112575812Y-44274482D01*
X112588072Y-44150000D01*
X112585000Y-43585750D01*
X112426250Y-43427000D01*
X111227000Y-43427000D01*
X110973000Y-43427000D01*
X110953000Y-43427000D01*
X110953000Y-43173000D01*
X110973000Y-43173000D01*
X110973000Y-41973750D01*
X111227000Y-41973750D01*
X111227000Y-43173000D01*
X112426250Y-43173000D01*
X112585000Y-43014250D01*
X112588072Y-42450000D01*
X112575812Y-42325518D01*
X112539502Y-42205820D01*
X112480537Y-42095506D01*
X112401185Y-41998815D01*
X112304494Y-41919463D01*
X112194180Y-41860498D01*
X112074482Y-41824188D01*
X111950000Y-41811928D01*
X111385750Y-41815000D01*
X111227000Y-41973750D01*
X110973000Y-41973750D01*
X110814250Y-41815000D01*
X110250000Y-41811928D01*
X110125518Y-41824188D01*
X110005820Y-41860498D01*
X109895506Y-41919463D01*
X109798815Y-41998815D01*
X109719463Y-42095506D01*
X109660498Y-42205820D01*
X109638487Y-42278380D01*
X109506632Y-42146525D01*
X109263411Y-41984010D01*
X108993158Y-41872068D01*
X108706260Y-41815000D01*
X108413740Y-41815000D01*
X108126842Y-41872068D01*
X107856589Y-41984010D01*
X107613368Y-42146525D01*
X107406525Y-42353368D01*
X107290000Y-42527760D01*
X107173475Y-42353368D01*
X106966632Y-42146525D01*
X106780000Y-42021822D01*
X106780000Y-35246890D01*
X114358524Y-35246890D01*
X114403175Y-35394099D01*
X114528359Y-35656920D01*
X114702412Y-35890269D01*
X114918645Y-36085178D01*
X115168748Y-36234157D01*
X115443109Y-36331481D01*
X115673000Y-36210814D01*
X115673000Y-35017000D01*
X115927000Y-35017000D01*
X115927000Y-36210814D01*
X116156891Y-36331481D01*
X116431252Y-36234157D01*
X116681355Y-36085178D01*
X116897588Y-35890269D01*
X117071641Y-35656920D01*
X117196825Y-35394099D01*
X117241476Y-35246890D01*
X117120155Y-35017000D01*
X115927000Y-35017000D01*
X115673000Y-35017000D01*
X114479845Y-35017000D01*
X114358524Y-35246890D01*
X106780000Y-35246890D01*
X106780000Y-30545799D01*
X114468891Y-22856909D01*
X114484010Y-22893411D01*
M02*
