G04 #@! TF.GenerationSoftware,KiCad,Pcbnew,(5.1.5-0-10_14)*
G04 #@! TF.CreationDate,2020-01-27T09:04:13+02:00*
G04 #@! TF.ProjectId,Focaccia-Board_v.0.1,466f6361-6363-4696-912d-426f6172645f,rev?*
G04 #@! TF.SameCoordinates,Original*
G04 #@! TF.FileFunction,Soldermask,Bot*
G04 #@! TF.FilePolarity,Negative*
%FSLAX46Y46*%
G04 Gerber Fmt 4.6, Leading zero omitted, Abs format (unit mm)*
G04 Created by KiCad (PCBNEW (5.1.5-0-10_14)) date 2020-01-27 09:04:13*
%MOMM*%
%LPD*%
G04 APERTURE LIST*
%ADD10C,0.100000*%
G04 APERTURE END LIST*
D10*
G36*
X186975880Y-107659776D02*
G01*
X187356593Y-107735504D01*
X187766249Y-107905189D01*
X188134929Y-108151534D01*
X188448466Y-108465071D01*
X188694811Y-108833751D01*
X188864496Y-109243407D01*
X188933117Y-109588393D01*
X188951000Y-109678295D01*
X188951000Y-110121705D01*
X188948209Y-110135734D01*
X188864496Y-110556593D01*
X188694811Y-110966249D01*
X188448466Y-111334929D01*
X188134929Y-111648466D01*
X187766249Y-111894811D01*
X187356593Y-112064496D01*
X186975880Y-112140224D01*
X186921705Y-112151000D01*
X186478295Y-112151000D01*
X186424120Y-112140224D01*
X186043407Y-112064496D01*
X185633751Y-111894811D01*
X185265071Y-111648466D01*
X184951534Y-111334929D01*
X184705189Y-110966249D01*
X184535504Y-110556593D01*
X184451791Y-110135734D01*
X184449000Y-110121705D01*
X184449000Y-109678295D01*
X184466883Y-109588393D01*
X184535504Y-109243407D01*
X184705189Y-108833751D01*
X184951534Y-108465071D01*
X185265071Y-108151534D01*
X185633751Y-107905189D01*
X186043407Y-107735504D01*
X186424120Y-107659776D01*
X186478295Y-107649000D01*
X186921705Y-107649000D01*
X186975880Y-107659776D01*
G37*
G36*
X95575880Y-107659776D02*
G01*
X95956593Y-107735504D01*
X96366249Y-107905189D01*
X96734929Y-108151534D01*
X97048466Y-108465071D01*
X97294811Y-108833751D01*
X97464496Y-109243407D01*
X97533117Y-109588393D01*
X97551000Y-109678295D01*
X97551000Y-110121705D01*
X97548209Y-110135734D01*
X97464496Y-110556593D01*
X97294811Y-110966249D01*
X97048466Y-111334929D01*
X96734929Y-111648466D01*
X96366249Y-111894811D01*
X95956593Y-112064496D01*
X95575880Y-112140224D01*
X95521705Y-112151000D01*
X95078295Y-112151000D01*
X95024120Y-112140224D01*
X94643407Y-112064496D01*
X94233751Y-111894811D01*
X93865071Y-111648466D01*
X93551534Y-111334929D01*
X93305189Y-110966249D01*
X93135504Y-110556593D01*
X93051791Y-110135734D01*
X93049000Y-110121705D01*
X93049000Y-109678295D01*
X93066883Y-109588393D01*
X93135504Y-109243407D01*
X93305189Y-108833751D01*
X93551534Y-108465071D01*
X93865071Y-108151534D01*
X94233751Y-107905189D01*
X94643407Y-107735504D01*
X95024120Y-107659776D01*
X95078295Y-107649000D01*
X95521705Y-107649000D01*
X95575880Y-107659776D01*
G37*
G36*
X102651000Y-109614007D02*
G01*
X102653402Y-109638393D01*
X102660515Y-109661842D01*
X102672066Y-109683453D01*
X102687611Y-109702395D01*
X102706553Y-109717940D01*
X102728164Y-109729491D01*
X102751613Y-109736604D01*
X102775999Y-109739006D01*
X102800385Y-109736604D01*
X102823834Y-109729491D01*
X102845445Y-109717940D01*
X102864387Y-109702395D01*
X102879932Y-109683453D01*
X102891483Y-109661842D01*
X102898596Y-109638393D01*
X102933232Y-109464267D01*
X102953943Y-109414267D01*
X103019997Y-109254797D01*
X103145960Y-109066280D01*
X103306280Y-108905960D01*
X103494797Y-108779997D01*
X103704266Y-108693232D01*
X103815451Y-108671116D01*
X103926635Y-108649000D01*
X104153365Y-108649000D01*
X104264549Y-108671116D01*
X104375734Y-108693232D01*
X104585203Y-108779997D01*
X104773720Y-108905960D01*
X104934040Y-109066280D01*
X105060003Y-109254797D01*
X105126058Y-109414267D01*
X105146768Y-109464267D01*
X105187403Y-109668552D01*
X105194516Y-109692001D01*
X105206067Y-109713612D01*
X105221612Y-109732554D01*
X105240554Y-109748099D01*
X105262165Y-109759650D01*
X105285614Y-109766763D01*
X105310000Y-109769165D01*
X105334386Y-109766763D01*
X105357835Y-109759650D01*
X105379446Y-109748099D01*
X105398388Y-109732554D01*
X105413933Y-109713612D01*
X105425484Y-109692001D01*
X105432597Y-109668552D01*
X105473232Y-109464267D01*
X105493943Y-109414267D01*
X105559997Y-109254797D01*
X105685960Y-109066280D01*
X105846280Y-108905960D01*
X106034797Y-108779997D01*
X106244266Y-108693232D01*
X106355451Y-108671116D01*
X106466635Y-108649000D01*
X106693365Y-108649000D01*
X106804549Y-108671116D01*
X106915734Y-108693232D01*
X107125203Y-108779997D01*
X107313720Y-108905960D01*
X107474040Y-109066280D01*
X107600003Y-109254797D01*
X107666058Y-109414267D01*
X107686768Y-109464267D01*
X107727403Y-109668552D01*
X107734516Y-109692001D01*
X107746067Y-109713612D01*
X107761612Y-109732554D01*
X107780554Y-109748099D01*
X107802165Y-109759650D01*
X107825614Y-109766763D01*
X107850000Y-109769165D01*
X107874386Y-109766763D01*
X107897835Y-109759650D01*
X107919446Y-109748099D01*
X107938388Y-109732554D01*
X107953933Y-109713612D01*
X107965484Y-109692001D01*
X107972597Y-109668552D01*
X108013232Y-109464267D01*
X108033943Y-109414267D01*
X108099997Y-109254797D01*
X108225960Y-109066280D01*
X108386280Y-108905960D01*
X108574797Y-108779997D01*
X108784266Y-108693232D01*
X108895451Y-108671116D01*
X109006635Y-108649000D01*
X109233365Y-108649000D01*
X109344549Y-108671116D01*
X109455734Y-108693232D01*
X109665203Y-108779997D01*
X109853720Y-108905960D01*
X110014040Y-109066280D01*
X110140003Y-109254797D01*
X110206058Y-109414267D01*
X110226768Y-109464267D01*
X110267403Y-109668552D01*
X110274516Y-109692001D01*
X110286067Y-109713612D01*
X110301612Y-109732554D01*
X110320554Y-109748099D01*
X110342165Y-109759650D01*
X110365614Y-109766763D01*
X110390000Y-109769165D01*
X110414386Y-109766763D01*
X110437835Y-109759650D01*
X110459446Y-109748099D01*
X110478388Y-109732554D01*
X110493933Y-109713612D01*
X110505484Y-109692001D01*
X110512597Y-109668552D01*
X110553232Y-109464267D01*
X110573943Y-109414267D01*
X110639997Y-109254797D01*
X110765960Y-109066280D01*
X110926280Y-108905960D01*
X111114797Y-108779997D01*
X111324266Y-108693232D01*
X111435451Y-108671116D01*
X111546635Y-108649000D01*
X111773365Y-108649000D01*
X111884549Y-108671116D01*
X111995734Y-108693232D01*
X112205203Y-108779997D01*
X112393720Y-108905960D01*
X112554040Y-109066280D01*
X112680003Y-109254797D01*
X112746058Y-109414267D01*
X112766768Y-109464267D01*
X112807403Y-109668552D01*
X112814516Y-109692001D01*
X112826067Y-109713612D01*
X112841612Y-109732554D01*
X112860554Y-109748099D01*
X112882165Y-109759650D01*
X112905614Y-109766763D01*
X112930000Y-109769165D01*
X112954386Y-109766763D01*
X112977835Y-109759650D01*
X112999446Y-109748099D01*
X113018388Y-109732554D01*
X113033933Y-109713612D01*
X113045484Y-109692001D01*
X113052597Y-109668552D01*
X113093232Y-109464267D01*
X113113943Y-109414267D01*
X113179997Y-109254797D01*
X113305960Y-109066280D01*
X113466280Y-108905960D01*
X113654797Y-108779997D01*
X113864266Y-108693232D01*
X113975451Y-108671116D01*
X114086635Y-108649000D01*
X114313365Y-108649000D01*
X114424549Y-108671116D01*
X114535734Y-108693232D01*
X114745203Y-108779997D01*
X114933720Y-108905960D01*
X115094040Y-109066280D01*
X115220003Y-109254797D01*
X115286058Y-109414267D01*
X115306768Y-109464267D01*
X115347403Y-109668552D01*
X115354516Y-109692001D01*
X115366067Y-109713612D01*
X115381612Y-109732554D01*
X115400554Y-109748099D01*
X115422165Y-109759650D01*
X115445614Y-109766763D01*
X115470000Y-109769165D01*
X115494386Y-109766763D01*
X115517835Y-109759650D01*
X115539446Y-109748099D01*
X115558388Y-109732554D01*
X115573933Y-109713612D01*
X115585484Y-109692001D01*
X115592597Y-109668552D01*
X115633232Y-109464267D01*
X115653943Y-109414267D01*
X115719997Y-109254797D01*
X115845960Y-109066280D01*
X116006280Y-108905960D01*
X116194797Y-108779997D01*
X116404266Y-108693232D01*
X116515451Y-108671116D01*
X116626635Y-108649000D01*
X116853365Y-108649000D01*
X116964549Y-108671116D01*
X117075734Y-108693232D01*
X117285203Y-108779997D01*
X117473720Y-108905960D01*
X117634040Y-109066280D01*
X117760003Y-109254797D01*
X117826058Y-109414267D01*
X117846768Y-109464267D01*
X117887403Y-109668552D01*
X117894516Y-109692001D01*
X117906067Y-109713612D01*
X117921612Y-109732554D01*
X117940554Y-109748099D01*
X117962165Y-109759650D01*
X117985614Y-109766763D01*
X118010000Y-109769165D01*
X118034386Y-109766763D01*
X118057835Y-109759650D01*
X118079446Y-109748099D01*
X118098388Y-109732554D01*
X118113933Y-109713612D01*
X118125484Y-109692001D01*
X118132597Y-109668552D01*
X118173232Y-109464267D01*
X118193943Y-109414267D01*
X118259997Y-109254797D01*
X118385960Y-109066280D01*
X118546280Y-108905960D01*
X118734797Y-108779997D01*
X118944266Y-108693232D01*
X119055451Y-108671116D01*
X119166635Y-108649000D01*
X119393365Y-108649000D01*
X119504549Y-108671116D01*
X119615734Y-108693232D01*
X119825203Y-108779997D01*
X120013720Y-108905960D01*
X120174040Y-109066280D01*
X120300003Y-109254797D01*
X120366058Y-109414267D01*
X120386768Y-109464267D01*
X120427403Y-109668552D01*
X120434516Y-109692001D01*
X120446067Y-109713612D01*
X120461612Y-109732554D01*
X120480554Y-109748099D01*
X120502165Y-109759650D01*
X120525614Y-109766763D01*
X120550000Y-109769165D01*
X120574386Y-109766763D01*
X120597835Y-109759650D01*
X120619446Y-109748099D01*
X120638388Y-109732554D01*
X120653933Y-109713612D01*
X120665484Y-109692001D01*
X120672597Y-109668552D01*
X120713232Y-109464267D01*
X120733943Y-109414267D01*
X120799997Y-109254797D01*
X120925960Y-109066280D01*
X121086280Y-108905960D01*
X121274797Y-108779997D01*
X121484266Y-108693232D01*
X121595451Y-108671116D01*
X121706635Y-108649000D01*
X121933365Y-108649000D01*
X122044549Y-108671116D01*
X122155734Y-108693232D01*
X122365203Y-108779997D01*
X122553720Y-108905960D01*
X122714040Y-109066280D01*
X122840003Y-109254797D01*
X122906058Y-109414267D01*
X122926768Y-109464267D01*
X122967403Y-109668552D01*
X122974516Y-109692001D01*
X122986067Y-109713612D01*
X123001612Y-109732554D01*
X123020554Y-109748099D01*
X123042165Y-109759650D01*
X123065614Y-109766763D01*
X123090000Y-109769165D01*
X123114386Y-109766763D01*
X123137835Y-109759650D01*
X123159446Y-109748099D01*
X123178388Y-109732554D01*
X123193933Y-109713612D01*
X123205484Y-109692001D01*
X123212597Y-109668552D01*
X123253232Y-109464267D01*
X123273943Y-109414267D01*
X123339997Y-109254797D01*
X123465960Y-109066280D01*
X123626280Y-108905960D01*
X123814797Y-108779997D01*
X124024266Y-108693232D01*
X124135451Y-108671116D01*
X124246635Y-108649000D01*
X124473365Y-108649000D01*
X124584549Y-108671116D01*
X124695734Y-108693232D01*
X124905203Y-108779997D01*
X125093720Y-108905960D01*
X125254040Y-109066280D01*
X125380003Y-109254797D01*
X125446058Y-109414267D01*
X125466768Y-109464267D01*
X125502595Y-109644378D01*
X125511000Y-109686636D01*
X125511000Y-109913364D01*
X125466768Y-110135734D01*
X125380003Y-110345203D01*
X125254040Y-110533720D01*
X125093720Y-110694040D01*
X124905203Y-110820003D01*
X124695734Y-110906768D01*
X124584549Y-110928884D01*
X124473365Y-110951000D01*
X124246635Y-110951000D01*
X124135451Y-110928884D01*
X124024266Y-110906768D01*
X123814797Y-110820003D01*
X123626280Y-110694040D01*
X123465960Y-110533720D01*
X123339997Y-110345203D01*
X123253232Y-110135734D01*
X123212597Y-109931448D01*
X123205484Y-109907999D01*
X123193933Y-109886388D01*
X123178388Y-109867446D01*
X123159446Y-109851901D01*
X123137835Y-109840350D01*
X123114386Y-109833237D01*
X123090000Y-109830835D01*
X123065614Y-109833237D01*
X123042165Y-109840350D01*
X123020554Y-109851901D01*
X123001612Y-109867446D01*
X122986067Y-109886388D01*
X122974516Y-109907999D01*
X122967403Y-109931448D01*
X122926768Y-110135734D01*
X122840003Y-110345203D01*
X122714040Y-110533720D01*
X122553720Y-110694040D01*
X122365203Y-110820003D01*
X122155734Y-110906768D01*
X122044549Y-110928884D01*
X121933365Y-110951000D01*
X121706635Y-110951000D01*
X121595451Y-110928884D01*
X121484266Y-110906768D01*
X121274797Y-110820003D01*
X121086280Y-110694040D01*
X120925960Y-110533720D01*
X120799997Y-110345203D01*
X120713232Y-110135734D01*
X120672597Y-109931448D01*
X120665484Y-109907999D01*
X120653933Y-109886388D01*
X120638388Y-109867446D01*
X120619446Y-109851901D01*
X120597835Y-109840350D01*
X120574386Y-109833237D01*
X120550000Y-109830835D01*
X120525614Y-109833237D01*
X120502165Y-109840350D01*
X120480554Y-109851901D01*
X120461612Y-109867446D01*
X120446067Y-109886388D01*
X120434516Y-109907999D01*
X120427403Y-109931448D01*
X120386768Y-110135734D01*
X120300003Y-110345203D01*
X120174040Y-110533720D01*
X120013720Y-110694040D01*
X119825203Y-110820003D01*
X119615734Y-110906768D01*
X119504549Y-110928884D01*
X119393365Y-110951000D01*
X119166635Y-110951000D01*
X119055451Y-110928884D01*
X118944266Y-110906768D01*
X118734797Y-110820003D01*
X118546280Y-110694040D01*
X118385960Y-110533720D01*
X118259997Y-110345203D01*
X118173232Y-110135734D01*
X118132597Y-109931448D01*
X118125484Y-109907999D01*
X118113933Y-109886388D01*
X118098388Y-109867446D01*
X118079446Y-109851901D01*
X118057835Y-109840350D01*
X118034386Y-109833237D01*
X118010000Y-109830835D01*
X117985614Y-109833237D01*
X117962165Y-109840350D01*
X117940554Y-109851901D01*
X117921612Y-109867446D01*
X117906067Y-109886388D01*
X117894516Y-109907999D01*
X117887403Y-109931448D01*
X117846768Y-110135734D01*
X117760003Y-110345203D01*
X117634040Y-110533720D01*
X117473720Y-110694040D01*
X117285203Y-110820003D01*
X117075734Y-110906768D01*
X116964549Y-110928884D01*
X116853365Y-110951000D01*
X116626635Y-110951000D01*
X116515451Y-110928884D01*
X116404266Y-110906768D01*
X116194797Y-110820003D01*
X116006280Y-110694040D01*
X115845960Y-110533720D01*
X115719997Y-110345203D01*
X115633232Y-110135734D01*
X115592597Y-109931448D01*
X115585484Y-109907999D01*
X115573933Y-109886388D01*
X115558388Y-109867446D01*
X115539446Y-109851901D01*
X115517835Y-109840350D01*
X115494386Y-109833237D01*
X115470000Y-109830835D01*
X115445614Y-109833237D01*
X115422165Y-109840350D01*
X115400554Y-109851901D01*
X115381612Y-109867446D01*
X115366067Y-109886388D01*
X115354516Y-109907999D01*
X115347403Y-109931448D01*
X115306768Y-110135734D01*
X115220003Y-110345203D01*
X115094040Y-110533720D01*
X114933720Y-110694040D01*
X114745203Y-110820003D01*
X114535734Y-110906768D01*
X114424549Y-110928884D01*
X114313365Y-110951000D01*
X114086635Y-110951000D01*
X113975451Y-110928884D01*
X113864266Y-110906768D01*
X113654797Y-110820003D01*
X113466280Y-110694040D01*
X113305960Y-110533720D01*
X113179997Y-110345203D01*
X113093232Y-110135734D01*
X113052597Y-109931448D01*
X113045484Y-109907999D01*
X113033933Y-109886388D01*
X113018388Y-109867446D01*
X112999446Y-109851901D01*
X112977835Y-109840350D01*
X112954386Y-109833237D01*
X112930000Y-109830835D01*
X112905614Y-109833237D01*
X112882165Y-109840350D01*
X112860554Y-109851901D01*
X112841612Y-109867446D01*
X112826067Y-109886388D01*
X112814516Y-109907999D01*
X112807403Y-109931448D01*
X112766768Y-110135734D01*
X112680003Y-110345203D01*
X112554040Y-110533720D01*
X112393720Y-110694040D01*
X112205203Y-110820003D01*
X111995734Y-110906768D01*
X111884549Y-110928884D01*
X111773365Y-110951000D01*
X111546635Y-110951000D01*
X111435451Y-110928884D01*
X111324266Y-110906768D01*
X111114797Y-110820003D01*
X110926280Y-110694040D01*
X110765960Y-110533720D01*
X110639997Y-110345203D01*
X110553232Y-110135734D01*
X110512597Y-109931448D01*
X110505484Y-109907999D01*
X110493933Y-109886388D01*
X110478388Y-109867446D01*
X110459446Y-109851901D01*
X110437835Y-109840350D01*
X110414386Y-109833237D01*
X110390000Y-109830835D01*
X110365614Y-109833237D01*
X110342165Y-109840350D01*
X110320554Y-109851901D01*
X110301612Y-109867446D01*
X110286067Y-109886388D01*
X110274516Y-109907999D01*
X110267403Y-109931448D01*
X110226768Y-110135734D01*
X110140003Y-110345203D01*
X110014040Y-110533720D01*
X109853720Y-110694040D01*
X109665203Y-110820003D01*
X109455734Y-110906768D01*
X109344549Y-110928884D01*
X109233365Y-110951000D01*
X109006635Y-110951000D01*
X108895451Y-110928884D01*
X108784266Y-110906768D01*
X108574797Y-110820003D01*
X108386280Y-110694040D01*
X108225960Y-110533720D01*
X108099997Y-110345203D01*
X108013232Y-110135734D01*
X107972597Y-109931448D01*
X107965484Y-109907999D01*
X107953933Y-109886388D01*
X107938388Y-109867446D01*
X107919446Y-109851901D01*
X107897835Y-109840350D01*
X107874386Y-109833237D01*
X107850000Y-109830835D01*
X107825614Y-109833237D01*
X107802165Y-109840350D01*
X107780554Y-109851901D01*
X107761612Y-109867446D01*
X107746067Y-109886388D01*
X107734516Y-109907999D01*
X107727403Y-109931448D01*
X107686768Y-110135734D01*
X107600003Y-110345203D01*
X107474040Y-110533720D01*
X107313720Y-110694040D01*
X107125203Y-110820003D01*
X106915734Y-110906768D01*
X106804549Y-110928884D01*
X106693365Y-110951000D01*
X106466635Y-110951000D01*
X106355451Y-110928884D01*
X106244266Y-110906768D01*
X106034797Y-110820003D01*
X105846280Y-110694040D01*
X105685960Y-110533720D01*
X105559997Y-110345203D01*
X105473232Y-110135734D01*
X105432597Y-109931448D01*
X105425484Y-109907999D01*
X105413933Y-109886388D01*
X105398388Y-109867446D01*
X105379446Y-109851901D01*
X105357835Y-109840350D01*
X105334386Y-109833237D01*
X105310000Y-109830835D01*
X105285614Y-109833237D01*
X105262165Y-109840350D01*
X105240554Y-109851901D01*
X105221612Y-109867446D01*
X105206067Y-109886388D01*
X105194516Y-109907999D01*
X105187403Y-109931448D01*
X105146768Y-110135734D01*
X105060003Y-110345203D01*
X104934040Y-110533720D01*
X104773720Y-110694040D01*
X104585203Y-110820003D01*
X104375734Y-110906768D01*
X104264549Y-110928884D01*
X104153365Y-110951000D01*
X103926635Y-110951000D01*
X103815451Y-110928884D01*
X103704266Y-110906768D01*
X103494797Y-110820003D01*
X103306280Y-110694040D01*
X103145960Y-110533720D01*
X103019997Y-110345203D01*
X102933232Y-110135734D01*
X102898596Y-109961607D01*
X102891483Y-109938158D01*
X102879932Y-109916547D01*
X102864387Y-109897605D01*
X102845445Y-109882060D01*
X102823834Y-109870509D01*
X102800385Y-109863396D01*
X102775999Y-109860994D01*
X102751613Y-109863396D01*
X102728164Y-109870509D01*
X102706553Y-109882060D01*
X102687611Y-109897605D01*
X102672066Y-109916547D01*
X102660515Y-109938158D01*
X102653402Y-109961607D01*
X102651000Y-109985993D01*
X102651000Y-110951000D01*
X100349000Y-110951000D01*
X100349000Y-108649000D01*
X102651000Y-108649000D01*
X102651000Y-109614007D01*
G37*
G36*
X158151000Y-109564007D02*
G01*
X158153402Y-109588393D01*
X158160515Y-109611842D01*
X158172066Y-109633453D01*
X158187611Y-109652395D01*
X158206553Y-109667940D01*
X158228164Y-109679491D01*
X158251613Y-109686604D01*
X158275999Y-109689006D01*
X158300385Y-109686604D01*
X158323834Y-109679491D01*
X158345445Y-109667940D01*
X158364387Y-109652395D01*
X158379932Y-109633453D01*
X158391483Y-109611842D01*
X158398596Y-109588393D01*
X158423286Y-109464267D01*
X158433232Y-109414266D01*
X158519997Y-109204797D01*
X158645960Y-109016280D01*
X158806280Y-108855960D01*
X158994797Y-108729997D01*
X159204266Y-108643232D01*
X159315451Y-108621116D01*
X159426635Y-108599000D01*
X159653365Y-108599000D01*
X159764549Y-108621116D01*
X159875734Y-108643232D01*
X160085203Y-108729997D01*
X160273720Y-108855960D01*
X160434040Y-109016280D01*
X160560003Y-109204797D01*
X160646768Y-109414266D01*
X160656714Y-109464267D01*
X160687403Y-109618552D01*
X160694516Y-109642001D01*
X160706067Y-109663612D01*
X160721612Y-109682554D01*
X160740554Y-109698099D01*
X160762165Y-109709650D01*
X160785614Y-109716763D01*
X160810000Y-109719165D01*
X160834386Y-109716763D01*
X160857835Y-109709650D01*
X160879446Y-109698099D01*
X160898388Y-109682554D01*
X160913933Y-109663612D01*
X160925484Y-109642001D01*
X160932597Y-109618552D01*
X160963286Y-109464267D01*
X160973232Y-109414266D01*
X161059997Y-109204797D01*
X161185960Y-109016280D01*
X161346280Y-108855960D01*
X161534797Y-108729997D01*
X161744266Y-108643232D01*
X161855451Y-108621116D01*
X161966635Y-108599000D01*
X162193365Y-108599000D01*
X162304549Y-108621116D01*
X162415734Y-108643232D01*
X162625203Y-108729997D01*
X162813720Y-108855960D01*
X162974040Y-109016280D01*
X163100003Y-109204797D01*
X163186768Y-109414266D01*
X163196714Y-109464267D01*
X163227403Y-109618552D01*
X163234516Y-109642001D01*
X163246067Y-109663612D01*
X163261612Y-109682554D01*
X163280554Y-109698099D01*
X163302165Y-109709650D01*
X163325614Y-109716763D01*
X163350000Y-109719165D01*
X163374386Y-109716763D01*
X163397835Y-109709650D01*
X163419446Y-109698099D01*
X163438388Y-109682554D01*
X163453933Y-109663612D01*
X163465484Y-109642001D01*
X163472597Y-109618552D01*
X163503286Y-109464267D01*
X163513232Y-109414266D01*
X163599997Y-109204797D01*
X163725960Y-109016280D01*
X163886280Y-108855960D01*
X164074797Y-108729997D01*
X164284266Y-108643232D01*
X164395451Y-108621116D01*
X164506635Y-108599000D01*
X164733365Y-108599000D01*
X164844549Y-108621116D01*
X164955734Y-108643232D01*
X165165203Y-108729997D01*
X165353720Y-108855960D01*
X165514040Y-109016280D01*
X165640003Y-109204797D01*
X165726768Y-109414266D01*
X165736714Y-109464267D01*
X165767403Y-109618552D01*
X165774516Y-109642001D01*
X165786067Y-109663612D01*
X165801612Y-109682554D01*
X165820554Y-109698099D01*
X165842165Y-109709650D01*
X165865614Y-109716763D01*
X165890000Y-109719165D01*
X165914386Y-109716763D01*
X165937835Y-109709650D01*
X165959446Y-109698099D01*
X165978388Y-109682554D01*
X165993933Y-109663612D01*
X166005484Y-109642001D01*
X166012597Y-109618552D01*
X166043286Y-109464267D01*
X166053232Y-109414266D01*
X166139997Y-109204797D01*
X166265960Y-109016280D01*
X166426280Y-108855960D01*
X166614797Y-108729997D01*
X166824266Y-108643232D01*
X166935451Y-108621116D01*
X167046635Y-108599000D01*
X167273365Y-108599000D01*
X167384549Y-108621116D01*
X167495734Y-108643232D01*
X167705203Y-108729997D01*
X167893720Y-108855960D01*
X168054040Y-109016280D01*
X168180003Y-109204797D01*
X168266768Y-109414266D01*
X168276714Y-109464267D01*
X168307403Y-109618552D01*
X168314516Y-109642001D01*
X168326067Y-109663612D01*
X168341612Y-109682554D01*
X168360554Y-109698099D01*
X168382165Y-109709650D01*
X168405614Y-109716763D01*
X168430000Y-109719165D01*
X168454386Y-109716763D01*
X168477835Y-109709650D01*
X168499446Y-109698099D01*
X168518388Y-109682554D01*
X168533933Y-109663612D01*
X168545484Y-109642001D01*
X168552597Y-109618552D01*
X168583286Y-109464267D01*
X168593232Y-109414266D01*
X168679997Y-109204797D01*
X168805960Y-109016280D01*
X168966280Y-108855960D01*
X169154797Y-108729997D01*
X169364266Y-108643232D01*
X169475451Y-108621116D01*
X169586635Y-108599000D01*
X169813365Y-108599000D01*
X169924549Y-108621116D01*
X170035734Y-108643232D01*
X170245203Y-108729997D01*
X170433720Y-108855960D01*
X170594040Y-109016280D01*
X170720003Y-109204797D01*
X170806768Y-109414266D01*
X170816714Y-109464267D01*
X170847403Y-109618552D01*
X170854516Y-109642001D01*
X170866067Y-109663612D01*
X170881612Y-109682554D01*
X170900554Y-109698099D01*
X170922165Y-109709650D01*
X170945614Y-109716763D01*
X170970000Y-109719165D01*
X170994386Y-109716763D01*
X171017835Y-109709650D01*
X171039446Y-109698099D01*
X171058388Y-109682554D01*
X171073933Y-109663612D01*
X171085484Y-109642001D01*
X171092597Y-109618552D01*
X171123286Y-109464267D01*
X171133232Y-109414266D01*
X171219997Y-109204797D01*
X171345960Y-109016280D01*
X171506280Y-108855960D01*
X171694797Y-108729997D01*
X171904266Y-108643232D01*
X172015451Y-108621116D01*
X172126635Y-108599000D01*
X172353365Y-108599000D01*
X172464549Y-108621116D01*
X172575734Y-108643232D01*
X172785203Y-108729997D01*
X172973720Y-108855960D01*
X173134040Y-109016280D01*
X173260003Y-109204797D01*
X173346768Y-109414266D01*
X173356714Y-109464267D01*
X173387403Y-109618552D01*
X173394516Y-109642001D01*
X173406067Y-109663612D01*
X173421612Y-109682554D01*
X173440554Y-109698099D01*
X173462165Y-109709650D01*
X173485614Y-109716763D01*
X173510000Y-109719165D01*
X173534386Y-109716763D01*
X173557835Y-109709650D01*
X173579446Y-109698099D01*
X173598388Y-109682554D01*
X173613933Y-109663612D01*
X173625484Y-109642001D01*
X173632597Y-109618552D01*
X173663286Y-109464267D01*
X173673232Y-109414266D01*
X173759997Y-109204797D01*
X173885960Y-109016280D01*
X174046280Y-108855960D01*
X174234797Y-108729997D01*
X174444266Y-108643232D01*
X174555451Y-108621116D01*
X174666635Y-108599000D01*
X174893365Y-108599000D01*
X175004549Y-108621116D01*
X175115734Y-108643232D01*
X175325203Y-108729997D01*
X175513720Y-108855960D01*
X175674040Y-109016280D01*
X175800003Y-109204797D01*
X175886768Y-109414266D01*
X175896714Y-109464267D01*
X175927403Y-109618552D01*
X175934516Y-109642001D01*
X175946067Y-109663612D01*
X175961612Y-109682554D01*
X175980554Y-109698099D01*
X176002165Y-109709650D01*
X176025614Y-109716763D01*
X176050000Y-109719165D01*
X176074386Y-109716763D01*
X176097835Y-109709650D01*
X176119446Y-109698099D01*
X176138388Y-109682554D01*
X176153933Y-109663612D01*
X176165484Y-109642001D01*
X176172597Y-109618552D01*
X176203286Y-109464267D01*
X176213232Y-109414266D01*
X176299997Y-109204797D01*
X176425960Y-109016280D01*
X176586280Y-108855960D01*
X176774797Y-108729997D01*
X176984266Y-108643232D01*
X177095451Y-108621116D01*
X177206635Y-108599000D01*
X177433365Y-108599000D01*
X177544549Y-108621116D01*
X177655734Y-108643232D01*
X177865203Y-108729997D01*
X178053720Y-108855960D01*
X178214040Y-109016280D01*
X178340003Y-109204797D01*
X178426768Y-109414266D01*
X178436714Y-109464267D01*
X178467403Y-109618552D01*
X178474516Y-109642001D01*
X178486067Y-109663612D01*
X178501612Y-109682554D01*
X178520554Y-109698099D01*
X178542165Y-109709650D01*
X178565614Y-109716763D01*
X178590000Y-109719165D01*
X178614386Y-109716763D01*
X178637835Y-109709650D01*
X178659446Y-109698099D01*
X178678388Y-109682554D01*
X178693933Y-109663612D01*
X178705484Y-109642001D01*
X178712597Y-109618552D01*
X178743286Y-109464267D01*
X178753232Y-109414266D01*
X178839997Y-109204797D01*
X178965960Y-109016280D01*
X179126280Y-108855960D01*
X179314797Y-108729997D01*
X179524266Y-108643232D01*
X179635451Y-108621116D01*
X179746635Y-108599000D01*
X179973365Y-108599000D01*
X180084549Y-108621116D01*
X180195734Y-108643232D01*
X180405203Y-108729997D01*
X180593720Y-108855960D01*
X180754040Y-109016280D01*
X180880003Y-109204797D01*
X180966768Y-109414266D01*
X180976714Y-109464267D01*
X181011000Y-109636635D01*
X181011000Y-109863365D01*
X181001054Y-109913365D01*
X180966768Y-110085734D01*
X180880003Y-110295203D01*
X180754040Y-110483720D01*
X180593720Y-110644040D01*
X180405203Y-110770003D01*
X180195734Y-110856768D01*
X180084549Y-110878884D01*
X179973365Y-110901000D01*
X179746635Y-110901000D01*
X179635451Y-110878884D01*
X179524266Y-110856768D01*
X179314797Y-110770003D01*
X179126280Y-110644040D01*
X178965960Y-110483720D01*
X178839997Y-110295203D01*
X178753232Y-110085734D01*
X178712597Y-109881448D01*
X178705484Y-109857999D01*
X178693933Y-109836388D01*
X178678388Y-109817446D01*
X178659446Y-109801901D01*
X178637835Y-109790350D01*
X178614386Y-109783237D01*
X178590000Y-109780835D01*
X178565614Y-109783237D01*
X178542165Y-109790350D01*
X178520554Y-109801901D01*
X178501612Y-109817446D01*
X178486067Y-109836388D01*
X178474516Y-109857999D01*
X178467403Y-109881448D01*
X178426768Y-110085734D01*
X178340003Y-110295203D01*
X178214040Y-110483720D01*
X178053720Y-110644040D01*
X177865203Y-110770003D01*
X177655734Y-110856768D01*
X177544549Y-110878884D01*
X177433365Y-110901000D01*
X177206635Y-110901000D01*
X177095451Y-110878884D01*
X176984266Y-110856768D01*
X176774797Y-110770003D01*
X176586280Y-110644040D01*
X176425960Y-110483720D01*
X176299997Y-110295203D01*
X176213232Y-110085734D01*
X176172597Y-109881448D01*
X176165484Y-109857999D01*
X176153933Y-109836388D01*
X176138388Y-109817446D01*
X176119446Y-109801901D01*
X176097835Y-109790350D01*
X176074386Y-109783237D01*
X176050000Y-109780835D01*
X176025614Y-109783237D01*
X176002165Y-109790350D01*
X175980554Y-109801901D01*
X175961612Y-109817446D01*
X175946067Y-109836388D01*
X175934516Y-109857999D01*
X175927403Y-109881448D01*
X175886768Y-110085734D01*
X175800003Y-110295203D01*
X175674040Y-110483720D01*
X175513720Y-110644040D01*
X175325203Y-110770003D01*
X175115734Y-110856768D01*
X175004549Y-110878884D01*
X174893365Y-110901000D01*
X174666635Y-110901000D01*
X174555451Y-110878884D01*
X174444266Y-110856768D01*
X174234797Y-110770003D01*
X174046280Y-110644040D01*
X173885960Y-110483720D01*
X173759997Y-110295203D01*
X173673232Y-110085734D01*
X173632597Y-109881448D01*
X173625484Y-109857999D01*
X173613933Y-109836388D01*
X173598388Y-109817446D01*
X173579446Y-109801901D01*
X173557835Y-109790350D01*
X173534386Y-109783237D01*
X173510000Y-109780835D01*
X173485614Y-109783237D01*
X173462165Y-109790350D01*
X173440554Y-109801901D01*
X173421612Y-109817446D01*
X173406067Y-109836388D01*
X173394516Y-109857999D01*
X173387403Y-109881448D01*
X173346768Y-110085734D01*
X173260003Y-110295203D01*
X173134040Y-110483720D01*
X172973720Y-110644040D01*
X172785203Y-110770003D01*
X172575734Y-110856768D01*
X172464549Y-110878884D01*
X172353365Y-110901000D01*
X172126635Y-110901000D01*
X172015451Y-110878884D01*
X171904266Y-110856768D01*
X171694797Y-110770003D01*
X171506280Y-110644040D01*
X171345960Y-110483720D01*
X171219997Y-110295203D01*
X171133232Y-110085734D01*
X171092597Y-109881448D01*
X171085484Y-109857999D01*
X171073933Y-109836388D01*
X171058388Y-109817446D01*
X171039446Y-109801901D01*
X171017835Y-109790350D01*
X170994386Y-109783237D01*
X170970000Y-109780835D01*
X170945614Y-109783237D01*
X170922165Y-109790350D01*
X170900554Y-109801901D01*
X170881612Y-109817446D01*
X170866067Y-109836388D01*
X170854516Y-109857999D01*
X170847403Y-109881448D01*
X170806768Y-110085734D01*
X170720003Y-110295203D01*
X170594040Y-110483720D01*
X170433720Y-110644040D01*
X170245203Y-110770003D01*
X170035734Y-110856768D01*
X169924549Y-110878884D01*
X169813365Y-110901000D01*
X169586635Y-110901000D01*
X169475451Y-110878884D01*
X169364266Y-110856768D01*
X169154797Y-110770003D01*
X168966280Y-110644040D01*
X168805960Y-110483720D01*
X168679997Y-110295203D01*
X168593232Y-110085734D01*
X168552597Y-109881448D01*
X168545484Y-109857999D01*
X168533933Y-109836388D01*
X168518388Y-109817446D01*
X168499446Y-109801901D01*
X168477835Y-109790350D01*
X168454386Y-109783237D01*
X168430000Y-109780835D01*
X168405614Y-109783237D01*
X168382165Y-109790350D01*
X168360554Y-109801901D01*
X168341612Y-109817446D01*
X168326067Y-109836388D01*
X168314516Y-109857999D01*
X168307403Y-109881448D01*
X168266768Y-110085734D01*
X168180003Y-110295203D01*
X168054040Y-110483720D01*
X167893720Y-110644040D01*
X167705203Y-110770003D01*
X167495734Y-110856768D01*
X167384549Y-110878884D01*
X167273365Y-110901000D01*
X167046635Y-110901000D01*
X166935451Y-110878884D01*
X166824266Y-110856768D01*
X166614797Y-110770003D01*
X166426280Y-110644040D01*
X166265960Y-110483720D01*
X166139997Y-110295203D01*
X166053232Y-110085734D01*
X166012597Y-109881448D01*
X166005484Y-109857999D01*
X165993933Y-109836388D01*
X165978388Y-109817446D01*
X165959446Y-109801901D01*
X165937835Y-109790350D01*
X165914386Y-109783237D01*
X165890000Y-109780835D01*
X165865614Y-109783237D01*
X165842165Y-109790350D01*
X165820554Y-109801901D01*
X165801612Y-109817446D01*
X165786067Y-109836388D01*
X165774516Y-109857999D01*
X165767403Y-109881448D01*
X165726768Y-110085734D01*
X165640003Y-110295203D01*
X165514040Y-110483720D01*
X165353720Y-110644040D01*
X165165203Y-110770003D01*
X164955734Y-110856768D01*
X164844549Y-110878884D01*
X164733365Y-110901000D01*
X164506635Y-110901000D01*
X164395451Y-110878884D01*
X164284266Y-110856768D01*
X164074797Y-110770003D01*
X163886280Y-110644040D01*
X163725960Y-110483720D01*
X163599997Y-110295203D01*
X163513232Y-110085734D01*
X163472597Y-109881448D01*
X163465484Y-109857999D01*
X163453933Y-109836388D01*
X163438388Y-109817446D01*
X163419446Y-109801901D01*
X163397835Y-109790350D01*
X163374386Y-109783237D01*
X163350000Y-109780835D01*
X163325614Y-109783237D01*
X163302165Y-109790350D01*
X163280554Y-109801901D01*
X163261612Y-109817446D01*
X163246067Y-109836388D01*
X163234516Y-109857999D01*
X163227403Y-109881448D01*
X163186768Y-110085734D01*
X163100003Y-110295203D01*
X162974040Y-110483720D01*
X162813720Y-110644040D01*
X162625203Y-110770003D01*
X162415734Y-110856768D01*
X162304549Y-110878884D01*
X162193365Y-110901000D01*
X161966635Y-110901000D01*
X161855451Y-110878884D01*
X161744266Y-110856768D01*
X161534797Y-110770003D01*
X161346280Y-110644040D01*
X161185960Y-110483720D01*
X161059997Y-110295203D01*
X160973232Y-110085734D01*
X160932597Y-109881448D01*
X160925484Y-109857999D01*
X160913933Y-109836388D01*
X160898388Y-109817446D01*
X160879446Y-109801901D01*
X160857835Y-109790350D01*
X160834386Y-109783237D01*
X160810000Y-109780835D01*
X160785614Y-109783237D01*
X160762165Y-109790350D01*
X160740554Y-109801901D01*
X160721612Y-109817446D01*
X160706067Y-109836388D01*
X160694516Y-109857999D01*
X160687403Y-109881448D01*
X160646768Y-110085734D01*
X160560003Y-110295203D01*
X160434040Y-110483720D01*
X160273720Y-110644040D01*
X160085203Y-110770003D01*
X159875734Y-110856768D01*
X159764549Y-110878884D01*
X159653365Y-110901000D01*
X159426635Y-110901000D01*
X159315451Y-110878884D01*
X159204266Y-110856768D01*
X158994797Y-110770003D01*
X158806280Y-110644040D01*
X158645960Y-110483720D01*
X158519997Y-110295203D01*
X158433232Y-110085734D01*
X158398946Y-109913365D01*
X158398596Y-109911607D01*
X158391483Y-109888158D01*
X158379932Y-109866547D01*
X158364387Y-109847605D01*
X158345445Y-109832060D01*
X158323834Y-109820509D01*
X158300385Y-109813396D01*
X158275999Y-109810994D01*
X158251613Y-109813396D01*
X158228164Y-109820509D01*
X158206553Y-109832060D01*
X158187611Y-109847605D01*
X158172066Y-109866547D01*
X158160515Y-109888158D01*
X158153402Y-109911607D01*
X158151000Y-109935993D01*
X158151000Y-110901000D01*
X155849000Y-110901000D01*
X155849000Y-108599000D01*
X158151000Y-108599000D01*
X158151000Y-109564007D01*
G37*
G36*
X111773512Y-103103927D02*
G01*
X111922812Y-103133624D01*
X112086784Y-103201544D01*
X112234354Y-103300147D01*
X112359853Y-103425646D01*
X112458456Y-103573216D01*
X112526376Y-103737188D01*
X112561000Y-103911259D01*
X112561000Y-104088741D01*
X112526376Y-104262812D01*
X112458456Y-104426784D01*
X112359853Y-104574354D01*
X112234354Y-104699853D01*
X112086784Y-104798456D01*
X111922812Y-104866376D01*
X111773512Y-104896073D01*
X111748742Y-104901000D01*
X111571258Y-104901000D01*
X111546488Y-104896073D01*
X111397188Y-104866376D01*
X111233216Y-104798456D01*
X111085646Y-104699853D01*
X110960147Y-104574354D01*
X110861544Y-104426784D01*
X110793624Y-104262812D01*
X110759000Y-104088741D01*
X110759000Y-103911259D01*
X110793624Y-103737188D01*
X110861544Y-103573216D01*
X110960147Y-103425646D01*
X111085646Y-103300147D01*
X111233216Y-103201544D01*
X111397188Y-103133624D01*
X111546488Y-103103927D01*
X111571258Y-103099000D01*
X111748742Y-103099000D01*
X111773512Y-103103927D01*
G37*
G36*
X124473512Y-103103927D02*
G01*
X124622812Y-103133624D01*
X124786784Y-103201544D01*
X124934354Y-103300147D01*
X125059853Y-103425646D01*
X125158456Y-103573216D01*
X125226376Y-103737188D01*
X125261000Y-103911259D01*
X125261000Y-104088741D01*
X125226376Y-104262812D01*
X125158456Y-104426784D01*
X125059853Y-104574354D01*
X124934354Y-104699853D01*
X124786784Y-104798456D01*
X124622812Y-104866376D01*
X124473512Y-104896073D01*
X124448742Y-104901000D01*
X124271258Y-104901000D01*
X124246488Y-104896073D01*
X124097188Y-104866376D01*
X123933216Y-104798456D01*
X123785646Y-104699853D01*
X123660147Y-104574354D01*
X123561544Y-104426784D01*
X123493624Y-104262812D01*
X123459000Y-104088741D01*
X123459000Y-103911259D01*
X123493624Y-103737188D01*
X123561544Y-103573216D01*
X123660147Y-103425646D01*
X123785646Y-103300147D01*
X123933216Y-103201544D01*
X124097188Y-103133624D01*
X124246488Y-103103927D01*
X124271258Y-103099000D01*
X124448742Y-103099000D01*
X124473512Y-103103927D01*
G37*
G36*
X121933512Y-103103927D02*
G01*
X122082812Y-103133624D01*
X122246784Y-103201544D01*
X122394354Y-103300147D01*
X122519853Y-103425646D01*
X122618456Y-103573216D01*
X122686376Y-103737188D01*
X122721000Y-103911259D01*
X122721000Y-104088741D01*
X122686376Y-104262812D01*
X122618456Y-104426784D01*
X122519853Y-104574354D01*
X122394354Y-104699853D01*
X122246784Y-104798456D01*
X122082812Y-104866376D01*
X121933512Y-104896073D01*
X121908742Y-104901000D01*
X121731258Y-104901000D01*
X121706488Y-104896073D01*
X121557188Y-104866376D01*
X121393216Y-104798456D01*
X121245646Y-104699853D01*
X121120147Y-104574354D01*
X121021544Y-104426784D01*
X120953624Y-104262812D01*
X120919000Y-104088741D01*
X120919000Y-103911259D01*
X120953624Y-103737188D01*
X121021544Y-103573216D01*
X121120147Y-103425646D01*
X121245646Y-103300147D01*
X121393216Y-103201544D01*
X121557188Y-103133624D01*
X121706488Y-103103927D01*
X121731258Y-103099000D01*
X121908742Y-103099000D01*
X121933512Y-103103927D01*
G37*
G36*
X119393512Y-103103927D02*
G01*
X119542812Y-103133624D01*
X119706784Y-103201544D01*
X119854354Y-103300147D01*
X119979853Y-103425646D01*
X120078456Y-103573216D01*
X120146376Y-103737188D01*
X120181000Y-103911259D01*
X120181000Y-104088741D01*
X120146376Y-104262812D01*
X120078456Y-104426784D01*
X119979853Y-104574354D01*
X119854354Y-104699853D01*
X119706784Y-104798456D01*
X119542812Y-104866376D01*
X119393512Y-104896073D01*
X119368742Y-104901000D01*
X119191258Y-104901000D01*
X119166488Y-104896073D01*
X119017188Y-104866376D01*
X118853216Y-104798456D01*
X118705646Y-104699853D01*
X118580147Y-104574354D01*
X118481544Y-104426784D01*
X118413624Y-104262812D01*
X118379000Y-104088741D01*
X118379000Y-103911259D01*
X118413624Y-103737188D01*
X118481544Y-103573216D01*
X118580147Y-103425646D01*
X118705646Y-103300147D01*
X118853216Y-103201544D01*
X119017188Y-103133624D01*
X119166488Y-103103927D01*
X119191258Y-103099000D01*
X119368742Y-103099000D01*
X119393512Y-103103927D01*
G37*
G36*
X116853512Y-103103927D02*
G01*
X117002812Y-103133624D01*
X117166784Y-103201544D01*
X117314354Y-103300147D01*
X117439853Y-103425646D01*
X117538456Y-103573216D01*
X117606376Y-103737188D01*
X117641000Y-103911259D01*
X117641000Y-104088741D01*
X117606376Y-104262812D01*
X117538456Y-104426784D01*
X117439853Y-104574354D01*
X117314354Y-104699853D01*
X117166784Y-104798456D01*
X117002812Y-104866376D01*
X116853512Y-104896073D01*
X116828742Y-104901000D01*
X116651258Y-104901000D01*
X116626488Y-104896073D01*
X116477188Y-104866376D01*
X116313216Y-104798456D01*
X116165646Y-104699853D01*
X116040147Y-104574354D01*
X115941544Y-104426784D01*
X115873624Y-104262812D01*
X115839000Y-104088741D01*
X115839000Y-103911259D01*
X115873624Y-103737188D01*
X115941544Y-103573216D01*
X116040147Y-103425646D01*
X116165646Y-103300147D01*
X116313216Y-103201544D01*
X116477188Y-103133624D01*
X116626488Y-103103927D01*
X116651258Y-103099000D01*
X116828742Y-103099000D01*
X116853512Y-103103927D01*
G37*
G36*
X114313512Y-103103927D02*
G01*
X114462812Y-103133624D01*
X114626784Y-103201544D01*
X114774354Y-103300147D01*
X114899853Y-103425646D01*
X114998456Y-103573216D01*
X115066376Y-103737188D01*
X115101000Y-103911259D01*
X115101000Y-104088741D01*
X115066376Y-104262812D01*
X114998456Y-104426784D01*
X114899853Y-104574354D01*
X114774354Y-104699853D01*
X114626784Y-104798456D01*
X114462812Y-104866376D01*
X114313512Y-104896073D01*
X114288742Y-104901000D01*
X114111258Y-104901000D01*
X114086488Y-104896073D01*
X113937188Y-104866376D01*
X113773216Y-104798456D01*
X113625646Y-104699853D01*
X113500147Y-104574354D01*
X113401544Y-104426784D01*
X113333624Y-104262812D01*
X113299000Y-104088741D01*
X113299000Y-103911259D01*
X113333624Y-103737188D01*
X113401544Y-103573216D01*
X113500147Y-103425646D01*
X113625646Y-103300147D01*
X113773216Y-103201544D01*
X113937188Y-103133624D01*
X114086488Y-103103927D01*
X114111258Y-103099000D01*
X114288742Y-103099000D01*
X114313512Y-103103927D01*
G37*
G36*
X109233512Y-103103927D02*
G01*
X109382812Y-103133624D01*
X109546784Y-103201544D01*
X109694354Y-103300147D01*
X109819853Y-103425646D01*
X109918456Y-103573216D01*
X109986376Y-103737188D01*
X110021000Y-103911259D01*
X110021000Y-104088741D01*
X109986376Y-104262812D01*
X109918456Y-104426784D01*
X109819853Y-104574354D01*
X109694354Y-104699853D01*
X109546784Y-104798456D01*
X109382812Y-104866376D01*
X109233512Y-104896073D01*
X109208742Y-104901000D01*
X109031258Y-104901000D01*
X109006488Y-104896073D01*
X108857188Y-104866376D01*
X108693216Y-104798456D01*
X108545646Y-104699853D01*
X108420147Y-104574354D01*
X108321544Y-104426784D01*
X108253624Y-104262812D01*
X108219000Y-104088741D01*
X108219000Y-103911259D01*
X108253624Y-103737188D01*
X108321544Y-103573216D01*
X108420147Y-103425646D01*
X108545646Y-103300147D01*
X108693216Y-103201544D01*
X108857188Y-103133624D01*
X109006488Y-103103927D01*
X109031258Y-103099000D01*
X109208742Y-103099000D01*
X109233512Y-103103927D01*
G37*
G36*
X106693512Y-103103927D02*
G01*
X106842812Y-103133624D01*
X107006784Y-103201544D01*
X107154354Y-103300147D01*
X107279853Y-103425646D01*
X107378456Y-103573216D01*
X107446376Y-103737188D01*
X107481000Y-103911259D01*
X107481000Y-104088741D01*
X107446376Y-104262812D01*
X107378456Y-104426784D01*
X107279853Y-104574354D01*
X107154354Y-104699853D01*
X107006784Y-104798456D01*
X106842812Y-104866376D01*
X106693512Y-104896073D01*
X106668742Y-104901000D01*
X106491258Y-104901000D01*
X106466488Y-104896073D01*
X106317188Y-104866376D01*
X106153216Y-104798456D01*
X106005646Y-104699853D01*
X105880147Y-104574354D01*
X105781544Y-104426784D01*
X105713624Y-104262812D01*
X105679000Y-104088741D01*
X105679000Y-103911259D01*
X105713624Y-103737188D01*
X105781544Y-103573216D01*
X105880147Y-103425646D01*
X106005646Y-103300147D01*
X106153216Y-103201544D01*
X106317188Y-103133624D01*
X106466488Y-103103927D01*
X106491258Y-103099000D01*
X106668742Y-103099000D01*
X106693512Y-103103927D01*
G37*
G36*
X104153512Y-103103927D02*
G01*
X104302812Y-103133624D01*
X104466784Y-103201544D01*
X104614354Y-103300147D01*
X104739853Y-103425646D01*
X104838456Y-103573216D01*
X104906376Y-103737188D01*
X104941000Y-103911259D01*
X104941000Y-104088741D01*
X104906376Y-104262812D01*
X104838456Y-104426784D01*
X104739853Y-104574354D01*
X104614354Y-104699853D01*
X104466784Y-104798456D01*
X104302812Y-104866376D01*
X104153512Y-104896073D01*
X104128742Y-104901000D01*
X103951258Y-104901000D01*
X103926488Y-104896073D01*
X103777188Y-104866376D01*
X103613216Y-104798456D01*
X103465646Y-104699853D01*
X103340147Y-104574354D01*
X103241544Y-104426784D01*
X103173624Y-104262812D01*
X103139000Y-104088741D01*
X103139000Y-103911259D01*
X103173624Y-103737188D01*
X103241544Y-103573216D01*
X103340147Y-103425646D01*
X103465646Y-103300147D01*
X103613216Y-103201544D01*
X103777188Y-103133624D01*
X103926488Y-103103927D01*
X103951258Y-103099000D01*
X104128742Y-103099000D01*
X104153512Y-103103927D01*
G37*
G36*
X102401000Y-104901000D02*
G01*
X100599000Y-104901000D01*
X100599000Y-103099000D01*
X102401000Y-103099000D01*
X102401000Y-104901000D01*
G37*
G36*
X159653512Y-103053927D02*
G01*
X159802812Y-103083624D01*
X159966784Y-103151544D01*
X160114354Y-103250147D01*
X160239853Y-103375646D01*
X160338456Y-103523216D01*
X160406376Y-103687188D01*
X160441000Y-103861259D01*
X160441000Y-104038741D01*
X160406376Y-104212812D01*
X160338456Y-104376784D01*
X160239853Y-104524354D01*
X160114354Y-104649853D01*
X159966784Y-104748456D01*
X159802812Y-104816376D01*
X159653512Y-104846073D01*
X159628742Y-104851000D01*
X159451258Y-104851000D01*
X159426488Y-104846073D01*
X159277188Y-104816376D01*
X159113216Y-104748456D01*
X158965646Y-104649853D01*
X158840147Y-104524354D01*
X158741544Y-104376784D01*
X158673624Y-104212812D01*
X158639000Y-104038741D01*
X158639000Y-103861259D01*
X158673624Y-103687188D01*
X158741544Y-103523216D01*
X158840147Y-103375646D01*
X158965646Y-103250147D01*
X159113216Y-103151544D01*
X159277188Y-103083624D01*
X159426488Y-103053927D01*
X159451258Y-103049000D01*
X159628742Y-103049000D01*
X159653512Y-103053927D01*
G37*
G36*
X174893512Y-103053927D02*
G01*
X175042812Y-103083624D01*
X175206784Y-103151544D01*
X175354354Y-103250147D01*
X175479853Y-103375646D01*
X175578456Y-103523216D01*
X175646376Y-103687188D01*
X175681000Y-103861259D01*
X175681000Y-104038741D01*
X175646376Y-104212812D01*
X175578456Y-104376784D01*
X175479853Y-104524354D01*
X175354354Y-104649853D01*
X175206784Y-104748456D01*
X175042812Y-104816376D01*
X174893512Y-104846073D01*
X174868742Y-104851000D01*
X174691258Y-104851000D01*
X174666488Y-104846073D01*
X174517188Y-104816376D01*
X174353216Y-104748456D01*
X174205646Y-104649853D01*
X174080147Y-104524354D01*
X173981544Y-104376784D01*
X173913624Y-104212812D01*
X173879000Y-104038741D01*
X173879000Y-103861259D01*
X173913624Y-103687188D01*
X173981544Y-103523216D01*
X174080147Y-103375646D01*
X174205646Y-103250147D01*
X174353216Y-103151544D01*
X174517188Y-103083624D01*
X174666488Y-103053927D01*
X174691258Y-103049000D01*
X174868742Y-103049000D01*
X174893512Y-103053927D01*
G37*
G36*
X177433512Y-103053927D02*
G01*
X177582812Y-103083624D01*
X177746784Y-103151544D01*
X177894354Y-103250147D01*
X178019853Y-103375646D01*
X178118456Y-103523216D01*
X178186376Y-103687188D01*
X178221000Y-103861259D01*
X178221000Y-104038741D01*
X178186376Y-104212812D01*
X178118456Y-104376784D01*
X178019853Y-104524354D01*
X177894354Y-104649853D01*
X177746784Y-104748456D01*
X177582812Y-104816376D01*
X177433512Y-104846073D01*
X177408742Y-104851000D01*
X177231258Y-104851000D01*
X177206488Y-104846073D01*
X177057188Y-104816376D01*
X176893216Y-104748456D01*
X176745646Y-104649853D01*
X176620147Y-104524354D01*
X176521544Y-104376784D01*
X176453624Y-104212812D01*
X176419000Y-104038741D01*
X176419000Y-103861259D01*
X176453624Y-103687188D01*
X176521544Y-103523216D01*
X176620147Y-103375646D01*
X176745646Y-103250147D01*
X176893216Y-103151544D01*
X177057188Y-103083624D01*
X177206488Y-103053927D01*
X177231258Y-103049000D01*
X177408742Y-103049000D01*
X177433512Y-103053927D01*
G37*
G36*
X179973512Y-103053927D02*
G01*
X180122812Y-103083624D01*
X180286784Y-103151544D01*
X180434354Y-103250147D01*
X180559853Y-103375646D01*
X180658456Y-103523216D01*
X180726376Y-103687188D01*
X180761000Y-103861259D01*
X180761000Y-104038741D01*
X180726376Y-104212812D01*
X180658456Y-104376784D01*
X180559853Y-104524354D01*
X180434354Y-104649853D01*
X180286784Y-104748456D01*
X180122812Y-104816376D01*
X179973512Y-104846073D01*
X179948742Y-104851000D01*
X179771258Y-104851000D01*
X179746488Y-104846073D01*
X179597188Y-104816376D01*
X179433216Y-104748456D01*
X179285646Y-104649853D01*
X179160147Y-104524354D01*
X179061544Y-104376784D01*
X178993624Y-104212812D01*
X178959000Y-104038741D01*
X178959000Y-103861259D01*
X178993624Y-103687188D01*
X179061544Y-103523216D01*
X179160147Y-103375646D01*
X179285646Y-103250147D01*
X179433216Y-103151544D01*
X179597188Y-103083624D01*
X179746488Y-103053927D01*
X179771258Y-103049000D01*
X179948742Y-103049000D01*
X179973512Y-103053927D01*
G37*
G36*
X172353512Y-103053927D02*
G01*
X172502812Y-103083624D01*
X172666784Y-103151544D01*
X172814354Y-103250147D01*
X172939853Y-103375646D01*
X173038456Y-103523216D01*
X173106376Y-103687188D01*
X173141000Y-103861259D01*
X173141000Y-104038741D01*
X173106376Y-104212812D01*
X173038456Y-104376784D01*
X172939853Y-104524354D01*
X172814354Y-104649853D01*
X172666784Y-104748456D01*
X172502812Y-104816376D01*
X172353512Y-104846073D01*
X172328742Y-104851000D01*
X172151258Y-104851000D01*
X172126488Y-104846073D01*
X171977188Y-104816376D01*
X171813216Y-104748456D01*
X171665646Y-104649853D01*
X171540147Y-104524354D01*
X171441544Y-104376784D01*
X171373624Y-104212812D01*
X171339000Y-104038741D01*
X171339000Y-103861259D01*
X171373624Y-103687188D01*
X171441544Y-103523216D01*
X171540147Y-103375646D01*
X171665646Y-103250147D01*
X171813216Y-103151544D01*
X171977188Y-103083624D01*
X172126488Y-103053927D01*
X172151258Y-103049000D01*
X172328742Y-103049000D01*
X172353512Y-103053927D01*
G37*
G36*
X169813512Y-103053927D02*
G01*
X169962812Y-103083624D01*
X170126784Y-103151544D01*
X170274354Y-103250147D01*
X170399853Y-103375646D01*
X170498456Y-103523216D01*
X170566376Y-103687188D01*
X170601000Y-103861259D01*
X170601000Y-104038741D01*
X170566376Y-104212812D01*
X170498456Y-104376784D01*
X170399853Y-104524354D01*
X170274354Y-104649853D01*
X170126784Y-104748456D01*
X169962812Y-104816376D01*
X169813512Y-104846073D01*
X169788742Y-104851000D01*
X169611258Y-104851000D01*
X169586488Y-104846073D01*
X169437188Y-104816376D01*
X169273216Y-104748456D01*
X169125646Y-104649853D01*
X169000147Y-104524354D01*
X168901544Y-104376784D01*
X168833624Y-104212812D01*
X168799000Y-104038741D01*
X168799000Y-103861259D01*
X168833624Y-103687188D01*
X168901544Y-103523216D01*
X169000147Y-103375646D01*
X169125646Y-103250147D01*
X169273216Y-103151544D01*
X169437188Y-103083624D01*
X169586488Y-103053927D01*
X169611258Y-103049000D01*
X169788742Y-103049000D01*
X169813512Y-103053927D01*
G37*
G36*
X167273512Y-103053927D02*
G01*
X167422812Y-103083624D01*
X167586784Y-103151544D01*
X167734354Y-103250147D01*
X167859853Y-103375646D01*
X167958456Y-103523216D01*
X168026376Y-103687188D01*
X168061000Y-103861259D01*
X168061000Y-104038741D01*
X168026376Y-104212812D01*
X167958456Y-104376784D01*
X167859853Y-104524354D01*
X167734354Y-104649853D01*
X167586784Y-104748456D01*
X167422812Y-104816376D01*
X167273512Y-104846073D01*
X167248742Y-104851000D01*
X167071258Y-104851000D01*
X167046488Y-104846073D01*
X166897188Y-104816376D01*
X166733216Y-104748456D01*
X166585646Y-104649853D01*
X166460147Y-104524354D01*
X166361544Y-104376784D01*
X166293624Y-104212812D01*
X166259000Y-104038741D01*
X166259000Y-103861259D01*
X166293624Y-103687188D01*
X166361544Y-103523216D01*
X166460147Y-103375646D01*
X166585646Y-103250147D01*
X166733216Y-103151544D01*
X166897188Y-103083624D01*
X167046488Y-103053927D01*
X167071258Y-103049000D01*
X167248742Y-103049000D01*
X167273512Y-103053927D01*
G37*
G36*
X164733512Y-103053927D02*
G01*
X164882812Y-103083624D01*
X165046784Y-103151544D01*
X165194354Y-103250147D01*
X165319853Y-103375646D01*
X165418456Y-103523216D01*
X165486376Y-103687188D01*
X165521000Y-103861259D01*
X165521000Y-104038741D01*
X165486376Y-104212812D01*
X165418456Y-104376784D01*
X165319853Y-104524354D01*
X165194354Y-104649853D01*
X165046784Y-104748456D01*
X164882812Y-104816376D01*
X164733512Y-104846073D01*
X164708742Y-104851000D01*
X164531258Y-104851000D01*
X164506488Y-104846073D01*
X164357188Y-104816376D01*
X164193216Y-104748456D01*
X164045646Y-104649853D01*
X163920147Y-104524354D01*
X163821544Y-104376784D01*
X163753624Y-104212812D01*
X163719000Y-104038741D01*
X163719000Y-103861259D01*
X163753624Y-103687188D01*
X163821544Y-103523216D01*
X163920147Y-103375646D01*
X164045646Y-103250147D01*
X164193216Y-103151544D01*
X164357188Y-103083624D01*
X164506488Y-103053927D01*
X164531258Y-103049000D01*
X164708742Y-103049000D01*
X164733512Y-103053927D01*
G37*
G36*
X162193512Y-103053927D02*
G01*
X162342812Y-103083624D01*
X162506784Y-103151544D01*
X162654354Y-103250147D01*
X162779853Y-103375646D01*
X162878456Y-103523216D01*
X162946376Y-103687188D01*
X162981000Y-103861259D01*
X162981000Y-104038741D01*
X162946376Y-104212812D01*
X162878456Y-104376784D01*
X162779853Y-104524354D01*
X162654354Y-104649853D01*
X162506784Y-104748456D01*
X162342812Y-104816376D01*
X162193512Y-104846073D01*
X162168742Y-104851000D01*
X161991258Y-104851000D01*
X161966488Y-104846073D01*
X161817188Y-104816376D01*
X161653216Y-104748456D01*
X161505646Y-104649853D01*
X161380147Y-104524354D01*
X161281544Y-104376784D01*
X161213624Y-104212812D01*
X161179000Y-104038741D01*
X161179000Y-103861259D01*
X161213624Y-103687188D01*
X161281544Y-103523216D01*
X161380147Y-103375646D01*
X161505646Y-103250147D01*
X161653216Y-103151544D01*
X161817188Y-103083624D01*
X161966488Y-103053927D01*
X161991258Y-103049000D01*
X162168742Y-103049000D01*
X162193512Y-103053927D01*
G37*
G36*
X157901000Y-104851000D02*
G01*
X156099000Y-104851000D01*
X156099000Y-103049000D01*
X157901000Y-103049000D01*
X157901000Y-104851000D01*
G37*
G36*
X124473512Y-100563927D02*
G01*
X124622812Y-100593624D01*
X124786784Y-100661544D01*
X124934354Y-100760147D01*
X125059853Y-100885646D01*
X125158456Y-101033216D01*
X125226376Y-101197188D01*
X125261000Y-101371259D01*
X125261000Y-101548741D01*
X125226376Y-101722812D01*
X125158456Y-101886784D01*
X125059853Y-102034354D01*
X124934354Y-102159853D01*
X124786784Y-102258456D01*
X124622812Y-102326376D01*
X124473512Y-102356073D01*
X124448742Y-102361000D01*
X124271258Y-102361000D01*
X124246488Y-102356073D01*
X124097188Y-102326376D01*
X123933216Y-102258456D01*
X123785646Y-102159853D01*
X123660147Y-102034354D01*
X123561544Y-101886784D01*
X123493624Y-101722812D01*
X123459000Y-101548741D01*
X123459000Y-101371259D01*
X123493624Y-101197188D01*
X123561544Y-101033216D01*
X123660147Y-100885646D01*
X123785646Y-100760147D01*
X123933216Y-100661544D01*
X124097188Y-100593624D01*
X124246488Y-100563927D01*
X124271258Y-100559000D01*
X124448742Y-100559000D01*
X124473512Y-100563927D01*
G37*
G36*
X116853512Y-100563927D02*
G01*
X117002812Y-100593624D01*
X117166784Y-100661544D01*
X117314354Y-100760147D01*
X117439853Y-100885646D01*
X117538456Y-101033216D01*
X117606376Y-101197188D01*
X117641000Y-101371259D01*
X117641000Y-101548741D01*
X117606376Y-101722812D01*
X117538456Y-101886784D01*
X117439853Y-102034354D01*
X117314354Y-102159853D01*
X117166784Y-102258456D01*
X117002812Y-102326376D01*
X116853512Y-102356073D01*
X116828742Y-102361000D01*
X116651258Y-102361000D01*
X116626488Y-102356073D01*
X116477188Y-102326376D01*
X116313216Y-102258456D01*
X116165646Y-102159853D01*
X116040147Y-102034354D01*
X115941544Y-101886784D01*
X115873624Y-101722812D01*
X115839000Y-101548741D01*
X115839000Y-101371259D01*
X115873624Y-101197188D01*
X115941544Y-101033216D01*
X116040147Y-100885646D01*
X116165646Y-100760147D01*
X116313216Y-100661544D01*
X116477188Y-100593624D01*
X116626488Y-100563927D01*
X116651258Y-100559000D01*
X116828742Y-100559000D01*
X116853512Y-100563927D01*
G37*
G36*
X114313512Y-100563927D02*
G01*
X114462812Y-100593624D01*
X114626784Y-100661544D01*
X114774354Y-100760147D01*
X114899853Y-100885646D01*
X114998456Y-101033216D01*
X115066376Y-101197188D01*
X115101000Y-101371259D01*
X115101000Y-101548741D01*
X115066376Y-101722812D01*
X114998456Y-101886784D01*
X114899853Y-102034354D01*
X114774354Y-102159853D01*
X114626784Y-102258456D01*
X114462812Y-102326376D01*
X114313512Y-102356073D01*
X114288742Y-102361000D01*
X114111258Y-102361000D01*
X114086488Y-102356073D01*
X113937188Y-102326376D01*
X113773216Y-102258456D01*
X113625646Y-102159853D01*
X113500147Y-102034354D01*
X113401544Y-101886784D01*
X113333624Y-101722812D01*
X113299000Y-101548741D01*
X113299000Y-101371259D01*
X113333624Y-101197188D01*
X113401544Y-101033216D01*
X113500147Y-100885646D01*
X113625646Y-100760147D01*
X113773216Y-100661544D01*
X113937188Y-100593624D01*
X114086488Y-100563927D01*
X114111258Y-100559000D01*
X114288742Y-100559000D01*
X114313512Y-100563927D01*
G37*
G36*
X119393512Y-100563927D02*
G01*
X119542812Y-100593624D01*
X119706784Y-100661544D01*
X119854354Y-100760147D01*
X119979853Y-100885646D01*
X120078456Y-101033216D01*
X120146376Y-101197188D01*
X120181000Y-101371259D01*
X120181000Y-101548741D01*
X120146376Y-101722812D01*
X120078456Y-101886784D01*
X119979853Y-102034354D01*
X119854354Y-102159853D01*
X119706784Y-102258456D01*
X119542812Y-102326376D01*
X119393512Y-102356073D01*
X119368742Y-102361000D01*
X119191258Y-102361000D01*
X119166488Y-102356073D01*
X119017188Y-102326376D01*
X118853216Y-102258456D01*
X118705646Y-102159853D01*
X118580147Y-102034354D01*
X118481544Y-101886784D01*
X118413624Y-101722812D01*
X118379000Y-101548741D01*
X118379000Y-101371259D01*
X118413624Y-101197188D01*
X118481544Y-101033216D01*
X118580147Y-100885646D01*
X118705646Y-100760147D01*
X118853216Y-100661544D01*
X119017188Y-100593624D01*
X119166488Y-100563927D01*
X119191258Y-100559000D01*
X119368742Y-100559000D01*
X119393512Y-100563927D01*
G37*
G36*
X121933512Y-100563927D02*
G01*
X122082812Y-100593624D01*
X122246784Y-100661544D01*
X122394354Y-100760147D01*
X122519853Y-100885646D01*
X122618456Y-101033216D01*
X122686376Y-101197188D01*
X122721000Y-101371259D01*
X122721000Y-101548741D01*
X122686376Y-101722812D01*
X122618456Y-101886784D01*
X122519853Y-102034354D01*
X122394354Y-102159853D01*
X122246784Y-102258456D01*
X122082812Y-102326376D01*
X121933512Y-102356073D01*
X121908742Y-102361000D01*
X121731258Y-102361000D01*
X121706488Y-102356073D01*
X121557188Y-102326376D01*
X121393216Y-102258456D01*
X121245646Y-102159853D01*
X121120147Y-102034354D01*
X121021544Y-101886784D01*
X120953624Y-101722812D01*
X120919000Y-101548741D01*
X120919000Y-101371259D01*
X120953624Y-101197188D01*
X121021544Y-101033216D01*
X121120147Y-100885646D01*
X121245646Y-100760147D01*
X121393216Y-100661544D01*
X121557188Y-100593624D01*
X121706488Y-100563927D01*
X121731258Y-100559000D01*
X121908742Y-100559000D01*
X121933512Y-100563927D01*
G37*
G36*
X111773512Y-100563927D02*
G01*
X111922812Y-100593624D01*
X112086784Y-100661544D01*
X112234354Y-100760147D01*
X112359853Y-100885646D01*
X112458456Y-101033216D01*
X112526376Y-101197188D01*
X112561000Y-101371259D01*
X112561000Y-101548741D01*
X112526376Y-101722812D01*
X112458456Y-101886784D01*
X112359853Y-102034354D01*
X112234354Y-102159853D01*
X112086784Y-102258456D01*
X111922812Y-102326376D01*
X111773512Y-102356073D01*
X111748742Y-102361000D01*
X111571258Y-102361000D01*
X111546488Y-102356073D01*
X111397188Y-102326376D01*
X111233216Y-102258456D01*
X111085646Y-102159853D01*
X110960147Y-102034354D01*
X110861544Y-101886784D01*
X110793624Y-101722812D01*
X110759000Y-101548741D01*
X110759000Y-101371259D01*
X110793624Y-101197188D01*
X110861544Y-101033216D01*
X110960147Y-100885646D01*
X111085646Y-100760147D01*
X111233216Y-100661544D01*
X111397188Y-100593624D01*
X111546488Y-100563927D01*
X111571258Y-100559000D01*
X111748742Y-100559000D01*
X111773512Y-100563927D01*
G37*
G36*
X109233512Y-100563927D02*
G01*
X109382812Y-100593624D01*
X109546784Y-100661544D01*
X109694354Y-100760147D01*
X109819853Y-100885646D01*
X109918456Y-101033216D01*
X109986376Y-101197188D01*
X110021000Y-101371259D01*
X110021000Y-101548741D01*
X109986376Y-101722812D01*
X109918456Y-101886784D01*
X109819853Y-102034354D01*
X109694354Y-102159853D01*
X109546784Y-102258456D01*
X109382812Y-102326376D01*
X109233512Y-102356073D01*
X109208742Y-102361000D01*
X109031258Y-102361000D01*
X109006488Y-102356073D01*
X108857188Y-102326376D01*
X108693216Y-102258456D01*
X108545646Y-102159853D01*
X108420147Y-102034354D01*
X108321544Y-101886784D01*
X108253624Y-101722812D01*
X108219000Y-101548741D01*
X108219000Y-101371259D01*
X108253624Y-101197188D01*
X108321544Y-101033216D01*
X108420147Y-100885646D01*
X108545646Y-100760147D01*
X108693216Y-100661544D01*
X108857188Y-100593624D01*
X109006488Y-100563927D01*
X109031258Y-100559000D01*
X109208742Y-100559000D01*
X109233512Y-100563927D01*
G37*
G36*
X106693512Y-100563927D02*
G01*
X106842812Y-100593624D01*
X107006784Y-100661544D01*
X107154354Y-100760147D01*
X107279853Y-100885646D01*
X107378456Y-101033216D01*
X107446376Y-101197188D01*
X107481000Y-101371259D01*
X107481000Y-101548741D01*
X107446376Y-101722812D01*
X107378456Y-101886784D01*
X107279853Y-102034354D01*
X107154354Y-102159853D01*
X107006784Y-102258456D01*
X106842812Y-102326376D01*
X106693512Y-102356073D01*
X106668742Y-102361000D01*
X106491258Y-102361000D01*
X106466488Y-102356073D01*
X106317188Y-102326376D01*
X106153216Y-102258456D01*
X106005646Y-102159853D01*
X105880147Y-102034354D01*
X105781544Y-101886784D01*
X105713624Y-101722812D01*
X105679000Y-101548741D01*
X105679000Y-101371259D01*
X105713624Y-101197188D01*
X105781544Y-101033216D01*
X105880147Y-100885646D01*
X106005646Y-100760147D01*
X106153216Y-100661544D01*
X106317188Y-100593624D01*
X106466488Y-100563927D01*
X106491258Y-100559000D01*
X106668742Y-100559000D01*
X106693512Y-100563927D01*
G37*
G36*
X104153512Y-100563927D02*
G01*
X104302812Y-100593624D01*
X104466784Y-100661544D01*
X104614354Y-100760147D01*
X104739853Y-100885646D01*
X104838456Y-101033216D01*
X104906376Y-101197188D01*
X104941000Y-101371259D01*
X104941000Y-101548741D01*
X104906376Y-101722812D01*
X104838456Y-101886784D01*
X104739853Y-102034354D01*
X104614354Y-102159853D01*
X104466784Y-102258456D01*
X104302812Y-102326376D01*
X104153512Y-102356073D01*
X104128742Y-102361000D01*
X103951258Y-102361000D01*
X103926488Y-102356073D01*
X103777188Y-102326376D01*
X103613216Y-102258456D01*
X103465646Y-102159853D01*
X103340147Y-102034354D01*
X103241544Y-101886784D01*
X103173624Y-101722812D01*
X103139000Y-101548741D01*
X103139000Y-101371259D01*
X103173624Y-101197188D01*
X103241544Y-101033216D01*
X103340147Y-100885646D01*
X103465646Y-100760147D01*
X103613216Y-100661544D01*
X103777188Y-100593624D01*
X103926488Y-100563927D01*
X103951258Y-100559000D01*
X104128742Y-100559000D01*
X104153512Y-100563927D01*
G37*
G36*
X101613512Y-100563927D02*
G01*
X101762812Y-100593624D01*
X101926784Y-100661544D01*
X102074354Y-100760147D01*
X102199853Y-100885646D01*
X102298456Y-101033216D01*
X102366376Y-101197188D01*
X102401000Y-101371259D01*
X102401000Y-101548741D01*
X102366376Y-101722812D01*
X102298456Y-101886784D01*
X102199853Y-102034354D01*
X102074354Y-102159853D01*
X101926784Y-102258456D01*
X101762812Y-102326376D01*
X101613512Y-102356073D01*
X101588742Y-102361000D01*
X101411258Y-102361000D01*
X101386488Y-102356073D01*
X101237188Y-102326376D01*
X101073216Y-102258456D01*
X100925646Y-102159853D01*
X100800147Y-102034354D01*
X100701544Y-101886784D01*
X100633624Y-101722812D01*
X100599000Y-101548741D01*
X100599000Y-101371259D01*
X100633624Y-101197188D01*
X100701544Y-101033216D01*
X100800147Y-100885646D01*
X100925646Y-100760147D01*
X101073216Y-100661544D01*
X101237188Y-100593624D01*
X101386488Y-100563927D01*
X101411258Y-100559000D01*
X101588742Y-100559000D01*
X101613512Y-100563927D01*
G37*
G36*
X157113512Y-100513927D02*
G01*
X157262812Y-100543624D01*
X157426784Y-100611544D01*
X157574354Y-100710147D01*
X157699853Y-100835646D01*
X157798456Y-100983216D01*
X157866376Y-101147188D01*
X157901000Y-101321259D01*
X157901000Y-101498741D01*
X157866376Y-101672812D01*
X157798456Y-101836784D01*
X157699853Y-101984354D01*
X157574354Y-102109853D01*
X157426784Y-102208456D01*
X157262812Y-102276376D01*
X157113512Y-102306073D01*
X157088742Y-102311000D01*
X156911258Y-102311000D01*
X156886488Y-102306073D01*
X156737188Y-102276376D01*
X156573216Y-102208456D01*
X156425646Y-102109853D01*
X156300147Y-101984354D01*
X156201544Y-101836784D01*
X156133624Y-101672812D01*
X156099000Y-101498741D01*
X156099000Y-101321259D01*
X156133624Y-101147188D01*
X156201544Y-100983216D01*
X156300147Y-100835646D01*
X156425646Y-100710147D01*
X156573216Y-100611544D01*
X156737188Y-100543624D01*
X156886488Y-100513927D01*
X156911258Y-100509000D01*
X157088742Y-100509000D01*
X157113512Y-100513927D01*
G37*
G36*
X159653512Y-100513927D02*
G01*
X159802812Y-100543624D01*
X159966784Y-100611544D01*
X160114354Y-100710147D01*
X160239853Y-100835646D01*
X160338456Y-100983216D01*
X160406376Y-101147188D01*
X160441000Y-101321259D01*
X160441000Y-101498741D01*
X160406376Y-101672812D01*
X160338456Y-101836784D01*
X160239853Y-101984354D01*
X160114354Y-102109853D01*
X159966784Y-102208456D01*
X159802812Y-102276376D01*
X159653512Y-102306073D01*
X159628742Y-102311000D01*
X159451258Y-102311000D01*
X159426488Y-102306073D01*
X159277188Y-102276376D01*
X159113216Y-102208456D01*
X158965646Y-102109853D01*
X158840147Y-101984354D01*
X158741544Y-101836784D01*
X158673624Y-101672812D01*
X158639000Y-101498741D01*
X158639000Y-101321259D01*
X158673624Y-101147188D01*
X158741544Y-100983216D01*
X158840147Y-100835646D01*
X158965646Y-100710147D01*
X159113216Y-100611544D01*
X159277188Y-100543624D01*
X159426488Y-100513927D01*
X159451258Y-100509000D01*
X159628742Y-100509000D01*
X159653512Y-100513927D01*
G37*
G36*
X162193512Y-100513927D02*
G01*
X162342812Y-100543624D01*
X162506784Y-100611544D01*
X162654354Y-100710147D01*
X162779853Y-100835646D01*
X162878456Y-100983216D01*
X162946376Y-101147188D01*
X162981000Y-101321259D01*
X162981000Y-101498741D01*
X162946376Y-101672812D01*
X162878456Y-101836784D01*
X162779853Y-101984354D01*
X162654354Y-102109853D01*
X162506784Y-102208456D01*
X162342812Y-102276376D01*
X162193512Y-102306073D01*
X162168742Y-102311000D01*
X161991258Y-102311000D01*
X161966488Y-102306073D01*
X161817188Y-102276376D01*
X161653216Y-102208456D01*
X161505646Y-102109853D01*
X161380147Y-101984354D01*
X161281544Y-101836784D01*
X161213624Y-101672812D01*
X161179000Y-101498741D01*
X161179000Y-101321259D01*
X161213624Y-101147188D01*
X161281544Y-100983216D01*
X161380147Y-100835646D01*
X161505646Y-100710147D01*
X161653216Y-100611544D01*
X161817188Y-100543624D01*
X161966488Y-100513927D01*
X161991258Y-100509000D01*
X162168742Y-100509000D01*
X162193512Y-100513927D01*
G37*
G36*
X164733512Y-100513927D02*
G01*
X164882812Y-100543624D01*
X165046784Y-100611544D01*
X165194354Y-100710147D01*
X165319853Y-100835646D01*
X165418456Y-100983216D01*
X165486376Y-101147188D01*
X165521000Y-101321259D01*
X165521000Y-101498741D01*
X165486376Y-101672812D01*
X165418456Y-101836784D01*
X165319853Y-101984354D01*
X165194354Y-102109853D01*
X165046784Y-102208456D01*
X164882812Y-102276376D01*
X164733512Y-102306073D01*
X164708742Y-102311000D01*
X164531258Y-102311000D01*
X164506488Y-102306073D01*
X164357188Y-102276376D01*
X164193216Y-102208456D01*
X164045646Y-102109853D01*
X163920147Y-101984354D01*
X163821544Y-101836784D01*
X163753624Y-101672812D01*
X163719000Y-101498741D01*
X163719000Y-101321259D01*
X163753624Y-101147188D01*
X163821544Y-100983216D01*
X163920147Y-100835646D01*
X164045646Y-100710147D01*
X164193216Y-100611544D01*
X164357188Y-100543624D01*
X164506488Y-100513927D01*
X164531258Y-100509000D01*
X164708742Y-100509000D01*
X164733512Y-100513927D01*
G37*
G36*
X167273512Y-100513927D02*
G01*
X167422812Y-100543624D01*
X167586784Y-100611544D01*
X167734354Y-100710147D01*
X167859853Y-100835646D01*
X167958456Y-100983216D01*
X168026376Y-101147188D01*
X168061000Y-101321259D01*
X168061000Y-101498741D01*
X168026376Y-101672812D01*
X167958456Y-101836784D01*
X167859853Y-101984354D01*
X167734354Y-102109853D01*
X167586784Y-102208456D01*
X167422812Y-102276376D01*
X167273512Y-102306073D01*
X167248742Y-102311000D01*
X167071258Y-102311000D01*
X167046488Y-102306073D01*
X166897188Y-102276376D01*
X166733216Y-102208456D01*
X166585646Y-102109853D01*
X166460147Y-101984354D01*
X166361544Y-101836784D01*
X166293624Y-101672812D01*
X166259000Y-101498741D01*
X166259000Y-101321259D01*
X166293624Y-101147188D01*
X166361544Y-100983216D01*
X166460147Y-100835646D01*
X166585646Y-100710147D01*
X166733216Y-100611544D01*
X166897188Y-100543624D01*
X167046488Y-100513927D01*
X167071258Y-100509000D01*
X167248742Y-100509000D01*
X167273512Y-100513927D01*
G37*
G36*
X169813512Y-100513927D02*
G01*
X169962812Y-100543624D01*
X170126784Y-100611544D01*
X170274354Y-100710147D01*
X170399853Y-100835646D01*
X170498456Y-100983216D01*
X170566376Y-101147188D01*
X170601000Y-101321259D01*
X170601000Y-101498741D01*
X170566376Y-101672812D01*
X170498456Y-101836784D01*
X170399853Y-101984354D01*
X170274354Y-102109853D01*
X170126784Y-102208456D01*
X169962812Y-102276376D01*
X169813512Y-102306073D01*
X169788742Y-102311000D01*
X169611258Y-102311000D01*
X169586488Y-102306073D01*
X169437188Y-102276376D01*
X169273216Y-102208456D01*
X169125646Y-102109853D01*
X169000147Y-101984354D01*
X168901544Y-101836784D01*
X168833624Y-101672812D01*
X168799000Y-101498741D01*
X168799000Y-101321259D01*
X168833624Y-101147188D01*
X168901544Y-100983216D01*
X169000147Y-100835646D01*
X169125646Y-100710147D01*
X169273216Y-100611544D01*
X169437188Y-100543624D01*
X169586488Y-100513927D01*
X169611258Y-100509000D01*
X169788742Y-100509000D01*
X169813512Y-100513927D01*
G37*
G36*
X172353512Y-100513927D02*
G01*
X172502812Y-100543624D01*
X172666784Y-100611544D01*
X172814354Y-100710147D01*
X172939853Y-100835646D01*
X173038456Y-100983216D01*
X173106376Y-101147188D01*
X173141000Y-101321259D01*
X173141000Y-101498741D01*
X173106376Y-101672812D01*
X173038456Y-101836784D01*
X172939853Y-101984354D01*
X172814354Y-102109853D01*
X172666784Y-102208456D01*
X172502812Y-102276376D01*
X172353512Y-102306073D01*
X172328742Y-102311000D01*
X172151258Y-102311000D01*
X172126488Y-102306073D01*
X171977188Y-102276376D01*
X171813216Y-102208456D01*
X171665646Y-102109853D01*
X171540147Y-101984354D01*
X171441544Y-101836784D01*
X171373624Y-101672812D01*
X171339000Y-101498741D01*
X171339000Y-101321259D01*
X171373624Y-101147188D01*
X171441544Y-100983216D01*
X171540147Y-100835646D01*
X171665646Y-100710147D01*
X171813216Y-100611544D01*
X171977188Y-100543624D01*
X172126488Y-100513927D01*
X172151258Y-100509000D01*
X172328742Y-100509000D01*
X172353512Y-100513927D01*
G37*
G36*
X174893512Y-100513927D02*
G01*
X175042812Y-100543624D01*
X175206784Y-100611544D01*
X175354354Y-100710147D01*
X175479853Y-100835646D01*
X175578456Y-100983216D01*
X175646376Y-101147188D01*
X175681000Y-101321259D01*
X175681000Y-101498741D01*
X175646376Y-101672812D01*
X175578456Y-101836784D01*
X175479853Y-101984354D01*
X175354354Y-102109853D01*
X175206784Y-102208456D01*
X175042812Y-102276376D01*
X174893512Y-102306073D01*
X174868742Y-102311000D01*
X174691258Y-102311000D01*
X174666488Y-102306073D01*
X174517188Y-102276376D01*
X174353216Y-102208456D01*
X174205646Y-102109853D01*
X174080147Y-101984354D01*
X173981544Y-101836784D01*
X173913624Y-101672812D01*
X173879000Y-101498741D01*
X173879000Y-101321259D01*
X173913624Y-101147188D01*
X173981544Y-100983216D01*
X174080147Y-100835646D01*
X174205646Y-100710147D01*
X174353216Y-100611544D01*
X174517188Y-100543624D01*
X174666488Y-100513927D01*
X174691258Y-100509000D01*
X174868742Y-100509000D01*
X174893512Y-100513927D01*
G37*
G36*
X177433512Y-100513927D02*
G01*
X177582812Y-100543624D01*
X177746784Y-100611544D01*
X177894354Y-100710147D01*
X178019853Y-100835646D01*
X178118456Y-100983216D01*
X178186376Y-101147188D01*
X178221000Y-101321259D01*
X178221000Y-101498741D01*
X178186376Y-101672812D01*
X178118456Y-101836784D01*
X178019853Y-101984354D01*
X177894354Y-102109853D01*
X177746784Y-102208456D01*
X177582812Y-102276376D01*
X177433512Y-102306073D01*
X177408742Y-102311000D01*
X177231258Y-102311000D01*
X177206488Y-102306073D01*
X177057188Y-102276376D01*
X176893216Y-102208456D01*
X176745646Y-102109853D01*
X176620147Y-101984354D01*
X176521544Y-101836784D01*
X176453624Y-101672812D01*
X176419000Y-101498741D01*
X176419000Y-101321259D01*
X176453624Y-101147188D01*
X176521544Y-100983216D01*
X176620147Y-100835646D01*
X176745646Y-100710147D01*
X176893216Y-100611544D01*
X177057188Y-100543624D01*
X177206488Y-100513927D01*
X177231258Y-100509000D01*
X177408742Y-100509000D01*
X177433512Y-100513927D01*
G37*
G36*
X179973512Y-100513927D02*
G01*
X180122812Y-100543624D01*
X180286784Y-100611544D01*
X180434354Y-100710147D01*
X180559853Y-100835646D01*
X180658456Y-100983216D01*
X180726376Y-101147188D01*
X180761000Y-101321259D01*
X180761000Y-101498741D01*
X180726376Y-101672812D01*
X180658456Y-101836784D01*
X180559853Y-101984354D01*
X180434354Y-102109853D01*
X180286784Y-102208456D01*
X180122812Y-102276376D01*
X179973512Y-102306073D01*
X179948742Y-102311000D01*
X179771258Y-102311000D01*
X179746488Y-102306073D01*
X179597188Y-102276376D01*
X179433216Y-102208456D01*
X179285646Y-102109853D01*
X179160147Y-101984354D01*
X179061544Y-101836784D01*
X178993624Y-101672812D01*
X178959000Y-101498741D01*
X178959000Y-101321259D01*
X178993624Y-101147188D01*
X179061544Y-100983216D01*
X179160147Y-100835646D01*
X179285646Y-100710147D01*
X179433216Y-100611544D01*
X179597188Y-100543624D01*
X179746488Y-100513927D01*
X179771258Y-100509000D01*
X179948742Y-100509000D01*
X179973512Y-100513927D01*
G37*
G36*
X102401000Y-96151000D02*
G01*
X100599000Y-96151000D01*
X100599000Y-94349000D01*
X102401000Y-94349000D01*
X102401000Y-96151000D01*
G37*
G36*
X116853512Y-94353927D02*
G01*
X117002812Y-94383624D01*
X117166784Y-94451544D01*
X117314354Y-94550147D01*
X117439853Y-94675646D01*
X117538456Y-94823216D01*
X117606376Y-94987188D01*
X117641000Y-95161259D01*
X117641000Y-95338741D01*
X117606376Y-95512812D01*
X117538456Y-95676784D01*
X117439853Y-95824354D01*
X117314354Y-95949853D01*
X117166784Y-96048456D01*
X117002812Y-96116376D01*
X116853512Y-96146073D01*
X116828742Y-96151000D01*
X116651258Y-96151000D01*
X116626488Y-96146073D01*
X116477188Y-96116376D01*
X116313216Y-96048456D01*
X116165646Y-95949853D01*
X116040147Y-95824354D01*
X115941544Y-95676784D01*
X115873624Y-95512812D01*
X115839000Y-95338741D01*
X115839000Y-95161259D01*
X115873624Y-94987188D01*
X115941544Y-94823216D01*
X116040147Y-94675646D01*
X116165646Y-94550147D01*
X116313216Y-94451544D01*
X116477188Y-94383624D01*
X116626488Y-94353927D01*
X116651258Y-94349000D01*
X116828742Y-94349000D01*
X116853512Y-94353927D01*
G37*
G36*
X124473512Y-94353927D02*
G01*
X124622812Y-94383624D01*
X124786784Y-94451544D01*
X124934354Y-94550147D01*
X125059853Y-94675646D01*
X125158456Y-94823216D01*
X125226376Y-94987188D01*
X125261000Y-95161259D01*
X125261000Y-95338741D01*
X125226376Y-95512812D01*
X125158456Y-95676784D01*
X125059853Y-95824354D01*
X124934354Y-95949853D01*
X124786784Y-96048456D01*
X124622812Y-96116376D01*
X124473512Y-96146073D01*
X124448742Y-96151000D01*
X124271258Y-96151000D01*
X124246488Y-96146073D01*
X124097188Y-96116376D01*
X123933216Y-96048456D01*
X123785646Y-95949853D01*
X123660147Y-95824354D01*
X123561544Y-95676784D01*
X123493624Y-95512812D01*
X123459000Y-95338741D01*
X123459000Y-95161259D01*
X123493624Y-94987188D01*
X123561544Y-94823216D01*
X123660147Y-94675646D01*
X123785646Y-94550147D01*
X123933216Y-94451544D01*
X124097188Y-94383624D01*
X124246488Y-94353927D01*
X124271258Y-94349000D01*
X124448742Y-94349000D01*
X124473512Y-94353927D01*
G37*
G36*
X121933512Y-94353927D02*
G01*
X122082812Y-94383624D01*
X122246784Y-94451544D01*
X122394354Y-94550147D01*
X122519853Y-94675646D01*
X122618456Y-94823216D01*
X122686376Y-94987188D01*
X122721000Y-95161259D01*
X122721000Y-95338741D01*
X122686376Y-95512812D01*
X122618456Y-95676784D01*
X122519853Y-95824354D01*
X122394354Y-95949853D01*
X122246784Y-96048456D01*
X122082812Y-96116376D01*
X121933512Y-96146073D01*
X121908742Y-96151000D01*
X121731258Y-96151000D01*
X121706488Y-96146073D01*
X121557188Y-96116376D01*
X121393216Y-96048456D01*
X121245646Y-95949853D01*
X121120147Y-95824354D01*
X121021544Y-95676784D01*
X120953624Y-95512812D01*
X120919000Y-95338741D01*
X120919000Y-95161259D01*
X120953624Y-94987188D01*
X121021544Y-94823216D01*
X121120147Y-94675646D01*
X121245646Y-94550147D01*
X121393216Y-94451544D01*
X121557188Y-94383624D01*
X121706488Y-94353927D01*
X121731258Y-94349000D01*
X121908742Y-94349000D01*
X121933512Y-94353927D01*
G37*
G36*
X114313512Y-94353927D02*
G01*
X114462812Y-94383624D01*
X114626784Y-94451544D01*
X114774354Y-94550147D01*
X114899853Y-94675646D01*
X114998456Y-94823216D01*
X115066376Y-94987188D01*
X115101000Y-95161259D01*
X115101000Y-95338741D01*
X115066376Y-95512812D01*
X114998456Y-95676784D01*
X114899853Y-95824354D01*
X114774354Y-95949853D01*
X114626784Y-96048456D01*
X114462812Y-96116376D01*
X114313512Y-96146073D01*
X114288742Y-96151000D01*
X114111258Y-96151000D01*
X114086488Y-96146073D01*
X113937188Y-96116376D01*
X113773216Y-96048456D01*
X113625646Y-95949853D01*
X113500147Y-95824354D01*
X113401544Y-95676784D01*
X113333624Y-95512812D01*
X113299000Y-95338741D01*
X113299000Y-95161259D01*
X113333624Y-94987188D01*
X113401544Y-94823216D01*
X113500147Y-94675646D01*
X113625646Y-94550147D01*
X113773216Y-94451544D01*
X113937188Y-94383624D01*
X114086488Y-94353927D01*
X114111258Y-94349000D01*
X114288742Y-94349000D01*
X114313512Y-94353927D01*
G37*
G36*
X111773512Y-94353927D02*
G01*
X111922812Y-94383624D01*
X112086784Y-94451544D01*
X112234354Y-94550147D01*
X112359853Y-94675646D01*
X112458456Y-94823216D01*
X112526376Y-94987188D01*
X112561000Y-95161259D01*
X112561000Y-95338741D01*
X112526376Y-95512812D01*
X112458456Y-95676784D01*
X112359853Y-95824354D01*
X112234354Y-95949853D01*
X112086784Y-96048456D01*
X111922812Y-96116376D01*
X111773512Y-96146073D01*
X111748742Y-96151000D01*
X111571258Y-96151000D01*
X111546488Y-96146073D01*
X111397188Y-96116376D01*
X111233216Y-96048456D01*
X111085646Y-95949853D01*
X110960147Y-95824354D01*
X110861544Y-95676784D01*
X110793624Y-95512812D01*
X110759000Y-95338741D01*
X110759000Y-95161259D01*
X110793624Y-94987188D01*
X110861544Y-94823216D01*
X110960147Y-94675646D01*
X111085646Y-94550147D01*
X111233216Y-94451544D01*
X111397188Y-94383624D01*
X111546488Y-94353927D01*
X111571258Y-94349000D01*
X111748742Y-94349000D01*
X111773512Y-94353927D01*
G37*
G36*
X119393512Y-94353927D02*
G01*
X119542812Y-94383624D01*
X119706784Y-94451544D01*
X119854354Y-94550147D01*
X119979853Y-94675646D01*
X120078456Y-94823216D01*
X120146376Y-94987188D01*
X120181000Y-95161259D01*
X120181000Y-95338741D01*
X120146376Y-95512812D01*
X120078456Y-95676784D01*
X119979853Y-95824354D01*
X119854354Y-95949853D01*
X119706784Y-96048456D01*
X119542812Y-96116376D01*
X119393512Y-96146073D01*
X119368742Y-96151000D01*
X119191258Y-96151000D01*
X119166488Y-96146073D01*
X119017188Y-96116376D01*
X118853216Y-96048456D01*
X118705646Y-95949853D01*
X118580147Y-95824354D01*
X118481544Y-95676784D01*
X118413624Y-95512812D01*
X118379000Y-95338741D01*
X118379000Y-95161259D01*
X118413624Y-94987188D01*
X118481544Y-94823216D01*
X118580147Y-94675646D01*
X118705646Y-94550147D01*
X118853216Y-94451544D01*
X119017188Y-94383624D01*
X119166488Y-94353927D01*
X119191258Y-94349000D01*
X119368742Y-94349000D01*
X119393512Y-94353927D01*
G37*
G36*
X109233512Y-94353927D02*
G01*
X109382812Y-94383624D01*
X109546784Y-94451544D01*
X109694354Y-94550147D01*
X109819853Y-94675646D01*
X109918456Y-94823216D01*
X109986376Y-94987188D01*
X110021000Y-95161259D01*
X110021000Y-95338741D01*
X109986376Y-95512812D01*
X109918456Y-95676784D01*
X109819853Y-95824354D01*
X109694354Y-95949853D01*
X109546784Y-96048456D01*
X109382812Y-96116376D01*
X109233512Y-96146073D01*
X109208742Y-96151000D01*
X109031258Y-96151000D01*
X109006488Y-96146073D01*
X108857188Y-96116376D01*
X108693216Y-96048456D01*
X108545646Y-95949853D01*
X108420147Y-95824354D01*
X108321544Y-95676784D01*
X108253624Y-95512812D01*
X108219000Y-95338741D01*
X108219000Y-95161259D01*
X108253624Y-94987188D01*
X108321544Y-94823216D01*
X108420147Y-94675646D01*
X108545646Y-94550147D01*
X108693216Y-94451544D01*
X108857188Y-94383624D01*
X109006488Y-94353927D01*
X109031258Y-94349000D01*
X109208742Y-94349000D01*
X109233512Y-94353927D01*
G37*
G36*
X106693512Y-94353927D02*
G01*
X106842812Y-94383624D01*
X107006784Y-94451544D01*
X107154354Y-94550147D01*
X107279853Y-94675646D01*
X107378456Y-94823216D01*
X107446376Y-94987188D01*
X107481000Y-95161259D01*
X107481000Y-95338741D01*
X107446376Y-95512812D01*
X107378456Y-95676784D01*
X107279853Y-95824354D01*
X107154354Y-95949853D01*
X107006784Y-96048456D01*
X106842812Y-96116376D01*
X106693512Y-96146073D01*
X106668742Y-96151000D01*
X106491258Y-96151000D01*
X106466488Y-96146073D01*
X106317188Y-96116376D01*
X106153216Y-96048456D01*
X106005646Y-95949853D01*
X105880147Y-95824354D01*
X105781544Y-95676784D01*
X105713624Y-95512812D01*
X105679000Y-95338741D01*
X105679000Y-95161259D01*
X105713624Y-94987188D01*
X105781544Y-94823216D01*
X105880147Y-94675646D01*
X106005646Y-94550147D01*
X106153216Y-94451544D01*
X106317188Y-94383624D01*
X106466488Y-94353927D01*
X106491258Y-94349000D01*
X106668742Y-94349000D01*
X106693512Y-94353927D01*
G37*
G36*
X104153512Y-94353927D02*
G01*
X104302812Y-94383624D01*
X104466784Y-94451544D01*
X104614354Y-94550147D01*
X104739853Y-94675646D01*
X104838456Y-94823216D01*
X104906376Y-94987188D01*
X104941000Y-95161259D01*
X104941000Y-95338741D01*
X104906376Y-95512812D01*
X104838456Y-95676784D01*
X104739853Y-95824354D01*
X104614354Y-95949853D01*
X104466784Y-96048456D01*
X104302812Y-96116376D01*
X104153512Y-96146073D01*
X104128742Y-96151000D01*
X103951258Y-96151000D01*
X103926488Y-96146073D01*
X103777188Y-96116376D01*
X103613216Y-96048456D01*
X103465646Y-95949853D01*
X103340147Y-95824354D01*
X103241544Y-95676784D01*
X103173624Y-95512812D01*
X103139000Y-95338741D01*
X103139000Y-95161259D01*
X103173624Y-94987188D01*
X103241544Y-94823216D01*
X103340147Y-94675646D01*
X103465646Y-94550147D01*
X103613216Y-94451544D01*
X103777188Y-94383624D01*
X103926488Y-94353927D01*
X103951258Y-94349000D01*
X104128742Y-94349000D01*
X104153512Y-94353927D01*
G37*
G36*
X164733512Y-94303927D02*
G01*
X164882812Y-94333624D01*
X165046784Y-94401544D01*
X165194354Y-94500147D01*
X165319853Y-94625646D01*
X165418456Y-94773216D01*
X165486376Y-94937188D01*
X165521000Y-95111259D01*
X165521000Y-95288741D01*
X165486376Y-95462812D01*
X165418456Y-95626784D01*
X165319853Y-95774354D01*
X165194354Y-95899853D01*
X165046784Y-95998456D01*
X164882812Y-96066376D01*
X164733512Y-96096073D01*
X164708742Y-96101000D01*
X164531258Y-96101000D01*
X164506488Y-96096073D01*
X164357188Y-96066376D01*
X164193216Y-95998456D01*
X164045646Y-95899853D01*
X163920147Y-95774354D01*
X163821544Y-95626784D01*
X163753624Y-95462812D01*
X163719000Y-95288741D01*
X163719000Y-95111259D01*
X163753624Y-94937188D01*
X163821544Y-94773216D01*
X163920147Y-94625646D01*
X164045646Y-94500147D01*
X164193216Y-94401544D01*
X164357188Y-94333624D01*
X164506488Y-94303927D01*
X164531258Y-94299000D01*
X164708742Y-94299000D01*
X164733512Y-94303927D01*
G37*
G36*
X179973512Y-94303927D02*
G01*
X180122812Y-94333624D01*
X180286784Y-94401544D01*
X180434354Y-94500147D01*
X180559853Y-94625646D01*
X180658456Y-94773216D01*
X180726376Y-94937188D01*
X180761000Y-95111259D01*
X180761000Y-95288741D01*
X180726376Y-95462812D01*
X180658456Y-95626784D01*
X180559853Y-95774354D01*
X180434354Y-95899853D01*
X180286784Y-95998456D01*
X180122812Y-96066376D01*
X179973512Y-96096073D01*
X179948742Y-96101000D01*
X179771258Y-96101000D01*
X179746488Y-96096073D01*
X179597188Y-96066376D01*
X179433216Y-95998456D01*
X179285646Y-95899853D01*
X179160147Y-95774354D01*
X179061544Y-95626784D01*
X178993624Y-95462812D01*
X178959000Y-95288741D01*
X178959000Y-95111259D01*
X178993624Y-94937188D01*
X179061544Y-94773216D01*
X179160147Y-94625646D01*
X179285646Y-94500147D01*
X179433216Y-94401544D01*
X179597188Y-94333624D01*
X179746488Y-94303927D01*
X179771258Y-94299000D01*
X179948742Y-94299000D01*
X179973512Y-94303927D01*
G37*
G36*
X177433512Y-94303927D02*
G01*
X177582812Y-94333624D01*
X177746784Y-94401544D01*
X177894354Y-94500147D01*
X178019853Y-94625646D01*
X178118456Y-94773216D01*
X178186376Y-94937188D01*
X178221000Y-95111259D01*
X178221000Y-95288741D01*
X178186376Y-95462812D01*
X178118456Y-95626784D01*
X178019853Y-95774354D01*
X177894354Y-95899853D01*
X177746784Y-95998456D01*
X177582812Y-96066376D01*
X177433512Y-96096073D01*
X177408742Y-96101000D01*
X177231258Y-96101000D01*
X177206488Y-96096073D01*
X177057188Y-96066376D01*
X176893216Y-95998456D01*
X176745646Y-95899853D01*
X176620147Y-95774354D01*
X176521544Y-95626784D01*
X176453624Y-95462812D01*
X176419000Y-95288741D01*
X176419000Y-95111259D01*
X176453624Y-94937188D01*
X176521544Y-94773216D01*
X176620147Y-94625646D01*
X176745646Y-94500147D01*
X176893216Y-94401544D01*
X177057188Y-94333624D01*
X177206488Y-94303927D01*
X177231258Y-94299000D01*
X177408742Y-94299000D01*
X177433512Y-94303927D01*
G37*
G36*
X174893512Y-94303927D02*
G01*
X175042812Y-94333624D01*
X175206784Y-94401544D01*
X175354354Y-94500147D01*
X175479853Y-94625646D01*
X175578456Y-94773216D01*
X175646376Y-94937188D01*
X175681000Y-95111259D01*
X175681000Y-95288741D01*
X175646376Y-95462812D01*
X175578456Y-95626784D01*
X175479853Y-95774354D01*
X175354354Y-95899853D01*
X175206784Y-95998456D01*
X175042812Y-96066376D01*
X174893512Y-96096073D01*
X174868742Y-96101000D01*
X174691258Y-96101000D01*
X174666488Y-96096073D01*
X174517188Y-96066376D01*
X174353216Y-95998456D01*
X174205646Y-95899853D01*
X174080147Y-95774354D01*
X173981544Y-95626784D01*
X173913624Y-95462812D01*
X173879000Y-95288741D01*
X173879000Y-95111259D01*
X173913624Y-94937188D01*
X173981544Y-94773216D01*
X174080147Y-94625646D01*
X174205646Y-94500147D01*
X174353216Y-94401544D01*
X174517188Y-94333624D01*
X174666488Y-94303927D01*
X174691258Y-94299000D01*
X174868742Y-94299000D01*
X174893512Y-94303927D01*
G37*
G36*
X172353512Y-94303927D02*
G01*
X172502812Y-94333624D01*
X172666784Y-94401544D01*
X172814354Y-94500147D01*
X172939853Y-94625646D01*
X173038456Y-94773216D01*
X173106376Y-94937188D01*
X173141000Y-95111259D01*
X173141000Y-95288741D01*
X173106376Y-95462812D01*
X173038456Y-95626784D01*
X172939853Y-95774354D01*
X172814354Y-95899853D01*
X172666784Y-95998456D01*
X172502812Y-96066376D01*
X172353512Y-96096073D01*
X172328742Y-96101000D01*
X172151258Y-96101000D01*
X172126488Y-96096073D01*
X171977188Y-96066376D01*
X171813216Y-95998456D01*
X171665646Y-95899853D01*
X171540147Y-95774354D01*
X171441544Y-95626784D01*
X171373624Y-95462812D01*
X171339000Y-95288741D01*
X171339000Y-95111259D01*
X171373624Y-94937188D01*
X171441544Y-94773216D01*
X171540147Y-94625646D01*
X171665646Y-94500147D01*
X171813216Y-94401544D01*
X171977188Y-94333624D01*
X172126488Y-94303927D01*
X172151258Y-94299000D01*
X172328742Y-94299000D01*
X172353512Y-94303927D01*
G37*
G36*
X169813512Y-94303927D02*
G01*
X169962812Y-94333624D01*
X170126784Y-94401544D01*
X170274354Y-94500147D01*
X170399853Y-94625646D01*
X170498456Y-94773216D01*
X170566376Y-94937188D01*
X170601000Y-95111259D01*
X170601000Y-95288741D01*
X170566376Y-95462812D01*
X170498456Y-95626784D01*
X170399853Y-95774354D01*
X170274354Y-95899853D01*
X170126784Y-95998456D01*
X169962812Y-96066376D01*
X169813512Y-96096073D01*
X169788742Y-96101000D01*
X169611258Y-96101000D01*
X169586488Y-96096073D01*
X169437188Y-96066376D01*
X169273216Y-95998456D01*
X169125646Y-95899853D01*
X169000147Y-95774354D01*
X168901544Y-95626784D01*
X168833624Y-95462812D01*
X168799000Y-95288741D01*
X168799000Y-95111259D01*
X168833624Y-94937188D01*
X168901544Y-94773216D01*
X169000147Y-94625646D01*
X169125646Y-94500147D01*
X169273216Y-94401544D01*
X169437188Y-94333624D01*
X169586488Y-94303927D01*
X169611258Y-94299000D01*
X169788742Y-94299000D01*
X169813512Y-94303927D01*
G37*
G36*
X167273512Y-94303927D02*
G01*
X167422812Y-94333624D01*
X167586784Y-94401544D01*
X167734354Y-94500147D01*
X167859853Y-94625646D01*
X167958456Y-94773216D01*
X168026376Y-94937188D01*
X168061000Y-95111259D01*
X168061000Y-95288741D01*
X168026376Y-95462812D01*
X167958456Y-95626784D01*
X167859853Y-95774354D01*
X167734354Y-95899853D01*
X167586784Y-95998456D01*
X167422812Y-96066376D01*
X167273512Y-96096073D01*
X167248742Y-96101000D01*
X167071258Y-96101000D01*
X167046488Y-96096073D01*
X166897188Y-96066376D01*
X166733216Y-95998456D01*
X166585646Y-95899853D01*
X166460147Y-95774354D01*
X166361544Y-95626784D01*
X166293624Y-95462812D01*
X166259000Y-95288741D01*
X166259000Y-95111259D01*
X166293624Y-94937188D01*
X166361544Y-94773216D01*
X166460147Y-94625646D01*
X166585646Y-94500147D01*
X166733216Y-94401544D01*
X166897188Y-94333624D01*
X167046488Y-94303927D01*
X167071258Y-94299000D01*
X167248742Y-94299000D01*
X167273512Y-94303927D01*
G37*
G36*
X162193512Y-94303927D02*
G01*
X162342812Y-94333624D01*
X162506784Y-94401544D01*
X162654354Y-94500147D01*
X162779853Y-94625646D01*
X162878456Y-94773216D01*
X162946376Y-94937188D01*
X162981000Y-95111259D01*
X162981000Y-95288741D01*
X162946376Y-95462812D01*
X162878456Y-95626784D01*
X162779853Y-95774354D01*
X162654354Y-95899853D01*
X162506784Y-95998456D01*
X162342812Y-96066376D01*
X162193512Y-96096073D01*
X162168742Y-96101000D01*
X161991258Y-96101000D01*
X161966488Y-96096073D01*
X161817188Y-96066376D01*
X161653216Y-95998456D01*
X161505646Y-95899853D01*
X161380147Y-95774354D01*
X161281544Y-95626784D01*
X161213624Y-95462812D01*
X161179000Y-95288741D01*
X161179000Y-95111259D01*
X161213624Y-94937188D01*
X161281544Y-94773216D01*
X161380147Y-94625646D01*
X161505646Y-94500147D01*
X161653216Y-94401544D01*
X161817188Y-94333624D01*
X161966488Y-94303927D01*
X161991258Y-94299000D01*
X162168742Y-94299000D01*
X162193512Y-94303927D01*
G37*
G36*
X159653512Y-94303927D02*
G01*
X159802812Y-94333624D01*
X159966784Y-94401544D01*
X160114354Y-94500147D01*
X160239853Y-94625646D01*
X160338456Y-94773216D01*
X160406376Y-94937188D01*
X160441000Y-95111259D01*
X160441000Y-95288741D01*
X160406376Y-95462812D01*
X160338456Y-95626784D01*
X160239853Y-95774354D01*
X160114354Y-95899853D01*
X159966784Y-95998456D01*
X159802812Y-96066376D01*
X159653512Y-96096073D01*
X159628742Y-96101000D01*
X159451258Y-96101000D01*
X159426488Y-96096073D01*
X159277188Y-96066376D01*
X159113216Y-95998456D01*
X158965646Y-95899853D01*
X158840147Y-95774354D01*
X158741544Y-95626784D01*
X158673624Y-95462812D01*
X158639000Y-95288741D01*
X158639000Y-95111259D01*
X158673624Y-94937188D01*
X158741544Y-94773216D01*
X158840147Y-94625646D01*
X158965646Y-94500147D01*
X159113216Y-94401544D01*
X159277188Y-94333624D01*
X159426488Y-94303927D01*
X159451258Y-94299000D01*
X159628742Y-94299000D01*
X159653512Y-94303927D01*
G37*
G36*
X157901000Y-96101000D02*
G01*
X156099000Y-96101000D01*
X156099000Y-94299000D01*
X157901000Y-94299000D01*
X157901000Y-96101000D01*
G37*
G36*
X106693512Y-87753927D02*
G01*
X106842812Y-87783624D01*
X107006784Y-87851544D01*
X107154354Y-87950147D01*
X107279853Y-88075646D01*
X107378456Y-88223216D01*
X107446376Y-88387188D01*
X107481000Y-88561259D01*
X107481000Y-88738741D01*
X107446376Y-88912812D01*
X107378456Y-89076784D01*
X107279853Y-89224354D01*
X107154354Y-89349853D01*
X107006784Y-89448456D01*
X106842812Y-89516376D01*
X106693512Y-89546073D01*
X106668742Y-89551000D01*
X106491258Y-89551000D01*
X106466488Y-89546073D01*
X106317188Y-89516376D01*
X106153216Y-89448456D01*
X106005646Y-89349853D01*
X105880147Y-89224354D01*
X105781544Y-89076784D01*
X105713624Y-88912812D01*
X105679000Y-88738741D01*
X105679000Y-88561259D01*
X105713624Y-88387188D01*
X105781544Y-88223216D01*
X105880147Y-88075646D01*
X106005646Y-87950147D01*
X106153216Y-87851544D01*
X106317188Y-87783624D01*
X106466488Y-87753927D01*
X106491258Y-87749000D01*
X106668742Y-87749000D01*
X106693512Y-87753927D01*
G37*
G36*
X104153512Y-87753927D02*
G01*
X104302812Y-87783624D01*
X104466784Y-87851544D01*
X104614354Y-87950147D01*
X104739853Y-88075646D01*
X104838456Y-88223216D01*
X104906376Y-88387188D01*
X104941000Y-88561259D01*
X104941000Y-88738741D01*
X104906376Y-88912812D01*
X104838456Y-89076784D01*
X104739853Y-89224354D01*
X104614354Y-89349853D01*
X104466784Y-89448456D01*
X104302812Y-89516376D01*
X104153512Y-89546073D01*
X104128742Y-89551000D01*
X103951258Y-89551000D01*
X103926488Y-89546073D01*
X103777188Y-89516376D01*
X103613216Y-89448456D01*
X103465646Y-89349853D01*
X103340147Y-89224354D01*
X103241544Y-89076784D01*
X103173624Y-88912812D01*
X103139000Y-88738741D01*
X103139000Y-88561259D01*
X103173624Y-88387188D01*
X103241544Y-88223216D01*
X103340147Y-88075646D01*
X103465646Y-87950147D01*
X103613216Y-87851544D01*
X103777188Y-87783624D01*
X103926488Y-87753927D01*
X103951258Y-87749000D01*
X104128742Y-87749000D01*
X104153512Y-87753927D01*
G37*
G36*
X109233512Y-87753927D02*
G01*
X109382812Y-87783624D01*
X109546784Y-87851544D01*
X109694354Y-87950147D01*
X109819853Y-88075646D01*
X109918456Y-88223216D01*
X109986376Y-88387188D01*
X110021000Y-88561259D01*
X110021000Y-88738741D01*
X109986376Y-88912812D01*
X109918456Y-89076784D01*
X109819853Y-89224354D01*
X109694354Y-89349853D01*
X109546784Y-89448456D01*
X109382812Y-89516376D01*
X109233512Y-89546073D01*
X109208742Y-89551000D01*
X109031258Y-89551000D01*
X109006488Y-89546073D01*
X108857188Y-89516376D01*
X108693216Y-89448456D01*
X108545646Y-89349853D01*
X108420147Y-89224354D01*
X108321544Y-89076784D01*
X108253624Y-88912812D01*
X108219000Y-88738741D01*
X108219000Y-88561259D01*
X108253624Y-88387188D01*
X108321544Y-88223216D01*
X108420147Y-88075646D01*
X108545646Y-87950147D01*
X108693216Y-87851544D01*
X108857188Y-87783624D01*
X109006488Y-87753927D01*
X109031258Y-87749000D01*
X109208742Y-87749000D01*
X109233512Y-87753927D01*
G37*
G36*
X102401000Y-89551000D02*
G01*
X100599000Y-89551000D01*
X100599000Y-87749000D01*
X102401000Y-87749000D01*
X102401000Y-89551000D01*
G37*
G36*
X111773512Y-87753927D02*
G01*
X111922812Y-87783624D01*
X112086784Y-87851544D01*
X112234354Y-87950147D01*
X112359853Y-88075646D01*
X112458456Y-88223216D01*
X112526376Y-88387188D01*
X112561000Y-88561259D01*
X112561000Y-88738741D01*
X112526376Y-88912812D01*
X112458456Y-89076784D01*
X112359853Y-89224354D01*
X112234354Y-89349853D01*
X112086784Y-89448456D01*
X111922812Y-89516376D01*
X111773512Y-89546073D01*
X111748742Y-89551000D01*
X111571258Y-89551000D01*
X111546488Y-89546073D01*
X111397188Y-89516376D01*
X111233216Y-89448456D01*
X111085646Y-89349853D01*
X110960147Y-89224354D01*
X110861544Y-89076784D01*
X110793624Y-88912812D01*
X110759000Y-88738741D01*
X110759000Y-88561259D01*
X110793624Y-88387188D01*
X110861544Y-88223216D01*
X110960147Y-88075646D01*
X111085646Y-87950147D01*
X111233216Y-87851544D01*
X111397188Y-87783624D01*
X111546488Y-87753927D01*
X111571258Y-87749000D01*
X111748742Y-87749000D01*
X111773512Y-87753927D01*
G37*
G36*
X114313512Y-87753927D02*
G01*
X114462812Y-87783624D01*
X114626784Y-87851544D01*
X114774354Y-87950147D01*
X114899853Y-88075646D01*
X114998456Y-88223216D01*
X115066376Y-88387188D01*
X115101000Y-88561259D01*
X115101000Y-88738741D01*
X115066376Y-88912812D01*
X114998456Y-89076784D01*
X114899853Y-89224354D01*
X114774354Y-89349853D01*
X114626784Y-89448456D01*
X114462812Y-89516376D01*
X114313512Y-89546073D01*
X114288742Y-89551000D01*
X114111258Y-89551000D01*
X114086488Y-89546073D01*
X113937188Y-89516376D01*
X113773216Y-89448456D01*
X113625646Y-89349853D01*
X113500147Y-89224354D01*
X113401544Y-89076784D01*
X113333624Y-88912812D01*
X113299000Y-88738741D01*
X113299000Y-88561259D01*
X113333624Y-88387188D01*
X113401544Y-88223216D01*
X113500147Y-88075646D01*
X113625646Y-87950147D01*
X113773216Y-87851544D01*
X113937188Y-87783624D01*
X114086488Y-87753927D01*
X114111258Y-87749000D01*
X114288742Y-87749000D01*
X114313512Y-87753927D01*
G37*
G36*
X124473512Y-87753927D02*
G01*
X124622812Y-87783624D01*
X124786784Y-87851544D01*
X124934354Y-87950147D01*
X125059853Y-88075646D01*
X125158456Y-88223216D01*
X125226376Y-88387188D01*
X125261000Y-88561259D01*
X125261000Y-88738741D01*
X125226376Y-88912812D01*
X125158456Y-89076784D01*
X125059853Y-89224354D01*
X124934354Y-89349853D01*
X124786784Y-89448456D01*
X124622812Y-89516376D01*
X124473512Y-89546073D01*
X124448742Y-89551000D01*
X124271258Y-89551000D01*
X124246488Y-89546073D01*
X124097188Y-89516376D01*
X123933216Y-89448456D01*
X123785646Y-89349853D01*
X123660147Y-89224354D01*
X123561544Y-89076784D01*
X123493624Y-88912812D01*
X123459000Y-88738741D01*
X123459000Y-88561259D01*
X123493624Y-88387188D01*
X123561544Y-88223216D01*
X123660147Y-88075646D01*
X123785646Y-87950147D01*
X123933216Y-87851544D01*
X124097188Y-87783624D01*
X124246488Y-87753927D01*
X124271258Y-87749000D01*
X124448742Y-87749000D01*
X124473512Y-87753927D01*
G37*
G36*
X121933512Y-87753927D02*
G01*
X122082812Y-87783624D01*
X122246784Y-87851544D01*
X122394354Y-87950147D01*
X122519853Y-88075646D01*
X122618456Y-88223216D01*
X122686376Y-88387188D01*
X122721000Y-88561259D01*
X122721000Y-88738741D01*
X122686376Y-88912812D01*
X122618456Y-89076784D01*
X122519853Y-89224354D01*
X122394354Y-89349853D01*
X122246784Y-89448456D01*
X122082812Y-89516376D01*
X121933512Y-89546073D01*
X121908742Y-89551000D01*
X121731258Y-89551000D01*
X121706488Y-89546073D01*
X121557188Y-89516376D01*
X121393216Y-89448456D01*
X121245646Y-89349853D01*
X121120147Y-89224354D01*
X121021544Y-89076784D01*
X120953624Y-88912812D01*
X120919000Y-88738741D01*
X120919000Y-88561259D01*
X120953624Y-88387188D01*
X121021544Y-88223216D01*
X121120147Y-88075646D01*
X121245646Y-87950147D01*
X121393216Y-87851544D01*
X121557188Y-87783624D01*
X121706488Y-87753927D01*
X121731258Y-87749000D01*
X121908742Y-87749000D01*
X121933512Y-87753927D01*
G37*
G36*
X119393512Y-87753927D02*
G01*
X119542812Y-87783624D01*
X119706784Y-87851544D01*
X119854354Y-87950147D01*
X119979853Y-88075646D01*
X120078456Y-88223216D01*
X120146376Y-88387188D01*
X120181000Y-88561259D01*
X120181000Y-88738741D01*
X120146376Y-88912812D01*
X120078456Y-89076784D01*
X119979853Y-89224354D01*
X119854354Y-89349853D01*
X119706784Y-89448456D01*
X119542812Y-89516376D01*
X119393512Y-89546073D01*
X119368742Y-89551000D01*
X119191258Y-89551000D01*
X119166488Y-89546073D01*
X119017188Y-89516376D01*
X118853216Y-89448456D01*
X118705646Y-89349853D01*
X118580147Y-89224354D01*
X118481544Y-89076784D01*
X118413624Y-88912812D01*
X118379000Y-88738741D01*
X118379000Y-88561259D01*
X118413624Y-88387188D01*
X118481544Y-88223216D01*
X118580147Y-88075646D01*
X118705646Y-87950147D01*
X118853216Y-87851544D01*
X119017188Y-87783624D01*
X119166488Y-87753927D01*
X119191258Y-87749000D01*
X119368742Y-87749000D01*
X119393512Y-87753927D01*
G37*
G36*
X116853512Y-87753927D02*
G01*
X117002812Y-87783624D01*
X117166784Y-87851544D01*
X117314354Y-87950147D01*
X117439853Y-88075646D01*
X117538456Y-88223216D01*
X117606376Y-88387188D01*
X117641000Y-88561259D01*
X117641000Y-88738741D01*
X117606376Y-88912812D01*
X117538456Y-89076784D01*
X117439853Y-89224354D01*
X117314354Y-89349853D01*
X117166784Y-89448456D01*
X117002812Y-89516376D01*
X116853512Y-89546073D01*
X116828742Y-89551000D01*
X116651258Y-89551000D01*
X116626488Y-89546073D01*
X116477188Y-89516376D01*
X116313216Y-89448456D01*
X116165646Y-89349853D01*
X116040147Y-89224354D01*
X115941544Y-89076784D01*
X115873624Y-88912812D01*
X115839000Y-88738741D01*
X115839000Y-88561259D01*
X115873624Y-88387188D01*
X115941544Y-88223216D01*
X116040147Y-88075646D01*
X116165646Y-87950147D01*
X116313216Y-87851544D01*
X116477188Y-87783624D01*
X116626488Y-87753927D01*
X116651258Y-87749000D01*
X116828742Y-87749000D01*
X116853512Y-87753927D01*
G37*
G36*
X157901000Y-89501000D02*
G01*
X156099000Y-89501000D01*
X156099000Y-87699000D01*
X157901000Y-87699000D01*
X157901000Y-89501000D01*
G37*
G36*
X179973512Y-87703927D02*
G01*
X180122812Y-87733624D01*
X180286784Y-87801544D01*
X180434354Y-87900147D01*
X180559853Y-88025646D01*
X180658456Y-88173216D01*
X180726376Y-88337188D01*
X180761000Y-88511259D01*
X180761000Y-88688741D01*
X180726376Y-88862812D01*
X180658456Y-89026784D01*
X180559853Y-89174354D01*
X180434354Y-89299853D01*
X180286784Y-89398456D01*
X180122812Y-89466376D01*
X179973512Y-89496073D01*
X179948742Y-89501000D01*
X179771258Y-89501000D01*
X179746488Y-89496073D01*
X179597188Y-89466376D01*
X179433216Y-89398456D01*
X179285646Y-89299853D01*
X179160147Y-89174354D01*
X179061544Y-89026784D01*
X178993624Y-88862812D01*
X178959000Y-88688741D01*
X178959000Y-88511259D01*
X178993624Y-88337188D01*
X179061544Y-88173216D01*
X179160147Y-88025646D01*
X179285646Y-87900147D01*
X179433216Y-87801544D01*
X179597188Y-87733624D01*
X179746488Y-87703927D01*
X179771258Y-87699000D01*
X179948742Y-87699000D01*
X179973512Y-87703927D01*
G37*
G36*
X169813512Y-87703927D02*
G01*
X169962812Y-87733624D01*
X170126784Y-87801544D01*
X170274354Y-87900147D01*
X170399853Y-88025646D01*
X170498456Y-88173216D01*
X170566376Y-88337188D01*
X170601000Y-88511259D01*
X170601000Y-88688741D01*
X170566376Y-88862812D01*
X170498456Y-89026784D01*
X170399853Y-89174354D01*
X170274354Y-89299853D01*
X170126784Y-89398456D01*
X169962812Y-89466376D01*
X169813512Y-89496073D01*
X169788742Y-89501000D01*
X169611258Y-89501000D01*
X169586488Y-89496073D01*
X169437188Y-89466376D01*
X169273216Y-89398456D01*
X169125646Y-89299853D01*
X169000147Y-89174354D01*
X168901544Y-89026784D01*
X168833624Y-88862812D01*
X168799000Y-88688741D01*
X168799000Y-88511259D01*
X168833624Y-88337188D01*
X168901544Y-88173216D01*
X169000147Y-88025646D01*
X169125646Y-87900147D01*
X169273216Y-87801544D01*
X169437188Y-87733624D01*
X169586488Y-87703927D01*
X169611258Y-87699000D01*
X169788742Y-87699000D01*
X169813512Y-87703927D01*
G37*
G36*
X167273512Y-87703927D02*
G01*
X167422812Y-87733624D01*
X167586784Y-87801544D01*
X167734354Y-87900147D01*
X167859853Y-88025646D01*
X167958456Y-88173216D01*
X168026376Y-88337188D01*
X168061000Y-88511259D01*
X168061000Y-88688741D01*
X168026376Y-88862812D01*
X167958456Y-89026784D01*
X167859853Y-89174354D01*
X167734354Y-89299853D01*
X167586784Y-89398456D01*
X167422812Y-89466376D01*
X167273512Y-89496073D01*
X167248742Y-89501000D01*
X167071258Y-89501000D01*
X167046488Y-89496073D01*
X166897188Y-89466376D01*
X166733216Y-89398456D01*
X166585646Y-89299853D01*
X166460147Y-89174354D01*
X166361544Y-89026784D01*
X166293624Y-88862812D01*
X166259000Y-88688741D01*
X166259000Y-88511259D01*
X166293624Y-88337188D01*
X166361544Y-88173216D01*
X166460147Y-88025646D01*
X166585646Y-87900147D01*
X166733216Y-87801544D01*
X166897188Y-87733624D01*
X167046488Y-87703927D01*
X167071258Y-87699000D01*
X167248742Y-87699000D01*
X167273512Y-87703927D01*
G37*
G36*
X177433512Y-87703927D02*
G01*
X177582812Y-87733624D01*
X177746784Y-87801544D01*
X177894354Y-87900147D01*
X178019853Y-88025646D01*
X178118456Y-88173216D01*
X178186376Y-88337188D01*
X178221000Y-88511259D01*
X178221000Y-88688741D01*
X178186376Y-88862812D01*
X178118456Y-89026784D01*
X178019853Y-89174354D01*
X177894354Y-89299853D01*
X177746784Y-89398456D01*
X177582812Y-89466376D01*
X177433512Y-89496073D01*
X177408742Y-89501000D01*
X177231258Y-89501000D01*
X177206488Y-89496073D01*
X177057188Y-89466376D01*
X176893216Y-89398456D01*
X176745646Y-89299853D01*
X176620147Y-89174354D01*
X176521544Y-89026784D01*
X176453624Y-88862812D01*
X176419000Y-88688741D01*
X176419000Y-88511259D01*
X176453624Y-88337188D01*
X176521544Y-88173216D01*
X176620147Y-88025646D01*
X176745646Y-87900147D01*
X176893216Y-87801544D01*
X177057188Y-87733624D01*
X177206488Y-87703927D01*
X177231258Y-87699000D01*
X177408742Y-87699000D01*
X177433512Y-87703927D01*
G37*
G36*
X164733512Y-87703927D02*
G01*
X164882812Y-87733624D01*
X165046784Y-87801544D01*
X165194354Y-87900147D01*
X165319853Y-88025646D01*
X165418456Y-88173216D01*
X165486376Y-88337188D01*
X165521000Y-88511259D01*
X165521000Y-88688741D01*
X165486376Y-88862812D01*
X165418456Y-89026784D01*
X165319853Y-89174354D01*
X165194354Y-89299853D01*
X165046784Y-89398456D01*
X164882812Y-89466376D01*
X164733512Y-89496073D01*
X164708742Y-89501000D01*
X164531258Y-89501000D01*
X164506488Y-89496073D01*
X164357188Y-89466376D01*
X164193216Y-89398456D01*
X164045646Y-89299853D01*
X163920147Y-89174354D01*
X163821544Y-89026784D01*
X163753624Y-88862812D01*
X163719000Y-88688741D01*
X163719000Y-88511259D01*
X163753624Y-88337188D01*
X163821544Y-88173216D01*
X163920147Y-88025646D01*
X164045646Y-87900147D01*
X164193216Y-87801544D01*
X164357188Y-87733624D01*
X164506488Y-87703927D01*
X164531258Y-87699000D01*
X164708742Y-87699000D01*
X164733512Y-87703927D01*
G37*
G36*
X162193512Y-87703927D02*
G01*
X162342812Y-87733624D01*
X162506784Y-87801544D01*
X162654354Y-87900147D01*
X162779853Y-88025646D01*
X162878456Y-88173216D01*
X162946376Y-88337188D01*
X162981000Y-88511259D01*
X162981000Y-88688741D01*
X162946376Y-88862812D01*
X162878456Y-89026784D01*
X162779853Y-89174354D01*
X162654354Y-89299853D01*
X162506784Y-89398456D01*
X162342812Y-89466376D01*
X162193512Y-89496073D01*
X162168742Y-89501000D01*
X161991258Y-89501000D01*
X161966488Y-89496073D01*
X161817188Y-89466376D01*
X161653216Y-89398456D01*
X161505646Y-89299853D01*
X161380147Y-89174354D01*
X161281544Y-89026784D01*
X161213624Y-88862812D01*
X161179000Y-88688741D01*
X161179000Y-88511259D01*
X161213624Y-88337188D01*
X161281544Y-88173216D01*
X161380147Y-88025646D01*
X161505646Y-87900147D01*
X161653216Y-87801544D01*
X161817188Y-87733624D01*
X161966488Y-87703927D01*
X161991258Y-87699000D01*
X162168742Y-87699000D01*
X162193512Y-87703927D01*
G37*
G36*
X174893512Y-87703927D02*
G01*
X175042812Y-87733624D01*
X175206784Y-87801544D01*
X175354354Y-87900147D01*
X175479853Y-88025646D01*
X175578456Y-88173216D01*
X175646376Y-88337188D01*
X175681000Y-88511259D01*
X175681000Y-88688741D01*
X175646376Y-88862812D01*
X175578456Y-89026784D01*
X175479853Y-89174354D01*
X175354354Y-89299853D01*
X175206784Y-89398456D01*
X175042812Y-89466376D01*
X174893512Y-89496073D01*
X174868742Y-89501000D01*
X174691258Y-89501000D01*
X174666488Y-89496073D01*
X174517188Y-89466376D01*
X174353216Y-89398456D01*
X174205646Y-89299853D01*
X174080147Y-89174354D01*
X173981544Y-89026784D01*
X173913624Y-88862812D01*
X173879000Y-88688741D01*
X173879000Y-88511259D01*
X173913624Y-88337188D01*
X173981544Y-88173216D01*
X174080147Y-88025646D01*
X174205646Y-87900147D01*
X174353216Y-87801544D01*
X174517188Y-87733624D01*
X174666488Y-87703927D01*
X174691258Y-87699000D01*
X174868742Y-87699000D01*
X174893512Y-87703927D01*
G37*
G36*
X172353512Y-87703927D02*
G01*
X172502812Y-87733624D01*
X172666784Y-87801544D01*
X172814354Y-87900147D01*
X172939853Y-88025646D01*
X173038456Y-88173216D01*
X173106376Y-88337188D01*
X173141000Y-88511259D01*
X173141000Y-88688741D01*
X173106376Y-88862812D01*
X173038456Y-89026784D01*
X172939853Y-89174354D01*
X172814354Y-89299853D01*
X172666784Y-89398456D01*
X172502812Y-89466376D01*
X172353512Y-89496073D01*
X172328742Y-89501000D01*
X172151258Y-89501000D01*
X172126488Y-89496073D01*
X171977188Y-89466376D01*
X171813216Y-89398456D01*
X171665646Y-89299853D01*
X171540147Y-89174354D01*
X171441544Y-89026784D01*
X171373624Y-88862812D01*
X171339000Y-88688741D01*
X171339000Y-88511259D01*
X171373624Y-88337188D01*
X171441544Y-88173216D01*
X171540147Y-88025646D01*
X171665646Y-87900147D01*
X171813216Y-87801544D01*
X171977188Y-87733624D01*
X172126488Y-87703927D01*
X172151258Y-87699000D01*
X172328742Y-87699000D01*
X172353512Y-87703927D01*
G37*
G36*
X159653512Y-87703927D02*
G01*
X159802812Y-87733624D01*
X159966784Y-87801544D01*
X160114354Y-87900147D01*
X160239853Y-88025646D01*
X160338456Y-88173216D01*
X160406376Y-88337188D01*
X160441000Y-88511259D01*
X160441000Y-88688741D01*
X160406376Y-88862812D01*
X160338456Y-89026784D01*
X160239853Y-89174354D01*
X160114354Y-89299853D01*
X159966784Y-89398456D01*
X159802812Y-89466376D01*
X159653512Y-89496073D01*
X159628742Y-89501000D01*
X159451258Y-89501000D01*
X159426488Y-89496073D01*
X159277188Y-89466376D01*
X159113216Y-89398456D01*
X158965646Y-89299853D01*
X158840147Y-89174354D01*
X158741544Y-89026784D01*
X158673624Y-88862812D01*
X158639000Y-88688741D01*
X158639000Y-88511259D01*
X158673624Y-88337188D01*
X158741544Y-88173216D01*
X158840147Y-88025646D01*
X158965646Y-87900147D01*
X159113216Y-87801544D01*
X159277188Y-87733624D01*
X159426488Y-87703927D01*
X159451258Y-87699000D01*
X159628742Y-87699000D01*
X159653512Y-87703927D01*
G37*
G36*
X108951000Y-79401000D02*
G01*
X107149000Y-79401000D01*
X107149000Y-77599000D01*
X108951000Y-77599000D01*
X108951000Y-79401000D01*
G37*
G36*
X119451000Y-79401000D02*
G01*
X117649000Y-79401000D01*
X117649000Y-77599000D01*
X119451000Y-77599000D01*
X119451000Y-79401000D01*
G37*
G36*
X138813512Y-77293927D02*
G01*
X138962812Y-77323624D01*
X139126784Y-77391544D01*
X139274354Y-77490147D01*
X139399853Y-77615646D01*
X139498456Y-77763216D01*
X139566376Y-77927188D01*
X139601000Y-78101259D01*
X139601000Y-78278741D01*
X139566376Y-78452812D01*
X139498456Y-78616784D01*
X139399853Y-78764354D01*
X139274354Y-78889853D01*
X139126784Y-78988456D01*
X138962812Y-79056376D01*
X138813512Y-79086073D01*
X138788742Y-79091000D01*
X138611258Y-79091000D01*
X138586488Y-79086073D01*
X138437188Y-79056376D01*
X138273216Y-78988456D01*
X138125646Y-78889853D01*
X138000147Y-78764354D01*
X137901544Y-78616784D01*
X137833624Y-78452812D01*
X137799000Y-78278741D01*
X137799000Y-78101259D01*
X137833624Y-77927188D01*
X137901544Y-77763216D01*
X138000147Y-77615646D01*
X138125646Y-77490147D01*
X138273216Y-77391544D01*
X138437188Y-77323624D01*
X138586488Y-77293927D01*
X138611258Y-77289000D01*
X138788742Y-77289000D01*
X138813512Y-77293927D01*
G37*
G36*
X141353512Y-77293927D02*
G01*
X141502812Y-77323624D01*
X141666784Y-77391544D01*
X141814354Y-77490147D01*
X141939853Y-77615646D01*
X142038456Y-77763216D01*
X142106376Y-77927188D01*
X142141000Y-78101259D01*
X142141000Y-78278741D01*
X142106376Y-78452812D01*
X142038456Y-78616784D01*
X141939853Y-78764354D01*
X141814354Y-78889853D01*
X141666784Y-78988456D01*
X141502812Y-79056376D01*
X141353512Y-79086073D01*
X141328742Y-79091000D01*
X141151258Y-79091000D01*
X141126488Y-79086073D01*
X140977188Y-79056376D01*
X140813216Y-78988456D01*
X140665646Y-78889853D01*
X140540147Y-78764354D01*
X140441544Y-78616784D01*
X140373624Y-78452812D01*
X140339000Y-78278741D01*
X140339000Y-78101259D01*
X140373624Y-77927188D01*
X140441544Y-77763216D01*
X140540147Y-77615646D01*
X140665646Y-77490147D01*
X140813216Y-77391544D01*
X140977188Y-77323624D01*
X141126488Y-77293927D01*
X141151258Y-77289000D01*
X141328742Y-77289000D01*
X141353512Y-77293927D01*
G37*
G36*
X143893512Y-77293927D02*
G01*
X144042812Y-77323624D01*
X144206784Y-77391544D01*
X144354354Y-77490147D01*
X144479853Y-77615646D01*
X144578456Y-77763216D01*
X144646376Y-77927188D01*
X144681000Y-78101259D01*
X144681000Y-78278741D01*
X144646376Y-78452812D01*
X144578456Y-78616784D01*
X144479853Y-78764354D01*
X144354354Y-78889853D01*
X144206784Y-78988456D01*
X144042812Y-79056376D01*
X143893512Y-79086073D01*
X143868742Y-79091000D01*
X143691258Y-79091000D01*
X143666488Y-79086073D01*
X143517188Y-79056376D01*
X143353216Y-78988456D01*
X143205646Y-78889853D01*
X143080147Y-78764354D01*
X142981544Y-78616784D01*
X142913624Y-78452812D01*
X142879000Y-78278741D01*
X142879000Y-78101259D01*
X142913624Y-77927188D01*
X142981544Y-77763216D01*
X143080147Y-77615646D01*
X143205646Y-77490147D01*
X143353216Y-77391544D01*
X143517188Y-77323624D01*
X143666488Y-77293927D01*
X143691258Y-77289000D01*
X143868742Y-77289000D01*
X143893512Y-77293927D01*
G37*
G36*
X146433512Y-77293927D02*
G01*
X146582812Y-77323624D01*
X146746784Y-77391544D01*
X146894354Y-77490147D01*
X147019853Y-77615646D01*
X147118456Y-77763216D01*
X147186376Y-77927188D01*
X147221000Y-78101259D01*
X147221000Y-78278741D01*
X147186376Y-78452812D01*
X147118456Y-78616784D01*
X147019853Y-78764354D01*
X146894354Y-78889853D01*
X146746784Y-78988456D01*
X146582812Y-79056376D01*
X146433512Y-79086073D01*
X146408742Y-79091000D01*
X146231258Y-79091000D01*
X146206488Y-79086073D01*
X146057188Y-79056376D01*
X145893216Y-78988456D01*
X145745646Y-78889853D01*
X145620147Y-78764354D01*
X145521544Y-78616784D01*
X145453624Y-78452812D01*
X145419000Y-78278741D01*
X145419000Y-78101259D01*
X145453624Y-77927188D01*
X145521544Y-77763216D01*
X145620147Y-77615646D01*
X145745646Y-77490147D01*
X145893216Y-77391544D01*
X146057188Y-77323624D01*
X146206488Y-77293927D01*
X146231258Y-77289000D01*
X146408742Y-77289000D01*
X146433512Y-77293927D01*
G37*
G36*
X137061000Y-79091000D02*
G01*
X135259000Y-79091000D01*
X135259000Y-77289000D01*
X137061000Y-77289000D01*
X137061000Y-79091000D01*
G37*
G36*
X171366823Y-77381313D02*
G01*
X171527242Y-77429976D01*
X171639814Y-77490147D01*
X171675078Y-77508996D01*
X171804659Y-77615341D01*
X171911004Y-77744922D01*
X171911005Y-77744924D01*
X171990024Y-77892758D01*
X172038687Y-78053177D01*
X172055117Y-78220000D01*
X172038687Y-78386823D01*
X171990024Y-78547242D01*
X171952854Y-78616782D01*
X171911004Y-78695078D01*
X171804659Y-78824659D01*
X171675078Y-78931004D01*
X171675076Y-78931005D01*
X171527242Y-79010024D01*
X171366823Y-79058687D01*
X171241804Y-79071000D01*
X170358196Y-79071000D01*
X170233177Y-79058687D01*
X170072758Y-79010024D01*
X169924924Y-78931005D01*
X169924922Y-78931004D01*
X169795341Y-78824659D01*
X169688996Y-78695078D01*
X169647146Y-78616782D01*
X169609976Y-78547242D01*
X169561313Y-78386823D01*
X169544883Y-78220000D01*
X169561313Y-78053177D01*
X169609976Y-77892758D01*
X169688995Y-77744924D01*
X169688996Y-77744922D01*
X169795341Y-77615341D01*
X169924922Y-77508996D01*
X169960186Y-77490147D01*
X170072758Y-77429976D01*
X170233177Y-77381313D01*
X170358196Y-77369000D01*
X171241804Y-77369000D01*
X171366823Y-77381313D01*
G37*
G36*
X178986823Y-77381313D02*
G01*
X179147242Y-77429976D01*
X179259814Y-77490147D01*
X179295078Y-77508996D01*
X179424659Y-77615341D01*
X179531004Y-77744922D01*
X179531005Y-77744924D01*
X179610024Y-77892758D01*
X179658687Y-78053177D01*
X179675117Y-78220000D01*
X179658687Y-78386823D01*
X179610024Y-78547242D01*
X179572854Y-78616782D01*
X179531004Y-78695078D01*
X179424659Y-78824659D01*
X179295078Y-78931004D01*
X179295076Y-78931005D01*
X179147242Y-79010024D01*
X178986823Y-79058687D01*
X178861804Y-79071000D01*
X177978196Y-79071000D01*
X177853177Y-79058687D01*
X177692758Y-79010024D01*
X177544924Y-78931005D01*
X177544922Y-78931004D01*
X177415341Y-78824659D01*
X177308996Y-78695078D01*
X177267146Y-78616782D01*
X177229976Y-78547242D01*
X177181313Y-78386823D01*
X177164883Y-78220000D01*
X177181313Y-78053177D01*
X177229976Y-77892758D01*
X177308995Y-77744924D01*
X177308996Y-77744922D01*
X177415341Y-77615341D01*
X177544922Y-77508996D01*
X177580186Y-77490147D01*
X177692758Y-77429976D01*
X177853177Y-77381313D01*
X177978196Y-77369000D01*
X178861804Y-77369000D01*
X178986823Y-77381313D01*
G37*
G36*
X108163512Y-75063927D02*
G01*
X108312812Y-75093624D01*
X108476784Y-75161544D01*
X108624354Y-75260147D01*
X108749853Y-75385646D01*
X108848456Y-75533216D01*
X108916376Y-75697188D01*
X108951000Y-75871259D01*
X108951000Y-76048741D01*
X108916376Y-76222812D01*
X108848456Y-76386784D01*
X108749853Y-76534354D01*
X108624354Y-76659853D01*
X108476784Y-76758456D01*
X108312812Y-76826376D01*
X108163512Y-76856073D01*
X108138742Y-76861000D01*
X107961258Y-76861000D01*
X107936488Y-76856073D01*
X107787188Y-76826376D01*
X107623216Y-76758456D01*
X107475646Y-76659853D01*
X107350147Y-76534354D01*
X107251544Y-76386784D01*
X107183624Y-76222812D01*
X107149000Y-76048741D01*
X107149000Y-75871259D01*
X107183624Y-75697188D01*
X107251544Y-75533216D01*
X107350147Y-75385646D01*
X107475646Y-75260147D01*
X107623216Y-75161544D01*
X107787188Y-75093624D01*
X107936488Y-75063927D01*
X107961258Y-75059000D01*
X108138742Y-75059000D01*
X108163512Y-75063927D01*
G37*
G36*
X118663512Y-75063927D02*
G01*
X118812812Y-75093624D01*
X118976784Y-75161544D01*
X119124354Y-75260147D01*
X119249853Y-75385646D01*
X119348456Y-75533216D01*
X119416376Y-75697188D01*
X119451000Y-75871259D01*
X119451000Y-76048741D01*
X119416376Y-76222812D01*
X119348456Y-76386784D01*
X119249853Y-76534354D01*
X119124354Y-76659853D01*
X118976784Y-76758456D01*
X118812812Y-76826376D01*
X118663512Y-76856073D01*
X118638742Y-76861000D01*
X118461258Y-76861000D01*
X118436488Y-76856073D01*
X118287188Y-76826376D01*
X118123216Y-76758456D01*
X117975646Y-76659853D01*
X117850147Y-76534354D01*
X117751544Y-76386784D01*
X117683624Y-76222812D01*
X117649000Y-76048741D01*
X117649000Y-75871259D01*
X117683624Y-75697188D01*
X117751544Y-75533216D01*
X117850147Y-75385646D01*
X117975646Y-75260147D01*
X118123216Y-75161544D01*
X118287188Y-75093624D01*
X118436488Y-75063927D01*
X118461258Y-75059000D01*
X118638742Y-75059000D01*
X118663512Y-75063927D01*
G37*
G36*
X136273512Y-74753927D02*
G01*
X136422812Y-74783624D01*
X136586784Y-74851544D01*
X136734354Y-74950147D01*
X136859853Y-75075646D01*
X136958456Y-75223216D01*
X137026376Y-75387188D01*
X137061000Y-75561259D01*
X137061000Y-75738741D01*
X137026376Y-75912812D01*
X136958456Y-76076784D01*
X136859853Y-76224354D01*
X136734354Y-76349853D01*
X136586784Y-76448456D01*
X136422812Y-76516376D01*
X136273512Y-76546073D01*
X136248742Y-76551000D01*
X136071258Y-76551000D01*
X136046488Y-76546073D01*
X135897188Y-76516376D01*
X135733216Y-76448456D01*
X135585646Y-76349853D01*
X135460147Y-76224354D01*
X135361544Y-76076784D01*
X135293624Y-75912812D01*
X135259000Y-75738741D01*
X135259000Y-75561259D01*
X135293624Y-75387188D01*
X135361544Y-75223216D01*
X135460147Y-75075646D01*
X135585646Y-74950147D01*
X135733216Y-74851544D01*
X135897188Y-74783624D01*
X136046488Y-74753927D01*
X136071258Y-74749000D01*
X136248742Y-74749000D01*
X136273512Y-74753927D01*
G37*
G36*
X146433512Y-74753927D02*
G01*
X146582812Y-74783624D01*
X146746784Y-74851544D01*
X146894354Y-74950147D01*
X147019853Y-75075646D01*
X147118456Y-75223216D01*
X147186376Y-75387188D01*
X147221000Y-75561259D01*
X147221000Y-75738741D01*
X147186376Y-75912812D01*
X147118456Y-76076784D01*
X147019853Y-76224354D01*
X146894354Y-76349853D01*
X146746784Y-76448456D01*
X146582812Y-76516376D01*
X146433512Y-76546073D01*
X146408742Y-76551000D01*
X146231258Y-76551000D01*
X146206488Y-76546073D01*
X146057188Y-76516376D01*
X145893216Y-76448456D01*
X145745646Y-76349853D01*
X145620147Y-76224354D01*
X145521544Y-76076784D01*
X145453624Y-75912812D01*
X145419000Y-75738741D01*
X145419000Y-75561259D01*
X145453624Y-75387188D01*
X145521544Y-75223216D01*
X145620147Y-75075646D01*
X145745646Y-74950147D01*
X145893216Y-74851544D01*
X146057188Y-74783624D01*
X146206488Y-74753927D01*
X146231258Y-74749000D01*
X146408742Y-74749000D01*
X146433512Y-74753927D01*
G37*
G36*
X143893512Y-74753927D02*
G01*
X144042812Y-74783624D01*
X144206784Y-74851544D01*
X144354354Y-74950147D01*
X144479853Y-75075646D01*
X144578456Y-75223216D01*
X144646376Y-75387188D01*
X144681000Y-75561259D01*
X144681000Y-75738741D01*
X144646376Y-75912812D01*
X144578456Y-76076784D01*
X144479853Y-76224354D01*
X144354354Y-76349853D01*
X144206784Y-76448456D01*
X144042812Y-76516376D01*
X143893512Y-76546073D01*
X143868742Y-76551000D01*
X143691258Y-76551000D01*
X143666488Y-76546073D01*
X143517188Y-76516376D01*
X143353216Y-76448456D01*
X143205646Y-76349853D01*
X143080147Y-76224354D01*
X142981544Y-76076784D01*
X142913624Y-75912812D01*
X142879000Y-75738741D01*
X142879000Y-75561259D01*
X142913624Y-75387188D01*
X142981544Y-75223216D01*
X143080147Y-75075646D01*
X143205646Y-74950147D01*
X143353216Y-74851544D01*
X143517188Y-74783624D01*
X143666488Y-74753927D01*
X143691258Y-74749000D01*
X143868742Y-74749000D01*
X143893512Y-74753927D01*
G37*
G36*
X141353512Y-74753927D02*
G01*
X141502812Y-74783624D01*
X141666784Y-74851544D01*
X141814354Y-74950147D01*
X141939853Y-75075646D01*
X142038456Y-75223216D01*
X142106376Y-75387188D01*
X142141000Y-75561259D01*
X142141000Y-75738741D01*
X142106376Y-75912812D01*
X142038456Y-76076784D01*
X141939853Y-76224354D01*
X141814354Y-76349853D01*
X141666784Y-76448456D01*
X141502812Y-76516376D01*
X141353512Y-76546073D01*
X141328742Y-76551000D01*
X141151258Y-76551000D01*
X141126488Y-76546073D01*
X140977188Y-76516376D01*
X140813216Y-76448456D01*
X140665646Y-76349853D01*
X140540147Y-76224354D01*
X140441544Y-76076784D01*
X140373624Y-75912812D01*
X140339000Y-75738741D01*
X140339000Y-75561259D01*
X140373624Y-75387188D01*
X140441544Y-75223216D01*
X140540147Y-75075646D01*
X140665646Y-74950147D01*
X140813216Y-74851544D01*
X140977188Y-74783624D01*
X141126488Y-74753927D01*
X141151258Y-74749000D01*
X141328742Y-74749000D01*
X141353512Y-74753927D01*
G37*
G36*
X138813512Y-74753927D02*
G01*
X138962812Y-74783624D01*
X139126784Y-74851544D01*
X139274354Y-74950147D01*
X139399853Y-75075646D01*
X139498456Y-75223216D01*
X139566376Y-75387188D01*
X139601000Y-75561259D01*
X139601000Y-75738741D01*
X139566376Y-75912812D01*
X139498456Y-76076784D01*
X139399853Y-76224354D01*
X139274354Y-76349853D01*
X139126784Y-76448456D01*
X138962812Y-76516376D01*
X138813512Y-76546073D01*
X138788742Y-76551000D01*
X138611258Y-76551000D01*
X138586488Y-76546073D01*
X138437188Y-76516376D01*
X138273216Y-76448456D01*
X138125646Y-76349853D01*
X138000147Y-76224354D01*
X137901544Y-76076784D01*
X137833624Y-75912812D01*
X137799000Y-75738741D01*
X137799000Y-75561259D01*
X137833624Y-75387188D01*
X137901544Y-75223216D01*
X138000147Y-75075646D01*
X138125646Y-74950147D01*
X138273216Y-74851544D01*
X138437188Y-74783624D01*
X138586488Y-74753927D01*
X138611258Y-74749000D01*
X138788742Y-74749000D01*
X138813512Y-74753927D01*
G37*
G36*
X178986823Y-74841313D02*
G01*
X179147242Y-74889976D01*
X179259814Y-74950147D01*
X179295078Y-74968996D01*
X179424659Y-75075341D01*
X179531004Y-75204922D01*
X179531005Y-75204924D01*
X179610024Y-75352758D01*
X179658687Y-75513177D01*
X179675117Y-75680000D01*
X179658687Y-75846823D01*
X179610024Y-76007242D01*
X179572854Y-76076782D01*
X179531004Y-76155078D01*
X179424659Y-76284659D01*
X179295078Y-76391004D01*
X179295076Y-76391005D01*
X179147242Y-76470024D01*
X178986823Y-76518687D01*
X178861804Y-76531000D01*
X177978196Y-76531000D01*
X177853177Y-76518687D01*
X177692758Y-76470024D01*
X177544924Y-76391005D01*
X177544922Y-76391004D01*
X177415341Y-76284659D01*
X177308996Y-76155078D01*
X177267146Y-76076782D01*
X177229976Y-76007242D01*
X177181313Y-75846823D01*
X177164883Y-75680000D01*
X177181313Y-75513177D01*
X177229976Y-75352758D01*
X177308995Y-75204924D01*
X177308996Y-75204922D01*
X177415341Y-75075341D01*
X177544922Y-74968996D01*
X177580186Y-74950147D01*
X177692758Y-74889976D01*
X177853177Y-74841313D01*
X177978196Y-74829000D01*
X178861804Y-74829000D01*
X178986823Y-74841313D01*
G37*
G36*
X171366823Y-74841313D02*
G01*
X171527242Y-74889976D01*
X171639814Y-74950147D01*
X171675078Y-74968996D01*
X171804659Y-75075341D01*
X171911004Y-75204922D01*
X171911005Y-75204924D01*
X171990024Y-75352758D01*
X172038687Y-75513177D01*
X172055117Y-75680000D01*
X172038687Y-75846823D01*
X171990024Y-76007242D01*
X171952854Y-76076782D01*
X171911004Y-76155078D01*
X171804659Y-76284659D01*
X171675078Y-76391004D01*
X171675076Y-76391005D01*
X171527242Y-76470024D01*
X171366823Y-76518687D01*
X171241804Y-76531000D01*
X170358196Y-76531000D01*
X170233177Y-76518687D01*
X170072758Y-76470024D01*
X169924924Y-76391005D01*
X169924922Y-76391004D01*
X169795341Y-76284659D01*
X169688996Y-76155078D01*
X169647146Y-76076782D01*
X169609976Y-76007242D01*
X169561313Y-75846823D01*
X169544883Y-75680000D01*
X169561313Y-75513177D01*
X169609976Y-75352758D01*
X169688995Y-75204924D01*
X169688996Y-75204922D01*
X169795341Y-75075341D01*
X169924922Y-74968996D01*
X169960186Y-74950147D01*
X170072758Y-74889976D01*
X170233177Y-74841313D01*
X170358196Y-74829000D01*
X171241804Y-74829000D01*
X171366823Y-74841313D01*
G37*
G36*
X178986823Y-72301313D02*
G01*
X179147242Y-72349976D01*
X179279906Y-72420886D01*
X179295078Y-72428996D01*
X179424659Y-72535341D01*
X179531004Y-72664922D01*
X179531005Y-72664924D01*
X179610024Y-72812758D01*
X179658687Y-72973177D01*
X179675117Y-73140000D01*
X179658687Y-73306823D01*
X179610024Y-73467242D01*
X179539114Y-73599906D01*
X179531004Y-73615078D01*
X179424659Y-73744659D01*
X179295078Y-73851004D01*
X179295076Y-73851005D01*
X179147242Y-73930024D01*
X178986823Y-73978687D01*
X178861804Y-73991000D01*
X177978196Y-73991000D01*
X177853177Y-73978687D01*
X177692758Y-73930024D01*
X177544924Y-73851005D01*
X177544922Y-73851004D01*
X177415341Y-73744659D01*
X177308996Y-73615078D01*
X177300886Y-73599906D01*
X177229976Y-73467242D01*
X177181313Y-73306823D01*
X177164883Y-73140000D01*
X177181313Y-72973177D01*
X177229976Y-72812758D01*
X177308995Y-72664924D01*
X177308996Y-72664922D01*
X177415341Y-72535341D01*
X177544922Y-72428996D01*
X177560094Y-72420886D01*
X177692758Y-72349976D01*
X177853177Y-72301313D01*
X177978196Y-72289000D01*
X178861804Y-72289000D01*
X178986823Y-72301313D01*
G37*
G36*
X171366823Y-72301313D02*
G01*
X171527242Y-72349976D01*
X171659906Y-72420886D01*
X171675078Y-72428996D01*
X171804659Y-72535341D01*
X171911004Y-72664922D01*
X171911005Y-72664924D01*
X171990024Y-72812758D01*
X172038687Y-72973177D01*
X172055117Y-73140000D01*
X172038687Y-73306823D01*
X171990024Y-73467242D01*
X171919114Y-73599906D01*
X171911004Y-73615078D01*
X171804659Y-73744659D01*
X171675078Y-73851004D01*
X171675076Y-73851005D01*
X171527242Y-73930024D01*
X171366823Y-73978687D01*
X171241804Y-73991000D01*
X170358196Y-73991000D01*
X170233177Y-73978687D01*
X170072758Y-73930024D01*
X169924924Y-73851005D01*
X169924922Y-73851004D01*
X169795341Y-73744659D01*
X169688996Y-73615078D01*
X169680886Y-73599906D01*
X169609976Y-73467242D01*
X169561313Y-73306823D01*
X169544883Y-73140000D01*
X169561313Y-72973177D01*
X169609976Y-72812758D01*
X169688995Y-72664924D01*
X169688996Y-72664922D01*
X169795341Y-72535341D01*
X169924922Y-72428996D01*
X169940094Y-72420886D01*
X170072758Y-72349976D01*
X170233177Y-72301313D01*
X170358196Y-72289000D01*
X171241804Y-72289000D01*
X171366823Y-72301313D01*
G37*
G36*
X172051000Y-71451000D02*
G01*
X169549000Y-71451000D01*
X169549000Y-69749000D01*
X172051000Y-69749000D01*
X172051000Y-71451000D01*
G37*
G36*
X178986823Y-69761313D02*
G01*
X179147242Y-69809976D01*
X179279906Y-69880886D01*
X179295078Y-69888996D01*
X179424659Y-69995341D01*
X179531004Y-70124922D01*
X179531005Y-70124924D01*
X179610024Y-70272758D01*
X179658687Y-70433177D01*
X179675117Y-70600000D01*
X179658687Y-70766823D01*
X179610024Y-70927242D01*
X179539114Y-71059906D01*
X179531004Y-71075078D01*
X179424659Y-71204659D01*
X179295078Y-71311004D01*
X179295076Y-71311005D01*
X179147242Y-71390024D01*
X178986823Y-71438687D01*
X178861804Y-71451000D01*
X177978196Y-71451000D01*
X177853177Y-71438687D01*
X177692758Y-71390024D01*
X177544924Y-71311005D01*
X177544922Y-71311004D01*
X177415341Y-71204659D01*
X177308996Y-71075078D01*
X177300886Y-71059906D01*
X177229976Y-70927242D01*
X177181313Y-70766823D01*
X177164883Y-70600000D01*
X177181313Y-70433177D01*
X177229976Y-70272758D01*
X177308995Y-70124924D01*
X177308996Y-70124922D01*
X177415341Y-69995341D01*
X177544922Y-69888996D01*
X177560094Y-69880886D01*
X177692758Y-69809976D01*
X177853177Y-69761313D01*
X177978196Y-69749000D01*
X178861804Y-69749000D01*
X178986823Y-69761313D01*
G37*
G36*
X118663512Y-64043927D02*
G01*
X118812812Y-64073624D01*
X118976784Y-64141544D01*
X119124354Y-64240147D01*
X119249853Y-64365646D01*
X119348456Y-64513216D01*
X119416376Y-64677188D01*
X119451000Y-64851259D01*
X119451000Y-65028741D01*
X119416376Y-65202812D01*
X119348456Y-65366784D01*
X119249853Y-65514354D01*
X119124354Y-65639853D01*
X118976784Y-65738456D01*
X118812812Y-65806376D01*
X118663512Y-65836073D01*
X118638742Y-65841000D01*
X118461258Y-65841000D01*
X118436488Y-65836073D01*
X118287188Y-65806376D01*
X118123216Y-65738456D01*
X117975646Y-65639853D01*
X117850147Y-65514354D01*
X117751544Y-65366784D01*
X117683624Y-65202812D01*
X117649000Y-65028741D01*
X117649000Y-64851259D01*
X117683624Y-64677188D01*
X117751544Y-64513216D01*
X117850147Y-64365646D01*
X117975646Y-64240147D01*
X118123216Y-64141544D01*
X118287188Y-64073624D01*
X118436488Y-64043927D01*
X118461258Y-64039000D01*
X118638742Y-64039000D01*
X118663512Y-64043927D01*
G37*
G36*
X108163512Y-64043927D02*
G01*
X108312812Y-64073624D01*
X108476784Y-64141544D01*
X108624354Y-64240147D01*
X108749853Y-64365646D01*
X108848456Y-64513216D01*
X108916376Y-64677188D01*
X108951000Y-64851259D01*
X108951000Y-65028741D01*
X108916376Y-65202812D01*
X108848456Y-65366784D01*
X108749853Y-65514354D01*
X108624354Y-65639853D01*
X108476784Y-65738456D01*
X108312812Y-65806376D01*
X108163512Y-65836073D01*
X108138742Y-65841000D01*
X107961258Y-65841000D01*
X107936488Y-65836073D01*
X107787188Y-65806376D01*
X107623216Y-65738456D01*
X107475646Y-65639853D01*
X107350147Y-65514354D01*
X107251544Y-65366784D01*
X107183624Y-65202812D01*
X107149000Y-65028741D01*
X107149000Y-64851259D01*
X107183624Y-64677188D01*
X107251544Y-64513216D01*
X107350147Y-64365646D01*
X107475646Y-64240147D01*
X107623216Y-64141544D01*
X107787188Y-64073624D01*
X107936488Y-64043927D01*
X107961258Y-64039000D01*
X108138742Y-64039000D01*
X108163512Y-64043927D01*
G37*
G36*
X152823512Y-61753927D02*
G01*
X152972812Y-61783624D01*
X153136784Y-61851544D01*
X153284354Y-61950147D01*
X153409853Y-62075646D01*
X153508456Y-62223216D01*
X153576376Y-62387188D01*
X153611000Y-62561259D01*
X153611000Y-62738741D01*
X153576376Y-62912812D01*
X153508456Y-63076784D01*
X153409853Y-63224354D01*
X153284354Y-63349853D01*
X153136784Y-63448456D01*
X152972812Y-63516376D01*
X152823512Y-63546073D01*
X152798742Y-63551000D01*
X152621258Y-63551000D01*
X152596488Y-63546073D01*
X152447188Y-63516376D01*
X152283216Y-63448456D01*
X152135646Y-63349853D01*
X152010147Y-63224354D01*
X151911544Y-63076784D01*
X151843624Y-62912812D01*
X151809000Y-62738741D01*
X151809000Y-62561259D01*
X151843624Y-62387188D01*
X151911544Y-62223216D01*
X152010147Y-62075646D01*
X152135646Y-61950147D01*
X152283216Y-61851544D01*
X152447188Y-61783624D01*
X152596488Y-61753927D01*
X152621258Y-61749000D01*
X152798742Y-61749000D01*
X152823512Y-61753927D01*
G37*
G36*
X156151000Y-63551000D02*
G01*
X154349000Y-63551000D01*
X154349000Y-61749000D01*
X156151000Y-61749000D01*
X156151000Y-63551000D01*
G37*
G36*
X139551000Y-63501000D02*
G01*
X137749000Y-63501000D01*
X137749000Y-61699000D01*
X139551000Y-61699000D01*
X139551000Y-63501000D01*
G37*
G36*
X143843512Y-61703927D02*
G01*
X143992812Y-61733624D01*
X144156784Y-61801544D01*
X144304354Y-61900147D01*
X144429853Y-62025646D01*
X144528456Y-62173216D01*
X144596376Y-62337188D01*
X144631000Y-62511259D01*
X144631000Y-62688741D01*
X144596376Y-62862812D01*
X144528456Y-63026784D01*
X144429853Y-63174354D01*
X144304354Y-63299853D01*
X144156784Y-63398456D01*
X143992812Y-63466376D01*
X143843512Y-63496073D01*
X143818742Y-63501000D01*
X143641258Y-63501000D01*
X143616488Y-63496073D01*
X143467188Y-63466376D01*
X143303216Y-63398456D01*
X143155646Y-63299853D01*
X143030147Y-63174354D01*
X142931544Y-63026784D01*
X142863624Y-62862812D01*
X142829000Y-62688741D01*
X142829000Y-62511259D01*
X142863624Y-62337188D01*
X142931544Y-62173216D01*
X143030147Y-62025646D01*
X143155646Y-61900147D01*
X143303216Y-61801544D01*
X143467188Y-61733624D01*
X143616488Y-61703927D01*
X143641258Y-61699000D01*
X143818742Y-61699000D01*
X143843512Y-61703927D01*
G37*
G36*
X141303512Y-61703927D02*
G01*
X141452812Y-61733624D01*
X141616784Y-61801544D01*
X141764354Y-61900147D01*
X141889853Y-62025646D01*
X141988456Y-62173216D01*
X142056376Y-62337188D01*
X142091000Y-62511259D01*
X142091000Y-62688741D01*
X142056376Y-62862812D01*
X141988456Y-63026784D01*
X141889853Y-63174354D01*
X141764354Y-63299853D01*
X141616784Y-63398456D01*
X141452812Y-63466376D01*
X141303512Y-63496073D01*
X141278742Y-63501000D01*
X141101258Y-63501000D01*
X141076488Y-63496073D01*
X140927188Y-63466376D01*
X140763216Y-63398456D01*
X140615646Y-63299853D01*
X140490147Y-63174354D01*
X140391544Y-63026784D01*
X140323624Y-62862812D01*
X140289000Y-62688741D01*
X140289000Y-62511259D01*
X140323624Y-62337188D01*
X140391544Y-62173216D01*
X140490147Y-62025646D01*
X140615646Y-61900147D01*
X140763216Y-61801544D01*
X140927188Y-61733624D01*
X141076488Y-61703927D01*
X141101258Y-61699000D01*
X141278742Y-61699000D01*
X141303512Y-61703927D01*
G37*
G36*
X119451000Y-63301000D02*
G01*
X117649000Y-63301000D01*
X117649000Y-61499000D01*
X119451000Y-61499000D01*
X119451000Y-63301000D01*
G37*
G36*
X108951000Y-63301000D02*
G01*
X107149000Y-63301000D01*
X107149000Y-61499000D01*
X108951000Y-61499000D01*
X108951000Y-63301000D01*
G37*
G36*
X142693512Y-54603927D02*
G01*
X142842812Y-54633624D01*
X143006784Y-54701544D01*
X143154354Y-54800147D01*
X143279853Y-54925646D01*
X143378456Y-55073216D01*
X143446376Y-55237188D01*
X143481000Y-55411259D01*
X143481000Y-55588741D01*
X143446376Y-55762812D01*
X143378456Y-55926784D01*
X143279853Y-56074354D01*
X143154354Y-56199853D01*
X143006784Y-56298456D01*
X142842812Y-56366376D01*
X142693512Y-56396073D01*
X142668742Y-56401000D01*
X142491258Y-56401000D01*
X142466488Y-56396073D01*
X142317188Y-56366376D01*
X142153216Y-56298456D01*
X142005646Y-56199853D01*
X141880147Y-56074354D01*
X141781544Y-55926784D01*
X141713624Y-55762812D01*
X141679000Y-55588741D01*
X141679000Y-55411259D01*
X141713624Y-55237188D01*
X141781544Y-55073216D01*
X141880147Y-54925646D01*
X142005646Y-54800147D01*
X142153216Y-54701544D01*
X142317188Y-54633624D01*
X142466488Y-54603927D01*
X142491258Y-54599000D01*
X142668742Y-54599000D01*
X142693512Y-54603927D01*
G37*
G36*
X145233512Y-54603927D02*
G01*
X145382812Y-54633624D01*
X145546784Y-54701544D01*
X145694354Y-54800147D01*
X145819853Y-54925646D01*
X145918456Y-55073216D01*
X145986376Y-55237188D01*
X146021000Y-55411259D01*
X146021000Y-55588741D01*
X145986376Y-55762812D01*
X145918456Y-55926784D01*
X145819853Y-56074354D01*
X145694354Y-56199853D01*
X145546784Y-56298456D01*
X145382812Y-56366376D01*
X145233512Y-56396073D01*
X145208742Y-56401000D01*
X145031258Y-56401000D01*
X145006488Y-56396073D01*
X144857188Y-56366376D01*
X144693216Y-56298456D01*
X144545646Y-56199853D01*
X144420147Y-56074354D01*
X144321544Y-55926784D01*
X144253624Y-55762812D01*
X144219000Y-55588741D01*
X144219000Y-55411259D01*
X144253624Y-55237188D01*
X144321544Y-55073216D01*
X144420147Y-54925646D01*
X144545646Y-54800147D01*
X144693216Y-54701544D01*
X144857188Y-54633624D01*
X145006488Y-54603927D01*
X145031258Y-54599000D01*
X145208742Y-54599000D01*
X145233512Y-54603927D01*
G37*
G36*
X140153512Y-54603927D02*
G01*
X140302812Y-54633624D01*
X140466784Y-54701544D01*
X140614354Y-54800147D01*
X140739853Y-54925646D01*
X140838456Y-55073216D01*
X140906376Y-55237188D01*
X140941000Y-55411259D01*
X140941000Y-55588741D01*
X140906376Y-55762812D01*
X140838456Y-55926784D01*
X140739853Y-56074354D01*
X140614354Y-56199853D01*
X140466784Y-56298456D01*
X140302812Y-56366376D01*
X140153512Y-56396073D01*
X140128742Y-56401000D01*
X139951258Y-56401000D01*
X139926488Y-56396073D01*
X139777188Y-56366376D01*
X139613216Y-56298456D01*
X139465646Y-56199853D01*
X139340147Y-56074354D01*
X139241544Y-55926784D01*
X139173624Y-55762812D01*
X139139000Y-55588741D01*
X139139000Y-55411259D01*
X139173624Y-55237188D01*
X139241544Y-55073216D01*
X139340147Y-54925646D01*
X139465646Y-54800147D01*
X139613216Y-54701544D01*
X139777188Y-54633624D01*
X139926488Y-54603927D01*
X139951258Y-54599000D01*
X140128742Y-54599000D01*
X140153512Y-54603927D01*
G37*
G36*
X138401000Y-56401000D02*
G01*
X136599000Y-56401000D01*
X136599000Y-54599000D01*
X138401000Y-54599000D01*
X138401000Y-56401000D01*
G37*
G36*
X103593512Y-51803927D02*
G01*
X103742812Y-51833624D01*
X103906784Y-51901544D01*
X104054354Y-52000147D01*
X104179853Y-52125646D01*
X104278456Y-52273216D01*
X104346376Y-52437188D01*
X104381000Y-52611259D01*
X104381000Y-52788741D01*
X104346376Y-52962812D01*
X104278456Y-53126784D01*
X104179853Y-53274354D01*
X104054354Y-53399853D01*
X103906784Y-53498456D01*
X103742812Y-53566376D01*
X103593512Y-53596073D01*
X103568742Y-53601000D01*
X103391258Y-53601000D01*
X103366488Y-53596073D01*
X103217188Y-53566376D01*
X103053216Y-53498456D01*
X102905646Y-53399853D01*
X102780147Y-53274354D01*
X102681544Y-53126784D01*
X102613624Y-52962812D01*
X102579000Y-52788741D01*
X102579000Y-52611259D01*
X102613624Y-52437188D01*
X102681544Y-52273216D01*
X102780147Y-52125646D01*
X102905646Y-52000147D01*
X103053216Y-51901544D01*
X103217188Y-51833624D01*
X103366488Y-51803927D01*
X103391258Y-51799000D01*
X103568742Y-51799000D01*
X103593512Y-51803927D01*
G37*
G36*
X106133512Y-51803927D02*
G01*
X106282812Y-51833624D01*
X106446784Y-51901544D01*
X106594354Y-52000147D01*
X106719853Y-52125646D01*
X106818456Y-52273216D01*
X106886376Y-52437188D01*
X106921000Y-52611259D01*
X106921000Y-52788741D01*
X106886376Y-52962812D01*
X106818456Y-53126784D01*
X106719853Y-53274354D01*
X106594354Y-53399853D01*
X106446784Y-53498456D01*
X106282812Y-53566376D01*
X106133512Y-53596073D01*
X106108742Y-53601000D01*
X105931258Y-53601000D01*
X105906488Y-53596073D01*
X105757188Y-53566376D01*
X105593216Y-53498456D01*
X105445646Y-53399853D01*
X105320147Y-53274354D01*
X105221544Y-53126784D01*
X105153624Y-52962812D01*
X105119000Y-52788741D01*
X105119000Y-52611259D01*
X105153624Y-52437188D01*
X105221544Y-52273216D01*
X105320147Y-52125646D01*
X105445646Y-52000147D01*
X105593216Y-51901544D01*
X105757188Y-51833624D01*
X105906488Y-51803927D01*
X105931258Y-51799000D01*
X106108742Y-51799000D01*
X106133512Y-51803927D01*
G37*
G36*
X108673512Y-51803927D02*
G01*
X108822812Y-51833624D01*
X108986784Y-51901544D01*
X109134354Y-52000147D01*
X109259853Y-52125646D01*
X109358456Y-52273216D01*
X109426376Y-52437188D01*
X109461000Y-52611259D01*
X109461000Y-52788741D01*
X109426376Y-52962812D01*
X109358456Y-53126784D01*
X109259853Y-53274354D01*
X109134354Y-53399853D01*
X108986784Y-53498456D01*
X108822812Y-53566376D01*
X108673512Y-53596073D01*
X108648742Y-53601000D01*
X108471258Y-53601000D01*
X108446488Y-53596073D01*
X108297188Y-53566376D01*
X108133216Y-53498456D01*
X107985646Y-53399853D01*
X107860147Y-53274354D01*
X107761544Y-53126784D01*
X107693624Y-52962812D01*
X107659000Y-52788741D01*
X107659000Y-52611259D01*
X107693624Y-52437188D01*
X107761544Y-52273216D01*
X107860147Y-52125646D01*
X107985646Y-52000147D01*
X108133216Y-51901544D01*
X108297188Y-51833624D01*
X108446488Y-51803927D01*
X108471258Y-51799000D01*
X108648742Y-51799000D01*
X108673512Y-51803927D01*
G37*
G36*
X112001000Y-53601000D02*
G01*
X110199000Y-53601000D01*
X110199000Y-51799000D01*
X112001000Y-51799000D01*
X112001000Y-53601000D01*
G37*
G36*
X153613512Y-48613927D02*
G01*
X153762812Y-48643624D01*
X153926784Y-48711544D01*
X154074354Y-48810147D01*
X154199853Y-48935646D01*
X154298456Y-49083216D01*
X154366376Y-49247188D01*
X154401000Y-49421259D01*
X154401000Y-49598741D01*
X154366376Y-49772812D01*
X154298456Y-49936784D01*
X154199853Y-50084354D01*
X154074354Y-50209853D01*
X153926784Y-50308456D01*
X153762812Y-50376376D01*
X153613512Y-50406073D01*
X153588742Y-50411000D01*
X153411258Y-50411000D01*
X153386488Y-50406073D01*
X153237188Y-50376376D01*
X153073216Y-50308456D01*
X152925646Y-50209853D01*
X152800147Y-50084354D01*
X152701544Y-49936784D01*
X152633624Y-49772812D01*
X152599000Y-49598741D01*
X152599000Y-49421259D01*
X152633624Y-49247188D01*
X152701544Y-49083216D01*
X152800147Y-48935646D01*
X152925646Y-48810147D01*
X153073216Y-48711544D01*
X153237188Y-48643624D01*
X153386488Y-48613927D01*
X153411258Y-48609000D01*
X153588742Y-48609000D01*
X153613512Y-48613927D01*
G37*
G36*
X128613512Y-48613927D02*
G01*
X128762812Y-48643624D01*
X128926784Y-48711544D01*
X129074354Y-48810147D01*
X129199853Y-48935646D01*
X129298456Y-49083216D01*
X129366376Y-49247188D01*
X129401000Y-49421259D01*
X129401000Y-49598741D01*
X129366376Y-49772812D01*
X129298456Y-49936784D01*
X129199853Y-50084354D01*
X129074354Y-50209853D01*
X128926784Y-50308456D01*
X128762812Y-50376376D01*
X128613512Y-50406073D01*
X128588742Y-50411000D01*
X128411258Y-50411000D01*
X128386488Y-50406073D01*
X128237188Y-50376376D01*
X128073216Y-50308456D01*
X127925646Y-50209853D01*
X127800147Y-50084354D01*
X127701544Y-49936784D01*
X127633624Y-49772812D01*
X127599000Y-49598741D01*
X127599000Y-49421259D01*
X127633624Y-49247188D01*
X127701544Y-49083216D01*
X127800147Y-48935646D01*
X127925646Y-48810147D01*
X128073216Y-48711544D01*
X128237188Y-48643624D01*
X128386488Y-48613927D01*
X128411258Y-48609000D01*
X128588742Y-48609000D01*
X128613512Y-48613927D01*
G37*
G36*
X128613512Y-46073927D02*
G01*
X128762812Y-46103624D01*
X128926784Y-46171544D01*
X129074354Y-46270147D01*
X129199853Y-46395646D01*
X129298456Y-46543216D01*
X129366376Y-46707188D01*
X129401000Y-46881259D01*
X129401000Y-47058741D01*
X129366376Y-47232812D01*
X129298456Y-47396784D01*
X129199853Y-47544354D01*
X129074354Y-47669853D01*
X128926784Y-47768456D01*
X128762812Y-47836376D01*
X128613512Y-47866073D01*
X128588742Y-47871000D01*
X128411258Y-47871000D01*
X128386488Y-47866073D01*
X128237188Y-47836376D01*
X128073216Y-47768456D01*
X127925646Y-47669853D01*
X127800147Y-47544354D01*
X127701544Y-47396784D01*
X127633624Y-47232812D01*
X127599000Y-47058741D01*
X127599000Y-46881259D01*
X127633624Y-46707188D01*
X127701544Y-46543216D01*
X127800147Y-46395646D01*
X127925646Y-46270147D01*
X128073216Y-46171544D01*
X128237188Y-46103624D01*
X128386488Y-46073927D01*
X128411258Y-46069000D01*
X128588742Y-46069000D01*
X128613512Y-46073927D01*
G37*
G36*
X153613512Y-46073927D02*
G01*
X153762812Y-46103624D01*
X153926784Y-46171544D01*
X154074354Y-46270147D01*
X154199853Y-46395646D01*
X154298456Y-46543216D01*
X154366376Y-46707188D01*
X154401000Y-46881259D01*
X154401000Y-47058741D01*
X154366376Y-47232812D01*
X154298456Y-47396784D01*
X154199853Y-47544354D01*
X154074354Y-47669853D01*
X153926784Y-47768456D01*
X153762812Y-47836376D01*
X153613512Y-47866073D01*
X153588742Y-47871000D01*
X153411258Y-47871000D01*
X153386488Y-47866073D01*
X153237188Y-47836376D01*
X153073216Y-47768456D01*
X152925646Y-47669853D01*
X152800147Y-47544354D01*
X152701544Y-47396784D01*
X152633624Y-47232812D01*
X152599000Y-47058741D01*
X152599000Y-46881259D01*
X152633624Y-46707188D01*
X152701544Y-46543216D01*
X152800147Y-46395646D01*
X152925646Y-46270147D01*
X153073216Y-46171544D01*
X153237188Y-46103624D01*
X153386488Y-46073927D01*
X153411258Y-46069000D01*
X153588742Y-46069000D01*
X153613512Y-46073927D01*
G37*
G36*
X128613512Y-43533927D02*
G01*
X128762812Y-43563624D01*
X128926784Y-43631544D01*
X129074354Y-43730147D01*
X129199853Y-43855646D01*
X129298456Y-44003216D01*
X129366376Y-44167188D01*
X129401000Y-44341259D01*
X129401000Y-44518741D01*
X129366376Y-44692812D01*
X129298456Y-44856784D01*
X129199853Y-45004354D01*
X129074354Y-45129853D01*
X128926784Y-45228456D01*
X128762812Y-45296376D01*
X128613512Y-45326073D01*
X128588742Y-45331000D01*
X128411258Y-45331000D01*
X128386488Y-45326073D01*
X128237188Y-45296376D01*
X128073216Y-45228456D01*
X127925646Y-45129853D01*
X127800147Y-45004354D01*
X127701544Y-44856784D01*
X127633624Y-44692812D01*
X127599000Y-44518741D01*
X127599000Y-44341259D01*
X127633624Y-44167188D01*
X127701544Y-44003216D01*
X127800147Y-43855646D01*
X127925646Y-43730147D01*
X128073216Y-43631544D01*
X128237188Y-43563624D01*
X128386488Y-43533927D01*
X128411258Y-43529000D01*
X128588742Y-43529000D01*
X128613512Y-43533927D01*
G37*
G36*
X153613512Y-43533927D02*
G01*
X153762812Y-43563624D01*
X153926784Y-43631544D01*
X154074354Y-43730147D01*
X154199853Y-43855646D01*
X154298456Y-44003216D01*
X154366376Y-44167188D01*
X154401000Y-44341259D01*
X154401000Y-44518741D01*
X154366376Y-44692812D01*
X154298456Y-44856784D01*
X154199853Y-45004354D01*
X154074354Y-45129853D01*
X153926784Y-45228456D01*
X153762812Y-45296376D01*
X153613512Y-45326073D01*
X153588742Y-45331000D01*
X153411258Y-45331000D01*
X153386488Y-45326073D01*
X153237188Y-45296376D01*
X153073216Y-45228456D01*
X152925646Y-45129853D01*
X152800147Y-45004354D01*
X152701544Y-44856784D01*
X152633624Y-44692812D01*
X152599000Y-44518741D01*
X152599000Y-44341259D01*
X152633624Y-44167188D01*
X152701544Y-44003216D01*
X152800147Y-43855646D01*
X152925646Y-43730147D01*
X153073216Y-43631544D01*
X153237188Y-43563624D01*
X153386488Y-43533927D01*
X153411258Y-43529000D01*
X153588742Y-43529000D01*
X153613512Y-43533927D01*
G37*
G36*
X112001000Y-44201000D02*
G01*
X110199000Y-44201000D01*
X110199000Y-42399000D01*
X112001000Y-42399000D01*
X112001000Y-44201000D01*
G37*
G36*
X108673512Y-42403927D02*
G01*
X108822812Y-42433624D01*
X108986784Y-42501544D01*
X109134354Y-42600147D01*
X109259853Y-42725646D01*
X109358456Y-42873216D01*
X109426376Y-43037188D01*
X109461000Y-43211259D01*
X109461000Y-43388741D01*
X109426376Y-43562812D01*
X109358456Y-43726784D01*
X109259853Y-43874354D01*
X109134354Y-43999853D01*
X108986784Y-44098456D01*
X108822812Y-44166376D01*
X108673512Y-44196073D01*
X108648742Y-44201000D01*
X108471258Y-44201000D01*
X108446488Y-44196073D01*
X108297188Y-44166376D01*
X108133216Y-44098456D01*
X107985646Y-43999853D01*
X107860147Y-43874354D01*
X107761544Y-43726784D01*
X107693624Y-43562812D01*
X107659000Y-43388741D01*
X107659000Y-43211259D01*
X107693624Y-43037188D01*
X107761544Y-42873216D01*
X107860147Y-42725646D01*
X107985646Y-42600147D01*
X108133216Y-42501544D01*
X108297188Y-42433624D01*
X108446488Y-42403927D01*
X108471258Y-42399000D01*
X108648742Y-42399000D01*
X108673512Y-42403927D01*
G37*
G36*
X106133512Y-42403927D02*
G01*
X106282812Y-42433624D01*
X106446784Y-42501544D01*
X106594354Y-42600147D01*
X106719853Y-42725646D01*
X106818456Y-42873216D01*
X106886376Y-43037188D01*
X106921000Y-43211259D01*
X106921000Y-43388741D01*
X106886376Y-43562812D01*
X106818456Y-43726784D01*
X106719853Y-43874354D01*
X106594354Y-43999853D01*
X106446784Y-44098456D01*
X106282812Y-44166376D01*
X106133512Y-44196073D01*
X106108742Y-44201000D01*
X105931258Y-44201000D01*
X105906488Y-44196073D01*
X105757188Y-44166376D01*
X105593216Y-44098456D01*
X105445646Y-43999853D01*
X105320147Y-43874354D01*
X105221544Y-43726784D01*
X105153624Y-43562812D01*
X105119000Y-43388741D01*
X105119000Y-43211259D01*
X105153624Y-43037188D01*
X105221544Y-42873216D01*
X105320147Y-42725646D01*
X105445646Y-42600147D01*
X105593216Y-42501544D01*
X105757188Y-42433624D01*
X105906488Y-42403927D01*
X105931258Y-42399000D01*
X106108742Y-42399000D01*
X106133512Y-42403927D01*
G37*
G36*
X103593512Y-42403927D02*
G01*
X103742812Y-42433624D01*
X103906784Y-42501544D01*
X104054354Y-42600147D01*
X104179853Y-42725646D01*
X104278456Y-42873216D01*
X104346376Y-43037188D01*
X104381000Y-43211259D01*
X104381000Y-43388741D01*
X104346376Y-43562812D01*
X104278456Y-43726784D01*
X104179853Y-43874354D01*
X104054354Y-43999853D01*
X103906784Y-44098456D01*
X103742812Y-44166376D01*
X103593512Y-44196073D01*
X103568742Y-44201000D01*
X103391258Y-44201000D01*
X103366488Y-44196073D01*
X103217188Y-44166376D01*
X103053216Y-44098456D01*
X102905646Y-43999853D01*
X102780147Y-43874354D01*
X102681544Y-43726784D01*
X102613624Y-43562812D01*
X102579000Y-43388741D01*
X102579000Y-43211259D01*
X102613624Y-43037188D01*
X102681544Y-42873216D01*
X102780147Y-42725646D01*
X102905646Y-42600147D01*
X103053216Y-42501544D01*
X103217188Y-42433624D01*
X103366488Y-42403927D01*
X103391258Y-42399000D01*
X103568742Y-42399000D01*
X103593512Y-42403927D01*
G37*
G36*
X170101000Y-42851000D02*
G01*
X168299000Y-42851000D01*
X168299000Y-41049000D01*
X170101000Y-41049000D01*
X170101000Y-42851000D01*
G37*
G36*
X153613512Y-40993927D02*
G01*
X153762812Y-41023624D01*
X153926784Y-41091544D01*
X154074354Y-41190147D01*
X154199853Y-41315646D01*
X154298456Y-41463216D01*
X154366376Y-41627188D01*
X154401000Y-41801259D01*
X154401000Y-41978741D01*
X154366376Y-42152812D01*
X154298456Y-42316784D01*
X154199853Y-42464354D01*
X154074354Y-42589853D01*
X153926784Y-42688456D01*
X153762812Y-42756376D01*
X153613512Y-42786073D01*
X153588742Y-42791000D01*
X153411258Y-42791000D01*
X153386488Y-42786073D01*
X153237188Y-42756376D01*
X153073216Y-42688456D01*
X152925646Y-42589853D01*
X152800147Y-42464354D01*
X152701544Y-42316784D01*
X152633624Y-42152812D01*
X152599000Y-41978741D01*
X152599000Y-41801259D01*
X152633624Y-41627188D01*
X152701544Y-41463216D01*
X152800147Y-41315646D01*
X152925646Y-41190147D01*
X153073216Y-41091544D01*
X153237188Y-41023624D01*
X153386488Y-40993927D01*
X153411258Y-40989000D01*
X153588742Y-40989000D01*
X153613512Y-40993927D01*
G37*
G36*
X128613512Y-40993927D02*
G01*
X128762812Y-41023624D01*
X128926784Y-41091544D01*
X129074354Y-41190147D01*
X129199853Y-41315646D01*
X129298456Y-41463216D01*
X129366376Y-41627188D01*
X129401000Y-41801259D01*
X129401000Y-41978741D01*
X129366376Y-42152812D01*
X129298456Y-42316784D01*
X129199853Y-42464354D01*
X129074354Y-42589853D01*
X128926784Y-42688456D01*
X128762812Y-42756376D01*
X128613512Y-42786073D01*
X128588742Y-42791000D01*
X128411258Y-42791000D01*
X128386488Y-42786073D01*
X128237188Y-42756376D01*
X128073216Y-42688456D01*
X127925646Y-42589853D01*
X127800147Y-42464354D01*
X127701544Y-42316784D01*
X127633624Y-42152812D01*
X127599000Y-41978741D01*
X127599000Y-41801259D01*
X127633624Y-41627188D01*
X127701544Y-41463216D01*
X127800147Y-41315646D01*
X127925646Y-41190147D01*
X128073216Y-41091544D01*
X128237188Y-41023624D01*
X128386488Y-40993927D01*
X128411258Y-40989000D01*
X128588742Y-40989000D01*
X128613512Y-40993927D01*
G37*
G36*
X181701000Y-41001000D02*
G01*
X179899000Y-41001000D01*
X179899000Y-39199000D01*
X181701000Y-39199000D01*
X181701000Y-41001000D01*
G37*
G36*
X169313512Y-38513927D02*
G01*
X169462812Y-38543624D01*
X169626784Y-38611544D01*
X169774354Y-38710147D01*
X169899853Y-38835646D01*
X169998456Y-38983216D01*
X170066376Y-39147188D01*
X170101000Y-39321259D01*
X170101000Y-39498741D01*
X170066376Y-39672812D01*
X169998456Y-39836784D01*
X169899853Y-39984354D01*
X169774354Y-40109853D01*
X169626784Y-40208456D01*
X169462812Y-40276376D01*
X169313512Y-40306073D01*
X169288742Y-40311000D01*
X169111258Y-40311000D01*
X169086488Y-40306073D01*
X168937188Y-40276376D01*
X168773216Y-40208456D01*
X168625646Y-40109853D01*
X168500147Y-39984354D01*
X168401544Y-39836784D01*
X168333624Y-39672812D01*
X168299000Y-39498741D01*
X168299000Y-39321259D01*
X168333624Y-39147188D01*
X168401544Y-38983216D01*
X168500147Y-38835646D01*
X168625646Y-38710147D01*
X168773216Y-38611544D01*
X168937188Y-38543624D01*
X169086488Y-38513927D01*
X169111258Y-38509000D01*
X169288742Y-38509000D01*
X169313512Y-38513927D01*
G37*
G36*
X153613512Y-38453927D02*
G01*
X153762812Y-38483624D01*
X153926784Y-38551544D01*
X154074354Y-38650147D01*
X154199853Y-38775646D01*
X154298456Y-38923216D01*
X154366376Y-39087188D01*
X154401000Y-39261259D01*
X154401000Y-39438741D01*
X154366376Y-39612812D01*
X154298456Y-39776784D01*
X154199853Y-39924354D01*
X154074354Y-40049853D01*
X153926784Y-40148456D01*
X153762812Y-40216376D01*
X153613512Y-40246073D01*
X153588742Y-40251000D01*
X153411258Y-40251000D01*
X153386488Y-40246073D01*
X153237188Y-40216376D01*
X153073216Y-40148456D01*
X152925646Y-40049853D01*
X152800147Y-39924354D01*
X152701544Y-39776784D01*
X152633624Y-39612812D01*
X152599000Y-39438741D01*
X152599000Y-39261259D01*
X152633624Y-39087188D01*
X152701544Y-38923216D01*
X152800147Y-38775646D01*
X152925646Y-38650147D01*
X153073216Y-38551544D01*
X153237188Y-38483624D01*
X153386488Y-38453927D01*
X153411258Y-38449000D01*
X153588742Y-38449000D01*
X153613512Y-38453927D01*
G37*
G36*
X128613512Y-38453927D02*
G01*
X128762812Y-38483624D01*
X128926784Y-38551544D01*
X129074354Y-38650147D01*
X129199853Y-38775646D01*
X129298456Y-38923216D01*
X129366376Y-39087188D01*
X129401000Y-39261259D01*
X129401000Y-39438741D01*
X129366376Y-39612812D01*
X129298456Y-39776784D01*
X129199853Y-39924354D01*
X129074354Y-40049853D01*
X128926784Y-40148456D01*
X128762812Y-40216376D01*
X128613512Y-40246073D01*
X128588742Y-40251000D01*
X128411258Y-40251000D01*
X128386488Y-40246073D01*
X128237188Y-40216376D01*
X128073216Y-40148456D01*
X127925646Y-40049853D01*
X127800147Y-39924354D01*
X127701544Y-39776784D01*
X127633624Y-39612812D01*
X127599000Y-39438741D01*
X127599000Y-39261259D01*
X127633624Y-39087188D01*
X127701544Y-38923216D01*
X127800147Y-38775646D01*
X127925646Y-38650147D01*
X128073216Y-38551544D01*
X128237188Y-38483624D01*
X128386488Y-38453927D01*
X128411258Y-38449000D01*
X128588742Y-38449000D01*
X128613512Y-38453927D01*
G37*
G36*
X180913512Y-36663927D02*
G01*
X181062812Y-36693624D01*
X181226784Y-36761544D01*
X181374354Y-36860147D01*
X181499853Y-36985646D01*
X181598456Y-37133216D01*
X181666376Y-37297188D01*
X181701000Y-37471259D01*
X181701000Y-37648741D01*
X181666376Y-37822812D01*
X181598456Y-37986784D01*
X181499853Y-38134354D01*
X181374354Y-38259853D01*
X181226784Y-38358456D01*
X181062812Y-38426376D01*
X180913512Y-38456073D01*
X180888742Y-38461000D01*
X180711258Y-38461000D01*
X180686488Y-38456073D01*
X180537188Y-38426376D01*
X180373216Y-38358456D01*
X180225646Y-38259853D01*
X180100147Y-38134354D01*
X180001544Y-37986784D01*
X179933624Y-37822812D01*
X179899000Y-37648741D01*
X179899000Y-37471259D01*
X179933624Y-37297188D01*
X180001544Y-37133216D01*
X180100147Y-36985646D01*
X180225646Y-36860147D01*
X180373216Y-36761544D01*
X180537188Y-36693624D01*
X180686488Y-36663927D01*
X180711258Y-36659000D01*
X180888742Y-36659000D01*
X180913512Y-36663927D01*
G37*
G36*
X169313512Y-35973927D02*
G01*
X169462812Y-36003624D01*
X169626784Y-36071544D01*
X169774354Y-36170147D01*
X169899853Y-36295646D01*
X169998456Y-36443216D01*
X170066376Y-36607188D01*
X170101000Y-36781259D01*
X170101000Y-36958741D01*
X170066376Y-37132812D01*
X169998456Y-37296784D01*
X169899853Y-37444354D01*
X169774354Y-37569853D01*
X169626784Y-37668456D01*
X169462812Y-37736376D01*
X169313512Y-37766073D01*
X169288742Y-37771000D01*
X169111258Y-37771000D01*
X169086488Y-37766073D01*
X168937188Y-37736376D01*
X168773216Y-37668456D01*
X168625646Y-37569853D01*
X168500147Y-37444354D01*
X168401544Y-37296784D01*
X168333624Y-37132812D01*
X168299000Y-36958741D01*
X168299000Y-36781259D01*
X168333624Y-36607188D01*
X168401544Y-36443216D01*
X168500147Y-36295646D01*
X168625646Y-36170147D01*
X168773216Y-36071544D01*
X168937188Y-36003624D01*
X169086488Y-35973927D01*
X169111258Y-35969000D01*
X169288742Y-35969000D01*
X169313512Y-35973927D01*
G37*
G36*
X153613512Y-35913927D02*
G01*
X153762812Y-35943624D01*
X153926784Y-36011544D01*
X154074354Y-36110147D01*
X154199853Y-36235646D01*
X154298456Y-36383216D01*
X154366376Y-36547188D01*
X154401000Y-36721259D01*
X154401000Y-36898741D01*
X154366376Y-37072812D01*
X154298456Y-37236784D01*
X154199853Y-37384354D01*
X154074354Y-37509853D01*
X153926784Y-37608456D01*
X153762812Y-37676376D01*
X153613512Y-37706073D01*
X153588742Y-37711000D01*
X153411258Y-37711000D01*
X153386488Y-37706073D01*
X153237188Y-37676376D01*
X153073216Y-37608456D01*
X152925646Y-37509853D01*
X152800147Y-37384354D01*
X152701544Y-37236784D01*
X152633624Y-37072812D01*
X152599000Y-36898741D01*
X152599000Y-36721259D01*
X152633624Y-36547188D01*
X152701544Y-36383216D01*
X152800147Y-36235646D01*
X152925646Y-36110147D01*
X153073216Y-36011544D01*
X153237188Y-35943624D01*
X153386488Y-35913927D01*
X153411258Y-35909000D01*
X153588742Y-35909000D01*
X153613512Y-35913927D01*
G37*
G36*
X128613512Y-35913927D02*
G01*
X128762812Y-35943624D01*
X128926784Y-36011544D01*
X129074354Y-36110147D01*
X129199853Y-36235646D01*
X129298456Y-36383216D01*
X129366376Y-36547188D01*
X129401000Y-36721259D01*
X129401000Y-36898741D01*
X129366376Y-37072812D01*
X129298456Y-37236784D01*
X129199853Y-37384354D01*
X129074354Y-37509853D01*
X128926784Y-37608456D01*
X128762812Y-37676376D01*
X128613512Y-37706073D01*
X128588742Y-37711000D01*
X128411258Y-37711000D01*
X128386488Y-37706073D01*
X128237188Y-37676376D01*
X128073216Y-37608456D01*
X127925646Y-37509853D01*
X127800147Y-37384354D01*
X127701544Y-37236784D01*
X127633624Y-37072812D01*
X127599000Y-36898741D01*
X127599000Y-36721259D01*
X127633624Y-36547188D01*
X127701544Y-36383216D01*
X127800147Y-36235646D01*
X127925646Y-36110147D01*
X128073216Y-36011544D01*
X128237188Y-35943624D01*
X128386488Y-35913927D01*
X128411258Y-35909000D01*
X128588742Y-35909000D01*
X128613512Y-35913927D01*
G37*
G36*
X180913512Y-34123927D02*
G01*
X181062812Y-34153624D01*
X181226784Y-34221544D01*
X181374354Y-34320147D01*
X181499853Y-34445646D01*
X181598456Y-34593216D01*
X181666376Y-34757188D01*
X181701000Y-34931259D01*
X181701000Y-35108741D01*
X181666376Y-35282812D01*
X181598456Y-35446784D01*
X181499853Y-35594354D01*
X181374354Y-35719853D01*
X181226784Y-35818456D01*
X181062812Y-35886376D01*
X180913512Y-35916073D01*
X180888742Y-35921000D01*
X180711258Y-35921000D01*
X180686488Y-35916073D01*
X180537188Y-35886376D01*
X180373216Y-35818456D01*
X180225646Y-35719853D01*
X180100147Y-35594354D01*
X180001544Y-35446784D01*
X179933624Y-35282812D01*
X179899000Y-35108741D01*
X179899000Y-34931259D01*
X179933624Y-34757188D01*
X180001544Y-34593216D01*
X180100147Y-34445646D01*
X180225646Y-34320147D01*
X180373216Y-34221544D01*
X180537188Y-34153624D01*
X180686488Y-34123927D01*
X180711258Y-34119000D01*
X180888742Y-34119000D01*
X180913512Y-34123927D01*
G37*
G36*
X115913512Y-33993927D02*
G01*
X116062812Y-34023624D01*
X116226784Y-34091544D01*
X116374354Y-34190147D01*
X116499853Y-34315646D01*
X116598456Y-34463216D01*
X116666376Y-34627188D01*
X116701000Y-34801259D01*
X116701000Y-34978741D01*
X116666376Y-35152812D01*
X116598456Y-35316784D01*
X116499853Y-35464354D01*
X116374354Y-35589853D01*
X116226784Y-35688456D01*
X116062812Y-35756376D01*
X115913512Y-35786073D01*
X115888742Y-35791000D01*
X115711258Y-35791000D01*
X115686488Y-35786073D01*
X115537188Y-35756376D01*
X115373216Y-35688456D01*
X115225646Y-35589853D01*
X115100147Y-35464354D01*
X115001544Y-35316784D01*
X114933624Y-35152812D01*
X114899000Y-34978741D01*
X114899000Y-34801259D01*
X114933624Y-34627188D01*
X115001544Y-34463216D01*
X115100147Y-34315646D01*
X115225646Y-34190147D01*
X115373216Y-34091544D01*
X115537188Y-34023624D01*
X115686488Y-33993927D01*
X115711258Y-33989000D01*
X115888742Y-33989000D01*
X115913512Y-33993927D01*
G37*
G36*
X153613512Y-33373927D02*
G01*
X153762812Y-33403624D01*
X153926784Y-33471544D01*
X154074354Y-33570147D01*
X154199853Y-33695646D01*
X154298456Y-33843216D01*
X154366376Y-34007188D01*
X154401000Y-34181259D01*
X154401000Y-34358741D01*
X154366376Y-34532812D01*
X154298456Y-34696784D01*
X154199853Y-34844354D01*
X154074354Y-34969853D01*
X153926784Y-35068456D01*
X153762812Y-35136376D01*
X153613512Y-35166073D01*
X153588742Y-35171000D01*
X153411258Y-35171000D01*
X153386488Y-35166073D01*
X153237188Y-35136376D01*
X153073216Y-35068456D01*
X152925646Y-34969853D01*
X152800147Y-34844354D01*
X152701544Y-34696784D01*
X152633624Y-34532812D01*
X152599000Y-34358741D01*
X152599000Y-34181259D01*
X152633624Y-34007188D01*
X152701544Y-33843216D01*
X152800147Y-33695646D01*
X152925646Y-33570147D01*
X153073216Y-33471544D01*
X153237188Y-33403624D01*
X153386488Y-33373927D01*
X153411258Y-33369000D01*
X153588742Y-33369000D01*
X153613512Y-33373927D01*
G37*
G36*
X128613512Y-33373927D02*
G01*
X128762812Y-33403624D01*
X128926784Y-33471544D01*
X129074354Y-33570147D01*
X129199853Y-33695646D01*
X129298456Y-33843216D01*
X129366376Y-34007188D01*
X129401000Y-34181259D01*
X129401000Y-34358741D01*
X129366376Y-34532812D01*
X129298456Y-34696784D01*
X129199853Y-34844354D01*
X129074354Y-34969853D01*
X128926784Y-35068456D01*
X128762812Y-35136376D01*
X128613512Y-35166073D01*
X128588742Y-35171000D01*
X128411258Y-35171000D01*
X128386488Y-35166073D01*
X128237188Y-35136376D01*
X128073216Y-35068456D01*
X127925646Y-34969853D01*
X127800147Y-34844354D01*
X127701544Y-34696784D01*
X127633624Y-34532812D01*
X127599000Y-34358741D01*
X127599000Y-34181259D01*
X127633624Y-34007188D01*
X127701544Y-33843216D01*
X127800147Y-33695646D01*
X127925646Y-33570147D01*
X128073216Y-33471544D01*
X128237188Y-33403624D01*
X128386488Y-33373927D01*
X128411258Y-33369000D01*
X128588742Y-33369000D01*
X128613512Y-33373927D01*
G37*
G36*
X180913512Y-31583927D02*
G01*
X181062812Y-31613624D01*
X181226784Y-31681544D01*
X181374354Y-31780147D01*
X181499853Y-31905646D01*
X181598456Y-32053216D01*
X181666376Y-32217188D01*
X181701000Y-32391259D01*
X181701000Y-32568741D01*
X181666376Y-32742812D01*
X181598456Y-32906784D01*
X181499853Y-33054354D01*
X181374354Y-33179853D01*
X181226784Y-33278456D01*
X181062812Y-33346376D01*
X180913512Y-33376073D01*
X180888742Y-33381000D01*
X180711258Y-33381000D01*
X180686488Y-33376073D01*
X180537188Y-33346376D01*
X180373216Y-33278456D01*
X180225646Y-33179853D01*
X180100147Y-33054354D01*
X180001544Y-32906784D01*
X179933624Y-32742812D01*
X179899000Y-32568741D01*
X179899000Y-32391259D01*
X179933624Y-32217188D01*
X180001544Y-32053216D01*
X180100147Y-31905646D01*
X180225646Y-31780147D01*
X180373216Y-31681544D01*
X180537188Y-31613624D01*
X180686488Y-31583927D01*
X180711258Y-31579000D01*
X180888742Y-31579000D01*
X180913512Y-31583927D01*
G37*
G36*
X103613512Y-31463927D02*
G01*
X103762812Y-31493624D01*
X103926784Y-31561544D01*
X104074354Y-31660147D01*
X104199853Y-31785646D01*
X104298456Y-31933216D01*
X104366376Y-32097188D01*
X104401000Y-32271259D01*
X104401000Y-32448741D01*
X104366376Y-32622812D01*
X104298456Y-32786784D01*
X104199853Y-32934354D01*
X104074354Y-33059853D01*
X103926784Y-33158456D01*
X103762812Y-33226376D01*
X103613512Y-33256073D01*
X103588742Y-33261000D01*
X103411258Y-33261000D01*
X103386488Y-33256073D01*
X103237188Y-33226376D01*
X103073216Y-33158456D01*
X102925646Y-33059853D01*
X102800147Y-32934354D01*
X102701544Y-32786784D01*
X102633624Y-32622812D01*
X102599000Y-32448741D01*
X102599000Y-32271259D01*
X102633624Y-32097188D01*
X102701544Y-31933216D01*
X102800147Y-31785646D01*
X102925646Y-31660147D01*
X103073216Y-31561544D01*
X103237188Y-31493624D01*
X103386488Y-31463927D01*
X103411258Y-31459000D01*
X103588742Y-31459000D01*
X103613512Y-31463927D01*
G37*
G36*
X115913512Y-31453927D02*
G01*
X116062812Y-31483624D01*
X116226784Y-31551544D01*
X116374354Y-31650147D01*
X116499853Y-31775646D01*
X116598456Y-31923216D01*
X116666376Y-32087188D01*
X116701000Y-32261259D01*
X116701000Y-32438741D01*
X116666376Y-32612812D01*
X116598456Y-32776784D01*
X116499853Y-32924354D01*
X116374354Y-33049853D01*
X116226784Y-33148456D01*
X116062812Y-33216376D01*
X115913512Y-33246073D01*
X115888742Y-33251000D01*
X115711258Y-33251000D01*
X115686488Y-33246073D01*
X115537188Y-33216376D01*
X115373216Y-33148456D01*
X115225646Y-33049853D01*
X115100147Y-32924354D01*
X115001544Y-32776784D01*
X114933624Y-32612812D01*
X114899000Y-32438741D01*
X114899000Y-32261259D01*
X114933624Y-32087188D01*
X115001544Y-31923216D01*
X115100147Y-31775646D01*
X115225646Y-31650147D01*
X115373216Y-31551544D01*
X115537188Y-31483624D01*
X115686488Y-31453927D01*
X115711258Y-31449000D01*
X115888742Y-31449000D01*
X115913512Y-31453927D01*
G37*
G36*
X128613512Y-30833927D02*
G01*
X128762812Y-30863624D01*
X128926784Y-30931544D01*
X129074354Y-31030147D01*
X129199853Y-31155646D01*
X129298456Y-31303216D01*
X129366376Y-31467188D01*
X129401000Y-31641259D01*
X129401000Y-31818741D01*
X129366376Y-31992812D01*
X129298456Y-32156784D01*
X129199853Y-32304354D01*
X129074354Y-32429853D01*
X128926784Y-32528456D01*
X128762812Y-32596376D01*
X128613512Y-32626073D01*
X128588742Y-32631000D01*
X128411258Y-32631000D01*
X128386488Y-32626073D01*
X128237188Y-32596376D01*
X128073216Y-32528456D01*
X127925646Y-32429853D01*
X127800147Y-32304354D01*
X127701544Y-32156784D01*
X127633624Y-31992812D01*
X127599000Y-31818741D01*
X127599000Y-31641259D01*
X127633624Y-31467188D01*
X127701544Y-31303216D01*
X127800147Y-31155646D01*
X127925646Y-31030147D01*
X128073216Y-30931544D01*
X128237188Y-30863624D01*
X128386488Y-30833927D01*
X128411258Y-30829000D01*
X128588742Y-30829000D01*
X128613512Y-30833927D01*
G37*
G36*
X153613512Y-30833927D02*
G01*
X153762812Y-30863624D01*
X153926784Y-30931544D01*
X154074354Y-31030147D01*
X154199853Y-31155646D01*
X154298456Y-31303216D01*
X154366376Y-31467188D01*
X154401000Y-31641259D01*
X154401000Y-31818741D01*
X154366376Y-31992812D01*
X154298456Y-32156784D01*
X154199853Y-32304354D01*
X154074354Y-32429853D01*
X153926784Y-32528456D01*
X153762812Y-32596376D01*
X153613512Y-32626073D01*
X153588742Y-32631000D01*
X153411258Y-32631000D01*
X153386488Y-32626073D01*
X153237188Y-32596376D01*
X153073216Y-32528456D01*
X152925646Y-32429853D01*
X152800147Y-32304354D01*
X152701544Y-32156784D01*
X152633624Y-31992812D01*
X152599000Y-31818741D01*
X152599000Y-31641259D01*
X152633624Y-31467188D01*
X152701544Y-31303216D01*
X152800147Y-31155646D01*
X152925646Y-31030147D01*
X153073216Y-30931544D01*
X153237188Y-30863624D01*
X153386488Y-30833927D01*
X153411258Y-30829000D01*
X153588742Y-30829000D01*
X153613512Y-30833927D01*
G37*
G36*
X170301000Y-31051000D02*
G01*
X168499000Y-31051000D01*
X168499000Y-29249000D01*
X170301000Y-29249000D01*
X170301000Y-31051000D01*
G37*
G36*
X180913512Y-29043927D02*
G01*
X181062812Y-29073624D01*
X181226784Y-29141544D01*
X181374354Y-29240147D01*
X181499853Y-29365646D01*
X181598456Y-29513216D01*
X181666376Y-29677188D01*
X181701000Y-29851259D01*
X181701000Y-30028741D01*
X181666376Y-30202812D01*
X181598456Y-30366784D01*
X181499853Y-30514354D01*
X181374354Y-30639853D01*
X181226784Y-30738456D01*
X181062812Y-30806376D01*
X180913512Y-30836073D01*
X180888742Y-30841000D01*
X180711258Y-30841000D01*
X180686488Y-30836073D01*
X180537188Y-30806376D01*
X180373216Y-30738456D01*
X180225646Y-30639853D01*
X180100147Y-30514354D01*
X180001544Y-30366784D01*
X179933624Y-30202812D01*
X179899000Y-30028741D01*
X179899000Y-29851259D01*
X179933624Y-29677188D01*
X180001544Y-29513216D01*
X180100147Y-29365646D01*
X180225646Y-29240147D01*
X180373216Y-29141544D01*
X180537188Y-29073624D01*
X180686488Y-29043927D01*
X180711258Y-29039000D01*
X180888742Y-29039000D01*
X180913512Y-29043927D01*
G37*
G36*
X103613512Y-28923927D02*
G01*
X103762812Y-28953624D01*
X103926784Y-29021544D01*
X104074354Y-29120147D01*
X104199853Y-29245646D01*
X104298456Y-29393216D01*
X104366376Y-29557188D01*
X104401000Y-29731259D01*
X104401000Y-29908741D01*
X104366376Y-30082812D01*
X104298456Y-30246784D01*
X104199853Y-30394354D01*
X104074354Y-30519853D01*
X103926784Y-30618456D01*
X103762812Y-30686376D01*
X103613512Y-30716073D01*
X103588742Y-30721000D01*
X103411258Y-30721000D01*
X103386488Y-30716073D01*
X103237188Y-30686376D01*
X103073216Y-30618456D01*
X102925646Y-30519853D01*
X102800147Y-30394354D01*
X102701544Y-30246784D01*
X102633624Y-30082812D01*
X102599000Y-29908741D01*
X102599000Y-29731259D01*
X102633624Y-29557188D01*
X102701544Y-29393216D01*
X102800147Y-29245646D01*
X102925646Y-29120147D01*
X103073216Y-29021544D01*
X103237188Y-28953624D01*
X103386488Y-28923927D01*
X103411258Y-28919000D01*
X103588742Y-28919000D01*
X103613512Y-28923927D01*
G37*
G36*
X115913512Y-28913927D02*
G01*
X116062812Y-28943624D01*
X116226784Y-29011544D01*
X116374354Y-29110147D01*
X116499853Y-29235646D01*
X116598456Y-29383216D01*
X116666376Y-29547188D01*
X116701000Y-29721259D01*
X116701000Y-29898741D01*
X116666376Y-30072812D01*
X116598456Y-30236784D01*
X116499853Y-30384354D01*
X116374354Y-30509853D01*
X116226784Y-30608456D01*
X116062812Y-30676376D01*
X115913512Y-30706073D01*
X115888742Y-30711000D01*
X115711258Y-30711000D01*
X115686488Y-30706073D01*
X115537188Y-30676376D01*
X115373216Y-30608456D01*
X115225646Y-30509853D01*
X115100147Y-30384354D01*
X115001544Y-30236784D01*
X114933624Y-30072812D01*
X114899000Y-29898741D01*
X114899000Y-29721259D01*
X114933624Y-29547188D01*
X115001544Y-29383216D01*
X115100147Y-29235646D01*
X115225646Y-29110147D01*
X115373216Y-29011544D01*
X115537188Y-28943624D01*
X115686488Y-28913927D01*
X115711258Y-28909000D01*
X115888742Y-28909000D01*
X115913512Y-28913927D01*
G37*
G36*
X128613512Y-28293927D02*
G01*
X128762812Y-28323624D01*
X128926784Y-28391544D01*
X129074354Y-28490147D01*
X129199853Y-28615646D01*
X129298456Y-28763216D01*
X129366376Y-28927188D01*
X129401000Y-29101259D01*
X129401000Y-29278741D01*
X129366376Y-29452812D01*
X129298456Y-29616784D01*
X129199853Y-29764354D01*
X129074354Y-29889853D01*
X128926784Y-29988456D01*
X128762812Y-30056376D01*
X128613512Y-30086073D01*
X128588742Y-30091000D01*
X128411258Y-30091000D01*
X128386488Y-30086073D01*
X128237188Y-30056376D01*
X128073216Y-29988456D01*
X127925646Y-29889853D01*
X127800147Y-29764354D01*
X127701544Y-29616784D01*
X127633624Y-29452812D01*
X127599000Y-29278741D01*
X127599000Y-29101259D01*
X127633624Y-28927188D01*
X127701544Y-28763216D01*
X127800147Y-28615646D01*
X127925646Y-28490147D01*
X128073216Y-28391544D01*
X128237188Y-28323624D01*
X128386488Y-28293927D01*
X128411258Y-28289000D01*
X128588742Y-28289000D01*
X128613512Y-28293927D01*
G37*
G36*
X153613512Y-28293927D02*
G01*
X153762812Y-28323624D01*
X153926784Y-28391544D01*
X154074354Y-28490147D01*
X154199853Y-28615646D01*
X154298456Y-28763216D01*
X154366376Y-28927188D01*
X154401000Y-29101259D01*
X154401000Y-29278741D01*
X154366376Y-29452812D01*
X154298456Y-29616784D01*
X154199853Y-29764354D01*
X154074354Y-29889853D01*
X153926784Y-29988456D01*
X153762812Y-30056376D01*
X153613512Y-30086073D01*
X153588742Y-30091000D01*
X153411258Y-30091000D01*
X153386488Y-30086073D01*
X153237188Y-30056376D01*
X153073216Y-29988456D01*
X152925646Y-29889853D01*
X152800147Y-29764354D01*
X152701544Y-29616784D01*
X152633624Y-29452812D01*
X152599000Y-29278741D01*
X152599000Y-29101259D01*
X152633624Y-28927188D01*
X152701544Y-28763216D01*
X152800147Y-28615646D01*
X152925646Y-28490147D01*
X153073216Y-28391544D01*
X153237188Y-28323624D01*
X153386488Y-28293927D01*
X153411258Y-28289000D01*
X153588742Y-28289000D01*
X153613512Y-28293927D01*
G37*
G36*
X169513512Y-26713927D02*
G01*
X169662812Y-26743624D01*
X169826784Y-26811544D01*
X169974354Y-26910147D01*
X170099853Y-27035646D01*
X170198456Y-27183216D01*
X170266376Y-27347188D01*
X170301000Y-27521259D01*
X170301000Y-27698741D01*
X170266376Y-27872812D01*
X170198456Y-28036784D01*
X170099853Y-28184354D01*
X169974354Y-28309853D01*
X169826784Y-28408456D01*
X169662812Y-28476376D01*
X169513512Y-28506073D01*
X169488742Y-28511000D01*
X169311258Y-28511000D01*
X169286488Y-28506073D01*
X169137188Y-28476376D01*
X168973216Y-28408456D01*
X168825646Y-28309853D01*
X168700147Y-28184354D01*
X168601544Y-28036784D01*
X168533624Y-27872812D01*
X168499000Y-27698741D01*
X168499000Y-27521259D01*
X168533624Y-27347188D01*
X168601544Y-27183216D01*
X168700147Y-27035646D01*
X168825646Y-26910147D01*
X168973216Y-26811544D01*
X169137188Y-26743624D01*
X169286488Y-26713927D01*
X169311258Y-26709000D01*
X169488742Y-26709000D01*
X169513512Y-26713927D01*
G37*
G36*
X180913512Y-26503927D02*
G01*
X181062812Y-26533624D01*
X181226784Y-26601544D01*
X181374354Y-26700147D01*
X181499853Y-26825646D01*
X181598456Y-26973216D01*
X181666376Y-27137188D01*
X181701000Y-27311259D01*
X181701000Y-27488741D01*
X181666376Y-27662812D01*
X181598456Y-27826784D01*
X181499853Y-27974354D01*
X181374354Y-28099853D01*
X181226784Y-28198456D01*
X181062812Y-28266376D01*
X180913512Y-28296073D01*
X180888742Y-28301000D01*
X180711258Y-28301000D01*
X180686488Y-28296073D01*
X180537188Y-28266376D01*
X180373216Y-28198456D01*
X180225646Y-28099853D01*
X180100147Y-27974354D01*
X180001544Y-27826784D01*
X179933624Y-27662812D01*
X179899000Y-27488741D01*
X179899000Y-27311259D01*
X179933624Y-27137188D01*
X180001544Y-26973216D01*
X180100147Y-26825646D01*
X180225646Y-26700147D01*
X180373216Y-26601544D01*
X180537188Y-26533624D01*
X180686488Y-26503927D01*
X180711258Y-26499000D01*
X180888742Y-26499000D01*
X180913512Y-26503927D01*
G37*
G36*
X103613512Y-26383927D02*
G01*
X103762812Y-26413624D01*
X103926784Y-26481544D01*
X104074354Y-26580147D01*
X104199853Y-26705646D01*
X104298456Y-26853216D01*
X104366376Y-27017188D01*
X104401000Y-27191259D01*
X104401000Y-27368741D01*
X104366376Y-27542812D01*
X104298456Y-27706784D01*
X104199853Y-27854354D01*
X104074354Y-27979853D01*
X103926784Y-28078456D01*
X103762812Y-28146376D01*
X103613512Y-28176073D01*
X103588742Y-28181000D01*
X103411258Y-28181000D01*
X103386488Y-28176073D01*
X103237188Y-28146376D01*
X103073216Y-28078456D01*
X102925646Y-27979853D01*
X102800147Y-27854354D01*
X102701544Y-27706784D01*
X102633624Y-27542812D01*
X102599000Y-27368741D01*
X102599000Y-27191259D01*
X102633624Y-27017188D01*
X102701544Y-26853216D01*
X102800147Y-26705646D01*
X102925646Y-26580147D01*
X103073216Y-26481544D01*
X103237188Y-26413624D01*
X103386488Y-26383927D01*
X103411258Y-26379000D01*
X103588742Y-26379000D01*
X103613512Y-26383927D01*
G37*
G36*
X115913512Y-26373927D02*
G01*
X116062812Y-26403624D01*
X116226784Y-26471544D01*
X116374354Y-26570147D01*
X116499853Y-26695646D01*
X116598456Y-26843216D01*
X116666376Y-27007188D01*
X116701000Y-27181259D01*
X116701000Y-27358741D01*
X116666376Y-27532812D01*
X116598456Y-27696784D01*
X116499853Y-27844354D01*
X116374354Y-27969853D01*
X116226784Y-28068456D01*
X116062812Y-28136376D01*
X115913512Y-28166073D01*
X115888742Y-28171000D01*
X115711258Y-28171000D01*
X115686488Y-28166073D01*
X115537188Y-28136376D01*
X115373216Y-28068456D01*
X115225646Y-27969853D01*
X115100147Y-27844354D01*
X115001544Y-27696784D01*
X114933624Y-27532812D01*
X114899000Y-27358741D01*
X114899000Y-27181259D01*
X114933624Y-27007188D01*
X115001544Y-26843216D01*
X115100147Y-26695646D01*
X115225646Y-26570147D01*
X115373216Y-26471544D01*
X115537188Y-26403624D01*
X115686488Y-26373927D01*
X115711258Y-26369000D01*
X115888742Y-26369000D01*
X115913512Y-26373927D01*
G37*
G36*
X129401000Y-27551000D02*
G01*
X127599000Y-27551000D01*
X127599000Y-25749000D01*
X129401000Y-25749000D01*
X129401000Y-27551000D01*
G37*
G36*
X154401000Y-27551000D02*
G01*
X152599000Y-27551000D01*
X152599000Y-25749000D01*
X154401000Y-25749000D01*
X154401000Y-27551000D01*
G37*
G36*
X169513512Y-24173927D02*
G01*
X169662812Y-24203624D01*
X169826784Y-24271544D01*
X169974354Y-24370147D01*
X170099853Y-24495646D01*
X170198456Y-24643216D01*
X170266376Y-24807188D01*
X170301000Y-24981259D01*
X170301000Y-25158741D01*
X170266376Y-25332812D01*
X170198456Y-25496784D01*
X170099853Y-25644354D01*
X169974354Y-25769853D01*
X169826784Y-25868456D01*
X169662812Y-25936376D01*
X169513512Y-25966073D01*
X169488742Y-25971000D01*
X169311258Y-25971000D01*
X169286488Y-25966073D01*
X169137188Y-25936376D01*
X168973216Y-25868456D01*
X168825646Y-25769853D01*
X168700147Y-25644354D01*
X168601544Y-25496784D01*
X168533624Y-25332812D01*
X168499000Y-25158741D01*
X168499000Y-24981259D01*
X168533624Y-24807188D01*
X168601544Y-24643216D01*
X168700147Y-24495646D01*
X168825646Y-24370147D01*
X168973216Y-24271544D01*
X169137188Y-24203624D01*
X169286488Y-24173927D01*
X169311258Y-24169000D01*
X169488742Y-24169000D01*
X169513512Y-24173927D01*
G37*
G36*
X103613512Y-23843927D02*
G01*
X103762812Y-23873624D01*
X103926784Y-23941544D01*
X104074354Y-24040147D01*
X104199853Y-24165646D01*
X104298456Y-24313216D01*
X104366376Y-24477188D01*
X104401000Y-24651259D01*
X104401000Y-24828741D01*
X104366376Y-25002812D01*
X104298456Y-25166784D01*
X104199853Y-25314354D01*
X104074354Y-25439853D01*
X103926784Y-25538456D01*
X103762812Y-25606376D01*
X103613512Y-25636073D01*
X103588742Y-25641000D01*
X103411258Y-25641000D01*
X103386488Y-25636073D01*
X103237188Y-25606376D01*
X103073216Y-25538456D01*
X102925646Y-25439853D01*
X102800147Y-25314354D01*
X102701544Y-25166784D01*
X102633624Y-25002812D01*
X102599000Y-24828741D01*
X102599000Y-24651259D01*
X102633624Y-24477188D01*
X102701544Y-24313216D01*
X102800147Y-24165646D01*
X102925646Y-24040147D01*
X103073216Y-23941544D01*
X103237188Y-23873624D01*
X103386488Y-23843927D01*
X103411258Y-23839000D01*
X103588742Y-23839000D01*
X103613512Y-23843927D01*
G37*
G36*
X115913512Y-23833927D02*
G01*
X116062812Y-23863624D01*
X116226784Y-23931544D01*
X116374354Y-24030147D01*
X116499853Y-24155646D01*
X116598456Y-24303216D01*
X116666376Y-24467188D01*
X116701000Y-24641259D01*
X116701000Y-24818741D01*
X116666376Y-24992812D01*
X116598456Y-25156784D01*
X116499853Y-25304354D01*
X116374354Y-25429853D01*
X116226784Y-25528456D01*
X116062812Y-25596376D01*
X115913512Y-25626073D01*
X115888742Y-25631000D01*
X115711258Y-25631000D01*
X115686488Y-25626073D01*
X115537188Y-25596376D01*
X115373216Y-25528456D01*
X115225646Y-25429853D01*
X115100147Y-25304354D01*
X115001544Y-25156784D01*
X114933624Y-24992812D01*
X114899000Y-24818741D01*
X114899000Y-24641259D01*
X114933624Y-24467188D01*
X115001544Y-24303216D01*
X115100147Y-24155646D01*
X115225646Y-24030147D01*
X115373216Y-23931544D01*
X115537188Y-23863624D01*
X115686488Y-23833927D01*
X115711258Y-23829000D01*
X115888742Y-23829000D01*
X115913512Y-23833927D01*
G37*
G36*
X104401000Y-23101000D02*
G01*
X102599000Y-23101000D01*
X102599000Y-21299000D01*
X104401000Y-21299000D01*
X104401000Y-23101000D01*
G37*
G36*
X115913512Y-21293927D02*
G01*
X116062812Y-21323624D01*
X116226784Y-21391544D01*
X116374354Y-21490147D01*
X116499853Y-21615646D01*
X116598456Y-21763216D01*
X116666376Y-21927188D01*
X116701000Y-22101259D01*
X116701000Y-22278741D01*
X116666376Y-22452812D01*
X116598456Y-22616784D01*
X116499853Y-22764354D01*
X116374354Y-22889853D01*
X116226784Y-22988456D01*
X116062812Y-23056376D01*
X115913512Y-23086073D01*
X115888742Y-23091000D01*
X115711258Y-23091000D01*
X115686488Y-23086073D01*
X115537188Y-23056376D01*
X115373216Y-22988456D01*
X115225646Y-22889853D01*
X115100147Y-22764354D01*
X115001544Y-22616784D01*
X114933624Y-22452812D01*
X114899000Y-22278741D01*
X114899000Y-22101259D01*
X114933624Y-21927188D01*
X115001544Y-21763216D01*
X115100147Y-21615646D01*
X115225646Y-21490147D01*
X115373216Y-21391544D01*
X115537188Y-21323624D01*
X115686488Y-21293927D01*
X115711258Y-21289000D01*
X115888742Y-21289000D01*
X115913512Y-21293927D01*
G37*
G36*
X186975880Y-16259776D02*
G01*
X187356593Y-16335504D01*
X187766249Y-16505189D01*
X188134929Y-16751534D01*
X188448466Y-17065071D01*
X188694811Y-17433751D01*
X188864496Y-17843407D01*
X188951000Y-18278296D01*
X188951000Y-18721704D01*
X188864496Y-19156593D01*
X188694811Y-19566249D01*
X188448466Y-19934929D01*
X188134929Y-20248466D01*
X187766249Y-20494811D01*
X187356593Y-20664496D01*
X186975880Y-20740224D01*
X186921705Y-20751000D01*
X186478295Y-20751000D01*
X186424120Y-20740224D01*
X186043407Y-20664496D01*
X185633751Y-20494811D01*
X185265071Y-20248466D01*
X184951534Y-19934929D01*
X184705189Y-19566249D01*
X184535504Y-19156593D01*
X184449000Y-18721704D01*
X184449000Y-18278296D01*
X184535504Y-17843407D01*
X184705189Y-17433751D01*
X184951534Y-17065071D01*
X185265071Y-16751534D01*
X185633751Y-16505189D01*
X186043407Y-16335504D01*
X186424120Y-16259776D01*
X186478295Y-16249000D01*
X186921705Y-16249000D01*
X186975880Y-16259776D01*
G37*
G36*
X95575880Y-16259776D02*
G01*
X95956593Y-16335504D01*
X96366249Y-16505189D01*
X96734929Y-16751534D01*
X97048466Y-17065071D01*
X97294811Y-17433751D01*
X97464496Y-17843407D01*
X97551000Y-18278296D01*
X97551000Y-18721704D01*
X97464496Y-19156593D01*
X97294811Y-19566249D01*
X97048466Y-19934929D01*
X96734929Y-20248466D01*
X96366249Y-20494811D01*
X95956593Y-20664496D01*
X95575880Y-20740224D01*
X95521705Y-20751000D01*
X95078295Y-20751000D01*
X95024120Y-20740224D01*
X94643407Y-20664496D01*
X94233751Y-20494811D01*
X93865071Y-20248466D01*
X93551534Y-19934929D01*
X93305189Y-19566249D01*
X93135504Y-19156593D01*
X93049000Y-18721704D01*
X93049000Y-18278296D01*
X93135504Y-17843407D01*
X93305189Y-17433751D01*
X93551534Y-17065071D01*
X93865071Y-16751534D01*
X94233751Y-16505189D01*
X94643407Y-16335504D01*
X95024120Y-16259776D01*
X95078295Y-16249000D01*
X95521705Y-16249000D01*
X95575880Y-16259776D01*
G37*
G36*
X116701000Y-20551000D02*
G01*
X114899000Y-20551000D01*
X114899000Y-18749000D01*
X116701000Y-18749000D01*
X116701000Y-20551000D01*
G37*
M02*
