G04 #@! TF.GenerationSoftware,KiCad,Pcbnew,(5.1.5-0-10_14)*
G04 #@! TF.CreationDate,2020-01-27T09:04:13+02:00*
G04 #@! TF.ProjectId,Focaccia-Board_v.0.1,466f6361-6363-4696-912d-426f6172645f,rev?*
G04 #@! TF.SameCoordinates,Original*
G04 #@! TF.FileFunction,Legend,Bot*
G04 #@! TF.FilePolarity,Positive*
%FSLAX46Y46*%
G04 Gerber Fmt 4.6, Leading zero omitted, Abs format (unit mm)*
G04 Created by KiCad (PCBNEW (5.1.5-0-10_14)) date 2020-01-27 09:04:13*
%MOMM*%
%LPD*%
G04 APERTURE LIST*
%ADD10C,0.250000*%
%ADD11C,0.450000*%
G04 APERTURE END LIST*
D10*
X146888095Y-105200000D02*
X146983333Y-105152380D01*
X147126190Y-105152380D01*
X147269047Y-105200000D01*
X147364285Y-105295238D01*
X147411904Y-105390476D01*
X147459523Y-105580952D01*
X147459523Y-105723809D01*
X147411904Y-105914285D01*
X147364285Y-106009523D01*
X147269047Y-106104761D01*
X147126190Y-106152380D01*
X147030952Y-106152380D01*
X146888095Y-106104761D01*
X146840476Y-106057142D01*
X146840476Y-105723809D01*
X147030952Y-105723809D01*
X145983333Y-105485714D02*
X145983333Y-106152380D01*
X146411904Y-105485714D02*
X146411904Y-106009523D01*
X146364285Y-106104761D01*
X146269047Y-106152380D01*
X146126190Y-106152380D01*
X146030952Y-106104761D01*
X145983333Y-106057142D01*
X145078571Y-105485714D02*
X145078571Y-106295238D01*
X145126190Y-106390476D01*
X145173809Y-106438095D01*
X145269047Y-106485714D01*
X145411904Y-106485714D01*
X145507142Y-106438095D01*
X145078571Y-106104761D02*
X145173809Y-106152380D01*
X145364285Y-106152380D01*
X145459523Y-106104761D01*
X145507142Y-106057142D01*
X145554761Y-105961904D01*
X145554761Y-105676190D01*
X145507142Y-105580952D01*
X145459523Y-105533333D01*
X145364285Y-105485714D01*
X145173809Y-105485714D01*
X145078571Y-105533333D01*
X144459523Y-106152380D02*
X144554761Y-106104761D01*
X144602380Y-106009523D01*
X144602380Y-105152380D01*
X144078571Y-106152380D02*
X144078571Y-105485714D01*
X144078571Y-105152380D02*
X144126190Y-105200000D01*
X144078571Y-105247619D01*
X144030952Y-105200000D01*
X144078571Y-105152380D01*
X144078571Y-105247619D01*
X143221428Y-106104761D02*
X143316666Y-106152380D01*
X143507142Y-106152380D01*
X143602380Y-106104761D01*
X143650000Y-106009523D01*
X143650000Y-105628571D01*
X143602380Y-105533333D01*
X143507142Y-105485714D01*
X143316666Y-105485714D01*
X143221428Y-105533333D01*
X143173809Y-105628571D01*
X143173809Y-105723809D01*
X143650000Y-105819047D01*
X142602380Y-106152380D02*
X142697619Y-106104761D01*
X142745238Y-106009523D01*
X142745238Y-105152380D01*
X142221428Y-106152380D02*
X142221428Y-105485714D01*
X142221428Y-105580952D02*
X142173809Y-105533333D01*
X142078571Y-105485714D01*
X141935714Y-105485714D01*
X141840476Y-105533333D01*
X141792857Y-105628571D01*
X141792857Y-106152380D01*
X141792857Y-105628571D02*
X141745238Y-105533333D01*
X141650000Y-105485714D01*
X141507142Y-105485714D01*
X141411904Y-105533333D01*
X141364285Y-105628571D01*
X141364285Y-106152380D01*
X140745238Y-106152380D02*
X140840476Y-106104761D01*
X140888095Y-106057142D01*
X140935714Y-105961904D01*
X140935714Y-105676190D01*
X140888095Y-105580952D01*
X140840476Y-105533333D01*
X140745238Y-105485714D01*
X140602380Y-105485714D01*
X140507142Y-105533333D01*
X140459523Y-105580952D01*
X140411904Y-105676190D01*
X140411904Y-105961904D01*
X140459523Y-106057142D01*
X140507142Y-106104761D01*
X140602380Y-106152380D01*
X140745238Y-106152380D01*
X139221428Y-106152380D02*
X139221428Y-105152380D01*
X138888095Y-105866666D01*
X138554761Y-105152380D01*
X138554761Y-106152380D01*
X137650000Y-106152380D02*
X137650000Y-105628571D01*
X137697619Y-105533333D01*
X137792857Y-105485714D01*
X137983333Y-105485714D01*
X138078571Y-105533333D01*
X137650000Y-106104761D02*
X137745238Y-106152380D01*
X137983333Y-106152380D01*
X138078571Y-106104761D01*
X138126190Y-106009523D01*
X138126190Y-105914285D01*
X138078571Y-105819047D01*
X137983333Y-105771428D01*
X137745238Y-105771428D01*
X137650000Y-105723809D01*
X137173809Y-106152380D02*
X137173809Y-105485714D01*
X137173809Y-105676190D02*
X137126190Y-105580952D01*
X137078571Y-105533333D01*
X136983333Y-105485714D01*
X136888095Y-105485714D01*
X136126190Y-106104761D02*
X136221428Y-106152380D01*
X136411904Y-106152380D01*
X136507142Y-106104761D01*
X136554761Y-106057142D01*
X136602380Y-105961904D01*
X136602380Y-105676190D01*
X136554761Y-105580952D01*
X136507142Y-105533333D01*
X136411904Y-105485714D01*
X136221428Y-105485714D01*
X136126190Y-105533333D01*
X135554761Y-106152380D02*
X135650000Y-106104761D01*
X135697619Y-106057142D01*
X135745238Y-105961904D01*
X135745238Y-105676190D01*
X135697619Y-105580952D01*
X135650000Y-105533333D01*
X135554761Y-105485714D01*
X135411904Y-105485714D01*
X135316666Y-105533333D01*
X135269047Y-105580952D01*
X135221428Y-105676190D01*
X135221428Y-105961904D01*
X135269047Y-106057142D01*
X135316666Y-106104761D01*
X135411904Y-106152380D01*
X135554761Y-106152380D01*
X134792857Y-105485714D02*
X134792857Y-106152380D01*
X134792857Y-105580952D02*
X134745238Y-105533333D01*
X134650000Y-105485714D01*
X134507142Y-105485714D01*
X134411904Y-105533333D01*
X134364285Y-105628571D01*
X134364285Y-106152380D01*
X133888095Y-106152380D02*
X133888095Y-105485714D01*
X133888095Y-105152380D02*
X133935714Y-105200000D01*
X133888095Y-105247619D01*
X133840476Y-105200000D01*
X133888095Y-105152380D01*
X133888095Y-105247619D01*
D11*
X151280952Y-90975000D02*
X151280952Y-90879761D01*
X151185714Y-90689285D01*
X151090476Y-90594047D01*
X152042857Y-90975000D02*
X152042857Y-90879761D01*
X151947619Y-90689285D01*
X151852380Y-90594047D01*
X150328571Y-92879761D02*
X150328571Y-90879761D01*
X149376190Y-91546428D02*
X149376190Y-92879761D01*
X149376190Y-91736904D02*
X149280952Y-91641666D01*
X149090476Y-91546428D01*
X148804761Y-91546428D01*
X148614285Y-91641666D01*
X148519047Y-91832142D01*
X148519047Y-92879761D01*
X146328571Y-91546428D02*
X145566666Y-91546428D01*
X146042857Y-90879761D02*
X146042857Y-92594047D01*
X145947619Y-92784523D01*
X145757142Y-92879761D01*
X145566666Y-92879761D01*
X144900000Y-92879761D02*
X144900000Y-90879761D01*
X144042857Y-92879761D02*
X144042857Y-91832142D01*
X144138095Y-91641666D01*
X144328571Y-91546428D01*
X144614285Y-91546428D01*
X144804761Y-91641666D01*
X144900000Y-91736904D01*
X142328571Y-92784523D02*
X142519047Y-92879761D01*
X142900000Y-92879761D01*
X143090476Y-92784523D01*
X143185714Y-92594047D01*
X143185714Y-91832142D01*
X143090476Y-91641666D01*
X142900000Y-91546428D01*
X142519047Y-91546428D01*
X142328571Y-91641666D01*
X142233333Y-91832142D01*
X142233333Y-92022619D01*
X143185714Y-92213095D01*
X139852380Y-91546428D02*
X139852380Y-92879761D01*
X139852380Y-91736904D02*
X139757142Y-91641666D01*
X139566666Y-91546428D01*
X139280952Y-91546428D01*
X139090476Y-91641666D01*
X138995238Y-91832142D01*
X138995238Y-92879761D01*
X137280952Y-92784523D02*
X137471428Y-92879761D01*
X137852380Y-92879761D01*
X138042857Y-92784523D01*
X138138095Y-92594047D01*
X138138095Y-91832142D01*
X138042857Y-91641666D01*
X137852380Y-91546428D01*
X137471428Y-91546428D01*
X137280952Y-91641666D01*
X137185714Y-91832142D01*
X137185714Y-92022619D01*
X138138095Y-92213095D01*
X136519047Y-91546428D02*
X136138095Y-92879761D01*
X135757142Y-91927380D01*
X135376190Y-92879761D01*
X134995238Y-91546428D01*
X131947619Y-92784523D02*
X132138095Y-92879761D01*
X132519047Y-92879761D01*
X132709523Y-92784523D01*
X132804761Y-92594047D01*
X132804761Y-91832142D01*
X132709523Y-91641666D01*
X132519047Y-91546428D01*
X132138095Y-91546428D01*
X131947619Y-91641666D01*
X131852380Y-91832142D01*
X131852380Y-92022619D01*
X132804761Y-92213095D01*
X130995238Y-92879761D02*
X130995238Y-91546428D01*
X130995238Y-91927380D02*
X130900000Y-91736904D01*
X130804761Y-91641666D01*
X130614285Y-91546428D01*
X130423809Y-91546428D01*
X128900000Y-92879761D02*
X128900000Y-91832142D01*
X128995238Y-91641666D01*
X129185714Y-91546428D01*
X129566666Y-91546428D01*
X129757142Y-91641666D01*
X128900000Y-92784523D02*
X129090476Y-92879761D01*
X129566666Y-92879761D01*
X129757142Y-92784523D01*
X129852380Y-92594047D01*
X129852380Y-92403571D01*
X129757142Y-92213095D01*
X129566666Y-92117857D01*
X129090476Y-92117857D01*
X128900000Y-92022619D01*
X127852380Y-92784523D02*
X127852380Y-92879761D01*
X127947619Y-93070238D01*
X128042857Y-93165476D01*
X150709523Y-94996428D02*
X149947619Y-94996428D01*
X150423809Y-94329761D02*
X150423809Y-96044047D01*
X150328571Y-96234523D01*
X150138095Y-96329761D01*
X149947619Y-96329761D01*
X149280952Y-96329761D02*
X149280952Y-94329761D01*
X148423809Y-96329761D02*
X148423809Y-95282142D01*
X148519047Y-95091666D01*
X148709523Y-94996428D01*
X148995238Y-94996428D01*
X149185714Y-95091666D01*
X149280952Y-95186904D01*
X147185714Y-96329761D02*
X147376190Y-96234523D01*
X147471428Y-96139285D01*
X147566666Y-95948809D01*
X147566666Y-95377380D01*
X147471428Y-95186904D01*
X147376190Y-95091666D01*
X147185714Y-94996428D01*
X146900000Y-94996428D01*
X146709523Y-95091666D01*
X146614285Y-95186904D01*
X146519047Y-95377380D01*
X146519047Y-95948809D01*
X146614285Y-96139285D01*
X146709523Y-96234523D01*
X146900000Y-96329761D01*
X147185714Y-96329761D01*
X144804761Y-94996428D02*
X144804761Y-96329761D01*
X145661904Y-94996428D02*
X145661904Y-96044047D01*
X145566666Y-96234523D01*
X145376190Y-96329761D01*
X145090476Y-96329761D01*
X144900000Y-96234523D01*
X144804761Y-96139285D01*
X142995238Y-94996428D02*
X142995238Y-96615476D01*
X143090476Y-96805952D01*
X143185714Y-96901190D01*
X143376190Y-96996428D01*
X143661904Y-96996428D01*
X143852380Y-96901190D01*
X142995238Y-96234523D02*
X143185714Y-96329761D01*
X143566666Y-96329761D01*
X143757142Y-96234523D01*
X143852380Y-96139285D01*
X143947619Y-95948809D01*
X143947619Y-95377380D01*
X143852380Y-95186904D01*
X143757142Y-95091666D01*
X143566666Y-94996428D01*
X143185714Y-94996428D01*
X142995238Y-95091666D01*
X142042857Y-96329761D02*
X142042857Y-94329761D01*
X141185714Y-96329761D02*
X141185714Y-95282142D01*
X141280952Y-95091666D01*
X141471428Y-94996428D01*
X141757142Y-94996428D01*
X141947619Y-95091666D01*
X142042857Y-95186904D01*
X140519047Y-94996428D02*
X139757142Y-94996428D01*
X140233333Y-94329761D02*
X140233333Y-96044047D01*
X140138095Y-96234523D01*
X139947619Y-96329761D01*
X139757142Y-96329761D01*
X137566666Y-96329761D02*
X137566666Y-94996428D01*
X137566666Y-94329761D02*
X137661904Y-94425000D01*
X137566666Y-94520238D01*
X137471428Y-94425000D01*
X137566666Y-94329761D01*
X137566666Y-94520238D01*
X136900000Y-94996428D02*
X136138095Y-94996428D01*
X136614285Y-94329761D02*
X136614285Y-96044047D01*
X136519047Y-96234523D01*
X136328571Y-96329761D01*
X136138095Y-96329761D01*
X135566666Y-96234523D02*
X135376190Y-96329761D01*
X134995238Y-96329761D01*
X134804761Y-96234523D01*
X134709523Y-96044047D01*
X134709523Y-95948809D01*
X134804761Y-95758333D01*
X134995238Y-95663095D01*
X135280952Y-95663095D01*
X135471428Y-95567857D01*
X135566666Y-95377380D01*
X135566666Y-95282142D01*
X135471428Y-95091666D01*
X135280952Y-94996428D01*
X134995238Y-94996428D01*
X134804761Y-95091666D01*
X133090476Y-96234523D02*
X133280952Y-96329761D01*
X133661904Y-96329761D01*
X133852380Y-96234523D01*
X133947619Y-96044047D01*
X133947619Y-95282142D01*
X133852380Y-95091666D01*
X133661904Y-94996428D01*
X133280952Y-94996428D01*
X133090476Y-95091666D01*
X132995238Y-95282142D01*
X132995238Y-95472619D01*
X133947619Y-95663095D01*
X131852380Y-96329761D02*
X132042857Y-96234523D01*
X132138095Y-96044047D01*
X132138095Y-94329761D01*
X131376190Y-94996428D02*
X130614285Y-94996428D01*
X131090476Y-96329761D02*
X131090476Y-94615476D01*
X130995238Y-94425000D01*
X130804761Y-94329761D01*
X130614285Y-94329761D01*
X154757142Y-98446428D02*
X154376190Y-99779761D01*
X153995238Y-98827380D01*
X153614285Y-99779761D01*
X153233333Y-98446428D01*
X152471428Y-99779761D02*
X152471428Y-98446428D01*
X152471428Y-97779761D02*
X152566666Y-97875000D01*
X152471428Y-97970238D01*
X152376190Y-97875000D01*
X152471428Y-97779761D01*
X152471428Y-97970238D01*
X151233333Y-99779761D02*
X151423809Y-99684523D01*
X151519047Y-99494047D01*
X151519047Y-97779761D01*
X150185714Y-99779761D02*
X150376190Y-99684523D01*
X150471428Y-99494047D01*
X150471428Y-97779761D01*
X147900000Y-99779761D02*
X147900000Y-97779761D01*
X147900000Y-98541666D02*
X147709523Y-98446428D01*
X147328571Y-98446428D01*
X147138095Y-98541666D01*
X147042857Y-98636904D01*
X146947619Y-98827380D01*
X146947619Y-99398809D01*
X147042857Y-99589285D01*
X147138095Y-99684523D01*
X147328571Y-99779761D01*
X147709523Y-99779761D01*
X147900000Y-99684523D01*
X145328571Y-99684523D02*
X145519047Y-99779761D01*
X145900000Y-99779761D01*
X146090476Y-99684523D01*
X146185714Y-99494047D01*
X146185714Y-98732142D01*
X146090476Y-98541666D01*
X145900000Y-98446428D01*
X145519047Y-98446428D01*
X145328571Y-98541666D01*
X145233333Y-98732142D01*
X145233333Y-98922619D01*
X146185714Y-99113095D01*
X143138095Y-98446428D02*
X142376190Y-98446428D01*
X142852380Y-97779761D02*
X142852380Y-99494047D01*
X142757142Y-99684523D01*
X142566666Y-99779761D01*
X142376190Y-99779761D01*
X141709523Y-99779761D02*
X141709523Y-98446428D01*
X141709523Y-98827380D02*
X141614285Y-98636904D01*
X141519047Y-98541666D01*
X141328571Y-98446428D01*
X141138095Y-98446428D01*
X139614285Y-99779761D02*
X139614285Y-98732142D01*
X139709523Y-98541666D01*
X139900000Y-98446428D01*
X140280952Y-98446428D01*
X140471428Y-98541666D01*
X139614285Y-99684523D02*
X139804761Y-99779761D01*
X140280952Y-99779761D01*
X140471428Y-99684523D01*
X140566666Y-99494047D01*
X140566666Y-99303571D01*
X140471428Y-99113095D01*
X140280952Y-99017857D01*
X139804761Y-99017857D01*
X139614285Y-98922619D01*
X138661904Y-98446428D02*
X138661904Y-99779761D01*
X138661904Y-98636904D02*
X138566666Y-98541666D01*
X138376190Y-98446428D01*
X138090476Y-98446428D01*
X137900000Y-98541666D01*
X137804761Y-98732142D01*
X137804761Y-99779761D01*
X136947619Y-99684523D02*
X136757142Y-99779761D01*
X136376190Y-99779761D01*
X136185714Y-99684523D01*
X136090476Y-99494047D01*
X136090476Y-99398809D01*
X136185714Y-99208333D01*
X136376190Y-99113095D01*
X136661904Y-99113095D01*
X136852380Y-99017857D01*
X136947619Y-98827380D01*
X136947619Y-98732142D01*
X136852380Y-98541666D01*
X136661904Y-98446428D01*
X136376190Y-98446428D01*
X136185714Y-98541666D01*
X135233333Y-99779761D02*
X135233333Y-98446428D01*
X135233333Y-98636904D02*
X135138095Y-98541666D01*
X134947619Y-98446428D01*
X134661904Y-98446428D01*
X134471428Y-98541666D01*
X134376190Y-98732142D01*
X134376190Y-99779761D01*
X134376190Y-98732142D02*
X134280952Y-98541666D01*
X134090476Y-98446428D01*
X133804761Y-98446428D01*
X133614285Y-98541666D01*
X133519047Y-98732142D01*
X133519047Y-99779761D01*
X132566666Y-99779761D02*
X132566666Y-98446428D01*
X132566666Y-97779761D02*
X132661904Y-97875000D01*
X132566666Y-97970238D01*
X132471428Y-97875000D01*
X132566666Y-97779761D01*
X132566666Y-97970238D01*
X131900000Y-98446428D02*
X131138095Y-98446428D01*
X131614285Y-97779761D02*
X131614285Y-99494047D01*
X131519047Y-99684523D01*
X131328571Y-99779761D01*
X131138095Y-99779761D01*
X130757142Y-98446428D02*
X129995238Y-98446428D01*
X130471428Y-97779761D02*
X130471428Y-99494047D01*
X130376190Y-99684523D01*
X130185714Y-99779761D01*
X129995238Y-99779761D01*
X128566666Y-99684523D02*
X128757142Y-99779761D01*
X129138095Y-99779761D01*
X129328571Y-99684523D01*
X129423809Y-99494047D01*
X129423809Y-98732142D01*
X129328571Y-98541666D01*
X129138095Y-98446428D01*
X128757142Y-98446428D01*
X128566666Y-98541666D01*
X128471428Y-98732142D01*
X128471428Y-98922619D01*
X129423809Y-99113095D01*
X126757142Y-99779761D02*
X126757142Y-97779761D01*
X126757142Y-99684523D02*
X126947619Y-99779761D01*
X127328571Y-99779761D01*
X127519047Y-99684523D01*
X127614285Y-99589285D01*
X127709523Y-99398809D01*
X127709523Y-98827380D01*
X127614285Y-98636904D01*
X127519047Y-98541666D01*
X127328571Y-98446428D01*
X126947619Y-98446428D01*
X126757142Y-98541666D01*
X146423809Y-103229761D02*
X146423809Y-101229761D01*
X146423809Y-101991666D02*
X146233333Y-101896428D01*
X145852380Y-101896428D01*
X145661904Y-101991666D01*
X145566666Y-102086904D01*
X145471428Y-102277380D01*
X145471428Y-102848809D01*
X145566666Y-103039285D01*
X145661904Y-103134523D01*
X145852380Y-103229761D01*
X146233333Y-103229761D01*
X146423809Y-103134523D01*
X144804761Y-101896428D02*
X144328571Y-103229761D01*
X143852380Y-101896428D02*
X144328571Y-103229761D01*
X144519047Y-103705952D01*
X144614285Y-103801190D01*
X144804761Y-103896428D01*
X141566666Y-103229761D02*
X141566666Y-101896428D01*
X141566666Y-102277380D02*
X141471428Y-102086904D01*
X141376190Y-101991666D01*
X141185714Y-101896428D01*
X140995238Y-101896428D01*
X139471428Y-103229761D02*
X139471428Y-102182142D01*
X139566666Y-101991666D01*
X139757142Y-101896428D01*
X140138095Y-101896428D01*
X140328571Y-101991666D01*
X139471428Y-103134523D02*
X139661904Y-103229761D01*
X140138095Y-103229761D01*
X140328571Y-103134523D01*
X140423809Y-102944047D01*
X140423809Y-102753571D01*
X140328571Y-102563095D01*
X140138095Y-102467857D01*
X139661904Y-102467857D01*
X139471428Y-102372619D01*
X137661904Y-103229761D02*
X137661904Y-101229761D01*
X137661904Y-103134523D02*
X137852380Y-103229761D01*
X138233333Y-103229761D01*
X138423809Y-103134523D01*
X138519047Y-103039285D01*
X138614285Y-102848809D01*
X138614285Y-102277380D01*
X138519047Y-102086904D01*
X138423809Y-101991666D01*
X138233333Y-101896428D01*
X137852380Y-101896428D01*
X137661904Y-101991666D01*
X136709523Y-103229761D02*
X136709523Y-101896428D01*
X136709523Y-101229761D02*
X136804761Y-101325000D01*
X136709523Y-101420238D01*
X136614285Y-101325000D01*
X136709523Y-101229761D01*
X136709523Y-101420238D01*
X135471428Y-103229761D02*
X135661904Y-103134523D01*
X135757142Y-103039285D01*
X135852380Y-102848809D01*
X135852380Y-102277380D01*
X135757142Y-102086904D01*
X135661904Y-101991666D01*
X135471428Y-101896428D01*
X135185714Y-101896428D01*
X134995238Y-101991666D01*
X134900000Y-102086904D01*
X134804761Y-102277380D01*
X134804761Y-102848809D01*
X134900000Y-103039285D01*
X134995238Y-103134523D01*
X135185714Y-103229761D01*
X135471428Y-103229761D01*
X133947619Y-101229761D02*
X133947619Y-101325000D01*
X134042857Y-101515476D01*
X134138095Y-101610714D01*
X133185714Y-101229761D02*
X133185714Y-101325000D01*
X133280952Y-101515476D01*
X133376190Y-101610714D01*
D10*
X178442857Y-17628571D02*
X178442857Y-16128571D01*
X177585714Y-17628571D01*
X177585714Y-16128571D01*
X176657142Y-17628571D02*
X176800000Y-17557142D01*
X176871428Y-17485714D01*
X176942857Y-17342857D01*
X176942857Y-16914285D01*
X176871428Y-16771428D01*
X176800000Y-16700000D01*
X176657142Y-16628571D01*
X176442857Y-16628571D01*
X176300000Y-16700000D01*
X176228571Y-16771428D01*
X176157142Y-16914285D01*
X176157142Y-17342857D01*
X176228571Y-17485714D01*
X176300000Y-17557142D01*
X176442857Y-17628571D01*
X176657142Y-17628571D01*
X174371428Y-17628571D02*
X174371428Y-16128571D01*
X174371428Y-16842857D02*
X173514285Y-16842857D01*
X173514285Y-17628571D02*
X173514285Y-16128571D01*
X172157142Y-17628571D02*
X172157142Y-16842857D01*
X172228571Y-16700000D01*
X172371428Y-16628571D01*
X172657142Y-16628571D01*
X172800000Y-16700000D01*
X172157142Y-17557142D02*
X172300000Y-17628571D01*
X172657142Y-17628571D01*
X172800000Y-17557142D01*
X172871428Y-17414285D01*
X172871428Y-17271428D01*
X172800000Y-17128571D01*
X172657142Y-17057142D01*
X172300000Y-17057142D01*
X172157142Y-16985714D01*
X170800000Y-17557142D02*
X170942857Y-17628571D01*
X171228571Y-17628571D01*
X171371428Y-17557142D01*
X171442857Y-17485714D01*
X171514285Y-17342857D01*
X171514285Y-16914285D01*
X171442857Y-16771428D01*
X171371428Y-16700000D01*
X171228571Y-16628571D01*
X170942857Y-16628571D01*
X170800000Y-16700000D01*
X170157142Y-17628571D02*
X170157142Y-16128571D01*
X170014285Y-17057142D02*
X169585714Y-17628571D01*
X169585714Y-16628571D02*
X170157142Y-17200000D01*
X168371428Y-17557142D02*
X168514285Y-17628571D01*
X168800000Y-17628571D01*
X168942857Y-17557142D01*
X169014285Y-17414285D01*
X169014285Y-16842857D01*
X168942857Y-16700000D01*
X168800000Y-16628571D01*
X168514285Y-16628571D01*
X168371428Y-16700000D01*
X168300000Y-16842857D01*
X168300000Y-16985714D01*
X169014285Y-17128571D01*
X167657142Y-17628571D02*
X167657142Y-16628571D01*
X167657142Y-16914285D02*
X167585714Y-16771428D01*
X167514285Y-16700000D01*
X167371428Y-16628571D01*
X167228571Y-16628571D01*
X166800000Y-17557142D02*
X166657142Y-17628571D01*
X166371428Y-17628571D01*
X166228571Y-17557142D01*
X166157142Y-17414285D01*
X166157142Y-17342857D01*
X166228571Y-17200000D01*
X166371428Y-17128571D01*
X166585714Y-17128571D01*
X166728571Y-17057142D01*
X166800000Y-16914285D01*
X166800000Y-16842857D01*
X166728571Y-16700000D01*
X166585714Y-16628571D01*
X166371428Y-16628571D01*
X166228571Y-16700000D01*
X164514285Y-16628571D02*
X164228571Y-17628571D01*
X163942857Y-16914285D01*
X163657142Y-17628571D01*
X163371428Y-16628571D01*
X162228571Y-17557142D02*
X162371428Y-17628571D01*
X162657142Y-17628571D01*
X162800000Y-17557142D01*
X162871428Y-17414285D01*
X162871428Y-16842857D01*
X162800000Y-16700000D01*
X162657142Y-16628571D01*
X162371428Y-16628571D01*
X162228571Y-16700000D01*
X162157142Y-16842857D01*
X162157142Y-16985714D01*
X162871428Y-17128571D01*
X161514285Y-17628571D02*
X161514285Y-16628571D01*
X161514285Y-16914285D02*
X161442857Y-16771428D01*
X161371428Y-16700000D01*
X161228571Y-16628571D01*
X161085714Y-16628571D01*
X160014285Y-17557142D02*
X160157142Y-17628571D01*
X160442857Y-17628571D01*
X160585714Y-17557142D01*
X160657142Y-17414285D01*
X160657142Y-16842857D01*
X160585714Y-16700000D01*
X160442857Y-16628571D01*
X160157142Y-16628571D01*
X160014285Y-16700000D01*
X159942857Y-16842857D01*
X159942857Y-16985714D01*
X160657142Y-17128571D01*
X158157142Y-17628571D02*
X158157142Y-16128571D01*
X157514285Y-17628571D02*
X157514285Y-16842857D01*
X157585714Y-16700000D01*
X157728571Y-16628571D01*
X157942857Y-16628571D01*
X158085714Y-16700000D01*
X158157142Y-16771428D01*
X156157142Y-17628571D02*
X156157142Y-16842857D01*
X156228571Y-16700000D01*
X156371428Y-16628571D01*
X156657142Y-16628571D01*
X156800000Y-16700000D01*
X156157142Y-17557142D02*
X156300000Y-17628571D01*
X156657142Y-17628571D01*
X156800000Y-17557142D01*
X156871428Y-17414285D01*
X156871428Y-17271428D01*
X156800000Y-17128571D01*
X156657142Y-17057142D01*
X156300000Y-17057142D01*
X156157142Y-16985714D01*
X155442857Y-17628571D02*
X155442857Y-16628571D01*
X155442857Y-16914285D02*
X155371428Y-16771428D01*
X155300000Y-16700000D01*
X155157142Y-16628571D01*
X155014285Y-16628571D01*
X154514285Y-17628571D02*
X154514285Y-16628571D01*
X154514285Y-16771428D02*
X154442857Y-16700000D01*
X154300000Y-16628571D01*
X154085714Y-16628571D01*
X153942857Y-16700000D01*
X153871428Y-16842857D01*
X153871428Y-17628571D01*
X153871428Y-16842857D02*
X153800000Y-16700000D01*
X153657142Y-16628571D01*
X153442857Y-16628571D01*
X153300000Y-16700000D01*
X153228571Y-16842857D01*
X153228571Y-17628571D01*
X151942857Y-17557142D02*
X152085714Y-17628571D01*
X152371428Y-17628571D01*
X152514285Y-17557142D01*
X152585714Y-17414285D01*
X152585714Y-16842857D01*
X152514285Y-16700000D01*
X152371428Y-16628571D01*
X152085714Y-16628571D01*
X151942857Y-16700000D01*
X151871428Y-16842857D01*
X151871428Y-16985714D01*
X152585714Y-17128571D01*
X150585714Y-17628571D02*
X150585714Y-16128571D01*
X150585714Y-17557142D02*
X150728571Y-17628571D01*
X151014285Y-17628571D01*
X151157142Y-17557142D01*
X151228571Y-17485714D01*
X151300000Y-17342857D01*
X151300000Y-16914285D01*
X151228571Y-16771428D01*
X151157142Y-16700000D01*
X151014285Y-16628571D01*
X150728571Y-16628571D01*
X150585714Y-16700000D01*
X148085714Y-17628571D02*
X148085714Y-16128571D01*
X148085714Y-17557142D02*
X148228571Y-17628571D01*
X148514285Y-17628571D01*
X148657142Y-17557142D01*
X148728571Y-17485714D01*
X148800000Y-17342857D01*
X148800000Y-16914285D01*
X148728571Y-16771428D01*
X148657142Y-16700000D01*
X148514285Y-16628571D01*
X148228571Y-16628571D01*
X148085714Y-16700000D01*
X146728571Y-16628571D02*
X146728571Y-17628571D01*
X147371428Y-16628571D02*
X147371428Y-17414285D01*
X147300000Y-17557142D01*
X147157142Y-17628571D01*
X146942857Y-17628571D01*
X146800000Y-17557142D01*
X146728571Y-17485714D01*
X146014285Y-17628571D02*
X146014285Y-16628571D01*
X146014285Y-16914285D02*
X145942857Y-16771428D01*
X145871428Y-16700000D01*
X145728571Y-16628571D01*
X145585714Y-16628571D01*
X145085714Y-17628571D02*
X145085714Y-16628571D01*
X145085714Y-16128571D02*
X145157142Y-16200000D01*
X145085714Y-16271428D01*
X145014285Y-16200000D01*
X145085714Y-16128571D01*
X145085714Y-16271428D01*
X144371428Y-16628571D02*
X144371428Y-17628571D01*
X144371428Y-16771428D02*
X144300000Y-16700000D01*
X144157142Y-16628571D01*
X143942857Y-16628571D01*
X143800000Y-16700000D01*
X143728571Y-16842857D01*
X143728571Y-17628571D01*
X142371428Y-16628571D02*
X142371428Y-17842857D01*
X142442857Y-17985714D01*
X142514285Y-18057142D01*
X142657142Y-18128571D01*
X142871428Y-18128571D01*
X143014285Y-18057142D01*
X142371428Y-17557142D02*
X142514285Y-17628571D01*
X142800000Y-17628571D01*
X142942857Y-17557142D01*
X143014285Y-17485714D01*
X143085714Y-17342857D01*
X143085714Y-16914285D01*
X143014285Y-16771428D01*
X142942857Y-16700000D01*
X142800000Y-16628571D01*
X142514285Y-16628571D01*
X142371428Y-16700000D01*
X140728571Y-16628571D02*
X140157142Y-16628571D01*
X140514285Y-16128571D02*
X140514285Y-17414285D01*
X140442857Y-17557142D01*
X140300000Y-17628571D01*
X140157142Y-17628571D01*
X139657142Y-17628571D02*
X139657142Y-16128571D01*
X139014285Y-17628571D02*
X139014285Y-16842857D01*
X139085714Y-16700000D01*
X139228571Y-16628571D01*
X139442857Y-16628571D01*
X139585714Y-16700000D01*
X139657142Y-16771428D01*
X137728571Y-17557142D02*
X137871428Y-17628571D01*
X138157142Y-17628571D01*
X138300000Y-17557142D01*
X138371428Y-17414285D01*
X138371428Y-16842857D01*
X138300000Y-16700000D01*
X138157142Y-16628571D01*
X137871428Y-16628571D01*
X137728571Y-16700000D01*
X137657142Y-16842857D01*
X137657142Y-16985714D01*
X138371428Y-17128571D01*
X135228571Y-17628571D02*
X135228571Y-16128571D01*
X135228571Y-17557142D02*
X135371428Y-17628571D01*
X135657142Y-17628571D01*
X135800000Y-17557142D01*
X135871428Y-17485714D01*
X135942857Y-17342857D01*
X135942857Y-16914285D01*
X135871428Y-16771428D01*
X135800000Y-16700000D01*
X135657142Y-16628571D01*
X135371428Y-16628571D01*
X135228571Y-16700000D01*
X133942857Y-17557142D02*
X134085714Y-17628571D01*
X134371428Y-17628571D01*
X134514285Y-17557142D01*
X134585714Y-17414285D01*
X134585714Y-16842857D01*
X134514285Y-16700000D01*
X134371428Y-16628571D01*
X134085714Y-16628571D01*
X133942857Y-16700000D01*
X133871428Y-16842857D01*
X133871428Y-16985714D01*
X134585714Y-17128571D01*
X133371428Y-16628571D02*
X133014285Y-17628571D01*
X132657142Y-16628571D01*
X131514285Y-17557142D02*
X131657142Y-17628571D01*
X131942857Y-17628571D01*
X132085714Y-17557142D01*
X132157142Y-17414285D01*
X132157142Y-16842857D01*
X132085714Y-16700000D01*
X131942857Y-16628571D01*
X131657142Y-16628571D01*
X131514285Y-16700000D01*
X131442857Y-16842857D01*
X131442857Y-16985714D01*
X132157142Y-17128571D01*
X130585714Y-17628571D02*
X130728571Y-17557142D01*
X130800000Y-17414285D01*
X130800000Y-16128571D01*
X129800000Y-17628571D02*
X129942857Y-17557142D01*
X130014285Y-17485714D01*
X130085714Y-17342857D01*
X130085714Y-16914285D01*
X130014285Y-16771428D01*
X129942857Y-16700000D01*
X129800000Y-16628571D01*
X129585714Y-16628571D01*
X129442857Y-16700000D01*
X129371428Y-16771428D01*
X129300000Y-16914285D01*
X129300000Y-17342857D01*
X129371428Y-17485714D01*
X129442857Y-17557142D01*
X129585714Y-17628571D01*
X129800000Y-17628571D01*
X128657142Y-16628571D02*
X128657142Y-18128571D01*
X128657142Y-16700000D02*
X128514285Y-16628571D01*
X128228571Y-16628571D01*
X128085714Y-16700000D01*
X128014285Y-16771428D01*
X127942857Y-16914285D01*
X127942857Y-17342857D01*
X128014285Y-17485714D01*
X128085714Y-17557142D01*
X128228571Y-17628571D01*
X128514285Y-17628571D01*
X128657142Y-17557142D01*
X127300000Y-17628571D02*
X127300000Y-16628571D01*
X127300000Y-16771428D02*
X127228571Y-16700000D01*
X127085714Y-16628571D01*
X126871428Y-16628571D01*
X126728571Y-16700000D01*
X126657142Y-16842857D01*
X126657142Y-17628571D01*
X126657142Y-16842857D02*
X126585714Y-16700000D01*
X126442857Y-16628571D01*
X126228571Y-16628571D01*
X126085714Y-16700000D01*
X126014285Y-16842857D01*
X126014285Y-17628571D01*
X124728571Y-17557142D02*
X124871428Y-17628571D01*
X125157142Y-17628571D01*
X125300000Y-17557142D01*
X125371428Y-17414285D01*
X125371428Y-16842857D01*
X125300000Y-16700000D01*
X125157142Y-16628571D01*
X124871428Y-16628571D01*
X124728571Y-16700000D01*
X124657142Y-16842857D01*
X124657142Y-16985714D01*
X125371428Y-17128571D01*
X124014285Y-16628571D02*
X124014285Y-17628571D01*
X124014285Y-16771428D02*
X123942857Y-16700000D01*
X123800000Y-16628571D01*
X123585714Y-16628571D01*
X123442857Y-16700000D01*
X123371428Y-16842857D01*
X123371428Y-17628571D01*
X122871428Y-16628571D02*
X122300000Y-16628571D01*
X122657142Y-16128571D02*
X122657142Y-17414285D01*
X122585714Y-17557142D01*
X122442857Y-17628571D01*
X122300000Y-17628571D01*
X120442857Y-17628571D02*
X120585714Y-17557142D01*
X120657142Y-17485714D01*
X120728571Y-17342857D01*
X120728571Y-16914285D01*
X120657142Y-16771428D01*
X120585714Y-16700000D01*
X120442857Y-16628571D01*
X120228571Y-16628571D01*
X120085714Y-16700000D01*
X120014285Y-16771428D01*
X119942857Y-16914285D01*
X119942857Y-17342857D01*
X120014285Y-17485714D01*
X120085714Y-17557142D01*
X120228571Y-17628571D01*
X120442857Y-17628571D01*
X119514285Y-16628571D02*
X118942857Y-16628571D01*
X119300000Y-17628571D02*
X119300000Y-16342857D01*
X119228571Y-16200000D01*
X119085714Y-16128571D01*
X118942857Y-16128571D01*
X117514285Y-16628571D02*
X116942857Y-16628571D01*
X117300000Y-16128571D02*
X117300000Y-17414285D01*
X117228571Y-17557142D01*
X117085714Y-17628571D01*
X116942857Y-17628571D01*
X116442857Y-17628571D02*
X116442857Y-16128571D01*
X115800000Y-17628571D02*
X115800000Y-16842857D01*
X115871428Y-16700000D01*
X116014285Y-16628571D01*
X116228571Y-16628571D01*
X116371428Y-16700000D01*
X116442857Y-16771428D01*
X115085714Y-17628571D02*
X115085714Y-16628571D01*
X115085714Y-16128571D02*
X115157142Y-16200000D01*
X115085714Y-16271428D01*
X115014285Y-16200000D01*
X115085714Y-16128571D01*
X115085714Y-16271428D01*
X114442857Y-17557142D02*
X114300000Y-17628571D01*
X114014285Y-17628571D01*
X113871428Y-17557142D01*
X113800000Y-17414285D01*
X113800000Y-17342857D01*
X113871428Y-17200000D01*
X114014285Y-17128571D01*
X114228571Y-17128571D01*
X114371428Y-17057142D01*
X114442857Y-16914285D01*
X114442857Y-16842857D01*
X114371428Y-16700000D01*
X114228571Y-16628571D01*
X114014285Y-16628571D01*
X113871428Y-16700000D01*
X112014285Y-17628571D02*
X112014285Y-16128571D01*
X112014285Y-16700000D02*
X111871428Y-16628571D01*
X111585714Y-16628571D01*
X111442857Y-16700000D01*
X111371428Y-16771428D01*
X111300000Y-16914285D01*
X111300000Y-17342857D01*
X111371428Y-17485714D01*
X111442857Y-17557142D01*
X111585714Y-17628571D01*
X111871428Y-17628571D01*
X112014285Y-17557142D01*
X110442857Y-17628571D02*
X110585714Y-17557142D01*
X110657142Y-17485714D01*
X110728571Y-17342857D01*
X110728571Y-16914285D01*
X110657142Y-16771428D01*
X110585714Y-16700000D01*
X110442857Y-16628571D01*
X110228571Y-16628571D01*
X110085714Y-16700000D01*
X110014285Y-16771428D01*
X109942857Y-16914285D01*
X109942857Y-17342857D01*
X110014285Y-17485714D01*
X110085714Y-17557142D01*
X110228571Y-17628571D01*
X110442857Y-17628571D01*
X108657142Y-17628571D02*
X108657142Y-16842857D01*
X108728571Y-16700000D01*
X108871428Y-16628571D01*
X109157142Y-16628571D01*
X109300000Y-16700000D01*
X108657142Y-17557142D02*
X108800000Y-17628571D01*
X109157142Y-17628571D01*
X109300000Y-17557142D01*
X109371428Y-17414285D01*
X109371428Y-17271428D01*
X109300000Y-17128571D01*
X109157142Y-17057142D01*
X108800000Y-17057142D01*
X108657142Y-16985714D01*
X107942857Y-17628571D02*
X107942857Y-16628571D01*
X107942857Y-16914285D02*
X107871428Y-16771428D01*
X107800000Y-16700000D01*
X107657142Y-16628571D01*
X107514285Y-16628571D01*
X106371428Y-17628571D02*
X106371428Y-16128571D01*
X106371428Y-17557142D02*
X106514285Y-17628571D01*
X106800000Y-17628571D01*
X106942857Y-17557142D01*
X107014285Y-17485714D01*
X107085714Y-17342857D01*
X107085714Y-16914285D01*
X107014285Y-16771428D01*
X106942857Y-16700000D01*
X106800000Y-16628571D01*
X106514285Y-16628571D01*
X106371428Y-16700000D01*
X105657142Y-17485714D02*
X105585714Y-17557142D01*
X105657142Y-17628571D01*
X105728571Y-17557142D01*
X105657142Y-17485714D01*
X105657142Y-17628571D01*
M02*
