M48
METRIC,TZ
T1C0.400
T2C0.800
T3C1.000
T4C1.100
T5C2.200
%
G90
G05
T1
X102630Y-37050
X104800Y-37050
X107800Y-40100
X109150Y-31050
X112500Y-65665
X113250Y-63300
X131850Y-38050
X133300Y-37200
X135600Y-42050
X141300Y-27800
X142550Y-81800
X157050Y-80800
X162799Y-72751
X164350Y-60850
X164450Y-39450
X93650Y-18500
X94133Y-17333
X94133Y-19667
X95300Y-16850
X95300Y-20150
X96467Y-17333
X96467Y-19667
X96950Y-18500
X185050Y-18500
X185533Y-17333
X185533Y-19667
X186700Y-16850
X186700Y-20150
X187867Y-17333
X187867Y-19667
X188350Y-18500
X93650Y-109900
X94133Y-108733
X94133Y-111067
X95300Y-108250
X95300Y-111550
X96467Y-108733
X96467Y-111067
X96950Y-109900
X185050Y-109900
X185533Y-108733
X185533Y-111067
X186700Y-108250
X186700Y-111550
X187867Y-108733
X187867Y-111067
X188350Y-109900
T2
X170800Y-70600
X170800Y-73140
X170800Y-75680
X170800Y-78220
X178420Y-70600
X178420Y-73140
X178420Y-75680
X178420Y-78220
T3
X137500Y-55500
X140040Y-55500
X142580Y-55500
X145120Y-55500
X157000Y-95200
X159540Y-95200
X162080Y-95200
X164620Y-95200
X167160Y-95200
X169700Y-95200
X172240Y-95200
X174780Y-95200
X177320Y-95200
X179860Y-95200
X108050Y-62400
X108050Y-64940
X138650Y-62600
X141190Y-62600
X143730Y-62600
X115800Y-19650
X115800Y-22190
X115800Y-24730
X115800Y-27270
X115800Y-29810
X115800Y-32350
X115800Y-34890
X118550Y-62400
X118550Y-64940
X101500Y-88650
X104040Y-88650
X106580Y-88650
X109120Y-88650
X111660Y-88650
X114200Y-88650
X116740Y-88650
X119280Y-88650
X121820Y-88650
X124360Y-88650
X157000Y-101410
X157000Y-103950
X159540Y-101410
X159540Y-103950
X162080Y-101410
X162080Y-103950
X164620Y-101410
X164620Y-103950
X167160Y-101410
X167160Y-103950
X169700Y-101410
X169700Y-103950
X172240Y-101410
X172240Y-103950
X174780Y-101410
X174780Y-103950
X177320Y-101410
X177320Y-103950
X179860Y-101410
X179860Y-103950
X118550Y-75960
X118550Y-78500
X180800Y-27400
X180800Y-29940
X180800Y-32480
X180800Y-35020
X180800Y-37560
X180800Y-40100
X101500Y-101460
X101500Y-104000
X104040Y-101460
X104040Y-104000
X106580Y-101460
X106580Y-104000
X109120Y-101460
X109120Y-104000
X111660Y-101460
X111660Y-104000
X114200Y-101460
X114200Y-104000
X116740Y-101460
X116740Y-104000
X119280Y-101460
X119280Y-104000
X121820Y-101460
X121820Y-104000
X124360Y-101460
X124360Y-104000
X136160Y-75650
X136160Y-78190
X138700Y-75650
X138700Y-78190
X141240Y-75650
X141240Y-78190
X143780Y-75650
X143780Y-78190
X146320Y-75650
X146320Y-78190
X101500Y-95250
X104040Y-95250
X106580Y-95250
X109120Y-95250
X111660Y-95250
X114200Y-95250
X116740Y-95250
X119280Y-95250
X121820Y-95250
X124360Y-95250
X108050Y-75960
X108050Y-78500
X169400Y-25070
X169400Y-27610
X169400Y-30150
X128500Y-26650
X128500Y-29190
X128500Y-31730
X128500Y-34270
X128500Y-36810
X128500Y-39350
X128500Y-41890
X128500Y-44430
X128500Y-46970
X128500Y-49510
X157000Y-88600
X159540Y-88600
X162080Y-88600
X164620Y-88600
X167160Y-88600
X169700Y-88600
X172240Y-88600
X174780Y-88600
X177320Y-88600
X179860Y-88600
X103480Y-43300
X106020Y-43300
X108560Y-43300
X111100Y-43300
X103480Y-52700
X106020Y-52700
X108560Y-52700
X111100Y-52700
X169200Y-36870
X169200Y-39410
X169200Y-41950
X152710Y-62650
X155250Y-62650
X153500Y-26650
X153500Y-29190
X153500Y-31730
X153500Y-34270
X153500Y-36810
X153500Y-39350
X153500Y-41890
X153500Y-44430
X153500Y-46970
X153500Y-49510
X103500Y-22200
X103500Y-24740
X103500Y-27280
X103500Y-29820
X103500Y-32360
T4
X157000Y-109750
X159540Y-109750
X162080Y-109750
X164620Y-109750
X167160Y-109750
X169700Y-109750
X172240Y-109750
X174780Y-109750
X177320Y-109750
X179860Y-109750
X101500Y-109800
X104040Y-109800
X106580Y-109800
X109120Y-109800
X111660Y-109800
X114200Y-109800
X116740Y-109800
X119280Y-109800
X121820Y-109800
X124360Y-109800
T5
X186700Y-109900
X95300Y-18500
X186700Y-18500
X95300Y-109900
T0
M30
